<svg width="12" height="12" viewBox="0 0 12 12" fill="none" xmlns="http://www.w3.org/2000/svg">
<g id="arrow-circle-down" clipPath="url(#clip0_522_5254)">
<path id="Vector" d="M5.80093 7.80851C5.84728 7.85289 5.90195 7.88767 5.96179 7.91088C6.08046 7.95963 6.21358 7.95963 6.33225 7.91088C6.39209 7.88767 6.44675 7.85289 6.49311 7.80851L7.95548 6.34614C8.04727 6.25435 8.09884 6.12986 8.09884 6.00005C8.09884 5.87024 8.04727 5.74574 7.95548 5.65395C7.86369 5.56217 7.7392 5.5106 7.60939 5.5106C7.47958 5.5106 7.35508 5.56217 7.26329 5.65395L6.63447 6.28765V4.53768C6.63447 4.4084 6.58312 4.28441 6.4917 4.193C6.40029 4.10158 6.2763 4.05023 6.14702 4.05023C6.01774 4.05023 5.89375 4.10158 5.80234 4.193C5.71092 4.28441 5.65956 4.4084 5.65956 4.53768V6.28765L5.03075 5.65395C4.98543 5.60827 4.93152 5.572 4.87212 5.54726C4.81271 5.52251 4.749 5.50977 4.68465 5.50977C4.6203 5.50977 4.55659 5.52251 4.49719 5.54726C4.43779 5.572 4.38387 5.60827 4.33856 5.65395C4.29287 5.69927 4.25661 5.75318 4.23186 5.81258C4.20711 5.87199 4.19437 5.9357 4.19437 6.00005C4.19437 6.0644 4.20711 6.12811 4.23186 6.18751C4.25661 6.24691 4.29287 6.30083 4.33856 6.34614L5.80093 7.80851ZM6.14702 10.8746C7.11112 10.8746 8.05356 10.5887 8.85518 10.0531C9.6568 9.51747 10.2816 8.75617 10.6505 7.86546C11.0195 6.97475 11.116 5.99464 10.9279 5.04907C10.7398 4.1035 10.2756 3.23493 9.59385 2.55322C8.91213 1.8715 8.04357 1.40724 7.098 1.21915C6.15243 1.03107 5.17232 1.1276 4.28161 1.49654C3.3909 1.86549 2.6296 2.49027 2.09397 3.29189C1.55835 4.09351 1.27246 5.03595 1.27246 6.00005C1.27246 7.29286 1.78603 8.53272 2.70019 9.44688C3.15283 9.89953 3.6902 10.2586 4.28161 10.5036C4.87301 10.7485 5.50688 10.8746 6.14702 10.8746ZM6.14702 2.1004C6.9183 2.1004 7.67225 2.32911 8.31355 2.75761C8.95484 3.18611 9.45467 3.79515 9.74982 4.50772C10.045 5.22029 10.1222 6.00437 9.97174 6.76083C9.82127 7.51729 9.44986 8.21214 8.90449 8.75751C8.35911 9.30289 7.66426 9.6743 6.9078 9.82476C6.15134 9.97523 5.36726 9.89801 4.65469 9.60285C3.94212 9.3077 3.33308 8.80787 2.90458 8.16658C2.47608 7.52528 2.24737 6.77133 2.24737 6.00005C2.24737 4.9658 2.65823 3.97391 3.38955 3.24258C4.12088 2.51126 5.11277 2.1004 6.14702 2.1004Z" fill="#F8FBFF"/>
</g>
<defs>
<clipPath id="clip0_522_5254">
<rect width="11.6989" height="11.6989" fill="white" transform="translate(0.297607 0.150879)"/>
</clipPath>
</defs>
</svg>
