<svg width="10" height="11" viewBox="0 0 10 11" fill="none" xmlns="http://www.w3.org/2000/svg">
<g id="arrow-up">
<path id="Vector" d="M7.53155 5.26862L5.59315 3.33022C5.55628 3.29493 5.51281 3.26726 5.46522 3.24881C5.37083 3.21003 5.26497 3.21003 5.17058 3.24881C5.12299 3.26726 5.07952 3.29493 5.04265 3.33022L3.10425 5.26862C3.0681 5.30477 3.03943 5.34768 3.01987 5.39491C3.0003 5.44213 2.99023 5.49275 2.99023 5.54387C2.99023 5.64711 3.03125 5.74612 3.10425 5.81912C3.17725 5.89213 3.27626 5.93314 3.3795 5.93314C3.48274 5.93314 3.58175 5.89213 3.65475 5.81912L4.93022 4.53978V7.48227C4.93022 7.58509 4.97106 7.6837 5.04377 7.7564C5.11647 7.82911 5.21508 7.86995 5.3179 7.86995C5.42072 7.86995 5.51933 7.82911 5.59203 7.7564C5.66473 7.6837 5.70558 7.58509 5.70558 7.48227V4.53978L6.98105 5.81912C7.01709 5.85546 7.05996 5.8843 7.1072 5.90398C7.15445 5.92367 7.20512 5.9338 7.2563 5.9338C7.30748 5.9338 7.35815 5.92367 7.40539 5.90398C7.45263 5.8843 7.49551 5.85546 7.53155 5.81912C7.56789 5.78308 7.59673 5.74021 7.61641 5.69296C7.63609 5.64572 7.64623 5.59505 7.64623 5.54387C7.64623 5.49269 7.63609 5.44202 7.61641 5.39478C7.59673 5.34754 7.56789 5.30466 7.53155 5.26862Z" fill="#12D477"/>
</g>
</svg>
