<svg width="12" height="12" viewBox="0 0 12 12" fill="none" xmlns="http://www.w3.org/2000/svg">
<g id="arrow-right">
<path id="Vector" d="M8.92844 5.50221C8.90681 5.44641 8.87437 5.39544 8.83299 5.35221L6.56026 3.07948C6.51788 3.0371 6.46756 3.00348 6.41219 2.98054C6.35682 2.95761 6.29747 2.9458 6.23753 2.9458C6.11648 2.9458 6.0004 2.99389 5.9148 3.07948C5.87242 3.12186 5.8388 3.17217 5.81587 3.22755C5.79293 3.28292 5.78112 3.34227 5.78112 3.40221C5.78112 3.52325 5.82921 3.63934 5.9148 3.72493L7.4148 5.22039H3.9648C3.84425 5.22039 3.72863 5.26828 3.64339 5.35352C3.55814 5.43877 3.51025 5.55438 3.51025 5.67494C3.51025 5.79549 3.55814 5.91111 3.64339 5.99635C3.72863 6.08159 3.84425 6.12948 3.9648 6.12948H7.4148L5.9148 7.62494C5.8722 7.6672 5.83838 7.71747 5.81531 7.77286C5.79223 7.82825 5.78035 7.88766 5.78035 7.94767C5.78035 8.00767 5.79223 8.06708 5.81531 8.12247C5.83838 8.17787 5.8722 8.22814 5.9148 8.27039C5.95706 8.313 6.00733 8.34681 6.06272 8.36989C6.11811 8.39297 6.17752 8.40485 6.23753 8.40485C6.29754 8.40485 6.35695 8.39297 6.41234 8.36989C6.46773 8.34681 6.518 8.313 6.56026 8.27039L8.83299 5.99766C8.87437 5.95444 8.90681 5.90346 8.92844 5.84766C8.97391 5.737 8.97391 5.61287 8.92844 5.50221Z" fill="#F8FBFF"/>
</g>
</svg>
