<svg width="10" height="10" viewBox="0 0 10 10" fill="none" xmlns="http://www.w3.org/2000/svg">
<g id="arrow-down">
<path id="Vector" d="M7.53155 4.67436C7.49551 4.63802 7.45263 4.60918 7.40539 4.5895C7.35815 4.56982 7.30748 4.55969 7.2563 4.55969C7.20512 4.55969 7.15445 4.56982 7.1072 4.5895C7.05996 4.60918 7.01709 4.63802 6.98105 4.67436L5.70558 5.9537V3.01121C5.70558 2.9084 5.66473 2.80979 5.59203 2.73708C5.51933 2.66438 5.42072 2.62354 5.3179 2.62354C5.21508 2.62354 5.11647 2.66438 5.04377 2.73708C4.97106 2.80979 4.93022 2.9084 4.93022 3.01121V5.9537L3.65475 4.67436C3.58175 4.60136 3.48274 4.56035 3.3795 4.56035C3.27626 4.56035 3.17725 4.60136 3.10425 4.67436C3.03125 4.74736 2.99023 4.84637 2.99023 4.94961C2.99023 5.05285 3.03125 5.15186 3.10425 5.22487L5.04265 7.16326C5.07952 7.19856 5.12299 7.22623 5.17058 7.24468C5.21699 7.26519 5.26716 7.27578 5.3179 7.27578C5.36863 7.27578 5.41881 7.26519 5.46522 7.24468C5.51281 7.22623 5.55628 7.19856 5.59315 7.16326L7.53155 5.22487C7.56789 5.18883 7.59673 5.14595 7.61641 5.09871C7.63609 5.05146 7.64623 5.00079 7.64623 4.94961C7.64623 4.89844 7.63609 4.84776 7.61641 4.80052C7.59673 4.75328 7.56789 4.7104 7.53155 4.67436Z" fill="#9C3D3D"/>
</g>
</svg>
