<svg width="12" height="12" viewBox="0 0 12 12" fill="none" xmlns="http://www.w3.org/2000/svg">
<g id="bell">
<path id="Vector" d="M8.51062 6.84794V5.40248C8.50996 4.75845 8.28141 4.13542 7.86544 3.64374C7.44947 3.15206 6.87292 2.82345 6.23789 2.71611V2.22066C6.23789 2.10011 6.19 1.98449 6.10475 1.89925C6.01951 1.814 5.90389 1.76611 5.78334 1.76611C5.66279 1.76611 5.54717 1.814 5.46193 1.89925C5.37668 1.98449 5.32879 2.10011 5.32879 2.22066V2.71611C4.69377 2.82345 4.11721 3.15206 3.70124 3.64374C3.28527 4.13542 3.05672 4.75845 3.05606 5.40248V6.84794C2.79081 6.94172 2.56106 7.11524 2.39831 7.34473C2.23555 7.57421 2.14776 7.84842 2.14697 8.12976V9.03885C2.14697 9.1594 2.19486 9.27502 2.28011 9.36026C2.36535 9.44551 2.48097 9.4934 2.60152 9.4934H4.02879C4.13347 9.87857 4.36198 10.2186 4.67907 10.461C4.99615 10.7034 5.3842 10.8348 5.78334 10.8348C6.18248 10.8348 6.57053 10.7034 6.88762 10.461C7.20471 10.2186 7.43321 9.87857 7.53789 9.4934H8.96516C9.08572 9.4934 9.20133 9.44551 9.28658 9.36026C9.37182 9.27502 9.41971 9.1594 9.41971 9.03885V8.12976C9.41892 7.84842 9.33113 7.57421 9.16837 7.34473C9.00562 7.11524 8.77587 6.94172 8.51062 6.84794V6.84794ZM3.96516 5.40248C3.96516 4.92027 4.15671 4.45781 4.49769 4.11683C4.83867 3.77586 5.30113 3.5843 5.78334 3.5843C6.26555 3.5843 6.72802 3.77586 7.06899 4.11683C7.40997 4.45781 7.60153 4.92027 7.60153 5.40248V6.76612H3.96516V5.40248ZM5.78334 9.94794C5.62469 9.94698 5.46906 9.90453 5.3319 9.82478C5.19474 9.74504 5.08084 9.63079 5.00152 9.4934H6.56516C6.48584 9.63079 6.37194 9.74504 6.23478 9.82478C6.09763 9.90453 5.94199 9.94698 5.78334 9.94794ZM8.51062 8.5843H3.05606V8.12976C3.05606 8.00921 3.10395 7.89359 3.1892 7.80835C3.27444 7.7231 3.39006 7.67521 3.51061 7.67521H8.05607C8.17662 7.67521 8.29224 7.7231 8.37748 7.80835C8.46273 7.89359 8.51062 8.00921 8.51062 8.12976V8.5843Z" fill="#F8FBFF"/>
</g>
</svg>
