<svg width="12" height="12" viewBox="0 0 12 12" fill="none" xmlns="http://www.w3.org/2000/svg">
<g id="calender">
<path id="Vector" d="M8.11604 2.50334V2.73465H8.34734H9.27256C9.57929 2.73465 9.87346 2.8565 10.0903 3.07339C10.3072 3.29028 10.4291 3.58444 10.4291 3.89117V9.44248C10.4291 9.74921 10.3072 10.0434 10.0903 10.2603C9.87346 10.4772 9.57929 10.599 9.27256 10.599H2.79603C2.4893 10.599 2.19514 10.4772 1.97825 10.2603C1.76136 10.0434 1.63951 9.74921 1.63951 9.44248V3.89117C1.63951 3.58444 1.76136 3.29028 1.97825 3.07339C2.19514 2.8565 2.4893 2.73465 2.79603 2.73465H3.72125H3.95255V2.50334V2.04073C3.95255 1.97939 3.97692 1.92056 4.0203 1.87718C4.06368 1.8338 4.12251 1.80943 4.18386 1.80943C4.2452 1.80943 4.30404 1.8338 4.34742 1.87718C4.39079 1.92056 4.41516 1.97939 4.41516 2.04073V2.50334V2.73465H4.64647H7.42212H7.65343V2.50334V2.04073C7.65343 1.97939 7.6778 1.92056 7.72118 1.87718C7.76455 1.8338 7.82339 1.80943 7.88473 1.80943C7.94608 1.80943 8.00491 1.8338 8.04829 1.87718C8.09167 1.92055 8.11604 1.97939 8.11604 2.04073V2.50334ZM2.33342 5.97291H2.10212V6.20422V9.44248C2.10212 9.62652 2.17523 9.80302 2.30536 9.93316C2.43549 10.0633 2.61199 10.1364 2.79603 10.1364H9.27256C9.4566 10.1364 9.6331 10.0633 9.76323 9.93316C9.89337 9.80302 9.96648 9.62652 9.96648 9.44248V6.20422V5.97291H9.73517H2.33342ZM9.73517 5.5103H9.96648V5.279V3.89117C9.96648 3.70713 9.89337 3.53063 9.76323 3.4005C9.6331 3.27037 9.4566 3.19726 9.27256 3.19726H8.34734H8.11604V3.42856V3.89117C8.11604 3.95252 8.09167 4.01135 8.04829 4.05473C8.00491 4.09811 7.94608 4.12248 7.88473 4.12248C7.82339 4.12248 7.76455 4.09811 7.72118 4.05473C7.6778 4.01135 7.65343 3.95252 7.65343 3.89117V3.42856V3.19726H7.42212H4.64647H4.41516V3.42856V3.89117C4.41516 3.95252 4.39079 4.01135 4.34742 4.05473C4.30404 4.09811 4.2452 4.12248 4.18386 4.12248C4.12251 4.12248 4.06368 4.09811 4.0203 4.05473C3.97692 4.01135 3.95255 3.95252 3.95255 3.89117V3.42856V3.19726H3.72125H2.79603C2.61199 3.19726 2.43549 3.27037 2.30536 3.4005C2.17523 3.53063 2.10212 3.70713 2.10212 3.89117V5.279V5.5103H2.33342H9.73517Z" fill="black" stroke="#F8FBFF" stroke-width="0.462609"/>
</g>
</svg>
