<svg width="12" height="12" viewBox="0 0 12 12" fill="none" xmlns="http://www.w3.org/2000/svg">
<g id="change">
<g id="Group 3633">
<path id="Vector" d="M9.88322 3.21067H3.70594L4.75139 2.16976C4.79378 2.12738 4.82739 2.07706 4.85033 2.02169C4.87327 1.96632 4.88507 1.90697 4.88507 1.84703C4.88507 1.78709 4.87327 1.72775 4.85033 1.67237C4.82739 1.617 4.79378 1.56668 4.75139 1.5243C4.70901 1.48192 4.6587 1.4483 4.60333 1.42537C4.54795 1.40243 4.4886 1.39062 4.42867 1.39062C4.36873 1.39063 4.30938 1.40243 4.25401 1.42537C4.19863 1.4483 4.14832 1.48192 4.10594 1.5243L2.28775 3.34249C2.24637 3.38572 2.21393 3.43669 2.1923 3.49249C2.14684 3.60315 2.14684 3.72728 2.1923 3.83794C2.21393 3.89374 2.24637 3.94471 2.28775 3.98794L4.10594 5.80613C4.1482 5.84873 4.19847 5.88255 4.25386 5.90562C4.30925 5.9287 4.36866 5.94058 4.42867 5.94058C4.48867 5.94058 4.54808 5.9287 4.60347 5.90562C4.65887 5.88255 4.70914 5.84873 4.75139 5.80613C4.794 5.76387 4.82781 5.7136 4.85089 5.65821C4.87397 5.60282 4.88585 5.5434 4.88585 5.4834C4.88585 5.42339 4.87397 5.36398 4.85089 5.30859C4.82781 5.2532 4.794 5.20293 4.75139 5.16067L3.70594 4.11976H9.88322C10.0038 4.11976 10.1194 4.07187 10.2046 3.98663C10.2899 3.90138 10.3378 3.78577 10.3378 3.66522C10.3378 3.54466 10.2899 3.42905 10.2046 3.3438C10.1194 3.25856 10.0038 3.21067 9.88322 3.21067Z" fill="#F8FBFF"/>
<path id="Vector_2" d="M2.61483 7.75608H8.79211L7.74665 6.71517C7.70427 6.67279 7.67065 6.62247 7.64772 6.5671C7.62478 6.51173 7.61297 6.45238 7.61297 6.39244C7.61297 6.33251 7.62478 6.27316 7.64772 6.21778C7.67065 6.16241 7.70427 6.11209 7.74665 6.06971C7.78903 6.02733 7.83935 5.99371 7.89472 5.97078C7.95009 5.94784 8.00944 5.93604 8.06938 5.93604C8.12932 5.93604 8.18867 5.94784 8.24404 5.97078C8.29941 5.99371 8.34973 6.02733 8.39211 6.06971L10.2103 7.8879C10.2517 7.93113 10.2841 7.9821 10.3057 8.0379C10.3512 8.14856 10.3512 8.27269 10.3057 8.38335C10.2841 8.43915 10.2517 8.49012 10.2103 8.53335L8.39211 10.3515C8.34985 10.3941 8.29958 10.428 8.24419 10.451C8.1888 10.4741 8.12939 10.486 8.06938 10.486C8.00937 10.486 7.94996 10.4741 7.89457 10.451C7.83918 10.428 7.78891 10.3941 7.74665 10.3515C7.70405 10.3093 7.67023 10.259 7.64716 10.2036C7.62408 10.1482 7.6122 10.0888 7.6122 10.0288C7.6122 9.9688 7.62408 9.90939 7.64716 9.854C7.67023 9.79861 7.70405 9.74834 7.74665 9.70608L8.79211 8.66517H2.61483C2.49427 8.66517 2.37866 8.61728 2.29341 8.53204C2.20817 8.44679 2.16028 8.33118 2.16028 8.21063C2.16028 8.09007 2.20817 7.97446 2.29341 7.88921C2.37866 7.80397 2.49427 7.75608 2.61483 7.75608Z" fill="#F8FBFF"/>
</g>
</g>
</svg>
