<svg width="12" height="13" viewBox="0 0 12 13" fill="none" xmlns="http://www.w3.org/2000/svg">
<g id="check-circle" clip-path="url(#clip0_522_5250)">
<path id="Vector" d="M7.4729 4.93727L5.38172 7.03333L4.57741 6.22902C4.53371 6.178 4.47994 6.13655 4.41946 6.10729C4.35899 6.07804 4.29312 6.06159 4.22598 6.059C4.15885 6.05641 4.09191 6.06772 4.02936 6.09223C3.9668 6.11673 3.90999 6.1539 3.86249 6.20141C3.81498 6.24891 3.77781 6.30573 3.7533 6.36828C3.7288 6.43083 3.71748 6.49778 3.72008 6.56491C3.72267 6.63204 3.73911 6.69791 3.76837 6.75839C3.79763 6.81886 3.83907 6.87264 3.8901 6.91634L5.03562 8.06673C5.08117 8.11191 5.13519 8.14765 5.19458 8.17191C5.25397 8.19617 5.31756 8.20847 5.38172 8.20809C5.50959 8.20756 5.63214 8.15679 5.72293 8.06673L8.16021 5.62945C8.2059 5.58414 8.24217 5.53023 8.26691 5.47082C8.29166 5.41142 8.3044 5.34771 8.3044 5.28336C8.3044 5.21901 8.29166 5.1553 8.26691 5.0959C8.24217 5.03649 8.2059 4.98258 8.16021 4.93727C8.06888 4.84648 7.94534 4.79552 7.81656 4.79552C7.68778 4.79552 7.56423 4.84648 7.4729 4.93727ZM6.14702 1.62744C5.18292 1.62744 4.24048 1.91333 3.43886 2.44895C2.63724 2.98458 2.01246 3.74588 1.64352 4.63659C1.27457 5.5273 1.17804 6.50741 1.36613 7.45298C1.55421 8.39855 2.01847 9.26711 2.70019 9.94883C3.38191 10.6306 4.25047 11.0948 5.19604 11.2829C6.14161 11.471 7.12172 11.3744 8.01243 11.0055C8.90314 10.6366 9.66444 10.0118 10.2001 9.21016C10.7357 8.40854 11.0216 7.4661 11.0216 6.502C11.0216 5.86186 10.8955 5.228 10.6505 4.63659C10.4056 4.04518 10.0465 3.50781 9.59385 3.05517C9.14121 2.60252 8.60384 2.24346 8.01243 1.9985C7.42103 1.75353 6.78716 1.62744 6.14702 1.62744V1.62744ZM6.14702 10.4016C5.37574 10.4016 4.62179 10.1729 3.98049 9.74444C3.3392 9.31594 2.83937 8.7069 2.54422 7.99433C2.24906 7.28176 2.17184 6.49767 2.32231 5.74122C2.47277 4.98476 2.84418 4.28991 3.38955 3.74453C3.93493 3.19916 4.62978 2.82775 5.38624 2.67728C6.1427 2.52682 6.92678 2.60404 7.63935 2.8992C8.35192 3.19435 8.96096 3.69418 9.38946 4.33547C9.81796 4.97677 10.0467 5.73072 10.0467 6.502C10.0467 7.53625 9.63581 8.52814 8.90449 9.25947C8.17316 9.99079 7.18127 10.4016 6.14702 10.4016V10.4016Z" fill="#F8FBFF"/>
</g>
<defs>
<clipPath id="clip0_522_5250">
<rect width="11.6989" height="11.6989" fill="white" transform="translate(0.297607 0.652832)"/>
</clipPath>
</defs>
</svg>
