<svg width="9" height="8" viewBox="0 0 9 8" fill="none" xmlns="http://www.w3.org/2000/svg">
<g id="check">
<path id="Vector" d="M6.43024 2.43925C6.40207 2.41084 6.36855 2.3883 6.33162 2.37291C6.2947 2.35753 6.25509 2.34961 6.21509 2.34961C6.17508 2.34961 6.13547 2.35753 6.09855 2.37291C6.06162 2.3883 6.0281 2.41084 5.99993 2.43925L3.74235 4.69985L2.79387 3.74834C2.76462 3.72008 2.73009 3.69787 2.69226 3.68296C2.65442 3.66805 2.61402 3.66073 2.57336 3.66144C2.5327 3.66214 2.49257 3.67085 2.45528 3.68706C2.41798 3.70327 2.38424 3.72666 2.35599 3.75591C2.32774 3.78516 2.30552 3.81969 2.29061 3.85753C2.2757 3.89536 2.26839 3.93576 2.26909 3.97642C2.26979 4.01708 2.2785 4.05721 2.29471 4.0945C2.31092 4.1318 2.33432 4.16554 2.36357 4.19379L3.5272 5.35743C3.55537 5.38583 3.58889 5.40838 3.62582 5.42376C3.66274 5.43915 3.70235 5.44707 3.74235 5.44707C3.78236 5.44707 3.82197 5.43915 3.85889 5.42376C3.89582 5.40838 3.92934 5.38583 3.95751 5.35743L6.43024 2.8847C6.461 2.85632 6.48554 2.82188 6.50233 2.78355C6.51912 2.74522 6.52779 2.70382 6.52779 2.66197C6.52779 2.62012 6.51912 2.57873 6.50233 2.5404C6.48554 2.50206 6.461 2.46762 6.43024 2.43925V2.43925Z" fill="#1473E4"/>
</g>
</svg>
