<svg width="12" height="13" viewBox="0 0 12 13" fill="none" xmlns="http://www.w3.org/2000/svg">
<g id="close">
<path id="Vector (Stroke)" fill-rule="evenodd" clip-rule="evenodd" d="M9.41647 3.2292C9.60684 3.41956 9.60684 3.7282 9.41647 3.91856L3.567 9.76803C3.37664 9.9584 3.068 9.9584 2.87764 9.76803C2.68727 9.57767 2.68727 9.26903 2.87764 9.07867L8.72711 3.2292C8.91747 3.03883 9.22611 3.03883 9.41647 3.2292Z" fill="#9C3D3D"/>
<path id="Vector (Stroke)_2" fill-rule="evenodd" clip-rule="evenodd" d="M2.87764 3.2292C3.068 3.03883 3.37664 3.03883 3.567 3.2292L9.41647 9.07867C9.60684 9.26903 9.60684 9.57767 9.41647 9.76803C9.22611 9.9584 8.91747 9.9584 8.72711 9.76803L2.87764 3.91856C2.68727 3.7282 2.68727 3.41956 2.87764 3.2292Z" fill="#9C3D3D"/>
</g>
</svg>
