<svg width="13" height="13" viewBox="0 0 13 13" fill="none" xmlns="http://www.w3.org/2000/svg">
<g id="close">
<path id="Vector (Stroke)" fill-rule="evenodd" clip-rule="evenodd" d="M9.99728 3.54463C10.1876 3.73499 10.1876 4.04363 9.99728 4.23399L4.14781 10.0835C3.95745 10.2738 3.64881 10.2738 3.45845 10.0835C3.26808 9.8931 3.26808 9.58446 3.45845 9.3941L9.30792 3.54463C9.49828 3.35426 9.80692 3.35426 9.99728 3.54463Z" fill="#F8FBFF"/>
<path id="Vector (Stroke)_2" fill-rule="evenodd" clip-rule="evenodd" d="M3.45845 3.54463C3.64881 3.35426 3.95745 3.35426 4.14781 3.54463L9.99728 9.3941C10.1876 9.58446 10.1876 9.8931 9.99728 10.0835C9.80692 10.2738 9.49828 10.2738 9.30792 10.0835L3.45845 4.23399C3.26808 4.04363 3.26808 3.73499 3.45845 3.54463Z" fill="#F8FBFF"/>
</g>
</svg>
