<svg width="24" height="24" viewBox="0 0 24 24" fill="none" xmlns="http://www.w3.org/2000/svg">
<path fill-rule="evenodd" clip-rule="evenodd" d="M11 7.12018C8.72745 7.61638 7 9.59319 7 12C7 14.4068 8.72745 16.3836 11 16.8798V18C11 18.5523 11.4477 19 12 19C12.5523 19 13 18.5523 13 18V16.9259C14.0348 16.7501 14.9659 16.2702 15.6895 15.5815C16.0895 15.2007 16.1051 14.5677 15.7243 14.1677C15.3436 13.7677 14.7106 13.752 14.3105 14.1328C13.9498 14.4762 13.502 14.7364 13 14.8785V9.12151C13.502 9.26361 13.9498 9.5238 14.3105 9.86719C14.7106 10.248 15.3436 10.2323 15.7243 9.83231C16.1051 9.43227 16.0895 8.7993 15.6895 8.41852C14.9659 7.72978 14.0348 7.24991 13 7.07409V6C13 5.44772 12.5523 5 12 5C11.4477 5 11 5.44772 11 6V7.12018ZM11 9.19773C9.81903 9.63362 9 10.7392 9 12C9 13.2608 9.81903 14.3664 11 14.8023V9.19773Z" fill="white"/>
<path fill-rule="evenodd" clip-rule="evenodd" d="M12 23C18.0751 23 23 18.0751 23 12C23 5.92487 18.0751 1 12 1C5.92487 1 1 5.92487 1 12C1 18.0751 5.92487 23 12 23ZM12 21C16.9706 21 21 16.9706 21 12C21 7.02944 16.9706 3 12 3C7.02944 3 3 7.02944 3 12C3 16.9706 7.02944 21 12 21Z" fill="white"/>
</svg>
