<svg width="24" height="24" viewBox="0 0 24 24" fill="none" xmlns="http://www.w3.org/2000/svg">
<g clip-path="url(#clip0_124_5134)">
<path d="M23.9783 11.995C23.9783 18.5896 18.6326 23.9353 12.038 23.9353C5.44357 23.9353 0.0976562 18.5896 0.0976562 11.995C0.0976562 5.40048 5.44357 0.0546875 12.038 0.0546875C18.6326 0.0546875 23.9783 5.40048 23.9783 11.995Z" fill="#1BA27A"/>
<path d="M17.6422 6.07617H6.33594V8.80572H10.6243V12.8177H13.3538V8.80572H17.6422V6.07617Z" fill="white"/>
<path d="M12.0144 13.2441C8.46695 13.2441 5.59089 12.6827 5.59089 11.99C5.59089 11.2975 8.46683 10.7359 12.0144 10.7359C15.5619 10.7359 18.4378 11.2975 18.4378 11.99C18.4378 12.6827 15.5619 13.2441 12.0144 13.2441ZM19.227 12.1991C19.227 11.306 15.9978 10.582 12.0144 10.582C8.03113 10.582 4.80176 11.306 4.80176 12.1991C4.80176 12.9856 7.30576 13.6409 10.6238 13.7861V19.5454H13.3532V13.7884C16.6968 13.6477 19.227 12.9897 19.227 12.1991Z" fill="white"/>
<g clip-path="url(#clip1_124_5134)">
<path d="M19 24C21.7614 24 24 21.7614 24 19C24 16.2386 21.7614 14 19 14C16.2386 14 14 16.2386 14 19C14 21.7614 16.2386 24 19 24Z" fill="#627EEA"/>
<path d="M19.1553 15.25V18.0219L21.4981 19.0687L19.1553 15.25Z" fill="white" fill-opacity="0.602"/>
<path d="M19.1556 15.25L16.8125 19.0687L19.1556 18.0219V15.25Z" fill="white"/>
<path d="M19.1553 20.8659V22.7493L21.4996 19.5059L19.1553 20.8659Z" fill="white" fill-opacity="0.602"/>
<path d="M19.1556 22.7493V20.8655L16.8125 19.5059L19.1556 22.7493Z" fill="white"/>
<path d="M19.1553 20.43L21.4981 19.0697L19.1553 18.0234V20.43Z" fill="white" fill-opacity="0.2"/>
<path d="M16.8125 19.0697L19.1556 20.43V18.0234L16.8125 19.0697Z" fill="white" fill-opacity="0.602"/>
</g>
</g>
<defs>
<clipPath id="clip0_124_5134">
<rect width="24" height="24" fill="white"/>
</clipPath>
<clipPath id="clip1_124_5134">
<rect width="10" height="10" fill="white" transform="translate(14 14)"/>
</clipPath>
</defs>
</svg>
