<svg width="24" height="24" viewBox="0 0 24 24" fill="none" xmlns="http://www.w3.org/2000/svg">
<path d="M10.5343 22.6935C10.9873 22.8677 11.4684 22.957 11.9537 22.9571C12.4374 22.9571 12.9214 22.8709 13.3759 22.6958C18.6021 19.6948 22.8878 12.3011 23.1634 6.3047C22.8608 1.42108 15.5359 1.10402 11.9565 1.12595C8.45119 1.10402 1.04606 1.52777 0.75 6.30677C1.02731 12.301 5.31056 19.6916 10.5345 22.6933" fill="#FB255B"/>
<path d="M12.206 1.48047C12.0813 1.48047 11.9604 1.48047 11.8417 1.48122C11.756 1.48122 11.6673 1.48047 11.5773 1.48047C8.13297 1.48047 1.47634 1.89672 1.19922 6.19141C1.32466 8.80066 1.99328 11.619 3.61009 14.2614C6.68078 9.43703 22.926 6.20266 22.05 4.59934C20.3242 1.74559 15.3247 1.48047 12.206 1.48047Z" fill="#EB7A8C"/>
<path d="M11.9157 17.9904L11.942 17.9611C14.2976 15.3811 16.1352 13.3674 18.4906 10.7881C19.2194 9.99033 19.7101 9.56058 19.025 8.72733L17.5974 6.99258L14.0984 6.08789H9.73399L6.23505 6.99258C5.69862 7.64395 5.31612 8.1082 4.78043 8.75958C4.27099 9.3772 4.73974 10.1053 5.27918 10.6965L11.8902 17.9611L11.9157 17.9904Z" fill="white"/>
<path d="M17.5125 7.29297C16.7642 7.81497 15.828 8.04203 14.8776 8.24247C15.3705 8.19897 15.6276 8.17647 16.1211 8.13203C16.4426 8.10353 16.6905 8.06303 16.9161 8.29141L18.0047 9.38828C17.7838 8.98778 17.5628 8.58672 17.3419 8.18547C17.2045 7.93534 17.2 7.94209 17.3239 7.68503C17.3871 7.55509 17.4501 7.42366 17.5125 7.29297ZM6.04015 10.4315C6.62252 10.5609 6.71571 10.5812 7.2979 10.7103C7.6804 10.7945 8.28509 10.7141 8.45721 10.3633L9.08084 9.09203C9.02665 9.95978 8.55865 11.0102 9.55634 11.21L11.3897 11.8502C10.5917 11.787 9.86065 11.5728 9.52934 11.7622C9.13934 11.9838 9.37371 12.3506 9.49034 12.621L11.1244 16.4085C10.086 14.5098 9.18002 13.0477 7.87652 11.8042C7.3459 11.2995 6.72621 10.9453 6.04015 10.4315ZM6.31934 7.29297C6.96771 7.76247 7.95565 8.00659 8.95484 8.24247C8.44934 8.19822 7.94365 8.15322 7.43871 8.10803C7.12559 8.08028 7.12615 8.08028 6.90377 8.30416L5.82715 9.38828C6.06302 8.96003 6.29815 8.53103 6.53496 8.10203C6.6304 7.93009 6.62721 7.93684 6.54321 7.75947C6.46802 7.60384 6.39284 7.44916 6.31934 7.29297ZM11.9365 10.7846L11.913 10.884L11.895 10.7846C11.7988 10.3331 11.7019 9.88084 11.6051 9.42934C11.4925 8.89872 11.5358 8.90997 11.0183 8.75303C10.5645 8.61484 10.1113 8.47741 9.65834 8.34053C11.152 8.6005 12.6794 8.6005 14.1731 8.34053C12.0926 8.97166 12.3919 8.65309 11.9365 10.7846ZM17.9576 10.4317L16.6999 10.7105C16.3174 10.7945 15.7127 10.7143 15.5406 10.3633L14.9179 9.09203C14.9711 9.95978 15.4399 11.0102 14.4422 11.21L12.609 11.8502C13.4061 11.7872 14.1371 11.573 14.4685 11.7622C14.8585 11.984 14.6241 12.3506 14.5076 12.621L12.8734 16.4085C13.9118 14.5098 14.8187 13.0479 16.1215 11.8044C16.6519 11.2995 17.2718 10.9457 17.9576 10.4317Z" fill="#FC255C"/>
</svg>
