<svg width="12" height="12" viewBox="0 0 12 12" fill="none" xmlns="http://www.w3.org/2000/svg">
<g id="exit">
<path id="Vector" d="M9.41997 1.76611H6.23815C5.87649 1.76611 5.52964 1.90978 5.27391 2.16551C5.01818 2.42125 4.87451 2.76809 4.87451 3.12975V4.49339C4.87451 4.61394 4.9224 4.72956 5.00765 4.8148C5.09289 4.90005 5.2085 4.94794 5.32906 4.94794C5.44961 4.94794 5.56523 4.90005 5.65047 4.8148C5.73571 4.72956 5.7836 4.61394 5.7836 4.49339V3.12975C5.7836 3.0092 5.83149 2.89358 5.91674 2.80834C6.00198 2.72309 6.1176 2.67521 6.23815 2.67521H9.41997C9.54053 2.67521 9.65614 2.72309 9.74138 2.80834C9.82663 2.89358 9.87452 3.0092 9.87452 3.12975V9.4934C9.87452 9.61395 9.82663 9.72956 9.74138 9.81481C9.65614 9.90005 9.54053 9.94794 9.41997 9.94794H6.23815C6.1176 9.94794 6.00198 9.90005 5.91674 9.81481C5.83149 9.72956 5.7836 9.61395 5.7836 9.4934V8.12976C5.7836 8.0092 5.73571 7.89359 5.65047 7.80835C5.56523 7.7231 5.44961 7.67521 5.32906 7.67521C5.2085 7.67521 5.09289 7.7231 5.00765 7.80835C4.9224 7.89359 4.87451 8.0092 4.87451 8.12976V9.4934C4.87451 9.85506 5.01818 10.2019 5.27391 10.4576C5.52964 10.7134 5.87649 10.857 6.23815 10.857H9.41997C9.78163 10.857 10.1285 10.7134 10.3842 10.4576C10.6399 10.2019 10.7836 9.85506 10.7836 9.4934V3.12975C10.7836 2.76809 10.6399 2.42125 10.3842 2.16551C10.1285 1.90978 9.78163 1.76611 9.41997 1.76611Z" fill="#F8FBFF"/>
<path id="Vector_2" d="M7.92107 6.63507C8.00631 6.54982 8.0542 6.43421 8.0542 6.31365C8.0542 6.1931 8.00631 6.07748 7.92107 5.99224C7.83582 5.907 7.72021 5.85911 7.59965 5.85911H2.78601L3.83147 4.8182C3.87385 4.77581 3.90747 4.7255 3.9304 4.67013C3.95334 4.61475 3.96514 4.5554 3.96514 4.49547C3.96514 4.43553 3.95334 4.37618 3.9304 4.32081C3.90747 4.26544 3.87385 4.21512 3.83147 4.17274C3.78909 4.13036 3.73877 4.09674 3.6834 4.0738C3.62802 4.05087 3.56868 4.03906 3.50874 4.03906C3.4488 4.03906 3.38945 4.05087 3.33408 4.0738C3.27871 4.09674 3.22839 4.13036 3.18601 4.17274L1.36783 5.99092C1.32645 6.03415 1.29401 6.08513 1.27237 6.14093C1.22691 6.25159 1.22691 6.37572 1.27237 6.48638C1.29401 6.54218 1.32645 6.59315 1.36783 6.63638L3.18601 8.45456C3.22827 8.49717 3.27854 8.53098 3.33393 8.55406C3.38932 8.57714 3.44873 8.58902 3.50874 8.58902C3.56874 8.58902 3.62816 8.57714 3.68355 8.55406C3.73894 8.53098 3.78921 8.49717 3.83147 8.45456C3.87407 8.41231 3.90789 8.36204 3.93096 8.30664C3.95404 8.25125 3.96592 8.19184 3.96592 8.13184C3.96592 8.07183 3.95404 8.01242 3.93096 7.95703C3.90789 7.90164 3.87407 7.85137 3.83147 7.80911L2.78601 6.7682H7.59965C7.72021 6.7682 7.83582 6.72031 7.92107 6.63507Z" fill="#F8FBFF"/>
</g>
</svg>
