<svg width="11" height="12" viewBox="0 0 11 12" fill="none" xmlns="http://www.w3.org/2000/svg">
<g id="export" clip-path="url(#clip0_471_5332)">
<path id="Vector" d="M4.03291 3.6137L5.07382 2.56824V6.92734C5.07382 7.04789 5.12171 7.16351 5.20696 7.24875C5.2922 7.334 5.40782 7.38189 5.52837 7.38189C5.64892 7.38189 5.76454 7.334 5.84978 7.24875C5.93503 7.16351 5.98292 7.04789 5.98292 6.92734V2.56824L7.02383 3.6137C7.06608 3.6563 7.11636 3.69012 7.17175 3.7132C7.22714 3.73627 7.28655 3.74815 7.34655 3.74815C7.40656 3.74815 7.46597 3.73627 7.52136 3.7132C7.57675 3.69012 7.62703 3.6563 7.66928 3.6137C7.71189 3.57144 7.7457 3.52117 7.76878 3.46578C7.79186 3.41039 7.80374 3.35098 7.80374 3.29097C7.80374 3.23097 7.79186 3.17155 7.76878 3.11616C7.7457 3.06077 7.71189 3.0105 7.66928 2.96824L5.8511 1.15006C5.80787 1.10868 5.75689 1.07624 5.7011 1.0546C5.59043 1.00914 5.46631 1.00914 5.35564 1.0546C5.29985 1.07624 5.24887 1.10868 5.20564 1.15006L3.38746 2.96824C3.34508 3.01062 3.31146 3.06094 3.28852 3.11631C3.26559 3.17169 3.25378 3.23104 3.25378 3.29097C3.25378 3.35091 3.26559 3.41026 3.28852 3.46563C3.31146 3.521 3.34508 3.57132 3.38746 3.6137C3.42984 3.65608 3.48015 3.6897 3.53553 3.71264C3.5909 3.73557 3.65025 3.74738 3.71019 3.74738C3.77012 3.74738 3.82947 3.73557 3.88485 3.71264C3.94022 3.6897 3.99053 3.65608 4.03291 3.6137ZM9.61928 6.47279C9.49873 6.47279 9.38312 6.52068 9.29787 6.60593C9.21263 6.69117 9.16474 6.80679 9.16474 6.92734V8.74552C9.16474 8.86608 9.11685 8.98169 9.03161 9.06694C8.94636 9.15218 8.83075 9.20007 8.71019 9.20007H2.34655C2.226 9.20007 2.11038 9.15218 2.02514 9.06694C1.93989 8.98169 1.892 8.86608 1.892 8.74552V6.92734C1.892 6.80679 1.84411 6.69117 1.75887 6.60593C1.67362 6.52068 1.55801 6.47279 1.43746 6.47279C1.3169 6.47279 1.20129 6.52068 1.11604 6.60593C1.0308 6.69117 0.98291 6.80679 0.98291 6.92734V8.74552C0.98291 9.10718 1.12658 9.45403 1.38231 9.70976C1.63804 9.96549 1.98489 10.1092 2.34655 10.1092H8.71019C9.07185 10.1092 9.4187 9.96549 9.67443 9.70976C9.93016 9.45403 10.0738 9.10718 10.0738 8.74552V6.92734C10.0738 6.80679 10.0259 6.69117 9.9407 6.60593C9.85545 6.52068 9.73984 6.47279 9.61928 6.47279Z" fill="#F8FBFF"/>
</g>
<defs>
<clipPath id="clip0_471_5332">
<rect width="10.9091" height="10.9091" fill="white" transform="translate(0.0742188 0.109375)"/>
</clipPath>
</defs>
</svg>
