<svg width="12" height="12" viewBox="0 0 12 12" fill="none" xmlns="http://www.w3.org/2000/svg">
<g id="filter">
<path id="Vector" d="M8.98656 1.01855H2.62292C2.26126 1.01855 1.91441 1.16222 1.65868 1.41796C1.40295 1.67369 1.25928 2.02053 1.25928 2.38219V2.91401C1.25921 3.10171 1.2979 3.28741 1.37291 3.45947V3.48674C1.43713 3.63264 1.52809 3.76522 1.6411 3.87765L4.4411 6.65947V9.65493C4.44095 9.73218 4.46048 9.80819 4.49786 9.87579C4.53524 9.94339 4.58923 10.0004 4.65474 10.0413C4.72707 10.0861 4.81054 10.1097 4.89565 10.1095C4.9668 10.109 5.03686 10.0919 5.10019 10.0595L6.91838 9.15038C6.99334 9.11261 7.05637 9.05482 7.1005 8.98341C7.14463 8.91201 7.16812 8.82978 7.16838 8.74584V6.65947L9.9502 3.87765C10.0632 3.76522 10.1542 3.63264 10.2184 3.48674V3.45947C10.2997 3.28875 10.3445 3.103 10.3502 2.91401V2.38219C10.3502 2.02053 10.2065 1.67369 9.9508 1.41796C9.69507 1.16222 9.34822 1.01855 8.98656 1.01855ZM6.3911 6.15038C6.34897 6.19285 6.31564 6.24322 6.29302 6.2986C6.2704 6.35398 6.25894 6.41329 6.25928 6.47311V8.46402L5.35019 8.91856V6.47311C5.35054 6.41329 5.33907 6.35398 5.31645 6.2986C5.29383 6.24322 5.2605 6.19285 5.21837 6.15038L2.80928 3.74583H8.8002L6.3911 6.15038ZM9.44111 2.83674H2.16837V2.38219C2.16837 2.26164 2.21626 2.14602 2.3015 2.06078C2.38675 1.97554 2.50236 1.92765 2.62292 1.92765H8.98656C9.10711 1.92765 9.22273 1.97554 9.30797 2.06078C9.39322 2.14602 9.44111 2.26164 9.44111 2.38219V2.83674Z" fill="#F8FBFF"/>
</g>
</svg>
