<svg width="10" height="10" viewBox="0 0 10 10" fill="none" xmlns="http://www.w3.org/2000/svg">
<g id="graph-bar" clip-path="url(#clip0_431_17250)">
<path id="Vector" d="M2.5049 5.45453H0.970902C0.869192 5.45453 0.771647 5.49494 0.699727 5.56686C0.627807 5.63878 0.587402 5.73632 0.587402 5.83803V8.90603C0.587402 9.00774 0.627807 9.10529 0.699727 9.17721C0.771647 9.24913 0.869192 9.28953 0.970902 9.28953H2.5049C2.60661 9.28953 2.70416 9.24913 2.77608 9.17721C2.848 9.10529 2.8884 9.00774 2.8884 8.90603V5.83803C2.8884 5.73632 2.848 5.63878 2.77608 5.56686C2.70416 5.49494 2.60661 5.45453 2.5049 5.45453ZM2.1214 8.52253H1.3544V6.22153H2.1214V8.52253ZM8.64089 3.92054H7.1069C7.00519 3.92054 6.90764 3.96094 6.83572 4.03286C6.7638 4.10478 6.7234 4.20233 6.7234 4.30404V8.90603C6.7234 9.00774 6.7638 9.10529 6.83572 9.17721C6.90764 9.24913 7.00519 9.28953 7.1069 9.28953H8.64089C8.7426 9.28953 8.84015 9.24913 8.91207 9.17721C8.98399 9.10529 9.02439 9.00774 9.02439 8.90603V4.30404C9.02439 4.20233 8.98399 4.10478 8.91207 4.03286C8.84015 3.96094 8.7426 3.92054 8.64089 3.92054ZM8.25739 8.52253H7.4904V4.68754H8.25739V8.52253ZM5.5729 0.852539H4.0389C3.93719 0.852539 3.83964 0.892943 3.76772 0.964863C3.6958 1.03678 3.6554 1.13433 3.6554 1.23604V8.90603C3.6554 9.00774 3.6958 9.10529 3.76772 9.17721C3.83964 9.24913 3.93719 9.28953 4.0389 9.28953H5.5729C5.67461 9.28953 5.77215 9.24913 5.84407 9.17721C5.91599 9.10529 5.9564 9.00774 5.9564 8.90603V1.23604C5.9564 1.13433 5.91599 1.03678 5.84407 0.964863C5.77215 0.892943 5.67461 0.852539 5.5729 0.852539ZM5.1894 8.52253H4.4224V1.61954H5.1894V8.52253Z" fill="#707E8F"/>
</g>
<defs>
<clipPath id="clip0_431_17250">
<rect width="9.20399" height="9.20399" fill="white" transform="translate(0.204102 0.469238)"/>
</clipPath>
</defs>
</svg>
