<svg width="80" height="80" viewBox="0 0 80 80" fill="none" xmlns="http://www.w3.org/2000/svg">
<path d="M49.067 29.2994L34.767 43.6327L29.267 38.1327C28.9682 37.7837 28.6005 37.5003 28.1869 37.3003C27.7734 37.1002 27.3229 36.9878 26.8639 36.97C26.4048 36.9523 25.947 37.0296 25.5193 37.1972C25.0915 37.3648 24.703 37.619 24.3782 37.9438C24.0533 38.2687 23.7991 38.6572 23.6315 39.0849C23.464 39.5127 23.3866 39.9705 23.4043 40.4295C23.4221 40.8886 23.5345 41.339 23.7346 41.7526C23.9347 42.1661 24.2181 42.5339 24.567 42.8327L32.4003 50.6994C32.7118 51.0083 33.0812 51.2527 33.4873 51.4186C33.8934 51.5845 34.3283 51.6686 34.767 51.666C35.6415 51.6623 36.4795 51.3152 37.1003 50.6994L53.767 34.0327C54.0794 33.7228 54.3274 33.3541 54.4966 32.9479C54.6659 32.5417 54.753 32.1061 54.753 31.666C54.753 31.226 54.6659 30.7903 54.4966 30.3841C54.3274 29.9779 54.0794 29.6092 53.767 29.2994C53.1425 28.6785 52.2976 28.33 51.417 28.33C50.5364 28.33 49.6916 28.6785 49.067 29.2994ZM40.0003 6.66602C33.4076 6.66602 26.963 8.62098 21.4813 12.2837C15.9997 15.9464 11.7273 21.1524 9.20436 27.2432C6.68143 33.3341 6.02132 40.0363 7.3075 46.5024C8.59367 52.9684 11.7684 58.9078 16.4301 63.5696C21.0919 68.2313 27.0313 71.406 33.4973 72.6922C39.9634 73.9784 46.6656 73.3183 52.7565 70.7953C58.8473 68.2724 64.0533 64 67.716 58.5184C71.3787 53.0367 73.3337 46.5921 73.3337 39.9994C73.3337 35.622 72.4715 31.2874 70.7963 27.2432C69.1212 23.199 66.6658 19.5244 63.5706 16.4291C60.4753 13.3338 56.8006 10.8785 52.7565 9.20336C48.7123 7.52821 44.3777 6.66602 40.0003 6.66602ZM40.0003 66.666C34.7262 66.666 29.5704 65.102 25.1851 62.1719C20.7998 59.2417 17.3819 55.0769 15.3636 50.2042C13.3452 45.3315 12.8171 39.9698 13.8461 34.7969C14.875 29.6241 17.4148 24.8726 21.1442 21.1432C24.8736 17.4138 29.6251 14.874 34.7979 13.8451C39.9708 12.8161 45.3325 13.3442 50.2052 15.3626C55.0779 17.3809 59.2427 20.7988 62.1729 25.1841C65.103 29.5695 66.667 34.7252 66.667 39.9994C66.667 47.0718 63.8575 53.8546 58.8565 58.8555C53.8556 63.8565 47.0728 66.666 40.0003 66.666Z" fill="#0D9C57"/>
</svg>
