<svg width="11" height="12" viewBox="0 0 11 12" fill="none" xmlns="http://www.w3.org/2000/svg">
<g id="info-circle" clip-path="url(#clip0_522_13418)">
<path id="Vector" d="M5.67062 1.53809C4.80408 1.53809 3.95699 1.79505 3.23649 2.27647C2.51599 2.75789 1.95443 3.44216 1.62282 4.24274C1.2912 5.04332 1.20444 5.92425 1.37349 6.77414C1.54255 7.62403 1.95983 8.40471 2.57256 9.01745C3.1853 9.63018 3.96598 10.0475 4.81587 10.2165C5.66576 10.3856 6.54669 10.2988 7.34727 9.96719C8.14785 9.63558 8.83212 9.07402 9.31354 8.35352C9.79496 7.63301 10.0519 6.78593 10.0519 5.91939C10.0506 4.75779 9.58862 3.64414 8.76724 2.82277C7.94587 2.00139 6.83221 1.53938 5.67062 1.53809V1.53809ZM5.67062 9.42444C4.97738 9.42444 4.29972 9.21887 3.72332 8.83373C3.14691 8.44859 2.69766 7.90118 2.43238 7.26072C2.16709 6.62025 2.09768 5.91551 2.23292 5.23559C2.36816 4.55568 2.70198 3.93114 3.19217 3.44095C3.68236 2.95076 4.3069 2.61694 4.98682 2.4817C5.66673 2.34645 6.37148 2.41586 7.01194 2.68115C7.6524 2.94644 8.19982 3.39569 8.58495 3.97209C8.97009 4.5485 9.17566 5.22616 9.17566 5.91939C9.1746 6.84866 8.80498 7.73957 8.14788 8.39666C7.49079 9.05375 6.59989 9.42338 5.67062 9.42444V9.42444ZM5.67062 5.70033C5.55442 5.70033 5.44298 5.74649 5.36081 5.82865C5.27865 5.91082 5.23249 6.02226 5.23249 6.13846V7.45285C5.23249 7.56905 5.27865 7.68049 5.36081 7.76266C5.44298 7.84482 5.55442 7.89098 5.67062 7.89098C5.78682 7.89098 5.89826 7.84482 5.98042 7.76266C6.06259 7.68049 6.10875 7.56905 6.10875 7.45285V6.13846C6.10875 6.02226 6.06259 5.91082 5.98042 5.82865C5.89826 5.74649 5.78682 5.70033 5.67062 5.70033ZM5.67062 3.9478C5.5623 3.9478 5.45641 3.97992 5.36635 4.0401C5.27629 4.10028 5.20609 4.18581 5.16464 4.28589C5.12319 4.38596 5.11234 4.49608 5.13348 4.60231C5.15461 4.70855 5.20677 4.80613 5.28336 4.88272C5.35995 4.95932 5.45754 5.01148 5.56377 5.03261C5.67001 5.05374 5.78013 5.04289 5.8802 5.00144C5.98027 4.95999 6.0658 4.8898 6.12598 4.79973C6.18616 4.70967 6.21828 4.60379 6.21828 4.49547C6.21828 4.35022 6.16058 4.21092 6.05787 4.10821C5.95517 4.00551 5.81587 3.9478 5.67062 3.9478V3.9478Z" fill="#707E8F"/>
</g>
<defs>
<clipPath id="clip0_522_13418">
<rect width="10.5151" height="10.5151" fill="white" transform="translate(0.413086 0.661621)"/>
</clipPath>
</defs>
</svg>
