<svg width="24" height="24" viewBox="0 0 24 24" fill="none" xmlns="http://www.w3.org/2000/svg">
<path d="M0 5.47253C0 2.45013 2.45013 0 5.47253 0H18.5275C21.5499 0 24 2.45013 24 5.47253V18.5275C24 21.5499 21.5499 24 18.5275 24H5.47253C2.45013 24 0 21.5499 0 18.5275V5.47253Z" fill="#FE6700"/>
<path d="M6.98877 15.7849C6.98877 15.0403 7.40688 14.3588 8.07065 14.0215L11.0107 12.5273V16.7204C11.0107 17.4649 10.5926 18.1464 9.92887 18.4837L6.98877 19.9779V15.7849Z" fill="white"/>
<path d="M13.0552 7.2126C13.0552 6.46804 13.4733 5.78655 14.1371 5.44923L17.0772 3.95508V13.7525C17.0772 14.4971 16.659 15.1785 15.9953 15.5159L13.0552 17.01V7.2126Z" fill="white"/>
</svg>
