<svg width="10" height="10" viewBox="0 0 10 10" fill="none" xmlns="http://www.w3.org/2000/svg">
<g id="money-withdraw" clipPath="url(#clip0_431_17238)">
<path id="Vector" d="M8.64089 8.68213H0.970902C0.869192 8.68213 0.771647 8.64172 0.699727 8.5698C0.627807 8.49788 0.587402 8.40034 0.587402 8.29863V5.23063C0.587402 5.12892 0.627807 5.03138 0.699727 4.95946C0.771647 4.88754 0.869192 4.84713 0.970902 4.84713H2.1214V1.39564C2.1214 1.29393 2.16181 1.19638 2.23373 1.12446C2.30565 1.05254 2.40319 1.01214 2.5049 1.01214H7.1069C7.20861 1.01214 7.30615 1.05254 7.37807 1.12446C7.44999 1.19638 7.4904 1.29393 7.4904 1.39564V4.84713H8.64089C8.7426 4.84713 8.84015 4.88754 8.91207 4.95946C8.98399 5.03138 9.02439 5.12892 9.02439 5.23063V8.29863C9.02439 8.40034 8.98399 8.49788 8.91207 8.5698C8.84015 8.64172 8.7426 8.68213 8.64089 8.68213V8.68213ZM2.8884 1.77914V2.54613C3.09182 2.54613 3.28691 2.46533 3.43075 2.32149C3.57459 2.17765 3.6554 1.98256 3.6554 1.77914H2.8884ZM6.7234 1.77914H5.9564C5.9564 1.98256 6.03721 2.17765 6.18105 2.32149C6.32489 2.46533 6.51998 2.54613 6.7234 2.54613V1.77914ZM6.7234 3.31313C6.31655 3.31313 5.92638 3.15152 5.6387 2.86384C5.35101 2.57616 5.1894 2.18598 5.1894 1.77914H4.4224C4.4224 2.18598 4.26078 2.57616 3.9731 2.86384C3.68542 3.15152 3.29524 3.31313 2.8884 3.31313V6.38113H6.7234V3.31313ZM8.25739 5.61413H7.4904V6.76463C7.4904 6.86634 7.44999 6.96389 7.37807 7.03581C7.30615 7.10773 7.20861 7.14813 7.1069 7.14813H2.5049C2.40319 7.14813 2.30565 7.10773 2.23373 7.03581C2.16181 6.96389 2.1214 6.86634 2.1214 6.76463V5.61413H1.3544V7.91513H8.25739V5.61413ZM4.8059 3.69663C5.03345 3.69663 5.25588 3.76411 5.44508 3.89053C5.63428 4.01695 5.78174 4.19663 5.86882 4.40686C5.9559 4.61708 5.97868 4.84841 5.93429 5.07158C5.8899 5.29476 5.78032 5.49976 5.61942 5.66066C5.45852 5.82156 5.25352 5.93113 5.03035 5.97553C4.80717 6.01992 4.57585 5.99713 4.36562 5.91006C4.1554 5.82298 3.97571 5.67551 3.84929 5.48632C3.72287 5.29712 3.6554 5.07468 3.6554 4.84713C3.6554 4.542 3.77661 4.24937 3.99237 4.03361C4.20813 3.81785 4.50077 3.69663 4.8059 3.69663ZM4.8059 5.23063C4.88175 5.23063 4.95589 5.20814 5.01896 5.166C5.08203 5.12386 5.13118 5.06397 5.16021 4.99389C5.18923 4.92382 5.19683 4.84671 5.18203 4.77232C5.16723 4.69792 5.13071 4.62959 5.07707 4.57596C5.02344 4.52232 4.95511 4.4858 4.88072 4.471C4.80632 4.4562 4.72921 4.4638 4.65914 4.49283C4.58906 4.52185 4.52917 4.57101 4.48703 4.63407C4.44489 4.69714 4.4224 4.77128 4.4224 4.84713C4.4224 4.94884 4.4628 5.04639 4.53472 5.11831C4.60664 5.19023 4.70419 5.23063 4.8059 5.23063V5.23063Z" fill="#707E8F"/>
</g>
<defs>
<clipPath id="clip0_431_17238">
<rect width="9.20399" height="9.20399" fill="white" transform="translate(0.204102 0.245117)"/>
</clipPath>
</defs>
</svg>
