<svg width="48" height="48" viewBox="0 0 48 48" fill="none" xmlns="http://www.w3.org/2000/svg">
<g id="money-insert">
<path id="Vector" d="M16.58 26.58C16.3925 26.7659 16.2438 26.9871 16.1422 27.2308C16.0407 27.4746 15.9884 27.736 15.9884 28C15.9884 28.264 16.0407 28.5254 16.1422 28.7692C16.2438 29.0129 16.3925 29.2341 16.58 29.42L22.58 35.42C22.7659 35.6075 22.9871 35.7562 23.2308 35.8578C23.4746 35.9593 23.736 36.0116 24 36.0116C24.264 36.0116 24.5254 35.9593 24.7692 35.8578C25.0129 35.7562 25.2341 35.6075 25.42 35.42L31.42 29.42C31.7966 29.0434 32.0082 28.5326 32.0082 28C32.0082 27.4674 31.7966 26.9566 31.42 26.58C31.0434 26.2034 30.5326 25.9918 30 25.9918C29.4674 25.9918 28.9566 26.2034 28.58 26.58L26 29.18V6C26 5.46957 25.7893 4.96086 25.4142 4.58579C25.0391 4.21071 24.5304 4 24 4C23.4696 4 22.9609 4.21071 22.5858 4.58579C22.2107 4.96086 22 5.46957 22 6V29.18L19.42 26.58C19.2341 26.3925 19.0129 26.2438 18.7692 26.1422C18.5254 26.0407 18.264 25.9884 18 25.9884C17.736 25.9884 17.4746 26.0407 17.2308 26.1422C16.9871 26.2438 16.7659 26.3925 16.58 26.58ZM36 18H32C31.4696 18 30.9609 18.2107 30.5858 18.5858C30.2107 18.9609 30 19.4696 30 20C30 20.5304 30.2107 21.0391 30.5858 21.4142C30.9609 21.7893 31.4696 22 32 22H36C36.5304 22 37.0391 22.2107 37.4142 22.5858C37.7893 22.9609 38 23.4696 38 24V38C38 38.5304 37.7893 39.0391 37.4142 39.4142C37.0391 39.7893 36.5304 40 36 40H12C11.4696 40 10.9609 39.7893 10.5858 39.4142C10.2107 39.0391 10 38.5304 10 38V24C10 23.4696 10.2107 22.9609 10.5858 22.5858C10.9609 22.2107 11.4696 22 12 22H16C16.5304 22 17.0391 21.7893 17.4142 21.4142C17.7893 21.0391 18 20.5304 18 20C18 19.4696 17.7893 18.9609 17.4142 18.5858C17.0391 18.2107 16.5304 18 16 18H12C10.4087 18 8.88258 18.6321 7.75736 19.7574C6.63214 20.8826 6 22.4087 6 24V38C6 39.5913 6.63214 41.1174 7.75736 42.2426C8.88258 43.3679 10.4087 44 12 44H36C37.5913 44 39.1174 43.3679 40.2426 42.2426C41.3679 41.1174 42 39.5913 42 38V24C42 22.4087 41.3679 20.8826 40.2426 19.7574C39.1174 18.6321 37.5913 18 36 18Z" fill="#F8FBFF"/>
</g>
</svg>
