<svg width="10" height="11" viewBox="0 0 10 11" fill="none" xmlns="http://www.w3.org/2000/svg">
<g id="parcel" clipPath="url(#clip0_471_17764)">
<path id="Vector" d="M2.88845 6.22602H3.65544C3.75716 6.22602 3.8547 6.18561 3.92662 6.11369C3.99854 6.04177 4.03894 5.94423 4.03894 5.84252C4.03894 5.74081 3.99854 5.64326 3.92662 5.57134C3.8547 5.49942 3.75716 5.45902 3.65544 5.45902H2.88845C2.78673 5.45902 2.68919 5.49942 2.61727 5.57134C2.54535 5.64326 2.50495 5.74081 2.50495 5.84252C2.50495 5.94423 2.54535 6.04177 2.61727 6.11369C2.68919 6.18561 2.78673 6.22602 2.88845 6.22602ZM5.18944 6.99302H2.88845C2.78673 6.99302 2.68919 7.03342 2.61727 7.10534C2.54535 7.17726 2.50495 7.27481 2.50495 7.37652C2.50495 7.47823 2.54535 7.57577 2.61727 7.64769C2.68919 7.71961 2.78673 7.76002 2.88845 7.76002H5.18944C5.29115 7.76002 5.3887 7.71961 5.46062 7.64769C5.53254 7.57577 5.57294 7.47823 5.57294 7.37652C5.57294 7.27481 5.53254 7.17726 5.46062 7.10534C5.3887 7.03342 5.29115 6.99302 5.18944 6.99302ZM7.49044 1.62402H2.12145C1.81631 1.62402 1.52368 1.74524 1.30792 1.961C1.09216 2.17676 0.970947 2.46939 0.970947 2.77452V8.14352C0.970947 8.44865 1.09216 8.74128 1.30792 8.95704C1.52368 9.1728 1.81631 9.29402 2.12145 9.29402H7.49044C7.79557 9.29402 8.08821 9.1728 8.30397 8.95704C8.51973 8.74128 8.64094 8.44865 8.64094 8.14352V2.77452C8.64094 2.46939 8.51973 2.17676 8.30397 1.961C8.08821 1.74524 7.79557 1.62402 7.49044 1.62402ZM5.57294 2.39102V3.65274L4.99386 3.3306C4.93556 3.29694 4.86943 3.27922 4.80211 3.27922C4.73479 3.27922 4.66866 3.29694 4.61036 3.3306L4.03894 3.65274V2.39102H5.57294ZM7.87394 8.14352C7.87394 8.24523 7.83354 8.34277 7.76162 8.41469C7.6897 8.48661 7.59215 8.52702 7.49044 8.52702H2.12145C2.01974 8.52702 1.92219 8.48661 1.85027 8.41469C1.77835 8.34277 1.73795 8.24523 1.73795 8.14352V2.77452C1.73795 2.67281 1.77835 2.57527 1.85027 2.50335C1.92219 2.43143 2.01974 2.39102 2.12145 2.39102H3.27194V4.30852C3.27235 4.37545 3.29026 4.4411 3.3239 4.49896C3.35754 4.55682 3.40573 4.60487 3.46369 4.63833C3.52199 4.67199 3.58813 4.68971 3.65544 4.68971C3.72276 4.68971 3.7889 4.67199 3.84719 4.63833L4.80594 4.10527L5.76853 4.64217C5.82584 4.67465 5.89056 4.69182 5.95644 4.69202C6.05815 4.69202 6.1557 4.65162 6.22762 4.5797C6.29954 4.50778 6.33994 4.41023 6.33994 4.30852V2.39102H7.49044C7.59215 2.39102 7.6897 2.43143 7.76162 2.50335C7.83354 2.57527 7.87394 2.67281 7.87394 2.77452V8.14352Z" fill="#F8FBFF"/>
</g>
<defs>
<clipPath id="clip0_471_17764">
<rect width="9.20399" height="9.20399" fill="white" transform="translate(0.204102 0.857422)"/>
</clipPath>
</defs>
</svg>
