<svg width="12" height="12" viewBox="0 0 12 12" fill="none" xmlns="http://www.w3.org/2000/svg">
<g id="parcel">
<path id="Vector" d="M3.40191 6.83891H4.32713C4.44982 6.83891 4.56749 6.79017 4.65425 6.70341C4.741 6.61666 4.78974 6.49899 4.78974 6.3763C4.78974 6.25361 4.741 6.13594 4.65425 6.04919C4.56749 5.96243 4.44982 5.91369 4.32713 5.91369H3.40191C3.27922 5.91369 3.16156 5.96243 3.0748 6.04919C2.98804 6.13594 2.9393 6.25361 2.9393 6.3763C2.9393 6.49899 2.98804 6.61666 3.0748 6.70341C3.16156 6.79017 3.27922 6.83891 3.40191 6.83891ZM6.17757 7.76413H3.40191C3.27922 7.76413 3.16156 7.81287 3.0748 7.89962C2.98804 7.98638 2.9393 8.10405 2.9393 8.22674C2.9393 8.34943 2.98804 8.4671 3.0748 8.55385C3.16156 8.64061 3.27922 8.68935 3.40191 8.68935H6.17757C6.30026 8.68935 6.41793 8.64061 6.50468 8.55385C6.59144 8.4671 6.64018 8.34943 6.64018 8.22674C6.64018 8.10405 6.59144 7.98638 6.50468 7.89962C6.41793 7.81287 6.30026 7.76413 6.17757 7.76413ZM8.95323 1.2876H2.4767C2.10862 1.2876 1.75562 1.43381 1.49535 1.69408C1.23508 1.95435 1.08887 2.30735 1.08887 2.67543V9.15196C1.08887 9.52003 1.23508 9.87303 1.49535 10.1333C1.75562 10.3936 2.10862 10.5398 2.4767 10.5398H8.95323C9.3213 10.5398 9.6743 10.3936 9.93457 10.1333C10.1948 9.87303 10.3411 9.52003 10.3411 9.15196V2.67543C10.3411 2.30735 10.1948 1.95435 9.93457 1.69408C9.6743 1.43381 9.3213 1.2876 8.95323 1.2876ZM6.64018 2.21282V3.7348L5.94164 3.34621C5.87131 3.30561 5.79154 3.28423 5.71033 3.28423C5.62913 3.28423 5.54936 3.30561 5.47903 3.34621L4.78974 3.7348V2.21282H6.64018ZM9.41584 9.15196C9.41584 9.27465 9.3671 9.39232 9.28034 9.47907C9.19358 9.56583 9.07592 9.61457 8.95323 9.61457H2.4767C2.354 9.61457 2.23634 9.56583 2.14958 9.47907C2.06283 9.39232 2.01409 9.27465 2.01409 9.15196V2.67543C2.01409 2.55273 2.06283 2.43507 2.14958 2.34831C2.23634 2.26156 2.354 2.21282 2.4767 2.21282H3.86452V4.52586C3.86501 4.60659 3.88662 4.68579 3.92719 4.75559C3.96777 4.82538 4.02591 4.88334 4.09583 4.92371C4.16615 4.96431 4.24593 4.98569 4.32713 4.98569C4.40834 4.98569 4.48811 4.96431 4.55844 4.92371L5.71496 4.28068L6.87611 4.92833C6.94525 4.96752 7.02332 4.98823 7.10279 4.98847C7.22548 4.98847 7.34315 4.93973 7.4299 4.85298C7.51666 4.76622 7.5654 4.64855 7.5654 4.52586V2.21282H8.95323C9.07592 2.21282 9.19358 2.26156 9.28034 2.34831C9.3671 2.43507 9.41584 2.55273 9.41584 2.67543V9.15196Z" fill="#707E8F"/>
</g>
</svg>
