<svg width="11" height="12" viewBox="0 0 11 12" fill="none" xmlns="http://www.w3.org/2000/svg">
<g id="plus">
<path id="Vector" d="M8.70735 5.10956H5.98007V2.38228C5.98007 2.26173 5.93218 2.14611 5.84694 2.06087C5.7617 1.97562 5.64608 1.92773 5.52553 1.92773C5.40498 1.92773 5.28936 1.97562 5.20412 2.06087C5.11887 2.14611 5.07098 2.26173 5.07098 2.38228V5.10956H2.34371C2.22315 5.10956 2.10754 5.15745 2.02229 5.24269C1.93705 5.32793 1.88916 5.44355 1.88916 5.5641C1.88916 5.68466 1.93705 5.80027 2.02229 5.88552C2.10754 5.97076 2.22315 6.01865 2.34371 6.01865H5.07098V8.74592C5.07098 8.86648 5.11887 8.98209 5.20412 9.06734C5.28936 9.15258 5.40498 9.20047 5.52553 9.20047C5.64608 9.20047 5.7617 9.15258 5.84694 9.06734C5.93218 8.98209 5.98007 8.86648 5.98007 8.74592V6.01865H8.70735C8.8279 6.01865 8.94352 5.97076 9.02876 5.88552C9.11401 5.80027 9.1619 5.68466 9.1619 5.5641C9.1619 5.44355 9.11401 5.32793 9.02876 5.24269C8.94352 5.15745 8.8279 5.10956 8.70735 5.10956Z" fill="#F8FBFF"/>
</g>
</svg>
