<svg width="24" height="24" viewBox="0 0 24 24" fill="none" xmlns="http://www.w3.org/2000/svg">
<path d="M24 19.464C24 22.38 22.38 24 19.464 24H4.536C1.62 24 0 22.38 0 19.464V4.536C0 1.62 1.62 0 4.536 0H19.47C22.38 0 24 1.62 24 4.536V19.464Z" fill="#FFE600"/>
<path d="M15.4317 10.8293V8.53726L16.2597 7.70926V9.69526L16.9797 10.4153L19.8777 7.51726L20.5917 8.23126C20.5857 7.69126 20.4777 6.12526 19.1517 4.82326C17.7237 3.44326 16.1757 4.06726 15.6477 4.59526L12.7557 7.48726L13.4937 8.22526L11.9997 9.73126L10.5057 8.23726L11.2437 7.49926L8.35172 4.60726C7.82372 4.07926 6.27572 3.45526 4.84772 4.83526C3.52172 6.13726 3.41371 7.70326 3.40771 8.24326L4.12171 7.52926L7.01972 10.4273L7.73972 9.70726V7.72126L8.56772 8.54926V10.8413L9.73172 11.9993L3.99571 17.7353L6.26372 19.9973L11.9997 14.2673L17.7357 20.0033L20.0037 17.7413L14.2677 11.9993L15.4317 10.8293Z" fill="#2B2D34"/>
</svg>
