<svg width="10" height="10" viewBox="0 0 10 10" fill="none" xmlns="http://www.w3.org/2000/svg">
<g id="setting" clip-path="url(#clip0_431_17260)">
<path id="Vector" d="M7.83567 5.5481C7.77419 5.47812 7.74028 5.38815 7.74028 5.29499C7.74028 5.20184 7.77419 5.11186 7.83567 5.04188L8.32655 4.48964C8.38064 4.4293 8.41423 4.35339 8.4225 4.27277C8.43077 4.19216 8.41329 4.11101 8.37257 4.04095L7.60557 2.71404C7.56527 2.64406 7.5039 2.58859 7.43022 2.55553C7.35653 2.52248 7.2743 2.51353 7.19523 2.52996L6.47425 2.67569C6.38251 2.69464 6.287 2.67937 6.20576 2.63274C6.12451 2.58611 6.06314 2.51135 6.03322 2.42258L5.79929 1.72077C5.77356 1.6446 5.72455 1.57844 5.65917 1.53165C5.59379 1.48485 5.51536 1.45979 5.43496 1.45999H3.90097C3.81734 1.45563 3.73458 1.47876 3.66533 1.52585C3.59608 1.57294 3.54415 1.6414 3.51747 1.72077L3.30271 2.42258C3.27279 2.51135 3.21142 2.58611 3.13018 2.63274C3.04893 2.67937 2.95342 2.69464 2.86168 2.67569L2.12153 2.52996C2.04657 2.51937 1.97016 2.53119 1.90192 2.56395C1.83367 2.59671 1.77665 2.64893 1.73803 2.71404L0.971029 4.04095C0.929289 4.11023 0.910521 4.19093 0.917409 4.27152C0.924297 4.3521 0.956488 4.42845 1.00938 4.48964L1.49642 5.04188C1.55791 5.11186 1.59181 5.20184 1.59181 5.29499C1.59181 5.38815 1.55791 5.47812 1.49642 5.5481L1.00938 6.10034C0.956488 6.16153 0.924297 6.23788 0.917409 6.31847C0.910521 6.39905 0.929289 6.47976 0.971029 6.54903L1.73803 7.87594C1.77833 7.94592 1.8397 8.00139 1.91338 8.03445C1.98707 8.0675 2.0693 8.07645 2.14837 8.06002L2.86935 7.91429C2.96109 7.89534 3.0566 7.91062 3.13785 7.95724C3.21909 8.00387 3.28046 8.07863 3.31038 8.1674L3.54431 8.86921C3.571 8.94858 3.62293 9.01705 3.69218 9.06413C3.76142 9.11122 3.84418 9.13435 3.92781 9.12999H5.46181C5.54221 9.13019 5.62064 9.10513 5.68601 9.05833C5.75139 9.01154 5.80041 8.94538 5.82613 8.86921L6.06007 8.1674C6.08998 8.07863 6.15135 8.00387 6.2326 7.95724C6.31385 7.91062 6.40935 7.89534 6.50109 7.91429L7.22207 8.06002C7.30114 8.07645 7.38338 8.0675 7.45706 8.03445C7.53074 8.00139 7.59211 7.94592 7.63242 7.87594L8.39942 6.54903C8.44013 6.47897 8.45761 6.39782 8.44935 6.31721C8.44108 6.2366 8.40749 6.16068 8.3534 6.10034L7.83567 5.5481ZM7.26426 6.06199L7.57106 6.40714L7.08018 7.25851L6.62765 7.16647C6.35144 7.11001 6.06412 7.15693 5.82023 7.29832C5.57633 7.43971 5.39284 7.66572 5.30457 7.93347L5.15884 8.36299H4.17709L4.03903 7.9258C3.95077 7.65805 3.76727 7.43204 3.52337 7.29065C3.27948 7.14926 2.99216 7.10234 2.71595 7.1588L2.26342 7.25084L1.76487 6.4033L2.07167 6.05815C2.26034 5.84722 2.36464 5.57415 2.36464 5.29116C2.36464 5.00816 2.26034 4.73509 2.07167 4.52416L1.76487 4.17901L2.25575 3.33531L2.70828 3.42735C2.98449 3.48381 3.27181 3.43689 3.5157 3.2955C3.7596 3.15411 3.9431 2.92809 4.03136 2.66035L4.17709 2.22699H5.15884L5.30457 2.66418C5.39284 2.93193 5.57633 3.15795 5.82023 3.29933C6.06412 3.44072 6.35144 3.48764 6.62765 3.43118L7.08018 3.33914L7.57106 4.19051L7.26426 4.53566C7.07771 4.74611 6.9747 5.0176 6.9747 5.29883C6.9747 5.58005 7.07771 5.85154 7.26426 6.06199V6.06199ZM4.66797 3.76099C4.36457 3.76099 4.06799 3.85096 3.81572 4.01952C3.56346 4.18808 3.36684 4.42765 3.25074 4.70795C3.13463 4.98826 3.10425 5.29669 3.16344 5.59426C3.22263 5.89183 3.36873 6.16516 3.58326 6.37969C3.7978 6.59422 4.07113 6.74032 4.3687 6.79951C4.66626 6.8587 4.9747 6.82833 5.255 6.71222C5.5353 6.59612 5.77488 6.3995 5.94344 6.14723C6.112 5.89497 6.20196 5.59839 6.20196 5.29499C6.20196 4.88815 6.04035 4.49797 5.75267 4.21029C5.46499 3.92261 5.07481 3.76099 4.66797 3.76099V3.76099ZM4.66797 6.06199C4.51627 6.06199 4.36798 6.01701 4.24184 5.93273C4.11571 5.84845 4.0174 5.72866 3.95935 5.58851C3.9013 5.44836 3.88611 5.29414 3.9157 5.14536C3.9453 4.99657 4.01835 4.85991 4.12561 4.75264C4.23288 4.64537 4.36955 4.57232 4.51833 4.54273C4.66711 4.51313 4.82133 4.52832 4.96148 4.58638C5.10163 4.64443 5.22142 4.74274 5.3057 4.86887C5.38998 4.995 5.43496 5.14329 5.43496 5.29499C5.43496 5.49841 5.35416 5.6935 5.21032 5.83734C5.06648 5.98118 4.87139 6.06199 4.66797 6.06199Z" fill="#707E8F"/>
</g>
<defs>
<clipPath id="clip0_431_17260">
<rect width="9.20399" height="9.20399" fill="white" transform="translate(0.204102 0.693359)"/>
</clipPath>
</defs>
</svg>
