<svg width="10" height="10" viewBox="0 0 10 10" fill="none" xmlns="http://www.w3.org/2000/svg">
<g id="shield-question" clipPath="url(#clip0_431_17255)">
<path id="Vector" d="M4.53375 5.70318C4.4629 5.77461 4.42296 5.87102 4.42254 5.97163C4.42264 6.02304 4.43307 6.0739 4.45322 6.12119C4.48784 6.20246 4.54945 6.26928 4.62764 6.31037C4.70583 6.35146 4.79581 6.3643 4.88238 6.34672C4.96894 6.32914 5.04678 6.28221 5.10275 6.21387C5.15871 6.14553 5.18937 6.05996 5.18954 5.97163C5.18911 5.87102 5.14917 5.77461 5.07832 5.70318C5.04267 5.66723 5.00025 5.6387 4.95352 5.61923C4.90679 5.59976 4.85666 5.58974 4.80604 5.58974C4.75541 5.58974 4.70528 5.59976 4.65855 5.61923C4.61182 5.6387 4.5694 5.66723 4.53375 5.70318ZM7.73214 1.48468C7.68758 1.44864 7.63552 1.42304 7.57977 1.40977C7.52403 1.3965 7.46601 1.39589 7.41 1.40798C7.00021 1.49387 6.57717 1.49496 6.16694 1.4112C5.7567 1.32744 5.36796 1.16059 5.02463 0.920938C4.96043 0.876403 4.88417 0.852539 4.80604 0.852539C4.72791 0.852539 4.65164 0.876403 4.58744 0.920938C4.24383 1.15994 3.85495 1.3261 3.44472 1.4092C3.0345 1.4923 2.61161 1.49058 2.20207 1.40415C2.14606 1.39205 2.08805 1.39266 2.0323 1.40594C1.97655 1.41921 1.92449 1.44481 1.87993 1.48085C1.83544 1.51694 1.7996 1.56255 1.77504 1.61431C1.75049 1.66608 1.73784 1.72268 1.73804 1.77998V4.63705C1.7377 5.18689 1.86873 5.72886 2.12021 6.21782C2.37169 6.70678 2.73636 7.12858 3.18383 7.4481L4.58361 8.4452C4.64856 8.49144 4.72631 8.5163 4.80604 8.5163C4.88577 8.5163 4.96352 8.49144 5.02847 8.4452L6.42824 7.4481C6.87571 7.12858 7.24038 6.70678 7.49186 6.21782C7.74335 5.72886 7.87437 5.18689 7.87403 4.63705V1.77998C7.87423 1.72268 7.86158 1.66608 7.83703 1.61431C7.81247 1.56255 7.77663 1.51694 7.73214 1.48085V1.48468ZM7.10703 4.63705C7.10733 5.06456 7.00552 5.48596 6.81007 5.86617C6.61463 6.24639 6.3312 6.57443 5.98338 6.823L4.80604 7.66286L3.62869 6.823C3.28087 6.57443 2.99745 6.24639 2.802 5.86617C2.60656 5.48596 2.50474 5.06456 2.50504 4.63705V2.221C3.30902 2.28981 4.11422 2.10328 4.80604 1.68794C5.49785 2.10328 6.30305 2.28981 7.10703 2.221V4.63705ZM4.80604 2.90363C4.60396 2.9035 4.40541 2.9566 4.23037 3.05758C4.05533 3.15857 3.90998 3.30387 3.80894 3.47888C3.76309 3.56653 3.75288 3.6685 3.78044 3.76349C3.808 3.85849 3.87119 3.93916 3.95683 3.98866C4.04247 4.03816 4.14392 4.05266 4.23999 4.02913C4.33606 4.0056 4.41933 3.94585 4.47239 3.86238C4.50602 3.80414 4.55437 3.75576 4.6126 3.72211C4.67082 3.68845 4.73688 3.6707 4.80413 3.67063C4.87138 3.67057 4.93747 3.68819 4.99577 3.72173C5.05406 3.75527 5.10251 3.80355 5.13625 3.86172C5.16999 3.9199 5.18784 3.98593 5.18801 4.05318C5.18818 4.12043 5.17065 4.18655 5.1372 4.24489C5.10375 4.30323 5.05554 4.35176 4.99741 4.38558C4.93929 4.41941 4.87329 4.43736 4.80604 4.43763C4.70433 4.43763 4.60678 4.47803 4.53486 4.54995C4.46294 4.62187 4.42254 4.71942 4.42254 4.82113C4.42254 4.92284 4.46294 5.02038 4.53486 5.0923C4.60678 5.16423 4.70433 5.20463 4.80604 5.20463C5.11117 5.20463 5.4038 5.08342 5.61956 4.86766C5.83532 4.6519 5.95654 4.35926 5.95654 4.05413C5.95654 3.749 5.83532 3.45637 5.61956 3.2406C5.4038 3.02484 5.11117 2.90363 4.80604 2.90363V2.90363Z" fill="#707E8F"/>
</g>
<defs>
<clipPath id="clip0_431_17255">
<rect width="9.20399" height="9.20399" fill="white" transform="translate(0.204102 0.0810547)"/>
</clipPath>
</defs>
</svg>
