<svg width="48" height="48" viewBox="0 0 48 48" fill="none" xmlns="http://www.w3.org/2000/svg">
<g id="shield">
<path id="Vector" d="M39.26 9.29671C39.0277 9.10875 38.7561 8.97526 38.4654 8.90604C38.1747 8.83682 37.8721 8.83363 37.58 8.89671C35.4429 9.3446 33.2367 9.3503 31.0973 8.91348C28.9579 8.47665 26.9305 7.60654 25.14 6.35671C24.8052 6.12446 24.4075 6 24 6C23.5925 6 23.1948 6.12446 22.86 6.35671C21.0695 7.60654 19.0422 8.47665 16.9027 8.91348C14.7633 9.3503 12.5571 9.3446 10.42 8.89671C10.1279 8.83363 9.82534 8.83682 9.53461 8.90604C9.24388 8.97526 8.97236 9.10875 8.74001 9.29671C8.50797 9.48495 8.32105 9.72278 8.193 9.99274C8.06494 10.2627 7.999 10.5579 8.00001 10.8567V25.7567C7.99823 28.6242 8.68156 31.4506 9.99308 34.0006C11.3046 36.5506 13.2064 38.7504 15.54 40.4167L22.84 45.6167C23.1787 45.8579 23.5842 45.9875 24 45.9875C24.4158 45.9875 24.8213 45.8579 25.16 45.6167L32.46 40.4167C34.7937 38.7504 36.6954 36.5506 38.0069 34.0006C39.3185 31.4506 40.0018 28.6242 40 25.7567V10.8567C40.001 10.5579 39.9351 10.2627 39.807 9.99274C39.679 9.72278 39.4921 9.48495 39.26 9.29671ZM36 25.7567C36.0015 27.9862 35.4706 30.1839 34.4513 32.1667C33.432 34.1496 31.9539 35.8604 30.14 37.1567L24 41.5367L17.86 37.1567C16.0461 35.8604 14.568 34.1496 13.5487 32.1667C12.5294 30.1839 11.9985 27.9862 12 25.7567V13.1567C16.1929 13.5156 20.3921 12.5428 24 10.3767C27.6079 12.5428 31.8072 13.5156 36 13.1567V25.7567Z" fill="#F8FBFF"/>
</g>
</svg>
