<svg width="48" height="48" viewBox="0 0 48 48" fill="none" xmlns="http://www.w3.org/2000/svg">
<g id="tachometer-fast-alt">
<path id="Vector" d="M23.9995 6C20.4888 6.00009 17.04 6.92428 13.9997 8.67968C10.9594 10.4351 8.43467 12.9599 6.67936 16.0002C4.92406 19.0406 3.99998 22.4894 4 26.0001C4.00002 29.5108 4.92415 32.9597 6.67949 36C6.94471 36.4615 7.38238 36.7987 7.89623 36.9375C8.41008 37.0763 8.95801 37.0052 9.41949 36.74C9.88097 36.4748 10.2182 36.0371 10.357 35.5233C10.4957 35.0094 10.4247 34.4615 10.1595 34C8.74238 31.5722 7.99686 28.8111 7.99949 26C8.00045 23.5464 8.5657 21.1258 9.65154 18.9255C10.7374 16.7252 12.3147 14.8042 14.2616 13.3108C16.2085 11.8175 18.4727 10.7919 20.8792 10.3134C23.2857 9.83493 25.7701 9.91632 28.1401 10.5513C30.5102 11.1863 32.7024 12.3578 34.5474 13.9754C36.3924 15.5929 37.8406 17.6131 38.7801 19.8797C39.7196 22.1464 40.1252 24.5987 39.9656 27.0472C39.806 29.4956 39.0854 31.8745 37.8595 34C37.7273 34.2283 37.6415 34.4804 37.6071 34.742C37.5728 35.0036 37.5905 35.2693 37.6592 35.524C37.728 35.7787 37.8465 36.0172 38.0079 36.2259C38.1693 36.4346 38.3703 36.6093 38.5995 36.74C39.0587 37.0007 39.6025 37.0693 40.112 36.9306C40.6216 36.792 41.0557 36.4575 41.3195 36C43.0748 32.9597 43.999 29.5108 43.999 26.0001C43.999 22.4894 43.0749 19.0406 41.3196 16.0002C39.5643 12.9599 37.0396 10.4351 33.9993 8.67968C30.959 6.92428 27.5102 6.00009 23.9995 6ZM29.6795 17.52L26.5795 20.6C25.777 20.2044 24.8942 19.999 23.9995 20C22.8128 20 21.6528 20.3519 20.6661 21.0112C19.6794 21.6705 18.9103 22.6075 18.4562 23.7039C18.0021 24.8003 17.8833 26.0067 18.1148 27.1705C18.3463 28.3344 18.9177 29.4035 19.7569 30.2426C20.596 31.0818 21.6651 31.6532 22.829 31.8847C23.9928 32.1162 25.1992 31.9974 26.2956 31.5433C27.392 31.0892 28.329 30.3201 28.9883 29.3334C29.6476 28.3467 29.9995 27.1867 29.9995 26C29.9981 25.112 29.7928 24.2362 29.3995 23.44L32.4995 20.36C32.6869 20.1741 32.8357 19.9529 32.9373 19.7092C33.0388 19.4654 33.0911 19.204 33.0911 18.94C33.0911 18.676 33.0388 18.4146 32.9373 18.1708C32.8357 17.9271 32.6869 17.7059 32.4995 17.52C32.1248 17.1475 31.6179 16.9384 31.0895 16.9384C30.5611 16.9384 30.0542 17.1475 29.6795 17.52ZM23.9995 28C23.4691 28 22.9604 27.7893 22.5853 27.4142C22.2102 27.0391 21.9995 26.5304 21.9995 26C21.9995 25.4696 22.2102 24.9609 22.5853 24.5858C22.9604 24.2107 23.4691 24 23.9995 24C24.5213 23.9969 25.0238 24.1978 25.3995 24.56C25.5909 24.7476 25.7426 24.9717 25.8457 25.2191C25.9488 25.4665 26.0011 25.732 25.9995 26C25.9995 26.5304 25.7888 27.0391 25.4137 27.4142C25.0386 27.7893 24.5299 28 23.9995 28Z" fill="#F8FBFF"/>
</g>
</svg>
