<svg width="24" height="24" viewBox="0 0 24 24" fill="none" xmlns="http://www.w3.org/2000/svg">
<path d="M23.683 11.2229L24 10.2274L22.9689 10.2599C22.4859 10.2422 22.0207 10.0792 21.6296 9.79182H21.7689C22.397 9.78882 22.9718 9.43032 23.2504 8.86734L23.7037 7.89846C23.3482 7.90146 22.9926 7.8807 22.64 7.83624C22.3022 7.75626 22 7.57254 21.7718 7.31184C21.4637 6.98292 21.037 6.79626 20.5867 6.79332C20.4119 6.79332 20.237 6.8229 20.0681 6.87624C20.0918 6.79626 20.1126 6.71628 20.1274 6.6333C20.1985 6.0555 20.0356 5.47181 19.6771 5.01255L18.8948 4.04959L18.4148 5.17551C18.3378 5.33552 18.2222 5.47478 18.0741 5.57552C17.9911 5.17255 17.7956 4.80515 17.5052 4.51478C17.0192 4.017 16.3526 3.73848 15.6563 3.74441C15.5348 3.74441 15.4133 3.75329 15.2948 3.77107L14.3585 3.95477C14.4385 3.6407 14.5659 3.34144 14.7378 3.06588L15.2533 2.26292L13.9556 2.3844L13.5407 1.49552L12.7408 1.93107L12 1.19922L11.2592 1.93107L10.4593 1.51626L10.0444 2.3844L8.74668 2.23625L9.2622 3.04218C9.4341 3.31773 9.56148 3.617 9.64146 3.93107L8.75262 3.75626H8.72298C8.59854 3.73848 8.4741 3.72959 8.3496 3.72959C7.65336 3.72366 6.98664 4.00218 6.50076 4.49996C6.20742 4.79329 6.00594 5.16663 5.92592 5.57552C5.78371 5.47773 5.66815 5.3444 5.59111 5.18736L5.10815 4.05255L4.32 5.01848C3.96741 5.47773 3.81037 6.0585 3.87852 6.6333C3.89333 6.71628 3.91408 6.79626 3.93778 6.87624C3.76889 6.8229 3.59407 6.79332 3.41926 6.79332C2.96889 6.79626 2.54222 6.98292 2.23408 7.31184C2.00889 7.5696 1.70963 7.75332 1.37482 7.83624C1.01926 7.88958 0.65778 7.91034 0.296296 7.89846L0.737778 8.88216C1.0163 9.44514 1.59111 9.80364 2.21926 9.80664H2.35852C1.97333 10.0881 1.51408 10.2511 1.03704 10.2718L0 10.2274L0.317037 11.2229C0.554074 12.0022 1.22666 12.574 2.03555 12.6778C1.95259 13.2022 1.62074 13.6555 1.14667 13.8926L0.352592 14.2155L0.779262 14.9592C1.13185 15.5074 1.73926 15.8333 2.38815 15.8273C2.55704 15.8273 2.72593 15.8096 2.89185 15.7741C2.93333 15.9548 2.98667 16.1355 3.04592 16.3103C3.19408 16.7014 3.20296 17.1281 3.07556 17.5252L2.69037 18.334L3.55259 18.5622C3.74519 18.6125 3.94667 18.6362 4.14518 18.6362C4.28741 18.6362 4.42667 18.6214 4.56593 18.5888C4.66667 18.5651 4.76741 18.5355 4.86222 18.497C4.97185 18.6955 5.11111 18.8792 5.26815 19.0422C5.81926 19.6081 6.6015 19.8955 7.59408 19.8955H8.3022L6.8415 20.5029L7.94964 21.0511C8.39706 21.2704 8.85336 21.4688 9.31854 21.6437L9.18516 22.0288L9.56742 22.2037C10.2015 22.4525 10.8741 22.5918 11.5556 22.6155H12.4652C13.1437 22.5918 13.8133 22.4496 14.4445 22.2007L14.8148 22.0288L14.6845 21.6437C15.1556 21.4629 15.6178 21.2585 16.0681 21.0303L17.1556 20.5029L15.6978 19.9103H16.4089C17.4015 19.9103 18.1867 19.6141 18.7348 19.057C18.8948 18.8941 19.0311 18.7103 19.1407 18.5118C19.2356 18.5503 19.3363 18.58 19.4371 18.6037C19.5763 18.6362 19.7156 18.6511 19.8578 18.6511C20.0563 18.6511 20.2578 18.6244 20.4504 18.577L21.3155 18.3488L20.9393 17.5548C20.797 17.1518 20.803 16.7104 20.9541 16.3103C21.0163 16.1296 21.0667 15.9459 21.1081 15.7622C21.2741 15.7978 21.4459 15.8155 21.6148 15.8155C22.2696 15.8215 22.88 15.4837 23.2267 14.9266L23.6474 14.1918L22.8652 13.8718C22.3911 13.6348 22.0592 13.1815 21.9763 12.657C22.7852 12.5503 23.4578 11.9815 23.6948 11.1992L23.683 11.2229Z" fill="white"/>
<path d="M15.5617 14.3708H8.45058V17.0374C8.45058 18.1337 9.24168 18.8152 10.412 18.8152C11.3899 18.8152 11.6476 18.8537 12.0091 19.2152C12.2372 18.9693 12.5602 18.83 12.898 18.8359V18.7945L13.1232 18.1011L12.7409 17.6833C12.5869 17.7308 12.4269 17.7485 12.2669 17.7397C12.0269 17.7367 11.7898 17.713 11.5558 17.6656H11.4817C11.4491 17.6656 11.4491 17.6656 11.4402 17.6833L11.3958 17.7574L11.3158 17.8907L11.1617 17.8552L10.4773 17.6952L10.3825 17.8493V17.867L10.4654 17.9589L10.4299 18.0774C10.3676 18.2226 10.2787 18.353 10.1662 18.4656L9.99432 18.6493L9.83724 18.4537L9.72168 18.3085C9.59724 18.1456 9.5676 17.9323 9.63876 17.7397L9.44616 17.8196L9.36024 17.63L9.31284 17.4967C9.19134 17.2152 9.2832 16.8893 9.52908 16.7115L10.0802 16.4152L10.6046 16.5189C10.6046 16.4686 10.6373 16.2878 10.6521 16.2433H10.6225L10.3261 16.3559L10.0298 16.1545C9.97056 16.0952 9.96762 15.9974 10.0298 15.9352L10.3113 15.5086L9.59724 14.6197L10.6669 15.0404L10.741 14.9515L10.8891 14.7737L11.058 14.9337C11.1025 14.9782 11.132 15.0315 11.1469 15.0937C11.4432 15.2122 11.9913 15.5589 12.0358 16.1219L11.8669 16.19C11.8876 16.2196 11.9143 16.2433 11.9469 16.2581L12.7291 16.3352L12.8002 16.3145C12.9335 16.2641 13.0758 16.2374 13.218 16.2344C13.3602 16.2344 13.4995 16.2671 13.6269 16.3293C13.6832 16.3085 13.7454 16.2967 13.8047 16.2937H13.8432C14.261 16.2937 14.4713 16.6078 14.6372 16.8567L14.7232 16.9811C14.8684 17.1886 15.061 17.4908 15.0698 17.5026L15.1558 17.6359L15.0491 17.7604C14.9513 17.8907 14.7973 17.9648 14.6343 17.9648C14.5869 17.9678 14.5395 17.9678 14.492 17.9648C14.4506 17.956 14.4091 17.9441 14.3676 17.9263C14.3676 17.9678 14.3676 18.0182 14.3439 18.0596L14.2225 18.7589C15.0284 18.5959 15.5972 17.873 15.5647 17.0493L15.5617 14.3708ZM8.4417 14.1545H13.9795C13.7543 13.9175 13.6772 13.5767 13.778 13.2656C13.7039 13.2301 13.6328 13.1827 13.5706 13.1293C13.3543 13.2893 12.6817 13.7693 12.5217 13.8908L12.4861 13.9145L10.3113 13.5293H10.2669C10.1957 13.5323 10.1246 13.5323 10.0535 13.5293C10.0328 13.6271 9.94686 13.6952 9.84912 13.6952H9.81354C9.69798 13.6745 9.618 13.5649 9.63576 13.4493V13.4019C9.3543 13.2004 9.22098 12.8508 9.29502 12.513V12.4745L9.3276 12.4508C9.3276 12.4508 9.36912 12.4211 9.4254 12.3886L9.26838 12.3649C9.2091 12.353 9.17058 12.2997 9.17946 12.2404C9.18834 12.1811 9.24168 12.1426 9.30096 12.1515H9.3039L9.68022 12.2108L9.71574 10.8863L10.2758 10.2937L10.6254 11.0285L10.258 12.3026L10.5898 12.356C10.6491 12.3678 10.6876 12.4211 10.6787 12.4804C10.6699 12.5338 10.6254 12.5693 10.5721 12.5693H10.5543L10.2847 12.5249V12.5456C10.3143 12.5989 10.3588 12.6404 10.415 12.6671L12.0713 12.6937L12.495 12.276C12.1721 12.1634 11.941 11.8789 11.9024 11.5382C11.695 11.4582 11.5261 11.3041 11.4313 11.1056C11.3513 10.9189 11.3365 10.7086 11.3928 10.513C11.132 10.4093 10.895 10.2523 10.7024 10.0508H8.24316C8.36172 10.3412 8.42982 10.6493 8.4417 10.9604V14.1545Z" fill="#FCE527"/>
<path d="M10.7139 15.5352C10.6784 15.5352 10.6458 15.5618 10.6428 15.5974V15.6003C10.6398 15.6388 10.6695 15.6744 10.708 15.6774H10.7109C10.7524 15.6774 10.782 15.6448 10.782 15.6063C10.782 15.5647 10.7524 15.5352 10.7139 15.5352Z" fill="#222220"/>
<path d="M10.7112 15.5327C10.7141 15.5327 10.7141 15.5357 10.7141 15.5357C10.7171 15.5357 10.7171 15.5327 10.72 15.5327H10.7112ZM15.5526 20.3919L15.1437 20.2349L15.2563 19.8112L15.3807 19.349C14.8207 19.6364 14.2341 19.8675 13.6296 20.0394C13.3333 20.1223 13.12 20.1608 13.12 20.1608V20.4601C12.7555 20.5194 12.3882 20.552 12.0178 20.5549H11.9852C11.6148 20.552 11.2474 20.5194 10.8829 20.4601V20.1638C10.8829 20.1638 10.6666 20.1223 10.3704 20.0394C9.76592 19.8675 9.17924 19.6364 8.61926 19.349L8.74076 19.8112L8.85626 20.2349L8.44442 20.3919L8 20.5609C8.61038 20.8779 9.2474 21.1416 9.90518 21.349L9.74816 21.7757C10.4622 22.0482 11.2267 22.1816 11.9911 22.1638H12.0089C12.7733 22.1816 13.5378 22.0482 14.2518 21.7757L14.0977 21.349C14.7526 21.1416 15.3896 20.8779 16 20.5609L15.5526 20.3919ZM8.49482 20.5875L9.15848 20.3653L8.96 19.7135C9.39554 19.9297 9.8459 20.1105 10.3111 20.2527L9.98516 21.1416C9.47258 21.0053 8.97182 20.8186 8.49482 20.5875ZM12.0178 21.9534L12.003 21.9416C11.3511 21.9386 10.7022 21.8497 10.0741 21.6779L10.474 20.5934C10.9719 20.7179 11.4844 20.786 12 20.789H12.0326C12.5481 20.7831 13.0607 20.7179 13.5585 20.5934L13.9585 21.6779C13.3274 21.8556 12.6726 21.9475 12.0178 21.9534ZM14.0385 21.1593V21.1505L13.7126 20.2616C14.1778 20.1194 14.6281 19.9387 15.0637 19.7224L14.8652 20.3742L15.5377 20.5994C15.0577 20.8334 14.554 21.0231 14.0385 21.1593ZM12 3.47937C12.6696 3.46159 13.3274 3.66307 13.8726 4.05122C13.9585 3.6127 14.1215 3.19196 14.3556 2.80974L13.683 2.88678L13.3333 2.13715L12.6548 2.48678L12 1.83789L11.3452 2.48678L10.6666 2.13715L10.317 2.88678L9.64442 2.80974C9.87854 3.19196 10.0415 3.6127 10.1274 4.05122C10.6726 3.66307 11.3304 3.46159 12 3.47937ZM10.2874 3.14752L10.4741 3.16826L10.5541 2.99937L10.7881 2.49566L11.2237 2.72085L11.3926 2.80678L11.5289 2.68233L12 2.20529L12.4711 2.68233L12.6074 2.81567L12.7763 2.72974L13.2089 2.50456L13.4459 3.00826L13.5259 3.17715L13.7126 3.15641L13.8904 3.13567C13.8193 3.29863 13.7571 3.46752 13.7067 3.63937C12.637 3.09122 11.3659 3.09122 10.2963 3.63937C10.2459 3.46752 10.1837 3.29863 10.1126 3.13567L10.2874 3.14752ZM20.7882 9.59489L20.7082 9.49715C20.1571 8.79491 19.6326 8.12825 18.6964 7.82303C18.7349 7.79045 18.7734 7.76081 18.8149 7.73417C19.2593 7.48229 19.5734 7.04975 19.6741 6.54899C19.7245 6.09563 19.5971 5.64232 19.3186 5.28083L19.0223 4.91047L18.8356 5.35195C18.8356 5.37861 18.5067 6.08675 17.843 6.08675H17.6475C17.683 5.62157 17.5141 5.16232 17.1852 4.83046C16.7853 4.42157 16.2342 4.19342 15.6623 4.19639C15.5556 4.19639 15.4489 4.20528 15.3453 4.22009L14.8919 4.30898L15.1734 4.67935C15.3927 4.97565 15.5911 5.48824 15.3571 5.7638C15.2445 5.86157 15.1171 5.93861 14.9778 5.99194C14.6815 6.13121 14.2549 6.32975 14.2549 6.82751C14.2549 7.15049 14.5067 7.48823 14.9601 7.77563C16.2964 8.62307 17.123 9.49715 17.4816 10.4808C18.0356 11.9801 17.3127 12.8334 16.6104 13.2838L16.2964 13.4853L16.5719 13.7371C16.8178 13.9475 17.1201 14.0778 17.443 14.1105H17.7126C17.9882 14.1105 18.2608 14.072 18.5245 13.9919C18.4593 14.1075 18.3793 14.2171 18.2934 14.3178C17.8934 14.783 17.3008 15.0378 16.6875 15.0053H16.4238L16.403 15.269C16.4001 15.6393 16.563 15.989 16.8445 16.229C16.9186 16.2942 17.0016 16.3475 17.0904 16.389C16.6519 16.8156 16.403 17.3993 16.3941 18.0127C16.3941 18.3475 16.3171 18.6794 16.1719 18.9816L15.8756 19.426H16.403C17.2741 19.426 17.9408 19.186 18.403 18.709C18.643 18.4571 18.8208 18.152 18.9245 17.8201C19.0963 17.9652 19.2978 18.066 19.5171 18.1164C19.6208 18.1401 19.7275 18.152 19.8342 18.152C19.9941 18.152 20.1541 18.1312 20.3082 18.0956L20.646 18.0068L20.4978 17.6927C20.3112 17.192 20.3112 16.6379 20.4978 16.1371C20.6074 15.8112 20.6845 15.4734 20.726 15.1297C20.9926 15.266 21.2889 15.3342 21.5882 15.3312C22.0801 15.3371 22.5393 15.0942 22.806 14.6823L22.9689 14.386L22.6726 14.2616C21.6801 13.8497 21.4608 12.7416 21.4164 12.143C21.5142 12.1638 21.6119 12.1757 21.7126 12.1786L21.7956 12.2349C22.8741 12.2349 23.2356 11.1356 23.2504 11.0882L23.3719 10.7001H22.966C22.1127 10.6704 21.3156 10.2675 20.7882 9.59489ZM21.7986 11.9357H21.7571C21.5408 11.9386 21.3274 11.8793 21.1438 11.7668C21.1438 11.7668 20.9867 13.909 22.5838 14.5727V14.5815C22.3734 14.9016 22.0119 15.0912 21.6297 15.0852C21.1971 15.1119 20.7793 14.9282 20.5067 14.5934C20.5156 15.0971 20.4327 15.6008 20.2638 16.0749C20.0475 16.6467 20.0475 17.2808 20.2638 17.8527C20.1304 17.8853 19.9971 17.903 19.8608 17.903C19.7778 17.903 19.6919 17.8941 19.6119 17.8734C19.2178 17.7786 18.9037 17.4882 18.7764 17.106C18.7764 17.106 18.8386 19.1623 16.4415 19.1623H16.4238C16.6045 18.8186 16.6993 18.4364 16.6963 18.0482C16.8001 16.5282 17.8312 16.3119 17.8312 16.3119C17.5467 16.2764 17.2771 16.1756 17.0401 16.0157C16.8238 15.8349 16.6993 15.5682 16.6934 15.2868C17.3867 15.3164 18.0564 15.029 18.5097 14.5016C18.7823 14.1905 18.963 13.8112 19.0401 13.4052C18.6579 13.6927 18.1867 13.8378 17.7097 13.8172H17.4667C17.2089 13.7905 16.963 13.6897 16.7645 13.5208C17.6771 12.9282 18.3171 11.9149 17.7511 10.3771C17.2949 9.14453 16.2015 8.22305 15.1023 7.52975C14.7378 7.30451 14.5186 7.04975 14.5186 6.83045C14.5186 6.31493 15.2504 6.30011 15.5527 5.94157C15.8993 5.53861 15.683 4.88676 15.3808 4.49565C15.4667 4.48084 15.5556 4.47491 15.6415 4.47491C16.1364 4.46898 16.6134 4.6675 16.9571 5.02306C17.3067 5.35491 17.44 5.85565 17.3067 6.31787L17.4667 6.35045C17.5645 6.36827 17.6623 6.37715 17.763 6.38009H17.8282C18.6964 6.38009 19.0875 5.47046 19.0875 5.47046C19.0875 5.47046 20.0119 6.60827 18.6519 7.49711C18.4179 7.64825 18.3141 7.79345 18.3556 7.94159L18.3763 8.03933L18.4741 8.05715C19.4608 8.32379 19.9556 9.00527 20.5689 9.77861C21.1497 10.5164 22.0267 10.9608 22.966 10.9934H22.9837C22.9837 10.9934 22.6875 11.9357 21.7986 11.9357Z" fill="#222220"/>
<path d="M19.896 7.95602C20.2279 8.14562 20.5153 8.40344 20.7405 8.71154C20.9093 8.9723 21.1493 9.17972 21.4338 9.30416C21.5405 9.33974 21.656 9.3575 21.7686 9.3575C22.222 9.3575 22.6367 9.09974 22.8442 8.69672L23.016 8.31158L22.5982 8.28788C22.1479 8.2049 21.742 7.97378 21.4427 7.6271C21.2205 7.3871 20.9093 7.24784 20.5805 7.2449C20.3257 7.24784 20.0797 7.32488 19.8664 7.4612L19.4812 7.73084L19.896 7.95602ZM20.5894 7.5323L20.5805 7.53524C20.8323 7.53524 21.0694 7.64492 21.2383 7.83158C21.5849 8.2286 22.059 8.4923 22.5805 8.57822C22.4205 8.8775 22.1093 9.06416 21.7686 9.0671C21.6857 9.0671 21.6027 9.05228 21.5227 9.02564C21.0427 8.86268 20.8738 8.13674 20.0412 7.69826C20.2042 7.59158 20.3938 7.53524 20.5894 7.5323ZM20.0916 11.7753L20.0857 11.7693C19.8427 9.81374 18.4235 8.40044 16.8442 7.54412C16.699 7.46414 16.5628 7.39898 16.4324 7.3367C17.0842 7.47008 17.7628 7.31006 18.2872 6.90116C18.2872 6.90116 17.3716 7.57376 15.499 6.96338C16.0175 7.30118 17.0249 7.77524 17.9464 8.54564C20.2457 10.5664 18.6013 12.5397 18.6013 12.5397C19.2887 11.8878 19.5287 10.8923 19.2205 9.99746C19.7065 10.8064 19.9405 11.7427 19.8901 12.6849C19.825 14.2375 18.9628 15.5945 18.0739 16.676C17.8072 17.0167 17.6235 17.4167 17.5465 17.8434C17.6975 17.4197 17.9257 17.0286 18.222 16.6908C19.1849 15.5619 19.9998 14.3916 20.1153 12.7056C20.2161 13.0019 20.6249 13.8642 21.2768 14.1871C21.2768 14.1871 20.459 13.6953 20.0916 11.7753ZM7.82497 19.002C7.68277 18.6997 7.60573 18.3679 7.60273 18.0331C7.59385 17.4198 7.34203 16.836 6.90349 16.4094C6.99235 16.3679 7.07533 16.3146 7.14943 16.2494C7.43089 16.0094 7.59385 15.6597 7.59091 15.2894L7.57309 15.0256H7.30645C6.69607 15.0553 6.10351 14.8035 5.70349 14.3383C5.61756 14.2375 5.54052 14.1279 5.47237 14.0124C5.73608 14.0923 6.00865 14.1309 6.28423 14.1309H6.55387C6.87685 14.0983 7.18201 13.9679 7.42795 13.7575L7.70347 13.5057L7.38943 13.3042C6.68425 12.8538 5.96422 12.0005 6.51829 10.5012C6.87685 9.5264 7.70347 8.64638 9.05161 7.799C9.50497 7.50272 9.75385 7.1738 9.75385 6.85088C9.75385 6.35306 9.33607 6.15458 9.03091 6.01532C8.89165 5.96196 8.76421 5.88493 8.65165 5.78715C8.41459 5.51159 8.61313 4.98715 8.83531 4.7027L9.13165 4.33233L8.67535 4.24345C8.57161 4.22567 8.46499 4.21974 8.35831 4.21974C7.78051 4.20196 7.22347 4.42418 6.81457 4.83011C6.47977 5.159 6.30499 5.62122 6.33757 6.08936H6.15979C5.49311 6.08936 5.17904 5.38418 5.16719 5.35456L4.98052 4.91307L4.68422 5.28344C4.40867 5.64493 4.28126 6.09824 4.33163 6.5516C4.43237 7.05236 4.74349 7.4849 5.18793 7.73678C5.22941 7.76342 5.27089 7.79306 5.30645 7.82564C4.37015 8.12198 3.84571 8.79752 3.29459 9.49976L3.2146 9.6005C2.68719 10.2731 1.88719 10.6761 1.03385 10.7056H0.62793L0.75237 11.0938C0.75237 11.1412 1.12571 12.2405 2.20718 12.2405H2.26052C2.36126 12.2375 2.45904 12.2257 2.55682 12.2049C2.51237 12.7975 2.29311 13.9116 1.29756 14.3235L1.00126 14.4479L1.16422 14.7442C1.43089 15.156 1.89015 15.399 2.382 15.3931C2.68126 15.396 2.9746 15.3279 3.24126 15.1916C3.28274 15.5353 3.35978 15.8731 3.46941 16.199C3.65608 16.6998 3.65608 17.2538 3.46941 17.7546L3.32126 18.0687L3.65904 18.1575C3.81311 18.1931 3.97311 18.2138 4.13311 18.2138C4.23978 18.2138 4.34645 18.202 4.45015 18.1783C4.66941 18.1279 4.87089 18.0271 5.04274 17.8819C5.14645 18.2138 5.32423 18.519 5.56423 18.7708C6.02941 19.2479 6.69607 19.4849 7.56421 19.4879H8.09161L7.82497 19.002ZM7.57015 19.1679C5.17311 19.1679 5.23237 17.1116 5.23237 17.1116C5.10496 17.4938 4.79089 17.7842 4.39682 17.879C4.31681 17.8998 4.23089 17.9086 4.14793 17.9086C4.01163 17.9086 3.8783 17.8909 3.74793 17.8582C3.96422 17.2864 3.96422 16.6524 3.74793 16.0805C3.57904 15.6064 3.49904 15.1027 3.50793 14.599C3.23534 14.9338 2.81756 15.1175 2.38496 15.0909H2.37015C1.98496 15.0968 1.62349 14.9042 1.41311 14.5842C3.01015 13.9205 2.85311 11.7783 2.85311 11.7783C2.66941 11.8909 2.45608 11.9501 2.23978 11.9472H2.20718C1.3183 11.9472 1.022 11.0049 1.022 11.0049H1.03978C1.97904 10.9753 2.85904 10.5309 3.43978 9.7931C4.05015 9.01976 4.54793 8.33828 5.53459 8.07158L5.63237 8.05382L5.65311 7.95602C5.67978 7.80494 5.57608 7.65974 5.35682 7.5116C3.99682 6.6227 4.92126 5.48492 4.92126 5.48492C4.92126 5.48492 5.30645 6.39458 6.18055 6.39458H6.22201C6.32275 6.39158 6.42055 6.3827 6.51829 6.36494L6.67831 6.33236C6.54199 5.87011 6.67831 5.36937 7.02793 5.03752C7.37161 4.68196 7.84867 4.48345 8.34349 4.48937C8.42941 4.48937 8.51833 4.4953 8.60425 4.51011C8.30791 4.90418 8.08867 5.55604 8.43535 5.95604C8.73163 6.30272 9.46645 6.31754 9.46645 6.84494C9.46645 7.06418 9.26203 7.319 8.89759 7.54712C7.79533 8.24048 6.70201 9.16196 6.24865 10.3945C5.68274 11.9323 6.32275 12.9546 7.23535 13.5382C7.03681 13.7042 6.79087 13.8079 6.53311 13.8346H6.28717C5.81015 13.8553 5.33904 13.7101 4.95682 13.4227C5.03386 13.8286 5.21459 14.2079 5.48422 14.519C5.93756 15.0435 6.61015 15.3338 7.30351 15.3042C7.29757 15.5857 7.17313 15.8523 6.95683 16.0331C6.71977 16.1931 6.45013 16.2938 6.16573 16.3294C6.16573 16.3294 7.19977 16.5397 7.31239 18.0657C7.30939 18.4538 7.40425 18.8361 7.58497 19.1797L7.57015 19.1679Z" fill="#222220"/>
<path d="M2.2283 9.35406H2.23126C2.34385 9.35406 2.45941 9.3363 2.56608 9.30078C2.85052 9.17628 3.09052 8.96892 3.25941 8.70816C3.48163 8.4 3.76904 8.14224 4.10089 7.95258L4.5157 7.7304L4.13052 7.46076C3.91719 7.32444 3.67126 7.2474 3.41941 7.24446C3.09052 7.2474 2.77941 7.38666 2.55718 7.62966C2.26089 7.97334 1.852 8.2074 1.4046 8.29038L0.986816 8.31114L1.1557 8.69628C1.36311 9.0993 1.77496 9.35112 2.2283 9.35406ZM2.76163 7.83114C2.92756 7.64448 3.16459 7.5348 3.41644 7.5348C3.60904 7.5378 3.79867 7.59708 3.96163 7.70076C3.12311 8.14818 2.9483 8.86518 2.48015 9.02814C2.40311 9.05484 2.32015 9.06966 2.23719 9.06966C1.89348 9.06966 1.57941 8.88 1.41941 8.57778C1.94089 8.49186 2.41497 8.22816 2.76163 7.83114ZM4.11573 12.6963C4.06536 11.7541 4.29647 10.8178 4.78536 10.0089C4.47721 10.9037 4.71721 11.8993 5.40462 12.5511C5.40462 12.5511 3.75721 10.5778 6.05943 8.55702C6.98091 7.78668 7.98537 7.31262 8.50389 6.97482C6.63129 7.5852 5.71573 6.9126 5.71573 6.9126C6.24015 7.3215 6.91575 7.48146 7.56759 7.34814C7.43721 7.41036 7.30089 7.47852 7.15575 7.55556C5.57647 8.41482 4.14832 9.82818 3.91425 11.7837V11.7689C3.54684 13.6889 2.72907 14.1808 2.72907 14.1808C3.37795 13.8607 3.78981 12.9956 3.88758 12.6992C3.99721 14.3882 4.82092 15.5585 5.78388 16.6844C6.07719 17.0222 6.30831 17.4133 6.45945 17.837C6.37941 17.4133 6.19575 17.0134 5.9261 16.6756C5.03721 15.5941 4.17795 14.237 4.11573 12.6963ZM11.4579 9.12888C11.5616 9.02814 11.7068 8.98074 11.852 8.9985V9.55848C11.8491 9.69774 11.8135 9.83112 11.7453 9.95256H12.3053C12.2372 9.83112 12.2016 9.69774 12.1987 9.55848V8.9985C12.3409 8.98074 12.4861 9.02814 12.5898 9.12888V8.74074H11.4579V9.12888ZM11.2239 6.44148H11.2179C11.3039 6.51558 11.4046 6.5748 11.5143 6.61038L11.5854 6.64296V6.27558L10.9276 6C10.9602 6.18372 11.0669 6.34368 11.2239 6.44148ZM12.7854 6.43854L12.7824 6.44148C12.9395 6.34368 13.0461 6.18372 13.0787 6L12.4209 6.27558V6.64002L12.489 6.60738C12.5987 6.57186 12.6995 6.51258 12.7854 6.43854Z" fill="#222220"/>
<path d="M13.9645 4.9542C13.9645 4.40012 13.0311 3.90234 12.003 3.90234C10.9748 3.90234 10.0415 4.40012 10.0415 4.9542L10.0622 5.09049L10.4741 7.46085L10.0622 7.70085L8.98671 8.31123C8.98671 8.31123 8.74671 8.43567 8.63409 8.50977C8.22819 8.80605 8.14221 9.20307 8.37633 9.37497C8.43555 8.97195 8.78817 8.67567 9.19707 8.68755C9.53781 8.69643 9.85485 8.86827 10.0475 9.14973C10.1067 9.22089 10.16 9.29793 10.2074 9.37497C10.2696 9.47571 10.3319 9.56457 10.3941 9.65049H7.65039C7.88151 10.0475 8.01483 10.4949 8.04447 10.9542V17.049C8.04447 18.5305 9.17925 19.2268 10.4148 19.2268C11.363 19.2268 11.4904 19.1823 12.0119 19.7038C12.5334 19.1823 12.6608 19.2268 13.6089 19.2268C14.8356 19.2268 15.9793 18.5245 15.9793 17.049V10.9601C16.0089 10.5009 16.1423 10.0534 16.3734 9.65643H13.6C13.6622 9.57051 13.7245 9.48159 13.7867 9.38085C13.8371 9.30381 13.8904 9.22677 13.9467 9.15567C14.1422 8.87421 14.4593 8.70237 14.8 8.69343C15.2089 8.68161 15.5615 8.97789 15.6207 9.38085C15.8578 9.21195 15.7719 8.78829 15.363 8.51571C15.2534 8.43867 15.0134 8.31717 15.0134 8.31717L13.9467 7.68903L13.5348 7.44903L13.9467 5.07864L13.9645 4.9542ZM10.4385 5.22679L11.8845 5.71568V7.98531L10.8207 7.42233L10.4385 5.22679ZM8.24295 10.0505H10.7348C10.9274 10.252 11.1645 10.4119 11.4252 10.5127C11.3689 10.7083 11.3837 10.9186 11.4638 11.1053C11.5586 11.3038 11.7275 11.4579 11.9348 11.5379C11.9733 11.8786 12.2045 12.1631 12.5274 12.2757C12.3497 12.4564 12.1748 12.6253 12.1037 12.6934L10.4474 12.6668C10.3911 12.6401 10.3467 12.5986 10.317 12.5453V12.5245L10.5867 12.569H10.6045C10.6578 12.569 10.7022 12.5334 10.7111 12.4801C10.72 12.4209 10.6815 12.3675 10.6223 12.3557L10.2904 12.3024L10.6578 11.0283L10.3082 10.2934L9.74817 10.8861L9.71259 12.2105L9.33633 12.1512C9.27705 12.1394 9.22371 12.1779 9.21189 12.2371V12.2401C9.20295 12.2994 9.24147 12.3527 9.30075 12.3646L9.45777 12.3883C9.40149 12.4209 9.36297 12.4446 9.36003 12.4505L9.32745 12.4742V12.5127C9.25335 12.8505 9.38967 13.2001 9.66819 13.4016V13.449C9.65037 13.5646 9.73041 13.6742 9.84597 13.6949H9.88149C9.97929 13.6949 10.0652 13.6268 10.086 13.529C10.1571 13.5319 10.2252 13.5319 10.2963 13.529H10.3407L12.5126 13.9231L12.5482 13.8994C12.72 13.7779 13.3808 13.3068 13.5971 13.1379C13.6593 13.1912 13.7304 13.2387 13.8045 13.2742C13.7037 13.5853 13.7808 13.926 14.006 14.1631H8.44149V10.9601C8.42967 10.649 8.36151 10.3408 8.24295 10.0505ZM13.4104 12.9808C13.1852 13.1468 12.6311 13.5498 12.4296 13.692L10.4593 13.3483V13.2949C10.4919 13.1616 10.5096 13.0253 10.5126 12.889L12.1719 12.9157L12.2045 12.8831C12.2312 12.8564 12.7556 12.3498 13.0223 12.0564C13.0934 12.1453 13.1763 12.2194 13.2711 12.2787C13.2237 12.5216 13.2741 12.7734 13.4104 12.9808ZM10.1186 12.6253V12.6342C10.163 12.7171 10.2282 12.7882 10.3082 12.8357C10.3052 12.9571 10.2933 13.0757 10.2726 13.1942C10.2726 13.2208 10.2726 13.2475 10.2519 13.2742V13.3157C10.1156 13.3157 9.98223 13.2949 9.85185 13.2534C9.61485 13.126 9.48147 12.8653 9.51999 12.5986C9.62667 12.5245 9.74817 12.4771 9.87555 12.4594C9.98523 12.4564 10.083 12.5216 10.1186 12.6253ZM9.91407 12.2312L9.94671 10.9779L10.243 10.6816L10.4237 11.0579L10.0712 12.2787L9.91407 12.2312ZM13.3956 18.8327H13.1111L13.3334 18.1068C13.3689 18.006 13.1852 17.8756 13.1082 17.7601C13.2889 17.8698 13.4756 17.9675 13.6682 18.0564C13.6682 18.0801 13.3956 18.8327 13.3956 18.8327ZM14.157 18.0208L14.1333 18.0001L13.9793 18.8001C13.8815 18.8001 13.7778 18.8209 13.683 18.8268L13.8459 18.0564C13.8933 17.8282 13.28 17.7601 12.9778 17.3068C12.7793 17.4727 12.5245 17.5497 12.2697 17.5231C12.0445 17.5201 11.8223 17.4964 11.603 17.452C11.5645 17.449 11.526 17.449 11.4875 17.452C11.3956 17.446 11.3067 17.4934 11.2593 17.5734L11.2148 17.6475L10.3704 17.4431L10.1689 17.7927C10.1363 17.8401 10.1423 17.9053 10.1837 17.9468L10.24 18.009C10.1837 18.1186 10.1126 18.2194 10.0267 18.3053L9.90225 18.1512C9.80745 17.9971 9.81633 17.7987 9.92301 17.6535L10.2548 17.0934L10.963 17.2001L10.8534 16.9483C10.7052 16.6164 10.9304 16.1927 10.9541 15.9498C10.9541 16.0238 10.8771 16.0386 10.8 16.0386H10.5956C10.5807 16.0357 10.563 16.0357 10.5482 16.0386L10.3556 16.1542L10.2045 16.0149C10.1808 15.9705 10.1897 15.9172 10.2252 15.8845L10.5749 15.4905L10.16 15.0075L10.7526 15.3038L10.9304 15.0905C10.9778 15.1379 10.9571 15.2623 10.9571 15.2623C11.3867 15.369 11.6859 15.7601 11.6741 16.2046V16.2905C11.7333 16.3853 11.8282 16.4505 11.9348 16.4772L12.7378 16.5571C12.8978 16.5068 13.0608 16.4742 13.2267 16.4535C13.3689 16.4535 13.5111 16.4979 13.6296 16.5749C13.686 16.5364 13.7541 16.5127 13.8222 16.5097H13.8489C14.2074 16.5097 14.3585 16.8357 14.5511 17.1024C14.6963 17.3068 14.8919 17.6149 14.8919 17.6149C14.8356 17.6979 14.7437 17.7483 14.643 17.7483C14.6075 17.7512 14.5748 17.7512 14.5393 17.7483C14.1541 17.6772 14.0978 16.8831 13.8785 16.8208H13.843C13.8015 16.8208 13.763 16.8445 13.7423 16.8831C13.843 17.1527 13.7837 17.2623 13.8933 17.4757C13.9734 17.6031 14.0741 17.7186 14.1897 17.8164C14.1897 17.8164 14.1749 17.9349 14.157 18.0208ZM9.84003 17.2446H9.83409L9.86967 17.3364C9.84597 17.4164 9.57333 17.532 9.57333 17.532L9.51411 17.4016C9.43707 17.2149 9.49335 17.0016 9.65631 16.8801L10.1037 16.6075L10.5807 16.7083C10.5778 16.8031 10.6074 16.8949 10.6637 16.972L10.163 16.8772L9.86667 17.0845C9.81927 17.1261 9.81039 17.1912 9.84003 17.2446ZM15.5704 17.052C15.603 17.8757 15.0311 18.5986 14.2223 18.7587L14.3585 18.0416C14.3585 18.0001 14.3733 17.9497 14.3793 17.9083C14.4207 17.926 14.4623 17.9379 14.5037 17.9468C14.5511 17.9497 14.5985 17.9497 14.646 17.9468C14.8089 17.9468 14.963 17.8727 15.0608 17.7423L15.1674 17.6179L15.0785 17.4964C15.0785 17.4964 14.88 17.1823 14.7319 16.9749L14.6489 16.8505C14.483 16.6016 14.2726 16.2875 13.8548 16.2875H13.8163C13.7571 16.2905 13.6949 16.3023 13.6385 16.3231C13.5111 16.2609 13.3719 16.2283 13.2297 16.2283C13.0874 16.2312 12.9452 16.2579 12.8119 16.3083L12.7407 16.329L11.9585 16.252C11.9259 16.2372 11.8993 16.2135 11.8785 16.1838L12.0474 16.1157C12 15.5497 11.4548 15.2031 11.1585 15.0875C11.1437 15.0253 11.1141 14.9719 11.0697 14.9275L10.9008 14.7675L10.7526 14.9453L10.6785 15.0342L9.58221 14.5838L10.2963 15.4727L10.0148 15.8994C9.95559 15.9586 9.95259 16.0564 10.0148 16.1187L10.3112 16.3201L10.6074 16.2075H10.6371C10.6371 16.252 10.6045 16.4327 10.5897 16.4831L10.0741 16.3942L9.52299 16.6905C9.26817 16.8742 9.17925 17.212 9.31263 17.4964L9.37485 17.6298L9.46077 17.8194L9.65337 17.7394C9.58221 17.932 9.61185 18.1453 9.73629 18.3082L9.85185 18.4564L10.0059 18.652L10.1778 18.4683C10.2904 18.3557 10.3793 18.2253 10.4415 18.0801L10.4771 17.9616L10.3941 17.8698V17.8519L10.4889 17.6979L11.1734 17.8579L11.3274 17.8935L11.4104 17.7571L11.4548 17.6831C11.4548 17.6683 11.4548 17.6653 11.4963 17.6653H11.5704C11.8045 17.7127 12.0415 17.7364 12.2786 17.7394C12.4385 17.7483 12.5985 17.7305 12.7526 17.6831L13.1319 18.1157L12.9067 18.809V18.8505C12.5689 18.8446 12.246 18.9838 12.0178 19.2297C11.6534 18.8683 11.3956 18.8298 10.4208 18.8298C9.25041 18.8298 8.45925 18.1453 8.45925 17.052V14.3853H15.5704V17.052ZM15.763 10.0505C15.6415 10.3379 15.5763 10.6461 15.5645 10.9601V12.9571C15.3067 12.9009 15.1141 12.6816 15.0963 12.4179V12.3261H15.0074C14.8533 12.3142 14.7111 12.2431 14.6045 12.1335C14.4741 11.9823 14.403 11.7927 14.4 11.5942C14.2726 11.8016 14.2845 12.0682 14.4326 12.2638C14.5482 12.409 14.7171 12.5068 14.9007 12.5305C14.9541 12.8742 15.2297 13.1409 15.5733 13.1853V14.1631H14.3289C14.003 13.9972 13.8667 13.609 14.0119 13.2742L14.0593 13.1675L13.9497 13.126C13.5941 13.0016 13.3985 12.6194 13.5111 12.2579L13.5348 12.169L13.4519 12.1305C13.1408 11.9497 12.9689 11.5972 13.0193 11.2416C12.8563 11.4075 12.8148 11.6594 12.9185 11.8668C12.8593 11.9349 12.7823 12.0149 12.6963 12.1038C12.3852 12.0387 12.16 11.769 12.1482 11.452V11.3779L12.08 11.3512C11.8993 11.2979 11.7512 11.1735 11.6652 11.0075C11.6089 10.8712 11.5971 10.7172 11.6356 10.5749C11.6948 10.5868 11.7541 10.5957 11.8134 10.6016C11.8726 10.6045 11.9348 10.6045 11.9941 10.6016C12.4741 10.6016 12.9304 10.3942 13.2504 10.0386L15.763 10.0505ZM13.843 8.02977L14.3289 8.32605L14.4504 8.39715C14.1986 8.46531 13.9704 8.60163 13.7897 8.79123L13.7689 8.80899C13.7274 8.85345 13.6889 8.89791 13.6504 8.94531L13.6267 8.97495C13.5882 9.02235 13.5526 9.07269 13.52 9.12603L13.5023 9.15273C13.4607 9.21195 13.4222 9.27717 13.3838 9.34233C13.1141 9.87867 12.5897 10.2372 11.9941 10.2964C11.3985 10.2372 10.8741 9.87867 10.6045 9.34233C10.566 9.27717 10.5275 9.21495 10.4889 9.15273L10.4652 9.12015L10.3704 8.96607L10.3437 8.93343C10.3052 8.88603 10.2667 8.84163 10.2282 8.80011L10.2074 8.77941C10.0267 8.58975 9.79851 8.45343 9.54669 8.38533L9.67113 8.31417L10.16 8.01789L10.6608 7.72161L11.997 8.44755L13.3334 7.74531L13.843 8.02977ZM13.1852 7.43715L12.1215 7.99719V5.71864L13.5645 5.22975L13.1852 7.43715ZM12 5.47864L10.4178 4.84457C10.5512 4.52457 11.1734 4.25198 12 4.25198C12.8267 4.25198 13.4489 4.52457 13.5822 4.84457L12 5.47864Z" fill="#222220"/>
</svg>
