<svg width="24" height="24" viewBox="0 0 24 24" fill="none" xmlns="http://www.w3.org/2000/svg">
<g clip-path="url(#clip0_124_5118)">
<path d="M23.9783 11.995C23.9783 18.5896 18.6326 23.9353 12.038 23.9353C5.44357 23.9353 0.0976562 18.5896 0.0976562 11.995C0.0976562 5.40048 5.44357 0.0546875 12.038 0.0546875C18.6326 0.0546875 23.9783 5.40048 23.9783 11.995Z" fill="#1BA27A"/>
<path d="M17.6422 6.07617H6.33594V8.80572H10.6243V12.8177H13.3538V8.80572H17.6422V6.07617Z" fill="white"/>
<path d="M12.0144 13.2441C8.46695 13.2441 5.59089 12.6827 5.59089 11.99C5.59089 11.2975 8.46683 10.7359 12.0144 10.7359C15.5619 10.7359 18.4378 11.2975 18.4378 11.99C18.4378 12.6827 15.5619 13.2441 12.0144 13.2441ZM19.227 12.1991C19.227 11.306 15.9978 10.582 12.0144 10.582C8.03113 10.582 4.80176 11.306 4.80176 12.1991C4.80176 12.9856 7.30576 13.6409 10.6238 13.7861V19.5454H13.3532V13.7884C16.6968 13.6477 19.227 12.9897 19.227 12.1991Z" fill="white"/>
<rect x="14" y="14" width="10" height="10" rx="5" fill="#FF060A"/>
<path d="M22.0759 17.6744C21.7634 17.3858 21.3312 16.9452 20.9791 16.6327L20.9583 16.6182C20.9236 16.5903 20.8845 16.5685 20.8426 16.5536C19.9937 16.3952 16.0428 15.6567 15.9657 15.6661C15.9442 15.6691 15.9235 15.677 15.9053 15.689L15.8855 15.7046C15.8612 15.7294 15.8427 15.7593 15.8314 15.7921L15.8262 15.8057V15.8796V15.8911C16.2709 17.1296 18.0271 21.1867 18.3729 22.1388C18.3938 22.2033 18.4334 22.3263 18.5073 22.3325H18.524C18.5636 22.3325 18.7323 22.1096 18.7323 22.1096C18.7323 22.1096 21.7489 18.4514 22.0541 18.0618C22.0936 18.0139 22.1284 17.9622 22.1582 17.9077C22.1658 17.865 22.1622 17.8211 22.1478 17.7802C22.1334 17.7393 22.1086 17.7028 22.0759 17.6744ZM19.5062 18.1004L20.7937 17.0327L21.5489 17.7285L19.5062 18.1004ZM19.0063 18.0306L16.7897 16.214L20.376 16.8754L19.0063 18.0306ZM19.2062 18.5066L21.4749 18.141L18.8813 21.2659L19.2062 18.5066ZM16.4886 16.3952L18.8208 18.3743L18.4834 21.268L16.4886 16.3952Z" fill="white"/>
</g>
<defs>
<clipPath id="clip0_124_5118">
<rect width="24" height="24" fill="white"/>
</clipPath>
</defs>
</svg>
