<svg width="10" height="10" viewBox="0 0 10 10" fill="none" xmlns="http://www.w3.org/2000/svg">
<g id="usd-circle &#208;&#191;&#208;&#190;&#208;&#186;&#209;&#131;&#208;&#191;&#208;&#186;&#208;&#176;" clipPath="url(#clip0_431_17233)">
<path id="Vector" d="M4.8059 4.8516C4.57835 4.8516 4.35591 4.91907 4.16672 5.04549C3.97752 5.17191 3.83005 5.35159 3.74298 5.56182C3.6559 5.77205 3.63311 6.00337 3.67751 6.22655C3.7219 6.44972 3.83147 6.65472 3.99237 6.81562C4.15327 6.97652 4.35827 7.0861 4.58145 7.13049C4.80462 7.17488 5.03595 7.1521 5.24618 7.06502C5.4564 6.97794 5.63608 6.83048 5.7625 6.64128C5.88892 6.45208 5.9564 6.22964 5.9564 6.0021C5.9564 5.69697 5.83518 5.40433 5.61942 5.18857C5.40366 4.97281 5.11103 4.8516 4.8059 4.8516ZM4.8059 6.3856C4.73005 6.3856 4.6559 6.3631 4.59284 6.32096C4.52977 6.27883 4.48062 6.21893 4.45159 6.14886C4.42256 6.07878 4.41497 6.00167 4.42977 5.92728C4.44456 5.85289 4.48109 5.78455 4.53472 5.73092C4.58836 5.67729 4.65669 5.64076 4.73108 5.62597C4.80547 5.61117 4.88258 5.61876 4.95266 5.64779C5.02273 5.67682 5.08263 5.72597 5.12477 5.78904C5.16691 5.8521 5.1894 5.92625 5.1894 6.0021C5.1894 6.10381 5.14899 6.20135 5.07707 6.27327C5.00515 6.34519 4.90761 6.3856 4.8059 6.3856ZM4.53361 3.97338C4.57009 4.0083 4.61309 4.03567 4.66017 4.05392C4.70607 4.07421 4.75571 4.08469 4.8059 4.08469C4.85609 4.08469 4.90572 4.07421 4.95163 4.05392C4.9987 4.03567 5.04171 4.0083 5.07818 3.97338L5.9564 3.11051C6.03065 3.03626 6.07236 2.93556 6.07236 2.83055C6.07236 2.72555 6.03065 2.62485 5.9564 2.5506C5.88215 2.47635 5.78145 2.43464 5.67644 2.43464C5.57144 2.43464 5.47074 2.47635 5.39649 2.5506L5.1894 2.77686V1.4001C5.1894 1.29839 5.14899 1.20085 5.07707 1.12893C5.00515 1.05701 4.90761 1.0166 4.8059 1.0166C4.70419 1.0166 4.60664 1.05701 4.53472 1.12893C4.4628 1.20085 4.4224 1.29839 4.4224 1.4001V2.77686L4.21531 2.5506C4.14106 2.47635 4.04036 2.43464 3.93535 2.43464C3.83035 2.43464 3.72965 2.47635 3.6554 2.5506C3.58115 2.62485 3.53944 2.72555 3.53944 2.83055C3.53944 2.93556 3.58115 3.03626 3.6554 3.11051L4.53361 3.97338ZM7.4904 6.0021C7.4904 5.92625 7.4679 5.8521 7.42576 5.78904C7.38363 5.72597 7.32373 5.67682 7.25365 5.64779C7.18358 5.61876 7.10647 5.61117 7.03208 5.62597C6.95769 5.64076 6.88935 5.67729 6.83572 5.73092C6.78209 5.78455 6.74556 5.85289 6.73077 5.92728C6.71597 6.00167 6.72356 6.07878 6.75259 6.14886C6.78161 6.21893 6.83077 6.27883 6.89383 6.32096C6.9569 6.3631 7.03105 6.3856 7.1069 6.3856C7.20861 6.3856 7.30615 6.34519 7.37807 6.27327C7.44999 6.20135 7.4904 6.10381 7.4904 6.0021ZM7.8739 3.3176H6.7234C6.62169 3.3176 6.52414 3.358 6.45222 3.42992C6.3803 3.50184 6.3399 3.59939 6.3399 3.7011C6.3399 3.80281 6.3803 3.90035 6.45222 3.97227C6.52414 4.04419 6.62169 4.0846 6.7234 4.0846H7.8739C7.97561 4.0846 8.07315 4.125 8.14507 4.19692C8.21699 4.26884 8.25739 4.36639 8.25739 4.4681V7.5361C8.25739 7.63781 8.21699 7.73535 8.14507 7.80727C8.07315 7.87919 7.97561 7.91959 7.8739 7.91959H1.7379C1.63619 7.91959 1.53865 7.87919 1.46673 7.80727C1.39481 7.73535 1.3544 7.63781 1.3544 7.5361V4.4681C1.3544 4.36639 1.39481 4.26884 1.46673 4.19692C1.53865 4.125 1.63619 4.0846 1.7379 4.0846H2.8884C2.99011 4.0846 3.08766 4.04419 3.15958 3.97227C3.2315 3.90035 3.2719 3.80281 3.2719 3.7011C3.2719 3.59939 3.2315 3.50184 3.15958 3.42992C3.08766 3.358 2.99011 3.3176 2.8884 3.3176H1.7379C1.43277 3.3176 1.14014 3.43881 0.924376 3.65457C0.708615 3.87033 0.587402 4.16297 0.587402 4.4681V7.5361C0.587402 7.84123 0.708615 8.13386 0.924376 8.34962C1.14014 8.56538 1.43277 8.68659 1.7379 8.68659H7.8739C8.17903 8.68659 8.47166 8.56538 8.68742 8.34962C8.90318 8.13386 9.02439 7.84123 9.02439 7.5361V4.4681C9.02439 4.16297 8.90318 3.87033 8.68742 3.65457C8.47166 3.43881 8.17903 3.3176 7.8739 3.3176ZM2.1214 6.0021C2.1214 6.07795 2.14389 6.15209 2.18603 6.21516C2.22817 6.27822 2.28807 6.32738 2.35814 6.3564C2.42822 6.38543 2.50533 6.39302 2.57972 6.37823C2.65411 6.36343 2.72244 6.32691 2.77608 6.27327C2.82971 6.21964 2.86623 6.15131 2.88103 6.07691C2.89583 6.00252 2.88823 5.92541 2.85921 5.85534C2.83018 5.78526 2.78103 5.72537 2.71796 5.68323C2.6549 5.64109 2.58075 5.6186 2.5049 5.6186C2.40319 5.6186 2.30565 5.659 2.23373 5.73092C2.16181 5.80284 2.1214 5.90039 2.1214 6.0021Z" fill="#707E8F"/>
</g>
<defs>
<clipPath id="clip0_431_17233">
<rect width="9.20399" height="9.20399" fill="white" transform="translate(0.204102 0.633301)"/>
</clipPath>
</defs>
</svg>
