<svg width="48" height="48" viewBox="0 0 48 48" fill="none" xmlns="http://www.w3.org/2000/svg">
<g id="users-alt">
<path id="Vector" d="M25.6596 22.3331C26.7268 21.4093 27.5827 20.2668 28.1694 18.9831C28.756 17.6994 29.0597 16.3045 29.0596 14.8931C29.0596 12.2409 28.0061 9.69736 26.1307 7.82199C24.2553 5.94663 21.7118 4.89306 19.0596 4.89306C16.4075 4.89306 13.8639 5.94663 11.9886 7.82199C10.1132 9.69736 9.05964 12.2409 9.05964 14.8931C9.05962 16.3045 9.36324 17.6994 9.94989 18.9831C10.5365 20.2668 11.3925 21.4093 12.4596 22.3331C9.65991 23.6008 7.28457 25.6481 5.6176 28.2301C3.95063 30.8122 3.06258 33.8197 3.05964 36.8931C3.05964 37.4235 3.27035 37.9322 3.64542 38.3073C4.02049 38.6823 4.5292 38.8931 5.05964 38.8931C5.59007 38.8931 6.09878 38.6823 6.47385 38.3073C6.84892 37.9322 7.05964 37.4235 7.05964 36.8931C7.05964 33.7105 8.32392 30.6582 10.5744 28.4078C12.8248 26.1573 15.877 24.8931 19.0596 24.8931C22.2422 24.8931 25.2945 26.1573 27.5449 28.4078C29.7954 30.6582 31.0596 33.7105 31.0596 36.8931C31.0596 37.4235 31.2703 37.9322 31.6454 38.3073C32.0205 38.6823 32.5292 38.8931 33.0596 38.8931C33.5901 38.8931 34.0988 38.6823 34.4739 38.3073C34.8489 37.9322 35.0596 37.4235 35.0596 36.8931C35.0567 33.8197 34.1686 30.8122 32.5017 28.2301C30.8347 25.6481 28.4594 23.6008 25.6596 22.3331ZM19.0596 20.8931C17.8729 20.8931 16.7129 20.5412 15.7262 19.8819C14.7395 19.2226 13.9705 18.2855 13.5164 17.1892C13.0622 16.0928 12.9434 14.8864 13.1749 13.7225C13.4064 12.5586 13.9779 11.4895 14.817 10.6504C15.6561 9.8113 16.7252 9.23986 17.8891 9.00835C19.053 8.77684 20.2594 8.89566 21.3557 9.34978C22.4521 9.80391 23.3892 10.5729 24.0485 11.5596C24.7077 12.5463 25.0596 13.7064 25.0596 14.8931C25.0596 16.4844 24.4275 18.0105 23.3023 19.1357C22.1771 20.2609 20.6509 20.8931 19.0596 20.8931ZM38.5396 21.5331C39.8196 20.0917 40.6557 18.3112 40.9472 16.4057C41.2388 14.5003 40.9735 12.5512 40.1832 10.7931C39.3928 9.03491 38.1112 7.54265 36.4926 6.4959C34.8739 5.44916 32.9872 4.89254 31.0596 4.89306C30.5292 4.89306 30.0205 5.10377 29.6454 5.47885C29.2703 5.85392 29.0596 6.36263 29.0596 6.89306C29.0596 7.42349 29.2703 7.9322 29.6454 8.30727C30.0205 8.68235 30.5292 8.89306 31.0596 8.89306C32.6509 8.89306 34.1771 9.5252 35.3023 10.6504C36.4275 11.7756 37.0596 13.3018 37.0596 14.8931C37.0568 15.9435 36.7782 16.9749 36.2518 17.8839C35.7253 18.7929 34.9694 19.5478 34.0596 20.0731C33.7631 20.2441 33.5155 20.4884 33.3404 20.7825C33.1653 21.0767 33.0686 21.4109 33.0596 21.7531C33.0513 22.0926 33.1295 22.4287 33.287 22.7296C33.4444 23.0305 33.6759 23.2864 33.9596 23.4731L34.7396 23.9931L34.9996 24.1331C37.4104 25.2765 39.4443 27.085 40.8616 29.3457C42.2789 31.6063 43.0207 34.2249 42.9996 36.8931C42.9996 37.4235 43.2103 37.9322 43.5854 38.3073C43.9605 38.6823 44.4692 38.8931 44.9996 38.8931C45.5301 38.8931 46.0388 38.6823 46.4138 38.3073C46.7889 37.9322 46.9996 37.4235 46.9996 36.8931C47.016 33.8239 46.2473 30.8016 44.7666 28.1132C43.2859 25.4248 41.1423 23.1597 38.5396 21.5331Z" fill="#F8FBFF"/>
</g>
</svg>
