<svg width="120" height="48" viewBox="0 0 120 48" fill="none" xmlns="http://www.w3.org/2000/svg">
<g clipPath="url(#clip0_309_1928)">
<path d="M43.3627 42.3387C45.1558 42.3387 46.6092 40.9187 46.6092 39.167C46.6092 37.4151 45.1558 35.9951 43.3627 35.9951C41.5698 35.9951 40.1162 37.4151 40.1162 39.167C40.1162 40.9187 41.5698 42.3387 43.3627 42.3387Z" fill="#F8FBFF"/>
<path d="M21.2926 30.6982H19.5354V47.4304H21.2926V30.6982Z" fill="#F8FBFF"/>
<path d="M23.7649 32.4159H27.7262V47.4603H29.4835V32.4159H33.415V30.699L23.7649 30.6699V32.4159Z" fill="#F8FBFF"/>
<path d="M39.7291 32.939C40.8311 32.2987 42.0821 31.9787 43.4818 31.9787C45.4178 31.9787 47.1156 32.6188 48.4856 33.9283L49.7365 32.7352C47.9793 31.0765 45.8944 30.2617 43.4818 30.2617C41.0098 30.2617 38.8952 31.1347 37.108 32.8517C35.3508 34.5685 34.4573 36.6345 34.4573 39.0499C34.4573 41.4941 35.321 43.5602 37.0782 45.3061C38.8356 47.0231 40.9503 47.8961 43.4521 47.8961C45.8646 47.8961 47.9495 47.0522 49.7067 45.3934L48.4558 44.2294C47.0858 45.539 45.4178 46.1792 43.4521 46.1792C41.9629 46.1792 40.6524 45.83 39.5504 45.1317C38.5079 44.4623 37.674 43.5893 37.108 42.5126C36.5124 41.4359 36.2145 40.2719 36.2145 39.0499C36.2145 37.915 36.4826 36.8092 37.0484 35.7034C37.7038 34.5394 38.5675 33.6082 39.7291 32.939Z" fill="#F8FBFF"/>
<path d="M60.5782 30.2617C58.106 30.2617 55.9913 31.1347 54.2043 32.8517C52.4471 34.5685 51.5535 36.6345 51.5535 39.0499C51.5535 41.465 52.4471 43.5311 54.2043 45.277C55.9616 46.994 58.0762 47.867 60.5782 47.867C63.08 47.867 65.1649 46.994 66.9222 45.277C68.6794 43.5602 69.573 41.4941 69.573 39.0499C69.573 36.6345 68.7092 34.5394 66.952 32.8225C65.1946 31.1347 63.08 30.2617 60.5782 30.2617ZM66.9222 42.4835C66.3265 43.5602 65.4925 44.4332 64.4799 45.0734C63.3778 45.7718 62.0971 46.121 60.608 46.121C59.357 46.121 58.1954 45.83 57.0934 45.2479C55.9913 44.666 55.0978 43.8512 54.4426 42.8619C53.7277 41.7852 53.3704 40.5339 53.3704 39.0499C53.3704 37.915 53.6384 36.8092 54.2043 35.7325C54.8297 34.5394 55.6935 33.6082 56.8551 32.939C57.9869 32.2987 59.2378 31.9787 60.608 31.9787C61.7696 31.9787 62.9014 32.2405 64.0033 32.7934C65.2244 33.4045 66.1775 34.2483 66.8329 35.3541C67.4881 36.4599 67.8157 37.6821 67.8157 39.0499C67.8157 40.2719 67.5178 41.4359 66.9222 42.4835Z" fill="#F8FBFF"/>
<path d="M91.0772 32.939C92.1793 32.2987 93.4301 31.9787 94.83 31.9787C96.7659 31.9787 98.4636 32.6188 99.8337 33.9283L101.085 32.7352C99.3274 31.0765 97.2425 30.2617 94.83 30.2617C92.3578 30.2617 90.2432 31.1347 88.4561 32.8517C86.6989 34.5685 85.8054 36.6345 85.8054 39.0499C85.8054 41.4941 86.6691 43.5602 88.4264 45.3061C90.1836 47.0231 92.2983 47.8961 94.8002 47.8961C97.2128 47.8961 99.2977 47.0522 101.055 45.3934L99.8039 44.2294C98.4338 45.539 96.7659 46.1792 94.8002 46.1792C93.3109 46.1792 92.0005 45.83 90.8985 45.1317C89.8561 44.4623 89.022 43.5893 88.4561 42.5126C87.8605 41.4359 87.5626 40.2719 87.5626 39.0499C87.5626 37.915 87.8307 36.8092 88.3966 35.7034C89.0221 34.5394 89.9156 33.6082 91.0772 32.939Z" fill="#F8FBFF"/>
<path d="M82.3205 44.2585L73.0874 30.7273V30.6982H71.3301V47.4304H73.0874V33.7246L82.3205 47.4304H84.0778V30.6982H82.3205V44.2585Z" fill="#F8FBFF"/>
<path d="M12.9532 37.886C13.5787 37.1293 13.9659 36.1691 13.9659 35.1215C13.9659 32.7063 11.9405 30.7275 9.46845 30.7275H0.0268555V47.2561H12.5064C15.1572 47.2561 17.3314 45.1318 17.3314 42.5419C17.3314 40.1266 15.3955 38.1187 12.9532 37.886ZM1.72455 32.3862H9.46845C11.0172 32.3862 12.2682 33.6084 12.2682 35.1215C12.2682 36.6347 11.0172 37.8569 9.46845 37.8569H1.72455V32.3862ZM12.5064 45.6264H1.72455V39.5155H12.5064C14.2339 39.5155 15.6338 40.8833 15.6338 42.571C15.6338 44.2587 14.2339 45.6264 12.5064 45.6264Z" fill="#F8FBFF"/>
<path d="M119.908 32.4151V30.6982H102.812V47.4304H119.908V45.7135H104.569V40.3592H118.598V38.6424H104.569V32.4151H119.908Z" fill="#F8FBFF"/>
<path d="M98.0765 39.167L94.7109 42.4551L91.3452 39.167L94.7109 35.8496L98.0765 39.167Z" fill="#F8FBFF"/>
<path d="M66.0287 2.67559L64.9862 0.0566406L64.2713 1.59892L62.6928 0.929626L62.0078 2.4719L60.4292 1.80261L61.4716 4.42157L66.0287 2.67559Z" fill="#F8FBFF"/>
<path d="M66.2439 3.25L61.6943 4.98713L61.8896 5.47499L66.4391 3.73786L66.2439 3.25Z" fill="#F8FBFF"/>
<path d="M66.3859 24.6752C66.3859 24.6752 66.3859 24.6461 66.3859 24.617C66.3859 24.5879 66.3561 24.5006 66.3561 24.4424C66.3265 24.2387 66.2967 23.9185 66.2371 23.5403C66.2073 23.3948 66.2073 23.2202 66.1775 23.0456C66.1477 22.871 66.1477 22.6674 66.1179 22.4928C66.0286 21.5616 65.9392 20.4558 65.9392 19.4082C65.2244 21.3579 64.718 23.6277 64.5095 24.5006L65.0755 25.1699L65.2542 25.3736V25.6355L65.3137 26.8868V26.9159H67.2498L67.1902 25.6646L66.3859 24.6752Z" fill="#F8FBFF"/>
<path d="M49.6771 23.7148L48.4858 26.9157H51.4047L52.328 24.1513C51.4642 24.093 50.5707 23.9475 49.6771 23.7148Z" fill="#F8FBFF"/>
<path d="M76.9295 12.2199C76.4233 11.4925 75.6787 10.7359 74.8148 9.9502C74.5767 9.7174 74.3086 9.5137 74.0405 9.2809C73.9213 9.16451 73.7724 9.0772 73.6236 8.96082C73.0874 8.52432 72.5216 8.11693 71.9556 7.70953C71.7471 7.56403 71.5089 7.38944 71.3004 7.24393C71.0919 7.09844 70.9131 6.98204 70.7046 6.83654C70.3771 6.63284 70.0792 6.42915 69.7813 6.22545C69.6026 6.10906 69.4538 6.02175 69.3049 5.90537C67.9645 5.03238 66.9817 4.47949 66.9817 4.47949L64.1224 5.52707L62.0375 6.28366L56.6763 4.77049L53.4894 9.25181L58.791 17.1378L60.4589 16.2939L58.4634 18.4473L54.6808 12.8601L52.7449 9.9793L46.0434 12.3073L43.4521 16.4394L45.805 14.3151C45.805 14.3151 45.1796 16.1775 44.3755 18.5055C44.2563 18.8255 44.1372 19.1747 44.018 19.524C43.7797 20.2223 43.5414 20.9498 43.3033 21.6482C42.5883 23.7725 41.9034 25.8386 41.5757 26.9444H45.5072H47.5921L49.1707 22.6376C49.1707 22.6376 49.4388 22.8413 49.9153 22.9576C50.1834 23.0158 50.4514 23.074 50.7194 23.1322C50.8088 23.1613 50.8981 23.1613 50.9577 23.1904C51.1364 23.2195 51.345 23.2487 51.5237 23.2778C51.613 23.2778 51.7024 23.3069 51.7916 23.3069C52.0002 23.336 52.1789 23.336 52.3874 23.3651C52.447 23.3651 52.5066 23.3651 52.5661 23.3651C52.5959 23.3651 52.5959 23.3651 52.6257 23.3651C52.8937 23.3942 53.1618 23.3942 53.4298 23.3942C53.6384 23.3942 53.8467 23.3942 54.0553 23.3942C54.1148 23.3942 54.1744 23.3942 54.234 23.3942C54.3829 23.3942 54.5617 23.3651 54.7106 23.3651C54.7702 23.3651 54.8298 23.3651 54.8892 23.336C55.0977 23.3069 55.3062 23.2778 55.5147 23.2487C56.438 23.1031 57.3315 22.8994 58.3144 22.6958V26.9153H64.3904L64.3308 25.664L63.5266 24.6746C63.5266 24.6746 63.7054 23.8307 64.0033 22.6667C64.033 22.5794 64.0628 22.463 64.0926 22.3757C64.1522 22.172 64.2118 21.9682 64.2712 21.7355C64.5095 20.8624 64.8074 19.9022 65.1351 19.0001C65.2244 18.7674 65.3137 18.5637 65.3732 18.3309C65.6711 17.5743 65.9988 16.9049 66.3561 16.4103C67.756 14.3733 69.5132 12.8601 72.1343 12.4819C72.2535 12.4527 72.3726 12.4527 72.4918 12.4527H72.5216C72.5216 12.4527 72.5216 12.4527 72.5514 12.4527C72.6704 12.4527 72.7895 12.4527 72.8789 12.4819C72.9087 12.4819 72.9087 12.4819 72.9385 12.4819C73.0576 12.511 73.147 12.511 73.2661 12.54C73.2959 12.54 73.2959 12.54 73.3257 12.5691C73.4449 12.5983 73.5342 12.6274 73.6236 12.6855C73.6236 12.6855 73.6236 12.6855 73.6532 12.6855C73.7426 12.7437 73.832 12.7728 73.9213 12.8311C73.9213 12.8311 73.9511 12.8311 73.9511 12.8601C74.0405 12.9183 74.1298 12.9765 74.1894 13.0638L74.2192 13.0929C74.3086 13.1511 74.3682 13.2384 74.4277 13.3257C74.4277 13.3548 74.4575 13.3548 74.4575 13.3839C74.5171 13.4712 74.5767 13.5585 74.6362 13.6458C74.6362 13.6458 74.6362 13.6749 74.666 13.6749C74.7255 13.7913 74.7553 13.8786 74.8148 13.995C75.1723 15.0426 74.6957 16.2648 73.7128 16.7885C73.6234 16.8467 73.5342 16.8758 73.4449 16.9049C73.4151 16.9049 73.3853 16.934 73.3853 16.934C73.3257 16.9631 73.2363 16.9922 73.147 16.9922C73.1172 16.9922 73.1172 16.9922 73.0874 16.9922C72.998 17.0213 72.9087 17.0213 72.8193 17.0504C72.7895 17.0504 72.7895 17.0504 72.7597 17.0504C72.7002 17.0504 72.6108 17.0504 72.5514 17.0504H72.5216H72.4918C72.313 17.0504 72.1641 17.0213 72.0152 16.9922C71.9854 16.9922 71.9556 16.9922 71.9556 16.9631C71.896 16.9631 71.8364 16.934 71.7769 16.9049C71.7471 16.9049 71.7173 16.8758 71.6875 16.8758C71.6279 16.8467 71.5683 16.8176 71.5089 16.8176C71.4791 16.8176 71.4791 16.7885 71.4493 16.7885C71.3898 16.7595 71.3004 16.7013 71.2408 16.6722C71.211 16.6722 71.211 16.6431 71.1812 16.6431C71.1217 16.614 71.0919 16.5849 71.0323 16.5267C71.0025 16.4976 71.0025 16.4976 70.9727 16.4685C70.9429 16.4394 70.8834 16.3812 70.8536 16.3521C70.8238 16.323 70.8238 16.323 70.794 16.2939C70.7344 16.2357 70.6748 16.1775 70.6451 16.0902C70.4069 15.77 70.2877 15.3627 70.109 14.9553C69.6026 15.2463 69.1559 15.5955 68.7389 15.9447C68.7389 16.0029 68.7687 16.0611 68.7985 16.0902C68.8282 16.2066 68.8878 16.2939 68.9474 16.4103C68.9772 16.4394 68.9772 16.4685 69.007 16.4976C69.0368 16.5558 69.0666 16.6431 69.1261 16.7013C69.1559 16.7304 69.1559 16.7594 69.1857 16.8176C69.2155 16.8758 69.2453 16.934 69.3049 16.9922C69.3346 17.0213 69.3644 17.0504 69.3644 17.1087C69.3942 17.1669 69.4538 17.2251 69.4834 17.2833C69.5132 17.3124 69.543 17.3415 69.5728 17.3706C69.6324 17.4288 69.6622 17.487 69.7218 17.5452C69.7515 17.5743 69.7515 17.6034 69.7813 17.6034C69.8409 17.6907 69.9303 17.7489 70.0196 17.807C70.109 17.8652 70.1686 17.9525 70.2579 18.0107C70.2877 18.0398 70.3175 18.0398 70.3473 18.0689C70.4069 18.098 70.4665 18.1562 70.5259 18.1853C70.5557 18.2144 70.5855 18.2144 70.6153 18.2435C70.6748 18.2727 70.7344 18.3018 70.794 18.3309C70.8238 18.36 70.8536 18.36 70.8834 18.3891C70.9429 18.4182 71.0025 18.4473 71.0621 18.4764C71.0919 18.5055 71.1217 18.5055 71.1514 18.5346C71.211 18.5637 71.3004 18.5928 71.36 18.6219C71.3898 18.6219 71.4195 18.651 71.4493 18.651C71.5387 18.6801 71.6577 18.7092 71.7471 18.7383C71.8364 18.7674 71.9258 18.7965 72.045 18.7965C72.0747 18.7965 72.1045 18.7965 72.1343 18.8255C72.1939 18.8255 72.2833 18.8546 72.3428 18.8546C72.3726 18.8546 72.4322 18.8546 72.462 18.8837C72.5216 18.8837 72.581 18.9128 72.6704 18.9128C72.7002 18.9128 72.7597 18.9128 72.7895 18.9128C72.8491 18.9128 72.9087 18.9128 72.998 18.9128C73.0278 18.9128 73.0576 18.9128 73.1172 18.9128C73.2661 18.9128 73.3853 18.9128 73.5342 18.8837C73.564 18.8837 73.5938 18.8837 73.6236 18.8837C73.7724 18.8546 73.8915 18.8546 74.0405 18.8255C74.1894 18.7965 74.3086 18.7674 74.4575 18.7092C74.4873 18.7092 74.5171 18.6801 74.5469 18.6801C74.666 18.651 74.8148 18.5928 74.934 18.5346C74.9638 18.5346 74.9936 18.5055 74.9936 18.5055C75.1127 18.4473 75.2617 18.3891 75.3808 18.3018C75.5 18.2144 75.6191 18.1562 75.7381 18.0689C75.7679 18.0398 75.7977 18.0398 75.7977 18.0107C75.9169 17.9234 76.036 17.8361 76.1254 17.7198C76.1552 17.6907 76.1552 17.6907 76.185 17.6616C76.3041 17.5452 76.3935 17.4579 76.5126 17.3124C77.8528 15.8282 78.0613 13.8786 76.9295 12.2199Z" fill="#F8FBFF"/>
</g>
<defs>
<clipPath id="clip0_309_1928">
<rect width="120" height="48" fill="white"/>
</clipPath>
</defs>
</svg>
