<svg width="48" height="48" viewBox="0 0 48 48" fill="none" xmlns="http://www.w3.org/2000/svg">
<g id="bitconce 1">
<g id="Group 3635">
<path id="Vector" d="M30.453 13.119L29.4106 10.5L28.6956 12.0423L27.1171 11.373L26.4321 12.9153L24.8535 12.246L25.896 14.8649L30.453 13.119Z" fill="#F8FBFF"/>
<path id="Vector_2" d="M30.6687 13.6934L26.1191 15.4305L26.3144 15.9184L30.8639 14.1812L30.6687 13.6934Z" fill="#F8FBFF"/>
<path id="Vector_3" d="M30.81 35.1176C30.81 35.1176 30.81 35.0885 30.81 35.0594C30.81 35.0303 30.7802 34.943 30.7802 34.8848C30.7505 34.6811 30.7207 34.3609 30.6612 33.9827C30.6314 33.8372 30.6314 33.6626 30.6016 33.488C30.5718 33.3133 30.5718 33.1098 30.542 32.9351C30.4527 32.004 30.3633 30.8982 30.3633 29.8506C29.6485 31.8002 29.1421 34.07 28.9336 34.943L29.4996 35.6122L29.6783 35.816V36.0779L29.7377 37.3292V37.3583H31.6738L31.6143 36.107L30.81 35.1176Z" fill="#F8FBFF"/>
<path id="Vector_4" d="M14.1014 34.1572L12.9102 37.3581H15.829L16.7523 34.5936C15.8886 34.5354 14.995 34.3899 14.1014 34.1572Z" fill="#F8FBFF"/>
<path id="Vector_5" d="M41.3538 22.6643C40.8476 21.9368 40.103 21.1802 39.2392 20.3945C39.001 20.1617 38.7329 19.958 38.4648 19.7252C38.3456 19.6089 38.1967 19.5215 38.0479 19.4052C37.5117 18.9687 36.9459 18.5613 36.3799 18.1539C36.1714 18.0084 35.9332 17.8338 35.7247 17.6883C35.5162 17.5428 35.3375 17.4264 35.1289 17.2809C34.8014 17.0772 34.5035 16.8735 34.2056 16.6698C34.0269 16.5534 33.8781 16.4661 33.7292 16.3497C32.3888 15.4767 31.406 14.9238 31.406 14.9238L28.5467 15.9714L26.4618 16.728L21.1007 15.2148L17.9137 19.6961L23.2153 27.5821L24.8832 26.7382L22.8877 28.8916L19.1051 23.3045L17.1692 20.4236L10.4677 22.7516L7.87638 26.8837L10.2294 24.7595C10.2294 24.7595 9.60395 26.6218 8.79981 28.9498C8.68066 29.2698 8.56151 29.6191 8.44236 29.9683C8.20405 30.6666 7.96574 31.3941 7.72758 32.0926C7.01266 34.2169 6.32767 36.2829 6 37.3887H9.93148H12.0164L13.595 33.082C13.595 33.082 13.8631 33.2857 14.3396 33.402C14.6077 33.4602 14.8758 33.5184 15.1437 33.5766C15.2331 33.6057 15.3224 33.6057 15.382 33.6348C15.5608 33.6639 15.7693 33.693 15.948 33.7221C16.0374 33.7221 16.1267 33.7512 16.216 33.7512C16.4245 33.7803 16.6032 33.7803 16.8117 33.8094C16.8713 33.8094 16.9309 33.8094 16.9904 33.8094C17.0202 33.8094 17.0202 33.8094 17.05 33.8094C17.318 33.8385 17.5861 33.8385 17.8542 33.8385C18.0627 33.8385 18.2711 33.8385 18.4796 33.8385C18.5392 33.8385 18.5987 33.8385 18.6583 33.8385C18.8072 33.8385 18.986 33.8094 19.1349 33.8094C19.1945 33.8094 19.2541 33.8094 19.3135 33.7803C19.522 33.7512 19.7305 33.7221 19.9391 33.693C20.8624 33.5475 21.7559 33.3437 22.7387 33.1402V37.3596H28.8147L28.7551 36.1083L27.951 35.1189C27.951 35.1189 28.1297 34.2751 28.4276 33.1111C28.4574 33.0237 28.4872 32.9073 28.5169 32.82C28.5765 32.6163 28.6361 32.4126 28.6955 32.1799C28.9338 31.3068 29.2317 30.3465 29.5594 29.4444C29.6488 29.2117 29.738 29.008 29.7976 28.7752C30.0954 28.0186 30.4231 27.3493 30.7804 26.8546C32.1803 24.8177 33.9376 23.3045 36.5586 22.9262C36.6778 22.8971 36.7969 22.8971 36.9161 22.8971H36.9459C36.9459 22.8971 36.9459 22.8971 36.9757 22.8971C37.0947 22.8971 37.2138 22.8971 37.3032 22.9262C37.333 22.9262 37.333 22.9262 37.3628 22.9262C37.4819 22.9553 37.5713 22.9553 37.6904 22.9844C37.7202 22.9844 37.7202 22.9844 37.75 23.0135C37.8692 23.0426 37.9585 23.0717 38.0479 23.1299C38.0479 23.1299 38.0479 23.1299 38.0776 23.1299C38.1669 23.1881 38.2563 23.2172 38.3456 23.2754C38.3456 23.2754 38.3754 23.2754 38.3754 23.3045C38.4648 23.3627 38.5542 23.4209 38.6137 23.5082L38.6435 23.5373C38.7329 23.5955 38.7925 23.6828 38.852 23.7701C38.852 23.7992 38.8818 23.7992 38.8818 23.8283C38.9414 23.9156 39.001 24.0029 39.0606 24.0902C39.0606 24.0902 39.0606 24.1193 39.0904 24.1193C39.1498 24.2357 39.1796 24.3229 39.2392 24.4393C39.5966 25.4869 39.12 26.7091 38.1371 27.2329C38.0478 27.2911 37.9585 27.3202 37.8692 27.3493C37.8394 27.3493 37.8096 27.3784 37.8096 27.3784C37.75 27.4075 37.6607 27.4366 37.5713 27.4366C37.5415 27.4366 37.5415 27.4366 37.5117 27.4366C37.4224 27.4657 37.333 27.4657 37.2436 27.4948C37.2138 27.4948 37.2138 27.4948 37.184 27.4948C37.1245 27.4948 37.0351 27.4948 36.9757 27.4948H36.9459H36.9161C36.7374 27.4948 36.5884 27.4657 36.4395 27.4366C36.4097 27.4366 36.3799 27.4366 36.3799 27.4075C36.3203 27.4075 36.2608 27.3784 36.2012 27.3493C36.1714 27.3493 36.1416 27.3202 36.1118 27.3202C36.0522 27.2911 35.9927 27.262 35.9332 27.262C35.9034 27.262 35.9034 27.2329 35.8736 27.2329C35.8141 27.2039 35.7247 27.1457 35.6651 27.1166C35.6353 27.1166 35.6353 27.0875 35.6056 27.0875C35.546 27.0584 35.5162 27.0293 35.4566 26.9711C35.4268 26.942 35.4268 26.942 35.397 26.9129C35.3672 26.8837 35.3077 26.8255 35.2779 26.7964C35.2481 26.7673 35.2481 26.7673 35.2183 26.7382C35.1587 26.68 35.0992 26.6218 35.0694 26.5345C34.8312 26.2144 34.712 25.8071 34.5333 25.3996C34.0269 25.6906 33.5802 26.0399 33.1632 26.389C33.1632 26.4472 33.193 26.5054 33.2228 26.5345C33.2526 26.6509 33.3121 26.7382 33.3717 26.8546C33.4015 26.8837 33.4015 26.9129 33.4313 26.942C33.4611 27.0002 33.4909 27.0875 33.5504 27.1457C33.5802 27.1748 33.5802 27.2037 33.61 27.262C33.6398 27.3202 33.6696 27.3784 33.7292 27.4366C33.759 27.4657 33.7888 27.4948 33.7888 27.553C33.8185 27.6112 33.8781 27.6694 33.9078 27.7276C33.9375 27.7567 33.9673 27.7858 33.9971 27.8149C34.0567 27.8731 34.0865 27.9313 34.1461 27.9895C34.1759 28.0186 34.1759 28.0477 34.2056 28.0477C34.2652 28.1351 34.3546 28.1933 34.444 28.2513C34.5333 28.3095 34.5929 28.3968 34.6823 28.4551C34.712 28.4842 34.7418 28.4842 34.7716 28.5133C34.8312 28.5424 34.8908 28.6006 34.9502 28.6297C34.98 28.6588 35.0098 28.6588 35.0396 28.6879C35.0991 28.717 35.1587 28.7461 35.2183 28.7752C35.2481 28.8043 35.2779 28.8043 35.3077 28.8334C35.3672 28.8625 35.4268 28.8916 35.4864 28.9207C35.5162 28.9498 35.546 28.9498 35.5758 28.9789C35.6353 29.008 35.7247 29.0371 35.7843 29.0662C35.8141 29.0662 35.8439 29.0953 35.8736 29.0953C35.963 29.1244 36.082 29.1535 36.1714 29.1826C36.2608 29.2117 36.3501 29.2409 36.4693 29.2409C36.4991 29.2409 36.5288 29.2409 36.5586 29.2698C36.6182 29.2698 36.7076 29.2989 36.7672 29.2989C36.7969 29.2989 36.8565 29.2989 36.8863 29.328C36.9459 29.328 37.0053 29.3571 37.0947 29.3571C37.1245 29.3571 37.184 29.3571 37.2138 29.3571C37.2734 29.3571 37.333 29.3571 37.4224 29.3571C37.4521 29.3571 37.4819 29.3571 37.5415 29.3571C37.6904 29.3571 37.8096 29.3571 37.9585 29.328C37.9883 29.328 38.0181 29.328 38.0479 29.328C38.1967 29.2989 38.3159 29.2989 38.4648 29.2698C38.6137 29.2409 38.7329 29.2117 38.8818 29.1535C38.9116 29.1535 38.9414 29.1244 38.9712 29.1244C39.0904 29.0953 39.2392 29.0371 39.3583 28.9789C39.3881 28.9789 39.4179 28.9498 39.4179 28.9498C39.537 28.8916 39.686 28.8334 39.8051 28.7461C39.9243 28.6588 40.0434 28.6006 40.1624 28.5133C40.1922 28.4842 40.222 28.4842 40.222 28.4551C40.3412 28.3677 40.4603 28.2804 40.5497 28.1642C40.5795 28.1351 40.5795 28.1351 40.6093 28.106C40.7284 27.9895 40.8178 27.9022 40.9369 27.7567C42.2771 26.2726 42.4856 24.3229 41.3538 22.6643Z" fill="#F8FBFF"/>
</g>
</g>
</svg>
