<svg width="586" height="193" viewBox="0 0 586 193" fill="none" xmlns="http://www.w3.org/2000/svg">
<rect x="78.9929" y="0.119141" width="0.462609" height="173.044" fill="url(#paint0_linear_294_18123)"/>
<path d="M69.8594 183.181V188.564H69.2076V183.865H69.176L67.8618 184.737V184.075L69.2076 183.181H69.8594ZM71.5758 188.564L73.9835 183.802V183.76H71.2078V183.181H74.6564V183.791L72.2592 188.564H71.5758ZM79.9363 187.723L81.3451 184.527H81.9339L80.1886 188.564H79.6839L77.9702 184.527H78.5485L79.9363 187.723ZM78.3487 184.527V188.564H77.7284V184.527H78.3487ZM81.5239 188.564V184.527H82.1442V188.564H81.5239ZM84.4677 188.659C84.2119 188.659 83.9797 188.611 83.7712 188.515C83.5627 188.416 83.3971 188.275 83.2744 188.091C83.1518 187.906 83.0904 187.681 83.0904 187.418C83.0904 187.187 83.136 187 83.2271 186.856C83.3182 186.711 83.44 186.597 83.5925 186.514C83.7449 186.432 83.9131 186.371 84.0971 186.33C84.2829 186.288 84.4695 186.255 84.657 186.23C84.9023 186.199 85.1012 186.175 85.2537 186.159C85.4079 186.142 85.52 186.113 85.5901 186.073C85.6619 186.032 85.6979 185.962 85.6979 185.862V185.841C85.6979 185.582 85.6269 185.381 85.485 185.237C85.3448 185.093 85.1319 185.021 84.8462 185.021C84.5501 185.021 84.3179 185.086 84.1497 185.216C83.9815 185.345 83.8632 185.484 83.7949 185.631L83.2061 185.421C83.3112 185.175 83.4514 184.984 83.6266 184.848C83.8036 184.709 83.9964 184.613 84.2049 184.559C84.4152 184.503 84.622 184.475 84.8252 184.475C84.9549 184.475 85.1038 184.49 85.2721 184.522C85.442 184.552 85.6059 184.614 85.7636 184.708C85.923 184.803 86.0553 184.946 86.1605 185.137C86.2656 185.328 86.3182 185.584 86.3182 185.904V188.564H85.6979V188.018H85.6663C85.6243 188.105 85.5542 188.199 85.4561 188.299C85.3579 188.399 85.2274 188.484 85.0644 188.554C84.9014 188.624 84.7026 188.659 84.4677 188.659ZM84.5624 188.102C84.8077 188.102 85.0145 188.054 85.1827 187.957C85.3527 187.861 85.4806 187.736 85.5664 187.584C85.6541 187.432 85.6979 187.271 85.6979 187.103V186.535C85.6716 186.567 85.6138 186.596 85.5244 186.622C85.4368 186.647 85.3351 186.668 85.2195 186.688C85.1056 186.705 84.9943 186.721 84.8857 186.735C84.7788 186.747 84.692 186.758 84.6255 186.767C84.4642 186.788 84.3135 186.822 84.1734 186.869C84.0349 186.915 83.9228 186.984 83.8369 187.077C83.7528 187.168 83.7108 187.292 83.7108 187.45C83.7108 187.666 83.7905 187.828 83.9499 187.939C84.1112 188.048 84.3153 188.102 84.5624 188.102ZM89.8791 188.564V185.095H88.8067C88.5649 185.095 88.3747 185.151 88.2363 185.263C88.0979 185.375 88.0287 185.529 88.0287 185.726C88.0287 185.918 88.0909 186.07 88.2153 186.18C88.3414 186.291 88.514 186.346 88.7331 186.346H90.0368V186.924H88.7331C88.4597 186.924 88.224 186.876 88.026 186.78C87.828 186.683 87.6756 186.546 87.5687 186.367C87.4618 186.187 87.4083 185.973 87.4083 185.726C87.4083 185.477 87.4644 185.263 87.5766 185.084C87.6887 184.906 87.849 184.768 88.0576 184.672C88.2678 184.575 88.5176 184.527 88.8067 184.527H90.4679V188.564H89.8791ZM87.1876 188.564L88.3336 186.556H89.0064L87.8604 188.564H87.1876Z" fill="#707E8F"/>
<rect x="157.769" y="0.119141" width="0.462609" height="173.044" fill="url(#paint1_linear_294_18123)"/>
<path d="M148.469 183.181V188.564H147.817V183.865H147.785L146.471 184.737V184.075L147.817 183.181H148.469ZM151.741 188.638C151.38 188.638 151.061 188.574 150.784 188.446C150.509 188.317 150.295 188.139 150.14 187.913C149.986 187.685 149.91 187.425 149.912 187.135C149.91 186.907 149.955 186.696 150.046 186.504C150.137 186.309 150.261 186.147 150.419 186.017C150.579 185.886 150.756 185.803 150.953 185.768V185.736C150.695 185.67 150.49 185.525 150.338 185.303C150.185 185.078 150.11 184.823 150.112 184.538C150.11 184.264 150.179 184.02 150.319 183.804C150.459 183.589 150.652 183.419 150.897 183.294C151.145 183.17 151.426 183.108 151.741 183.108C152.053 183.108 152.332 183.17 152.577 183.294C152.822 183.419 153.015 183.589 153.155 183.804C153.297 184.02 153.369 184.264 153.371 184.538C153.369 184.823 153.291 185.078 153.137 185.303C152.984 185.525 152.782 185.67 152.53 185.736V185.768C152.724 185.803 152.9 185.886 153.055 186.017C153.211 186.147 153.336 186.309 153.429 186.504C153.522 186.696 153.569 186.907 153.571 187.135C153.569 187.425 153.49 187.685 153.334 187.913C153.18 188.139 152.965 188.317 152.69 188.446C152.417 188.574 152.1 188.638 151.741 188.638ZM151.741 188.06C151.985 188.06 152.195 188.02 152.372 187.942C152.549 187.863 152.686 187.751 152.782 187.608C152.878 187.464 152.928 187.296 152.929 187.103C152.928 186.9 152.875 186.72 152.772 186.564C152.668 186.408 152.527 186.286 152.348 186.196C152.171 186.107 151.969 186.062 151.741 186.062C151.512 186.062 151.307 186.107 151.126 186.196C150.947 186.286 150.806 186.408 150.703 186.564C150.601 186.72 150.551 186.9 150.553 187.103C150.551 187.296 150.598 187.464 150.692 187.608C150.789 187.751 150.926 187.863 151.105 187.942C151.284 188.02 151.496 188.06 151.741 188.06ZM151.741 185.505C151.934 185.505 152.105 185.466 152.254 185.389C152.404 185.312 152.523 185.204 152.609 185.066C152.694 184.928 152.738 184.765 152.74 184.58C152.738 184.397 152.695 184.239 152.611 184.104C152.527 183.967 152.411 183.862 152.262 183.789C152.113 183.713 151.939 183.676 151.741 183.676C151.54 183.676 151.364 183.713 151.213 183.789C151.062 183.862 150.946 183.967 150.863 184.104C150.781 184.239 150.741 184.397 150.742 184.58C150.741 184.765 150.782 184.928 150.866 185.066C150.952 185.204 151.07 185.312 151.221 185.389C151.371 185.466 151.545 185.505 151.741 185.505ZM158.878 187.723L160.287 184.527H160.876L159.13 188.564H158.626L156.912 184.527H157.49L158.878 187.723ZM157.291 184.527V188.564H156.67V184.527H157.291ZM160.466 188.564V184.527H161.086V188.564H160.466ZM163.41 188.659C163.154 188.659 162.922 188.611 162.713 188.515C162.505 188.416 162.339 188.275 162.216 188.091C162.094 187.906 162.032 187.681 162.032 187.418C162.032 187.187 162.078 187 162.169 186.856C162.26 186.711 162.382 186.597 162.534 186.514C162.687 186.432 162.855 186.371 163.039 186.33C163.225 186.288 163.411 186.255 163.599 186.23C163.844 186.199 164.043 186.175 164.196 186.159C164.35 186.142 164.462 186.113 164.532 186.073C164.604 186.032 164.64 185.962 164.64 185.862V185.841C164.64 185.582 164.569 185.381 164.427 185.237C164.287 185.093 164.074 185.021 163.788 185.021C163.492 185.021 163.26 185.086 163.092 185.216C162.923 185.345 162.805 185.484 162.737 185.631L162.148 185.421C162.253 185.175 162.393 184.984 162.569 184.848C162.746 184.709 162.938 184.613 163.147 184.559C163.357 184.503 163.564 184.475 163.767 184.475C163.897 184.475 164.046 184.49 164.214 184.522C164.384 184.552 164.548 184.614 164.705 184.708C164.865 184.803 164.997 184.946 165.102 185.137C165.208 185.328 165.26 185.584 165.26 185.904V188.564H164.64V188.018H164.608C164.566 188.105 164.496 188.199 164.398 188.299C164.3 188.399 164.169 188.484 164.006 188.554C163.843 188.624 163.644 188.659 163.41 188.659ZM163.504 188.102C163.75 188.102 163.956 188.054 164.125 187.957C164.295 187.861 164.422 187.736 164.508 187.584C164.596 187.432 164.64 187.271 164.64 187.103V186.535C164.613 186.567 164.556 186.596 164.466 186.622C164.379 186.647 164.277 186.668 164.161 186.688C164.047 186.705 163.936 186.721 163.828 186.735C163.721 186.747 163.634 186.758 163.567 186.767C163.406 186.788 163.255 186.822 163.115 186.869C162.977 186.915 162.865 186.984 162.779 187.077C162.695 187.168 162.653 187.292 162.653 187.45C162.653 187.666 162.732 187.828 162.892 187.939C163.053 188.048 163.257 188.102 163.504 188.102ZM168.821 188.564V185.095H167.749C167.507 185.095 167.317 185.151 167.178 185.263C167.04 185.375 166.971 185.529 166.971 185.726C166.971 185.918 167.033 186.07 167.157 186.18C167.283 186.291 167.456 186.346 167.675 186.346H168.979V186.924H167.675C167.402 186.924 167.166 186.876 166.968 186.78C166.77 186.683 166.617 186.546 166.511 186.367C166.404 186.187 166.35 185.973 166.35 185.726C166.35 185.477 166.406 185.263 166.518 185.084C166.631 184.906 166.791 184.768 166.999 184.672C167.21 184.575 167.459 184.527 167.749 184.527H169.41V188.564H168.821ZM166.129 188.564L167.275 186.556H167.948L166.802 188.564H166.129Z" fill="#707E8F"/>
<rect x="236.544" y="0.119141" width="0.462609" height="173.044" fill="url(#paint2_linear_294_18123)"/>
<path d="M227.216 183.181V188.564H226.564V183.865H226.532L225.218 184.737V184.075L226.564 183.181H227.216ZM230.478 183.108C230.698 183.11 230.919 183.152 231.14 183.234C231.361 183.316 231.562 183.453 231.745 183.644C231.927 183.833 232.073 184.092 232.184 184.419C232.294 184.747 232.349 185.158 232.349 185.652C232.349 186.13 232.304 186.555 232.212 186.927C232.123 187.297 231.993 187.609 231.823 187.863C231.655 188.117 231.45 188.309 231.208 188.441C230.968 188.572 230.697 188.638 230.394 188.638C230.092 188.638 229.823 188.578 229.587 188.459C229.352 188.338 229.159 188.171 229.008 187.957C228.859 187.742 228.764 187.492 228.722 187.208H229.363C229.421 187.455 229.536 187.659 229.708 187.821C229.881 187.98 230.11 188.06 230.394 188.06C230.809 188.06 231.137 187.878 231.377 187.516C231.618 187.153 231.739 186.64 231.739 185.978H231.697C231.599 186.125 231.483 186.252 231.348 186.359C231.213 186.466 231.063 186.548 230.898 186.606C230.734 186.664 230.558 186.693 230.373 186.693C230.064 186.693 229.781 186.617 229.524 186.464C229.268 186.31 229.063 186.099 228.908 185.831C228.756 185.561 228.68 185.253 228.68 184.906C228.68 184.576 228.753 184.275 228.901 184.001C229.05 183.726 229.258 183.507 229.526 183.344C229.796 183.181 230.113 183.103 230.478 183.108ZM230.478 183.686C230.257 183.686 230.058 183.741 229.881 183.852C229.706 183.96 229.566 184.107 229.463 184.293C229.361 184.477 229.311 184.681 229.311 184.906C229.311 185.13 229.36 185.334 229.458 185.518C229.558 185.7 229.694 185.846 229.865 185.954C230.039 186.061 230.236 186.115 230.457 186.115C230.623 186.115 230.778 186.082 230.922 186.017C231.066 185.951 231.191 185.861 231.298 185.747C231.406 185.631 231.491 185.501 231.553 185.355C231.614 185.208 231.645 185.055 231.645 184.895C231.645 184.685 231.594 184.488 231.492 184.304C231.392 184.12 231.254 183.971 231.077 183.857C230.902 183.743 230.702 183.686 230.478 183.686ZM237.683 187.723L239.092 184.527H239.681L237.935 188.564H237.431L235.717 184.527H236.295L237.683 187.723ZM236.095 184.527V188.564H235.475V184.527H236.095ZM239.271 188.564V184.527H239.891V188.564H239.271ZM242.214 188.659C241.959 188.659 241.726 188.611 241.518 188.515C241.309 188.416 241.144 188.275 241.021 188.091C240.898 187.906 240.837 187.681 240.837 187.418C240.837 187.187 240.883 187 240.974 186.856C241.065 186.711 241.187 186.597 241.339 186.514C241.492 186.432 241.66 186.371 241.844 186.33C242.03 186.288 242.216 186.255 242.404 186.23C242.649 186.199 242.848 186.175 243 186.159C243.155 186.142 243.267 186.113 243.337 186.073C243.409 186.032 243.445 185.962 243.445 185.862V185.841C243.445 185.582 243.374 185.381 243.232 185.237C243.091 185.093 242.879 185.021 242.593 185.021C242.297 185.021 242.065 185.086 241.896 185.216C241.728 185.345 241.61 185.484 241.542 185.631L240.953 185.421C241.058 185.175 241.198 184.984 241.373 184.848C241.55 184.709 241.743 184.613 241.952 184.559C242.162 184.503 242.369 184.475 242.572 184.475C242.702 184.475 242.851 184.49 243.019 184.522C243.189 184.552 243.353 184.614 243.51 184.708C243.67 184.803 243.802 184.946 243.907 185.137C244.012 185.328 244.065 185.584 244.065 185.904V188.564H243.445V188.018H243.413C243.371 188.105 243.301 188.199 243.203 188.299C243.105 188.399 242.974 188.484 242.811 188.554C242.648 188.624 242.449 188.659 242.214 188.659ZM242.309 188.102C242.554 188.102 242.761 188.054 242.929 187.957C243.099 187.861 243.227 187.736 243.313 187.584C243.401 187.432 243.445 187.271 243.445 187.103V186.535C243.418 186.567 243.36 186.596 243.271 186.622C243.183 186.647 243.082 186.668 242.966 186.688C242.852 186.705 242.741 186.721 242.632 186.735C242.525 186.747 242.439 186.758 242.372 186.767C242.211 186.788 242.06 186.822 241.92 186.869C241.782 186.915 241.669 186.984 241.584 187.077C241.499 187.168 241.457 187.292 241.457 187.45C241.457 187.666 241.537 187.828 241.697 187.939C241.858 188.048 242.062 188.102 242.309 188.102ZM247.626 188.564V185.095H246.553C246.312 185.095 246.121 185.151 245.983 185.263C245.845 185.375 245.775 185.529 245.775 185.726C245.775 185.918 245.838 186.07 245.962 186.18C246.088 186.291 246.261 186.346 246.48 186.346H247.783V186.924H246.48C246.206 186.924 245.971 186.876 245.773 186.78C245.575 186.683 245.422 186.546 245.315 186.367C245.208 186.187 245.155 185.973 245.155 185.726C245.155 185.477 245.211 185.263 245.323 185.084C245.435 184.906 245.596 184.768 245.804 184.672C246.015 184.575 246.264 184.527 246.553 184.527H248.215V188.564H247.626ZM244.934 188.564L246.08 186.556H246.753L245.607 188.564H244.934Z" fill="#707E8F"/>
<rect x="315.32" y="0.119141" width="0.462609" height="173.044" fill="url(#paint3_linear_294_18123)"/>
<path d="M303.575 188.564V188.091L305.352 186.146C305.56 185.918 305.732 185.72 305.867 185.552C306.002 185.382 306.102 185.223 306.167 185.074C306.233 184.923 306.266 184.765 306.266 184.601C306.266 184.411 306.221 184.248 306.13 184.109C306.04 183.971 305.918 183.864 305.762 183.789C305.606 183.713 305.431 183.676 305.236 183.676C305.029 183.676 304.849 183.718 304.695 183.804C304.542 183.888 304.424 184.007 304.34 184.159C304.257 184.312 304.216 184.49 304.216 184.695H303.596C303.596 184.38 303.669 184.103 303.814 183.865C303.959 183.626 304.157 183.441 304.408 183.308C304.66 183.174 304.943 183.108 305.257 183.108C305.572 183.108 305.852 183.174 306.096 183.308C306.339 183.441 306.53 183.62 306.669 183.846C306.807 184.072 306.876 184.324 306.876 184.601C306.876 184.799 306.84 184.992 306.768 185.182C306.698 185.369 306.576 185.579 306.4 185.81C306.227 186.039 305.986 186.32 305.678 186.651L304.469 187.944V187.986H306.971V188.564H303.575ZM309.812 188.638C309.416 188.638 309.079 188.53 308.8 188.315C308.522 188.097 308.309 187.783 308.162 187.371C308.014 186.958 307.941 186.458 307.941 185.873C307.941 185.291 308.014 184.794 308.162 184.383C308.31 183.969 308.524 183.654 308.803 183.436C309.083 183.217 309.42 183.108 309.812 183.108C310.205 183.108 310.54 183.217 310.819 183.436C311.099 183.654 311.313 183.969 311.46 184.383C311.609 184.794 311.684 185.291 311.684 185.873C311.684 186.458 311.61 186.958 311.463 187.371C311.316 187.783 311.103 188.097 310.824 188.315C310.546 188.53 310.208 188.638 309.812 188.638ZM309.812 188.06C310.205 188.06 310.51 187.871 310.727 187.492C310.944 187.114 311.053 186.574 311.053 185.873C311.053 185.407 311.003 185.01 310.903 184.682C310.805 184.355 310.663 184.105 310.477 183.933C310.293 183.761 310.072 183.676 309.812 183.676C309.423 183.676 309.119 183.867 308.9 184.251C308.681 184.633 308.572 185.174 308.572 185.873C308.572 186.339 308.621 186.735 308.719 187.061C308.817 187.387 308.958 187.635 309.142 187.805C309.328 187.975 309.551 188.06 309.812 188.06ZM316.983 187.723L318.391 184.527H318.98L317.235 188.564H316.73L315.017 184.527H315.595L316.983 187.723ZM315.395 184.527V188.564H314.775V184.527H315.395ZM318.57 188.564V184.527H319.191V188.564H318.57ZM321.514 188.659C321.258 188.659 321.026 188.611 320.818 188.515C320.609 188.416 320.443 188.275 320.321 188.091C320.198 187.906 320.137 187.681 320.137 187.418C320.137 187.187 320.182 187 320.273 186.856C320.365 186.711 320.486 186.597 320.639 186.514C320.791 186.432 320.96 186.371 321.144 186.33C321.329 186.288 321.516 186.255 321.703 186.23C321.949 186.199 322.148 186.175 322.3 186.159C322.454 186.142 322.566 186.113 322.636 186.073C322.708 186.032 322.744 185.962 322.744 185.862V185.841C322.744 185.582 322.673 185.381 322.531 185.237C322.391 185.093 322.178 185.021 321.893 185.021C321.596 185.021 321.364 185.086 321.196 185.216C321.028 185.345 320.91 185.484 320.841 185.631L320.252 185.421C320.358 185.175 320.498 184.984 320.673 184.848C320.85 184.709 321.043 184.613 321.251 184.559C321.462 184.503 321.668 184.475 321.872 184.475C322.001 184.475 322.15 184.49 322.318 184.522C322.488 184.552 322.652 184.614 322.81 184.708C322.969 184.803 323.102 184.946 323.207 185.137C323.312 185.328 323.365 185.584 323.365 185.904V188.564H322.744V188.018H322.713C322.671 188.105 322.601 188.199 322.502 188.299C322.404 188.399 322.274 188.484 322.111 188.554C321.948 188.624 321.749 188.659 321.514 188.659ZM321.609 188.102C321.854 188.102 322.061 188.054 322.229 187.957C322.399 187.861 322.527 187.736 322.613 187.584C322.7 187.432 322.744 187.271 322.744 187.103V186.535C322.718 186.567 322.66 186.596 322.571 186.622C322.483 186.647 322.382 186.668 322.266 186.688C322.152 186.705 322.041 186.721 321.932 186.735C321.825 186.747 321.738 186.758 321.672 186.767C321.511 186.788 321.36 186.822 321.22 186.869C321.081 186.915 320.969 186.984 320.883 187.077C320.799 187.168 320.757 187.292 320.757 187.45C320.757 187.666 320.837 187.828 320.996 187.939C321.158 188.048 321.362 188.102 321.609 188.102ZM326.925 188.564V185.095H325.853C325.611 185.095 325.421 185.151 325.283 185.263C325.144 185.375 325.075 185.529 325.075 185.726C325.075 185.918 325.137 186.07 325.262 186.18C325.388 186.291 325.56 186.346 325.779 186.346H327.083V186.924H325.779C325.506 186.924 325.27 186.876 325.072 186.78C324.874 186.683 324.722 186.546 324.615 186.367C324.508 186.187 324.455 185.973 324.455 185.726C324.455 185.477 324.511 185.263 324.623 185.084C324.735 184.906 324.895 184.768 325.104 184.672C325.314 184.575 325.564 184.527 325.853 184.527H327.514V188.564H326.925ZM324.234 188.564L325.38 186.556H326.053L324.907 188.564H324.234Z" fill="#707E8F"/>
<rect x="394.096" y="0.119141" width="0.462609" height="173.044" fill="url(#paint4_linear_294_18123)"/>
<path d="M382.944 188.564V188.091L384.721 186.146C384.929 185.918 385.101 185.72 385.236 185.552C385.371 185.382 385.471 185.223 385.535 185.074C385.602 184.923 385.635 184.765 385.635 184.601C385.635 184.411 385.59 184.248 385.499 184.109C385.409 183.971 385.287 183.864 385.131 183.789C384.975 183.713 384.799 183.676 384.605 183.676C384.398 183.676 384.218 183.718 384.063 183.804C383.911 183.888 383.793 184.007 383.709 184.159C383.626 184.312 383.585 184.49 383.585 184.695H382.965C382.965 184.38 383.037 184.103 383.183 183.865C383.328 183.626 383.526 183.441 383.777 183.308C384.029 183.174 384.312 183.108 384.626 183.108C384.941 183.108 385.221 183.174 385.464 183.308C385.708 183.441 385.899 183.62 386.037 183.846C386.176 184.072 386.245 184.324 386.245 184.601C386.245 184.799 386.209 184.992 386.137 185.182C386.067 185.369 385.945 185.579 385.769 185.81C385.596 186.039 385.355 186.32 385.046 186.651L383.837 187.944V187.986H386.34V188.564H382.944ZM389.318 183.181V188.564H388.666V183.865H388.634L387.32 184.737V184.075L388.666 183.181H389.318ZM395.166 187.723L396.575 184.527H397.164L395.418 188.564H394.914L393.2 184.527H393.778L395.166 187.723ZM393.578 184.527V188.564H392.958V184.527H393.578ZM396.754 188.564V184.527H397.374V188.564H396.754ZM399.698 188.659C399.442 188.659 399.209 188.611 399.001 188.515C398.792 188.416 398.627 188.275 398.504 188.091C398.382 187.906 398.32 187.681 398.32 187.418C398.32 187.187 398.366 187 398.457 186.856C398.548 186.711 398.67 186.597 398.822 186.514C398.975 186.432 399.143 186.371 399.327 186.33C399.513 186.288 399.699 186.255 399.887 186.23C400.132 186.199 400.331 186.175 400.483 186.159C400.638 186.142 400.75 186.113 400.82 186.073C400.892 186.032 400.928 185.962 400.928 185.862V185.841C400.928 185.582 400.857 185.381 400.715 185.237C400.575 185.093 400.362 185.021 400.076 185.021C399.78 185.021 399.548 185.086 399.379 185.216C399.211 185.345 399.093 185.484 399.025 185.631L398.436 185.421C398.541 185.175 398.681 184.984 398.856 184.848C399.033 184.709 399.226 184.613 399.435 184.559C399.645 184.503 399.852 184.475 400.055 184.475C400.185 184.475 400.334 184.49 400.502 184.522C400.672 184.552 400.836 184.614 400.993 184.708C401.153 184.803 401.285 184.946 401.39 185.137C401.495 185.328 401.548 185.584 401.548 185.904V188.564H400.928V188.018H400.896C400.854 188.105 400.784 188.199 400.686 188.299C400.588 188.399 400.457 188.484 400.294 188.554C400.131 188.624 399.932 188.659 399.698 188.659ZM399.792 188.102C400.037 188.102 400.244 188.054 400.412 187.957C400.582 187.861 400.71 187.736 400.796 187.584C400.884 187.432 400.928 187.271 400.928 187.103V186.535C400.901 186.567 400.844 186.596 400.754 186.622C400.667 186.647 400.565 186.668 400.449 186.688C400.335 186.705 400.224 186.721 400.115 186.735C400.009 186.747 399.922 186.758 399.855 186.767C399.694 186.788 399.543 186.822 399.403 186.869C399.265 186.915 399.153 186.984 399.067 187.077C398.983 187.168 398.941 187.292 398.941 187.45C398.941 187.666 399.02 187.828 399.18 187.939C399.341 188.048 399.545 188.102 399.792 188.102ZM405.109 188.564V185.095H404.036C403.795 185.095 403.605 185.151 403.466 185.263C403.328 185.375 403.258 185.529 403.258 185.726C403.258 185.918 403.321 186.07 403.445 186.18C403.571 186.291 403.744 186.346 403.963 186.346H405.267V186.924H403.963C403.689 186.924 403.454 186.876 403.256 186.78C403.058 186.683 402.905 186.546 402.798 186.367C402.692 186.187 402.638 185.973 402.638 185.726C402.638 185.477 402.694 185.263 402.806 185.084C402.918 184.906 403.079 184.768 403.287 184.672C403.498 184.575 403.747 184.527 404.036 184.527H405.698V188.564H405.109ZM402.417 188.564L403.563 186.556H404.236L403.09 188.564H402.417Z" fill="#707E8F"/>
<rect x="472.872" y="0.119141" width="0.462609" height="173.044" fill="url(#paint5_linear_294_18123)"/>
<path d="M461.199 188.564V188.091L462.975 186.146C463.184 185.918 463.356 185.72 463.491 185.552C463.626 185.382 463.725 185.223 463.79 185.074C463.857 184.923 463.89 184.765 463.89 184.601C463.89 184.411 463.845 184.248 463.754 184.109C463.664 183.971 463.541 183.864 463.386 183.789C463.23 183.713 463.054 183.676 462.86 183.676C462.653 183.676 462.473 183.718 462.318 183.804C462.166 183.888 462.048 184.007 461.964 184.159C461.881 184.312 461.84 184.49 461.84 184.695H461.22C461.22 184.38 461.292 184.103 461.438 183.865C461.583 183.626 461.781 183.441 462.032 183.308C462.284 183.174 462.567 183.108 462.881 183.108C463.196 183.108 463.476 183.174 463.719 183.308C463.963 183.441 464.154 183.62 464.292 183.846C464.431 184.072 464.5 184.324 464.5 184.601C464.5 184.799 464.464 184.992 464.392 185.182C464.322 185.369 464.199 185.579 464.024 185.81C463.851 186.039 463.61 186.32 463.301 186.651L462.092 187.944V187.986H464.595V188.564H461.199ZM465.68 188.564V188.091L467.457 186.146C467.666 185.918 467.837 185.72 467.972 185.552C468.107 185.382 468.207 185.223 468.272 185.074C468.338 184.923 468.372 184.765 468.372 184.601C468.372 184.411 468.326 184.248 468.235 184.109C468.146 183.971 468.023 183.864 467.867 183.789C467.711 183.713 467.536 183.676 467.341 183.676C467.135 183.676 466.954 183.718 466.8 183.804C466.647 183.888 466.529 184.007 466.445 184.159C466.363 184.312 466.322 184.49 466.322 184.695H465.701C465.701 184.38 465.774 184.103 465.919 183.865C466.065 183.626 466.263 183.441 466.513 183.308C466.766 183.174 467.049 183.108 467.362 183.108C467.678 183.108 467.957 183.174 468.201 183.308C468.444 183.441 468.635 183.62 468.774 183.846C468.912 184.072 468.982 184.324 468.982 184.601C468.982 184.799 468.946 184.992 468.874 185.182C468.804 185.369 468.681 185.579 468.506 185.81C468.332 186.039 468.091 186.32 467.783 186.651L466.574 187.944V187.986H469.076V188.564H465.68ZM474.462 187.723L475.871 184.527H476.46L474.714 188.564H474.21L472.496 184.527H473.074L474.462 187.723ZM472.874 184.527V188.564H472.254V184.527H472.874ZM476.049 188.564V184.527H476.67V188.564H476.049ZM478.993 188.659C478.738 188.659 478.505 188.611 478.297 188.515C478.088 188.416 477.923 188.275 477.8 188.091C477.677 187.906 477.616 187.681 477.616 187.418C477.616 187.187 477.662 187 477.753 186.856C477.844 186.711 477.966 186.597 478.118 186.514C478.271 186.432 478.439 186.371 478.623 186.33C478.808 186.288 478.995 186.255 479.183 186.23C479.428 186.199 479.627 186.175 479.779 186.159C479.933 186.142 480.046 186.113 480.116 186.073C480.188 186.032 480.223 185.962 480.223 185.862V185.841C480.223 185.582 480.152 185.381 480.011 185.237C479.87 185.093 479.657 185.021 479.372 185.021C479.076 185.021 478.844 185.086 478.675 185.216C478.507 185.345 478.389 185.484 478.32 185.631L477.732 185.421C477.837 185.175 477.977 184.984 478.152 184.848C478.329 184.709 478.522 184.613 478.73 184.559C478.941 184.503 479.148 184.475 479.351 184.475C479.48 184.475 479.629 184.49 479.798 184.522C479.968 184.552 480.131 184.614 480.289 184.708C480.449 184.803 480.581 184.946 480.686 185.137C480.791 185.328 480.844 185.584 480.844 185.904V188.564H480.223V188.018H480.192C480.15 188.105 480.08 188.199 479.982 188.299C479.884 188.399 479.753 188.484 479.59 188.554C479.427 188.624 479.228 188.659 478.993 188.659ZM479.088 188.102C479.333 188.102 479.54 188.054 479.708 187.957C479.878 187.861 480.006 187.736 480.092 187.584C480.18 187.432 480.223 187.271 480.223 187.103V186.535C480.197 186.567 480.139 186.596 480.05 186.622C479.962 186.647 479.861 186.668 479.745 186.688C479.631 186.705 479.52 186.721 479.411 186.735C479.304 186.747 479.218 186.758 479.151 186.767C478.99 186.788 478.839 186.822 478.699 186.869C478.561 186.915 478.448 186.984 478.363 187.077C478.278 187.168 478.236 187.292 478.236 187.45C478.236 187.666 478.316 187.828 478.476 187.939C478.637 188.048 478.841 188.102 479.088 188.102ZM484.405 188.564V185.095H483.332C483.09 185.095 482.9 185.151 482.762 185.263C482.623 185.375 482.554 185.529 482.554 185.726C482.554 185.918 482.616 186.07 482.741 186.18C482.867 186.291 483.04 186.346 483.259 186.346H484.562V186.924H483.259C482.985 186.924 482.75 186.876 482.552 186.78C482.354 186.683 482.201 186.546 482.094 186.367C481.987 186.187 481.934 185.973 481.934 185.726C481.934 185.477 481.99 185.263 482.102 185.084C482.214 184.906 482.375 184.768 482.583 184.672C482.793 184.575 483.043 184.527 483.332 184.527H484.993V188.564H484.405ZM481.713 188.564L482.859 186.556H483.532L482.386 188.564H481.713Z" fill="#707E8F"/>
<rect x="551.648" y="0.119141" width="0.462609" height="173.044" fill="url(#paint6_linear_294_18123)"/>
<path d="M539.859 188.564V188.091L541.636 186.146C541.844 185.918 542.016 185.72 542.151 185.552C542.286 185.382 542.386 185.223 542.451 185.074C542.517 184.923 542.551 184.765 542.551 184.601C542.551 184.411 542.505 184.248 542.414 184.109C542.325 183.971 542.202 183.864 542.046 183.789C541.89 183.713 541.715 183.676 541.52 183.676C541.314 183.676 541.133 183.718 540.979 183.804C540.826 183.888 540.708 184.007 540.624 184.159C540.542 184.312 540.5 184.49 540.5 184.695H539.88C539.88 184.38 539.953 184.103 540.098 183.865C540.244 183.626 540.442 183.441 540.692 183.308C540.945 183.174 541.228 183.108 541.541 183.108C541.857 183.108 542.136 183.174 542.38 183.308C542.623 183.441 542.814 183.62 542.953 183.846C543.091 184.072 543.16 184.324 543.16 184.601C543.16 184.799 543.125 184.992 543.053 185.182C542.983 185.369 542.86 185.579 542.685 185.81C542.511 186.039 542.27 186.32 541.962 186.651L540.753 187.944V187.986H543.255V188.564H539.859ZM546.16 188.638C545.813 188.638 545.503 188.578 545.232 188.459C544.962 188.34 544.747 188.175 544.588 187.963C544.43 187.749 544.344 187.501 544.33 187.219H544.993C545.007 187.392 545.066 187.542 545.171 187.668C545.276 187.793 545.414 187.889 545.584 187.957C545.754 188.026 545.942 188.06 546.149 188.06C546.38 188.06 546.585 188.019 546.764 187.939C546.943 187.858 547.083 187.746 547.185 187.602C547.286 187.459 547.337 187.292 547.337 187.103C547.337 186.905 547.288 186.731 547.19 186.58C547.092 186.428 546.948 186.308 546.759 186.222C546.57 186.137 546.338 186.094 546.065 186.094H545.634V185.515H546.065C546.279 185.515 546.466 185.477 546.627 185.4C546.79 185.323 546.917 185.214 547.009 185.074C547.101 184.934 547.148 184.769 547.148 184.58C547.148 184.397 547.108 184.239 547.027 184.104C546.946 183.969 546.832 183.864 546.685 183.789C546.54 183.713 546.368 183.676 546.17 183.676C545.984 183.676 545.809 183.71 545.644 183.778C545.481 183.845 545.348 183.942 545.245 184.07C545.141 184.196 545.085 184.348 545.077 184.527H544.446C544.456 184.245 544.541 183.998 544.701 183.786C544.86 183.572 545.069 183.406 545.326 183.287C545.586 183.167 545.87 183.108 546.181 183.108C546.514 183.108 546.799 183.175 547.037 183.31C547.276 183.443 547.459 183.619 547.587 183.838C547.715 184.058 547.779 184.294 547.779 184.548C547.779 184.851 547.699 185.11 547.539 185.324C547.382 185.537 547.167 185.685 546.896 185.768V185.81C547.235 185.866 547.501 186.01 547.692 186.244C547.883 186.475 547.978 186.761 547.978 187.103C547.978 187.396 547.899 187.659 547.739 187.892C547.582 188.123 547.366 188.305 547.093 188.438C546.819 188.571 546.508 188.638 546.16 188.638ZM553.354 187.723L554.763 184.527H555.351L553.606 188.564H553.101L551.388 184.527H551.966L553.354 187.723ZM551.766 184.527V188.564H551.146V184.527H551.766ZM554.941 188.564V184.527H555.562V188.564H554.941ZM557.885 188.659C557.629 188.659 557.397 188.611 557.189 188.515C556.98 188.416 556.814 188.275 556.692 188.091C556.569 187.906 556.508 187.681 556.508 187.418C556.508 187.187 556.553 187 556.644 186.856C556.736 186.711 556.857 186.597 557.01 186.514C557.162 186.432 557.331 186.371 557.515 186.33C557.7 186.288 557.887 186.255 558.074 186.23C558.32 186.199 558.519 186.175 558.671 186.159C558.825 186.142 558.937 186.113 559.007 186.073C559.079 186.032 559.115 185.962 559.115 185.862V185.841C559.115 185.582 559.044 185.381 558.902 185.237C558.762 185.093 558.549 185.021 558.264 185.021C557.967 185.021 557.735 185.086 557.567 185.216C557.399 185.345 557.281 185.484 557.212 185.631L556.623 185.421C556.729 185.175 556.869 184.984 557.044 184.848C557.221 184.709 557.414 184.613 557.622 184.559C557.833 184.503 558.039 184.475 558.243 184.475C558.372 184.475 558.521 184.49 558.689 184.522C558.859 184.552 559.023 184.614 559.181 184.708C559.34 184.803 559.473 184.946 559.578 185.137C559.683 185.328 559.736 185.584 559.736 185.904V188.564H559.115V188.018H559.084C559.042 188.105 558.972 188.199 558.873 188.299C558.775 188.399 558.645 188.484 558.482 188.554C558.319 188.624 558.12 188.659 557.885 188.659ZM557.98 188.102C558.225 188.102 558.432 188.054 558.6 187.957C558.77 187.861 558.898 187.736 558.984 187.584C559.071 187.432 559.115 187.271 559.115 187.103V186.535C559.089 186.567 559.031 186.596 558.942 186.622C558.854 186.647 558.753 186.668 558.637 186.688C558.523 186.705 558.412 186.721 558.303 186.735C558.196 186.747 558.109 186.758 558.043 186.767C557.882 186.788 557.731 186.822 557.591 186.869C557.452 186.915 557.34 186.984 557.254 187.077C557.17 187.168 557.128 187.292 557.128 187.45C557.128 187.666 557.208 187.828 557.367 187.939C557.529 188.048 557.733 188.102 557.98 188.102ZM563.296 188.564V185.095H562.224C561.982 185.095 561.792 185.151 561.654 185.263C561.515 185.375 561.446 185.529 561.446 185.726C561.446 185.918 561.508 186.07 561.633 186.18C561.759 186.291 561.931 186.346 562.15 186.346H563.454V186.924H562.15C561.877 186.924 561.641 186.876 561.443 186.78C561.245 186.683 561.093 186.546 560.986 186.367C560.879 186.187 560.826 185.973 560.826 185.726C560.826 185.477 560.882 185.263 560.994 185.084C561.106 184.906 561.266 184.768 561.475 184.672C561.685 184.575 561.935 184.527 562.224 184.527H563.885V188.564H563.296ZM560.605 188.564L561.751 186.556H562.424L561.278 188.564H560.605Z" fill="#707E8F"/>
<path d="M3.35391 11.8939C3.00696 11.8939 2.69767 11.8343 2.42607 11.7152C2.15621 11.596 1.94155 11.4304 1.78209 11.2184C1.62438 11.0046 1.53852 10.7567 1.5245 10.4745H2.18688C2.20089 10.648 2.26047 10.7978 2.36561 10.924C2.47075 11.0484 2.60831 11.1448 2.77828 11.2131C2.94825 11.2815 3.13663 11.3156 3.3434 11.3156C3.5747 11.3156 3.77972 11.2753 3.95846 11.1947C4.13719 11.1141 4.27738 11.002 4.37901 10.8583C4.48065 10.7146 4.53146 10.5481 4.53146 10.3589C4.53146 10.1609 4.4824 9.98652 4.38427 9.83582C4.28614 9.68337 4.14245 9.56422 3.9532 9.47835C3.76395 9.39249 3.53265 9.34956 3.25929 9.34956H2.82822V8.7713H3.25929C3.47307 8.7713 3.66057 8.73275 3.82178 8.65564C3.98474 8.57854 4.11179 8.4699 4.20291 8.32971C4.29578 8.18953 4.34221 8.02481 4.34221 7.83556C4.34221 7.65332 4.30191 7.49474 4.22131 7.35981C4.1407 7.22488 4.0268 7.11975 3.87961 7.0444C3.73416 6.96905 3.56244 6.93137 3.36443 6.93137C3.17868 6.93137 3.00345 6.96554 2.83873 7.03388C2.67577 7.10047 2.54259 7.19772 2.43921 7.32564C2.33582 7.45181 2.27975 7.60426 2.27099 7.78299H1.64016C1.65067 7.50087 1.73566 7.2538 1.89512 7.04177C2.05458 6.82799 2.2631 6.66152 2.52069 6.54236C2.78003 6.4232 3.06478 6.36362 3.37494 6.36362C3.70788 6.36362 3.99351 6.43109 4.23182 6.56602C4.47013 6.69919 4.65325 6.8753 4.78117 7.09434C4.90909 7.31338 4.97305 7.54994 4.97305 7.80402C4.97305 8.10717 4.89332 8.36564 4.73386 8.57942C4.57615 8.7932 4.36149 8.94127 4.08988 9.02363V9.06568C4.42983 9.12176 4.69531 9.26632 4.88631 9.49938C5.07731 9.73069 5.17281 10.0172 5.17281 10.3589C5.17281 10.6515 5.09308 10.9144 4.93362 11.1474C4.77591 11.3787 4.56038 11.561 4.28702 11.6941C4.01366 11.8273 3.70262 11.8939 3.35391 11.8939ZM8.00366 11.8939C7.60764 11.8939 7.27032 11.7861 6.9917 11.5706C6.71309 11.3533 6.50018 11.0388 6.35299 10.627C6.20579 10.2134 6.1322 9.71404 6.1322 9.12877C6.1322 8.547 6.20579 8.05022 6.35299 7.63843C6.50193 7.22488 6.71572 6.90947 6.99433 6.69218C7.2747 6.47314 7.61115 6.36362 8.00366 6.36362C8.39618 6.36362 8.73175 6.47314 9.01036 6.69218C9.29073 6.90947 9.50452 7.22488 9.65171 7.63843C9.80066 8.05022 9.87513 8.547 9.87513 9.12877C9.87513 9.71404 9.80153 10.2134 9.65434 10.627C9.50714 11.0388 9.29424 11.3533 9.01562 11.5706C8.737 11.7861 8.39968 11.8939 8.00366 11.8939ZM8.00366 11.3156C8.39618 11.3156 8.70108 11.1264 8.91837 10.7479C9.13565 10.3694 9.2443 9.82969 9.2443 9.12877C9.2443 8.66265 9.19436 8.26576 9.09447 7.93807C8.99635 7.61039 8.85441 7.36069 8.66866 7.18896C8.48467 7.01724 8.263 6.93137 8.00366 6.93137C7.61465 6.93137 7.31063 7.12325 7.09159 7.50701C6.87255 7.88901 6.76303 8.4296 6.76303 9.12877C6.76303 9.59488 6.81209 9.9909 6.91022 10.3168C7.00835 10.6428 7.14941 10.8907 7.33341 11.0607C7.51915 11.2307 7.74257 11.3156 8.00366 11.3156ZM12.6298 11.8939C12.2337 11.8939 11.8964 11.7861 11.6178 11.5706C11.3392 11.3533 11.1263 11.0388 10.9791 10.627C10.8319 10.2134 10.7583 9.71404 10.7583 9.12877C10.7583 8.547 10.8319 8.05022 10.9791 7.63843C11.128 7.22488 11.3418 6.90947 11.6204 6.69218C11.9008 6.47314 12.2372 6.36362 12.6298 6.36362C13.0223 6.36362 13.3578 6.47314 13.6365 6.69218C13.9168 6.90947 14.1306 7.22488 14.2778 7.63843C14.4267 8.05022 14.5012 8.547 14.5012 9.12877C14.5012 9.71404 14.4276 10.2134 14.2804 10.627C14.1332 11.0388 13.9203 11.3533 13.6417 11.5706C13.3631 11.7861 13.0258 11.8939 12.6298 11.8939ZM12.6298 11.3156C13.0223 11.3156 13.3272 11.1264 13.5445 10.7479C13.7617 10.3694 13.8704 9.82969 13.8704 9.12877C13.8704 8.66265 13.8204 8.26576 13.7206 7.93807C13.6224 7.61039 13.4805 7.36069 13.2948 7.18896C13.1108 7.01724 12.8891 6.93137 12.6298 6.93137C12.2407 6.93137 11.9367 7.12325 11.7177 7.50701C11.4986 7.88901 11.3891 8.4296 11.3891 9.12877C11.3891 9.59488 11.4382 9.9909 11.5363 10.3168C11.6344 10.6428 11.7755 10.8907 11.9595 11.0607C12.1452 11.2307 12.3687 11.3156 12.6298 11.3156ZM17.2558 11.8939C16.8598 11.8939 16.5225 11.7861 16.2439 11.5706C15.9653 11.3533 15.7524 11.0388 15.6052 10.627C15.458 10.2134 15.3844 9.71404 15.3844 9.12877C15.3844 8.547 15.458 8.05022 15.6052 7.63843C15.7541 7.22488 15.9679 6.90947 16.2465 6.69218C16.5269 6.47314 16.8633 6.36362 17.2558 6.36362C17.6484 6.36362 17.9839 6.47314 18.2626 6.69218C18.5429 6.90947 18.7567 7.22488 18.9039 7.63843C19.0528 8.05022 19.1273 8.547 19.1273 9.12877C19.1273 9.71404 19.0537 10.2134 18.9065 10.627C18.7593 11.0388 18.5464 11.3533 18.2678 11.5706C17.9892 11.7861 17.6519 11.8939 17.2558 11.8939ZM17.2558 11.3156C17.6484 11.3156 17.9533 11.1264 18.1706 10.7479C18.3878 10.3694 18.4965 9.82969 18.4965 9.12877C18.4965 8.66265 18.4465 8.26576 18.3467 7.93807C18.2485 7.61039 18.1066 7.36069 17.9209 7.18896C17.7369 7.01724 17.5152 6.93137 17.2558 6.93137C16.8668 6.93137 16.5628 7.12325 16.3438 7.50701C16.1247 7.88901 16.0152 8.4296 16.0152 9.12877C16.0152 9.59488 16.0643 9.9909 16.1624 10.3168C16.2605 10.6428 16.4016 10.8907 16.5856 11.0607C16.7713 11.2307 16.9948 11.3156 17.2558 11.3156ZM20.7149 10.3484L20.7044 9.58086H20.8306L22.5969 7.78299H23.3644L21.4824 9.686H21.4298L20.7149 10.3484ZM20.1366 11.8203V6.43722H20.757V11.8203H20.1366ZM22.702 11.8203L21.1249 9.82268L21.5665 9.39161L23.4906 11.8203H22.702Z" fill="#707E8F"/>
<rect x="45.3882" y="9.58887" width="540.328" height="0.462609" fill="url(#paint7_linear_294_18123)"/>
<path d="M1.53502 27.5215V27.0484L3.31186 25.1033C3.52038 24.8755 3.69211 24.6775 3.82704 24.5093C3.96196 24.3393 4.06185 24.1798 4.12668 24.0309C4.19327 23.8802 4.22656 23.7225 4.22656 23.5578C4.22656 23.3685 4.181 23.2047 4.08988 23.0662C4.00051 22.9278 3.87785 22.8209 3.7219 22.7456C3.56594 22.6702 3.39071 22.6325 3.19621 22.6325C2.98943 22.6325 2.80895 22.6755 2.65474 22.7613C2.50229 22.8454 2.38401 22.9637 2.2999 23.1162C2.21754 23.2686 2.17636 23.4474 2.17636 23.6524H1.55604C1.55604 23.337 1.62877 23.0601 1.77421 22.8218C1.91965 22.5835 2.11766 22.3977 2.36824 22.2646C2.62057 22.1314 2.90357 22.0648 3.21723 22.0648C3.53265 22.0648 3.81214 22.1314 4.05571 22.2646C4.29928 22.3977 4.49028 22.5773 4.62872 22.8034C4.76715 23.0294 4.83637 23.2809 4.83637 23.5578C4.83637 23.7558 4.80044 23.9494 4.7286 24.1387C4.65851 24.3262 4.53584 24.5356 4.36061 24.7669C4.18714 24.9964 3.94619 25.2768 3.63779 25.608L2.42869 26.9012V26.9432H4.93099V27.5215H1.53502ZM6.18477 27.5215L8.59244 22.7587V22.7167H5.81678V22.1384H9.26532V22.7482L6.86817 27.5215H6.18477ZM11.855 27.5951C11.5466 27.5951 11.2689 27.5338 11.0218 27.4111C10.7747 27.2884 10.5767 27.1202 10.4278 26.9064C10.2788 26.6926 10.1973 26.4491 10.1833 26.1757H10.8141C10.8387 26.4193 10.9491 26.6208 11.1453 26.7803C11.3433 26.938 11.5799 27.0168 11.855 27.0168C12.0758 27.0168 12.2721 26.9651 12.4438 26.8617C12.6173 26.7584 12.7531 26.6164 12.8512 26.4359C12.9511 26.2537 13.001 26.0478 13.001 25.8182C13.001 25.5834 12.9493 25.374 12.8459 25.19C12.7443 25.0043 12.6041 24.858 12.4254 24.7511C12.2467 24.6442 12.0425 24.5899 11.813 24.5881C11.6482 24.5864 11.4791 24.6118 11.3057 24.6643C11.1322 24.7152 10.9894 24.7809 10.8772 24.8615L10.2674 24.7879L10.5934 22.1384H13.39V22.7167H11.1401L10.9508 24.3042H10.9824C11.0928 24.2166 11.2312 24.1439 11.3977 24.0861C11.5641 24.0283 11.7376 23.9993 11.9181 23.9993C12.2475 23.9993 12.541 24.0782 12.7986 24.2359C13.058 24.3919 13.2612 24.6056 13.4084 24.8773C13.5574 25.1489 13.6319 25.459 13.6319 25.8077C13.6319 26.1512 13.5548 26.4578 13.4006 26.7277C13.2481 26.9958 13.0378 27.2078 12.7697 27.3638C12.5016 27.518 12.1967 27.5951 11.855 27.5951ZM16.4318 27.5951C16.0358 27.5951 15.6985 27.4873 15.4199 27.2718C15.1413 27.0545 14.9283 26.74 14.7812 26.3282C14.634 25.9146 14.5604 25.4152 14.5604 24.8299C14.5604 24.2482 14.634 23.7514 14.7812 23.3396C14.9301 22.9261 15.1439 22.6106 15.4225 22.3934C15.7029 22.1743 16.0393 22.0648 16.4318 22.0648C16.8243 22.0648 17.1599 22.1743 17.4385 22.3934C17.7189 22.6106 17.9327 22.9261 18.0799 23.3396C18.2288 23.7514 18.3033 24.2482 18.3033 24.8299C18.3033 25.4152 18.2297 25.9146 18.0825 26.3282C17.9353 26.74 17.7224 27.0545 17.4438 27.2718C17.1652 27.4873 16.8278 27.5951 16.4318 27.5951ZM16.4318 27.0168C16.8243 27.0168 17.1292 26.8276 17.3465 26.4491C17.5638 26.0706 17.6725 25.5309 17.6725 24.8299C17.6725 24.3638 17.6225 23.9669 17.5226 23.6392C17.4245 23.3116 17.2826 23.0619 17.0968 22.8901C16.9128 22.7184 16.6912 22.6325 16.4318 22.6325C16.0428 22.6325 15.7388 22.8244 15.5198 23.2082C15.3007 23.5902 15.1912 24.1308 15.1912 24.8299C15.1912 25.2961 15.2403 25.6921 15.3384 26.018C15.4365 26.3439 15.5776 26.5919 15.7616 26.7619C15.9473 26.9318 16.1707 27.0168 16.4318 27.0168ZM19.8909 26.0495L19.8804 25.282H20.0065L21.7729 23.4842H22.5404L20.6584 25.3872H20.6058L19.8909 26.0495ZM19.3126 27.5215V22.1384H19.9329V27.5215H19.3126ZM21.878 27.5215L20.3009 25.5239L20.7425 25.0928L22.6665 27.5215H21.878Z" fill="#707E8F"/>
<rect x="45.3882" y="25.29" width="540.328" height="0.462609" fill="url(#paint8_linear_294_18123)"/>
<path d="M1.53502 43.2217V42.7486L3.31186 40.8035C3.52038 40.5757 3.69211 40.3777 3.82704 40.2095C3.96196 40.0395 4.06185 39.88 4.12668 39.7311C4.19327 39.5804 4.22656 39.4227 4.22656 39.258C4.22656 39.0687 4.181 38.9049 4.08988 38.7664C4.00051 38.628 3.87785 38.5211 3.7219 38.4458C3.56594 38.3704 3.39071 38.3327 3.19621 38.3327C2.98943 38.3327 2.80895 38.3757 2.65474 38.4615C2.50229 38.5456 2.38401 38.6639 2.2999 38.8164C2.21754 38.9688 2.17636 39.1476 2.17636 39.3526H1.55604C1.55604 39.0372 1.62877 38.7603 1.77421 38.522C1.91965 38.2837 2.11766 38.0979 2.36824 37.9648C2.62057 37.8316 2.90357 37.765 3.21723 37.765C3.53265 37.765 3.81214 37.8316 4.05571 37.9648C4.29928 38.0979 4.49028 38.2775 4.62872 38.5036C4.76715 38.7296 4.83637 38.9811 4.83637 39.258C4.83637 39.456 4.80044 39.6496 4.7286 39.8388C4.65851 40.0263 4.53584 40.2357 4.36061 40.4671C4.18714 40.6966 3.94619 40.977 3.63779 41.3082L2.42869 42.6014V42.6434H4.93099V43.2217H1.53502ZM7.69876 43.2953C7.39036 43.2953 7.11261 43.2339 6.86554 43.1113C6.61846 42.9886 6.42045 42.8204 6.27151 42.6066C6.12256 42.3928 6.04108 42.1493 6.02706 41.8759H6.65789C6.68242 42.1195 6.79282 42.321 6.98908 42.4805C7.18709 42.6382 7.42365 42.717 7.69876 42.717C7.91955 42.717 8.11581 42.6653 8.28754 42.5619C8.46102 42.4585 8.59682 42.3166 8.69495 42.1361C8.79483 41.9539 8.84477 41.748 8.84477 41.5184C8.84477 41.2836 8.79308 41.0742 8.68969 40.8902C8.58806 40.7045 8.44787 40.5582 8.26914 40.4513C8.0904 40.3444 7.88626 40.2901 7.65671 40.2883C7.49199 40.2866 7.32289 40.312 7.14941 40.3645C6.97593 40.4154 6.83312 40.4811 6.72097 40.5617L6.11117 40.4881L6.4371 37.8386H9.23378V38.4169H6.98382L6.79457 40.0044H6.82611C6.93651 39.9168 7.07494 39.8441 7.24141 39.7863C7.40788 39.7285 7.58136 39.6995 7.76184 39.6995C8.09128 39.6995 8.38479 39.7784 8.64238 39.9361C8.90172 40.0921 9.10499 40.3058 9.25218 40.5774C9.40113 40.8491 9.4756 41.1592 9.4756 41.5079C9.4756 41.8514 9.3985 42.158 9.2443 42.4279C9.09185 42.696 8.88157 42.908 8.61347 43.064C8.34536 43.2182 8.04046 43.2953 7.69876 43.2953ZM12.2756 43.2953C11.8795 43.2953 11.5422 43.1875 11.2636 42.972C10.985 42.7547 10.7721 42.4402 10.6249 42.0284C10.4777 41.6148 10.4041 41.1154 10.4041 40.5301C10.4041 39.9484 10.4777 39.4516 10.6249 39.0398C10.7738 38.6263 10.9876 38.3108 11.2662 38.0935C11.5466 37.8745 11.8831 37.765 12.2756 37.765C12.6681 37.765 13.0037 37.8745 13.2823 38.0935C13.5626 38.3108 13.7764 38.6263 13.9236 39.0398C14.0726 39.4516 14.147 39.9484 14.147 40.5301C14.147 41.1154 14.0734 41.6148 13.9262 42.0284C13.7791 42.4402 13.5661 42.7547 13.2875 42.972C13.0089 43.1875 12.6716 43.2953 12.2756 43.2953ZM12.2756 42.717C12.6681 42.717 12.973 42.5278 13.1903 42.1493C13.4076 41.7708 13.5162 41.2311 13.5162 40.5301C13.5162 40.064 13.4663 39.6671 13.3664 39.3394C13.2683 39.0118 13.1263 38.7621 12.9406 38.5903C12.7566 38.4186 12.5349 38.3327 12.2756 38.3327C11.8866 38.3327 11.5825 38.5246 11.3635 38.9084C11.1445 39.2904 11.0349 39.831 11.0349 40.5301C11.0349 40.9962 11.084 41.3923 11.1821 41.7182C11.2803 42.0441 11.4213 42.2921 11.6053 42.4621C11.7911 42.632 12.0145 42.717 12.2756 42.717ZM16.9017 43.2953C16.5056 43.2953 16.1683 43.1875 15.8897 42.972C15.6111 42.7547 15.3982 42.4402 15.251 42.0284C15.1038 41.6148 15.0302 41.1154 15.0302 40.5301C15.0302 39.9484 15.1038 39.4516 15.251 39.0398C15.3999 38.6263 15.6137 38.3108 15.8923 38.0935C16.1727 37.8745 16.5091 37.765 16.9017 37.765C17.2942 37.765 17.6297 37.8745 17.9084 38.0935C18.1887 38.3108 18.4025 38.6263 18.5497 39.0398C18.6987 39.4516 18.7731 39.9484 18.7731 40.5301C18.7731 41.1154 18.6995 41.6148 18.5523 42.0284C18.4051 42.4402 18.1922 42.7547 17.9136 42.972C17.635 43.1875 17.2977 43.2953 16.9017 43.2953ZM16.9017 42.717C17.2942 42.717 17.5991 42.5278 17.8164 42.1493C18.0337 41.7708 18.1423 41.2311 18.1423 40.5301C18.1423 40.064 18.0924 39.6671 17.9925 39.3394C17.8943 39.0118 17.7524 38.7621 17.5667 38.5903C17.3827 38.4186 17.161 38.3327 16.9017 38.3327C16.5127 38.3327 16.2086 38.5246 15.9896 38.9084C15.7705 39.2904 15.661 39.831 15.661 40.5301C15.661 40.9962 15.7101 41.3923 15.8082 41.7182C15.9064 42.0441 16.0474 42.2921 16.2314 42.4621C16.4172 42.632 16.6406 42.717 16.9017 42.717ZM20.3607 41.7497L20.3502 40.9822H20.4764L22.2427 39.1844H23.0102L21.1282 41.0874H21.0757L20.3607 41.7497ZM19.7825 43.2217V37.8386H20.4028V43.2217H19.7825ZM22.3478 43.2217L20.7708 41.224L21.2123 40.793L23.1364 43.2217H22.3478Z" fill="#707E8F"/>
<rect x="45.3882" y="40.9902" width="540.328" height="0.462609" fill="url(#paint9_linear_294_18123)"/>
<path d="M1.53502 58.9229V58.4497L3.31186 56.5047C3.52038 56.2769 3.69211 56.0789 3.82704 55.9106C3.96196 55.7407 4.06185 55.5812 4.12668 55.4323C4.19327 55.2816 4.22656 55.1238 4.22656 54.9591C4.22656 54.7699 4.181 54.606 4.08988 54.4676C4.00051 54.3292 3.87785 54.2223 3.7219 54.1469C3.56594 54.0716 3.39071 54.0339 3.19621 54.0339C2.98943 54.0339 2.80895 54.0768 2.65474 54.1627C2.50229 54.2468 2.38401 54.3651 2.2999 54.5175C2.21754 54.67 2.17636 54.8487 2.17636 55.0538H1.55604C1.55604 54.7383 1.62877 54.4615 1.77421 54.2232C1.91965 53.9848 2.11766 53.7991 2.36824 53.6659C2.62057 53.5328 2.90357 53.4662 3.21723 53.4662C3.53265 53.4662 3.81214 53.5328 4.05571 53.6659C4.29928 53.7991 4.49028 53.9787 4.62872 54.2048C4.76715 54.4308 4.83637 54.6823 4.83637 54.9591C4.83637 55.1571 4.80044 55.3508 4.7286 55.54C4.65851 55.7275 4.53584 55.9369 4.36061 56.1682C4.18714 56.3978 3.94619 56.6781 3.63779 57.0093L2.42869 58.3025V58.3446H4.93099V58.9229H1.53502ZM6.01655 58.9229V58.4497L7.79339 56.5047C8.00191 56.2769 8.17364 56.0789 8.30856 55.9106C8.44349 55.7407 8.54337 55.5812 8.60821 55.4323C8.6748 55.2816 8.70809 55.1238 8.70809 54.9591C8.70809 54.7699 8.66253 54.606 8.57141 54.4676C8.48204 54.3292 8.35938 54.2223 8.20343 54.1469C8.04747 54.0716 7.87224 54.0339 7.67773 54.0339C7.47096 54.0339 7.29047 54.0768 7.13627 54.1627C6.98382 54.2468 6.86554 54.3651 6.78143 54.5175C6.69907 54.67 6.65789 54.8487 6.65789 55.0538H6.03757C6.03757 54.7383 6.11029 54.4615 6.25574 54.2232C6.40118 53.9848 6.59919 53.7991 6.84977 53.6659C7.1021 53.5328 7.3851 53.4662 7.69876 53.4662C8.01418 53.4662 8.29367 53.5328 8.53724 53.6659C8.78081 53.7991 8.97181 53.9787 9.11025 54.2048C9.24868 54.4308 9.31789 54.6823 9.31789 54.9591C9.31789 55.1571 9.28197 55.3508 9.21013 55.54C9.14003 55.7275 9.01737 55.9369 8.84214 56.1682C8.66866 56.3978 8.42772 56.6781 8.11932 57.0093L6.91022 58.3025V58.3446H9.41252V58.9229H6.01655ZM12.1803 58.9964C11.8719 58.9964 11.5941 58.9351 11.3471 58.8125C11.1 58.6898 10.902 58.5216 10.753 58.3078C10.6041 58.094 10.5226 57.8504 10.5086 57.5771H11.1394C11.164 57.8206 11.2743 58.0222 11.4706 58.1816C11.6686 58.3393 11.9052 58.4182 12.1803 58.4182C12.4011 58.4182 12.5973 58.3665 12.7691 58.2631C12.9425 58.1597 13.0783 58.0178 13.1765 57.8373C13.2764 57.6551 13.3263 57.4492 13.3263 57.2196C13.3263 56.9848 13.2746 56.7754 13.1712 56.5914C13.0696 56.4057 12.9294 56.2593 12.7507 56.1525C12.5719 56.0456 12.3678 55.9912 12.1382 55.9895C11.9735 55.9877 11.8044 56.0131 11.6309 56.0657C11.4575 56.1165 11.3146 56.1822 11.2025 56.2628L10.5927 56.1893L10.9186 53.5398H13.7153V54.118H11.4653L11.2761 55.7056H11.3076C11.418 55.618 11.5565 55.5453 11.7229 55.4875C11.8894 55.4296 12.0629 55.4007 12.2434 55.4007C12.5728 55.4007 12.8663 55.4796 13.1239 55.6373C13.3832 55.7932 13.5865 56.007 13.7337 56.2786C13.8827 56.5502 13.9571 56.8604 13.9571 57.2091C13.9571 57.5525 13.88 57.8592 13.7258 58.1291C13.5734 58.3972 13.3631 58.6092 13.095 58.7651C12.8269 58.9193 12.522 58.9964 12.1803 58.9964ZM16.7571 58.9964C16.3611 58.9964 16.0238 58.8887 15.7451 58.6731C15.4665 58.4559 15.2536 58.1413 15.1064 57.7295C14.9592 57.316 14.8856 56.8166 14.8856 56.2313C14.8856 55.6495 14.9592 55.1528 15.1064 54.741C15.2554 54.3274 15.4692 54.012 15.7478 53.7947C16.0281 53.5757 16.3646 53.4662 16.7571 53.4662C17.1496 53.4662 17.4852 53.5757 17.7638 53.7947C18.0442 54.012 18.258 54.3274 18.4051 54.741C18.5541 55.1528 18.6286 55.6495 18.6286 56.2313C18.6286 56.8166 18.555 57.316 18.4078 57.7295C18.2606 58.1413 18.0477 58.4559 17.7691 58.6731C17.4904 58.8887 17.1531 58.9964 16.7571 58.9964ZM16.7571 58.4182C17.1496 58.4182 17.4545 58.2289 17.6718 57.8504C17.8891 57.4719 17.9977 56.9322 17.9977 56.2313C17.9977 55.7652 17.9478 55.3683 17.8479 55.0406C17.7498 54.7129 17.6078 54.4632 17.4221 54.2915C17.2381 54.1198 17.0164 54.0339 16.7571 54.0339C16.3681 54.0339 16.0641 54.2258 15.845 54.6095C15.626 54.9915 15.5165 55.5321 15.5165 56.2313C15.5165 56.6974 15.5655 57.0934 15.6637 57.4194C15.7618 57.7453 15.9028 57.9933 16.0868 58.1632C16.2726 58.3332 16.496 58.4182 16.7571 58.4182ZM20.2162 57.4509L20.2056 56.6834H20.3318L22.0981 54.8855H22.8656L20.9837 56.7885H20.9311L20.2162 57.4509ZM19.6379 58.9229V53.5398H20.2582V58.9229H19.6379ZM22.2033 58.9229L20.6262 56.9252L21.0678 56.4942L22.9918 58.9229H22.2033Z" fill="#707E8F"/>
<rect x="45.3882" y="56.6914" width="540.328" height="0.462609" fill="url(#paint10_linear_294_18123)"/>
<path d="M1.53502 74.624V74.1509L3.31186 72.2058C3.52038 71.978 3.69211 71.78 3.82704 71.6118C3.96196 71.4418 4.06185 71.2824 4.12668 71.1334C4.19327 70.9827 4.22656 70.825 4.22656 70.6603C4.22656 70.4711 4.181 70.3072 4.08988 70.1688C4.00051 70.0303 3.87785 69.9235 3.7219 69.8481C3.56594 69.7728 3.39071 69.7351 3.19621 69.7351C2.98943 69.7351 2.80895 69.778 2.65474 69.8639C2.50229 69.948 2.38401 70.0663 2.2999 70.2187C2.21754 70.3712 2.17636 70.5499 2.17636 70.7549H1.55604C1.55604 70.4395 1.62877 70.1626 1.77421 69.9243C1.91965 69.686 2.11766 69.5003 2.36824 69.3671C2.62057 69.2339 2.90357 69.1673 3.21723 69.1673C3.53265 69.1673 3.81214 69.2339 4.05571 69.3671C4.29928 69.5003 4.49028 69.6799 4.62872 69.9059C4.76715 70.132 4.83637 70.3834 4.83637 70.6603C4.83637 70.8583 4.80044 71.0519 4.7286 71.2412C4.65851 71.4287 4.53584 71.6381 4.36061 71.8694C4.18714 72.0989 3.94619 72.3793 3.63779 72.7105L2.42869 74.0037V74.0458H4.93099V74.624H1.53502ZM7.77236 74.6976C7.37634 74.6976 7.03902 74.5899 6.7604 74.3743C6.48178 74.157 6.26888 73.8425 6.12168 73.4307C5.97449 73.0172 5.90089 72.5177 5.90089 71.9325C5.90089 71.3507 5.97449 70.8539 6.12168 70.4421C6.27063 70.0286 6.48441 69.7132 6.76303 69.4959C7.0434 69.2769 7.37984 69.1673 7.77236 69.1673C8.16488 69.1673 8.50044 69.2769 8.77906 69.4959C9.05943 69.7132 9.27321 70.0286 9.4204 70.4421C9.56935 70.8539 9.64382 71.3507 9.64382 71.9325C9.64382 72.5177 9.57023 73.0172 9.42303 73.4307C9.27584 73.8425 9.06293 74.157 8.78432 74.3743C8.5057 74.5899 8.16838 74.6976 7.77236 74.6976ZM7.77236 74.1194C8.16488 74.1194 8.46978 73.9301 8.68706 73.5516C8.90435 73.1731 9.01299 72.6334 9.01299 71.9325C9.01299 71.4664 8.96305 71.0695 8.86317 70.7418C8.76504 70.4141 8.6231 70.1644 8.43736 69.9927C8.25337 69.8209 8.0317 69.7351 7.77236 69.7351C7.38335 69.7351 7.07932 69.927 6.86028 70.3107C6.64124 70.6927 6.53172 71.2333 6.53172 71.9325C6.53172 72.3986 6.58079 72.7946 6.67892 73.1205C6.77705 73.4465 6.91811 73.6944 7.1021 73.8644C7.28785 74.0344 7.51126 74.1194 7.77236 74.1194ZM12.3985 74.6976C12.0024 74.6976 11.6651 74.5899 11.3865 74.3743C11.1079 74.157 10.895 73.8425 10.7478 73.4307C10.6006 73.0172 10.527 72.5177 10.527 71.9325C10.527 71.3507 10.6006 70.8539 10.7478 70.4421C10.8967 70.0286 11.1105 69.7132 11.3891 69.4959C11.6695 69.2769 12.0059 69.1673 12.3985 69.1673C12.791 69.1673 13.1265 69.2769 13.4052 69.4959C13.6855 69.7132 13.8993 70.0286 14.0465 70.4421C14.1954 70.8539 14.2699 71.3507 14.2699 71.9325C14.2699 72.5177 14.1963 73.0172 14.0491 73.4307C13.9019 73.8425 13.689 74.157 13.4104 74.3743C13.1318 74.5899 12.7945 74.6976 12.3985 74.6976ZM12.3985 74.1194C12.791 74.1194 13.0959 73.9301 13.3132 73.5516C13.5304 73.1731 13.6391 72.6334 13.6391 71.9325C13.6391 71.4664 13.5891 71.0695 13.4893 70.7418C13.3911 70.4141 13.2492 70.1644 13.0635 69.9927C12.8795 69.8209 12.6578 69.7351 12.3985 69.7351C12.0094 69.7351 11.7054 69.927 11.4864 70.3107C11.2673 70.6927 11.1578 71.2333 11.1578 71.9325C11.1578 72.3986 11.2069 72.7946 11.305 73.1205C11.4031 73.4465 11.5442 73.6944 11.7282 73.8644C11.9139 74.0344 12.1374 74.1194 12.3985 74.1194ZM17.0245 74.6976C16.6285 74.6976 16.2912 74.5899 16.0126 74.3743C15.734 74.157 15.5211 73.8425 15.3739 73.4307C15.2267 73.0172 15.1531 72.5177 15.1531 71.9325C15.1531 71.3507 15.2267 70.8539 15.3739 70.4421C15.5228 70.0286 15.7366 69.7132 16.0152 69.4959C16.2956 69.2769 16.632 69.1673 17.0245 69.1673C17.4171 69.1673 17.7526 69.2769 18.0312 69.4959C18.3116 69.7132 18.5254 70.0286 18.6726 70.4421C18.8215 70.8539 18.896 71.3507 18.896 71.9325C18.896 72.5177 18.8224 73.0172 18.6752 73.4307C18.528 73.8425 18.3151 74.157 18.0365 74.3743C17.7579 74.5899 17.4206 74.6976 17.0245 74.6976ZM17.0245 74.1194C17.4171 74.1194 17.722 73.9301 17.9392 73.5516C18.1565 73.1731 18.2652 72.6334 18.2652 71.9325C18.2652 71.4664 18.2152 71.0695 18.1154 70.7418C18.0172 70.4141 17.8753 70.1644 17.6895 69.9927C17.5056 69.8209 17.2839 69.7351 17.0245 69.7351C16.6355 69.7351 16.3315 69.927 16.1125 70.3107C15.8934 70.6927 15.7839 71.2333 15.7839 71.9325C15.7839 72.3986 15.833 72.7946 15.9311 73.1205C16.0292 73.4465 16.1703 73.6944 16.3543 73.8644C16.54 74.0344 16.7635 74.1194 17.0245 74.1194ZM20.4836 73.1521L20.4731 72.3846H20.5993L22.3656 70.5867H23.1331L21.2511 72.4897H21.1985L20.4836 73.1521ZM19.9053 74.624V69.2409H20.5257V74.624H19.9053ZM22.4707 74.624L20.8936 72.6264L21.3352 72.1953L23.2593 74.624H22.4707Z" fill="#707E8F"/>
<rect x="45.3882" y="72.3926" width="540.328" height="0.462609" fill="url(#paint11_linear_294_18123)"/>
<path d="M3.42751 84.9411V90.3242H2.77565V85.6245H2.74411L1.42988 86.4972V85.8348L2.77565 84.9411H3.42751ZM5.1439 90.3242L7.55157 85.5614V85.5194H4.77591V84.9411H8.22445V85.5509L5.8273 90.3242H5.1439ZM10.8141 90.3978C10.5057 90.3978 10.228 90.3365 9.98092 90.2138C9.73385 90.0912 9.53584 89.9229 9.38689 89.7092C9.23794 89.4954 9.15646 89.2518 9.14244 88.9784H9.77327C9.79781 89.222 9.9082 89.4235 10.1045 89.583C10.3025 89.7407 10.539 89.8196 10.8141 89.8196C11.0349 89.8196 11.2312 89.7679 11.4029 89.6645C11.5764 89.5611 11.7122 89.4192 11.8103 89.2387C11.9102 89.0564 11.9602 88.8505 11.9602 88.621C11.9602 88.3862 11.9085 88.1768 11.8051 87.9928C11.7034 87.807 11.5633 87.6607 11.3845 87.5538C11.2058 87.4469 11.0016 87.3926 10.7721 87.3909C10.6074 87.3891 10.4383 87.4145 10.2648 87.4671C10.0913 87.5179 9.94851 87.5836 9.83636 87.6642L9.22655 87.5906L9.55248 84.9411H12.3492V85.5194H10.0992L9.90995 87.107H9.9415C10.0519 87.0194 10.1903 86.9466 10.3568 86.8888C10.5233 86.831 10.6967 86.8021 10.8772 86.8021C11.2067 86.8021 11.5002 86.8809 11.7578 87.0386C12.0171 87.1946 12.2204 87.4084 12.3676 87.68C12.5165 87.9516 12.591 88.2618 12.591 88.6105C12.591 88.9539 12.5139 89.2606 12.3597 89.5304C12.2072 89.7985 11.997 90.0106 11.7289 90.1665C11.4607 90.3207 11.1558 90.3978 10.8141 90.3978ZM15.391 90.3978C14.9949 90.3978 14.6576 90.29 14.379 90.0745C14.1004 89.8572 13.8875 89.5427 13.7403 89.1309C13.5931 88.7174 13.5195 88.2179 13.5195 87.6327C13.5195 87.0509 13.5931 86.5541 13.7403 86.1423C13.8892 85.7288 14.103 85.4134 14.3816 85.1961C14.662 84.9771 14.9984 84.8675 15.391 84.8675C15.7835 84.8675 16.119 84.9771 16.3977 85.1961C16.678 85.4134 16.8918 85.7288 17.039 86.1423C17.1879 86.5541 17.2624 87.0509 17.2624 87.6327C17.2624 88.2179 17.1888 88.7174 17.0416 89.1309C16.8944 89.5427 16.6815 89.8572 16.4029 90.0745C16.1243 90.29 15.787 90.3978 15.391 90.3978ZM15.391 89.8196C15.7835 89.8196 16.0884 89.6303 16.3057 89.2518C16.5229 88.8733 16.6316 88.3336 16.6316 87.6327C16.6316 87.1666 16.5816 86.7697 16.4818 86.442C16.3836 86.1143 16.2417 85.8646 16.056 85.6929C15.872 85.5211 15.6503 85.4353 15.391 85.4353C15.0019 85.4353 14.6979 85.6272 14.4789 86.0109C14.2598 86.3929 14.1503 86.9335 14.1503 87.6327C14.1503 88.0988 14.1994 88.4948 14.2975 88.8207C14.3956 89.1467 14.5367 89.3946 14.7207 89.5646C14.9064 89.7346 15.1299 89.8196 15.391 89.8196ZM18.85 88.8523L18.8395 88.0848H18.9657L20.732 86.2869H21.4995L19.6175 88.1899H19.565L18.85 88.8523ZM18.2718 90.3242V84.9411H18.8921V90.3242H18.2718ZM20.8371 90.3242L19.2601 88.3266L19.7016 87.8955L21.6257 90.3242H20.8371Z" fill="#707E8F"/>
<rect x="45.3882" y="88.0928" width="540.328" height="0.462609" fill="url(#paint12_linear_294_18123)"/>
<path d="M3.42751 100.642V106.025H2.77565V101.326H2.74411L1.42988 102.198V101.536L2.77565 100.642H3.42751ZM6.65789 106.099C6.34948 106.099 6.07174 106.038 5.82467 105.915C5.57759 105.792 5.37958 105.624 5.23064 105.41C5.08169 105.197 5.00021 104.953 4.98619 104.68H5.61702C5.64155 104.923 5.75195 105.125 5.94821 105.284C6.14622 105.442 6.38278 105.521 6.65789 105.521C6.87868 105.521 7.07494 105.469 7.24667 105.366C7.42014 105.262 7.55595 105.12 7.65408 104.94C7.75396 104.758 7.8039 104.552 7.8039 104.322C7.8039 104.087 7.75221 103.878 7.64882 103.694C7.54719 103.508 7.407 103.362 7.22827 103.255C7.04953 103.148 6.84539 103.094 6.61583 103.092C6.45112 103.09 6.28202 103.116 6.10854 103.168C5.93506 103.219 5.79225 103.285 5.6801 103.365L5.0703 103.292L5.39623 100.642H8.19291V101.221H5.94295L5.7537 102.808H5.78524C5.89564 102.721 6.03407 102.648 6.20054 102.59C6.36701 102.532 6.54049 102.503 6.72097 102.503C7.05041 102.503 7.34392 102.582 7.60151 102.74C7.86085 102.896 8.06412 103.11 8.21131 103.381C8.36026 103.653 8.43473 103.963 8.43473 104.312C8.43473 104.655 8.35763 104.962 8.20343 105.232C8.05098 105.5 7.8407 105.712 7.5726 105.868C7.30449 106.022 6.99959 106.099 6.65789 106.099ZM11.2347 106.099C10.8387 106.099 10.5014 105.991 10.2227 105.776C9.94413 105.558 9.73122 105.244 9.58403 104.832C9.43683 104.419 9.36323 103.919 9.36323 103.334C9.36323 102.752 9.43683 102.255 9.58403 101.844C9.73297 101.43 9.94675 101.115 10.2254 100.897C10.5057 100.678 10.8422 100.569 11.2347 100.569C11.6272 100.569 11.9628 100.678 12.2414 100.897C12.5218 101.115 12.7356 101.43 12.8827 101.844C13.0317 102.255 13.1062 102.752 13.1062 103.334C13.1062 103.919 13.0326 104.419 12.8854 104.832C12.7382 105.244 12.5253 105.558 12.2467 105.776C11.968 105.991 11.6307 106.099 11.2347 106.099ZM11.2347 105.521C11.6272 105.521 11.9321 105.331 12.1494 104.953C12.3667 104.574 12.4753 104.035 12.4753 103.334C12.4753 102.868 12.4254 102.471 12.3255 102.143C12.2274 101.815 12.0854 101.566 11.8997 101.394C11.7157 101.222 11.494 101.136 11.2347 101.136C10.8457 101.136 10.5417 101.328 10.3226 101.712C10.1036 102.094 9.99407 102.635 9.99407 103.334C9.99407 103.8 10.0431 104.196 10.1413 104.522C10.2394 104.848 10.3804 105.096 10.5644 105.266C10.7502 105.436 10.9736 105.521 11.2347 105.521ZM15.8608 106.099C15.4648 106.099 15.1275 105.991 14.8488 105.776C14.5702 105.558 14.3573 105.244 14.2101 104.832C14.0629 104.419 13.9893 103.919 13.9893 103.334C13.9893 102.752 14.0629 102.255 14.2101 101.844C14.3591 101.43 14.5728 101.115 14.8515 100.897C15.1318 100.678 15.4683 100.569 15.8608 100.569C16.2533 100.569 16.5889 100.678 16.8675 100.897C17.1479 101.115 17.3616 101.43 17.5088 101.844C17.6578 102.255 17.7323 102.752 17.7323 103.334C17.7323 103.919 17.6587 104.419 17.5115 104.832C17.3643 105.244 17.1514 105.558 16.8728 105.776C16.5941 105.991 16.2568 106.099 15.8608 106.099ZM15.8608 105.521C16.2533 105.521 16.5582 105.331 16.7755 104.953C16.9928 104.574 17.1014 104.035 17.1014 103.334C17.1014 102.868 17.0515 102.471 16.9516 102.143C16.8535 101.815 16.7115 101.566 16.5258 101.394C16.3418 101.222 16.1201 101.136 15.8608 101.136C15.4718 101.136 15.1678 101.328 14.9487 101.712C14.7297 102.094 14.6202 102.635 14.6202 103.334C14.6202 103.8 14.6692 104.196 14.7674 104.522C14.8655 104.848 15.0065 105.096 15.1905 105.266C15.3763 105.436 15.5997 105.521 15.8608 105.521ZM19.3198 104.553L19.3093 103.786H19.4355L21.2018 101.988H21.9693L20.0874 103.891H20.0348L19.3198 104.553ZM18.7416 106.025V100.642H19.3619V106.025H18.7416ZM21.307 106.025L19.7299 104.028L20.1715 103.597L22.0955 106.025H21.307Z" fill="#707E8F"/>
<rect x="45.3882" y="103.794" width="540.328" height="0.462609" fill="url(#paint13_linear_294_18123)"/>
<path d="M3.42751 116.343V121.727H2.77565V117.027H2.74411L1.42988 117.9V117.237L2.77565 116.343H3.42751ZM4.97567 121.727V121.253L6.75251 119.308C6.96104 119.081 7.13277 118.883 7.26769 118.714C7.40262 118.544 7.5025 118.385 7.56734 118.236C7.63393 118.085 7.66722 117.928 7.66722 117.763C7.66722 117.574 7.62166 117.41 7.53054 117.271C7.44117 117.133 7.31851 117.026 7.16256 116.951C7.0066 116.875 6.83137 116.838 6.63686 116.838C6.43009 116.838 6.2496 116.881 6.0954 116.966C5.94295 117.051 5.82467 117.169 5.74056 117.321C5.6582 117.474 5.61702 117.652 5.61702 117.857H4.9967C4.9967 117.542 5.06942 117.265 5.21486 117.027C5.36031 116.789 5.55832 116.603 5.8089 116.47C6.06123 116.336 6.34423 116.27 6.65789 116.27C6.97331 116.27 7.2528 116.336 7.49637 116.47C7.73994 116.603 7.93094 116.782 8.06937 117.008C8.20781 117.235 8.27702 117.486 8.27702 117.763C8.27702 117.961 8.2411 118.154 8.16926 118.344C8.09916 118.531 7.9765 118.741 7.80127 118.972C7.62779 119.201 7.38685 119.482 7.07844 119.813L5.86935 121.106V121.148H8.37165V121.727H4.97567ZM11.1394 121.8C10.831 121.8 10.5533 121.739 10.3062 121.616C10.0591 121.494 9.86111 121.325 9.71216 121.112C9.56322 120.898 9.48173 120.654 9.46772 120.381H10.0985C10.1231 120.624 10.2335 120.826 10.4297 120.985C10.6277 121.143 10.8643 121.222 11.1394 121.222C11.3602 121.222 11.5565 121.17 11.7282 121.067C11.9017 120.963 12.0375 120.821 12.1356 120.641C12.2355 120.459 12.2854 120.253 12.2854 120.023C12.2854 119.789 12.2337 119.579 12.1303 119.395C12.0287 119.209 11.8885 119.063 11.7098 118.956C11.5311 118.849 11.3269 118.795 11.0974 118.793C10.9326 118.791 10.7635 118.817 10.5901 118.869C10.4166 118.92 10.2738 118.986 10.1616 119.067L9.55183 118.993L9.87776 116.343H12.6744V116.922H10.4245L10.2352 118.509H10.2668C10.3772 118.422 10.5156 118.349 10.6821 118.291C10.8485 118.233 11.022 118.204 11.2025 118.204C11.5319 118.204 11.8254 118.283 12.083 118.441C12.3424 118.597 12.5456 118.811 12.6928 119.082C12.8418 119.354 12.9163 119.664 12.9163 120.013C12.9163 120.356 12.8392 120.663 12.685 120.933C12.5325 121.201 12.3222 121.413 12.0541 121.569C11.786 121.723 11.4811 121.8 11.1394 121.8ZM15.7162 121.8C15.3202 121.8 14.9829 121.692 14.7043 121.477C14.4257 121.26 14.2127 120.945 14.0656 120.533C13.9184 120.12 13.8448 119.62 13.8448 119.035C13.8448 118.453 13.9184 117.956 14.0656 117.545C14.2145 117.131 14.4283 116.816 14.7069 116.598C14.9873 116.379 15.3237 116.27 15.7162 116.27C16.1087 116.27 16.4443 116.379 16.7229 116.598C17.0033 116.816 17.2171 117.131 17.3643 117.545C17.5132 117.956 17.5877 118.453 17.5877 119.035C17.5877 119.62 17.5141 120.12 17.3669 120.533C17.2197 120.945 17.0068 121.26 16.7282 121.477C16.4496 121.692 16.1122 121.8 15.7162 121.8ZM15.7162 121.222C16.1087 121.222 16.4136 121.033 16.6309 120.654C16.8482 120.276 16.9569 119.736 16.9569 119.035C16.9569 118.569 16.9069 118.172 16.807 117.844C16.7089 117.517 16.567 117.267 16.3812 117.095C16.1972 116.923 15.9756 116.838 15.7162 116.838C15.3272 116.838 15.0232 117.03 14.8042 117.413C14.5851 117.795 14.4756 118.336 14.4756 119.035C14.4756 119.501 14.5247 119.897 14.6228 120.223C14.7209 120.549 14.862 120.797 15.046 120.967C15.2317 121.137 15.4551 121.222 15.7162 121.222ZM19.1753 120.255L19.1648 119.487H19.2909L21.0573 117.689H21.8248L19.9428 119.592H19.8902L19.1753 120.255ZM18.597 121.727V116.343H19.2173V121.727H18.597ZM21.1624 121.727L19.5853 119.729L20.0269 119.298L21.9509 121.727H21.1624Z" fill="#707E8F"/>
<rect x="45.3882" y="119.495" width="540.328" height="0.462609" fill="url(#paint14_linear_294_18123)"/>
<path d="M3.42751 132.045V137.428H2.77565V132.728H2.74411L1.42988 133.601V132.938L2.77565 132.045H3.42751ZM6.73149 137.501C6.33547 137.501 5.99815 137.394 5.71953 137.178C5.44091 136.961 5.22801 136.646 5.08081 136.234C4.93362 135.821 4.86002 135.321 4.86002 134.736C4.86002 134.154 4.93362 133.658 5.08081 133.246C5.22976 132.832 5.44354 132.517 5.72216 132.3C6.00253 132.081 6.33897 131.971 6.73149 131.971C7.124 131.971 7.45957 132.081 7.73819 132.3C8.01856 132.517 8.23234 132.832 8.37953 133.246C8.52848 133.658 8.60295 134.154 8.60295 134.736C8.60295 135.321 8.52936 135.821 8.38216 136.234C8.23497 136.646 8.02206 136.961 7.74345 137.178C7.46483 137.394 7.12751 137.501 6.73149 137.501ZM6.73149 136.923C7.124 136.923 7.42891 136.734 7.64619 136.355C7.86348 135.977 7.97212 135.437 7.97212 134.736C7.97212 134.27 7.92218 133.873 7.8223 133.545C7.72417 133.218 7.58223 132.968 7.39649 132.796C7.2125 132.625 6.99083 132.539 6.73149 132.539C6.34247 132.539 6.03845 132.731 5.81941 133.114C5.60037 133.496 5.49085 134.037 5.49085 134.736C5.49085 135.202 5.53992 135.598 5.63805 135.924C5.73618 136.25 5.87724 136.498 6.06123 136.668C6.24697 136.838 6.47039 136.923 6.73149 136.923ZM11.3576 137.501C10.9616 137.501 10.6242 137.394 10.3456 137.178C10.067 136.961 9.8541 136.646 9.70691 136.234C9.55971 135.821 9.48612 135.321 9.48612 134.736C9.48612 134.154 9.55971 133.658 9.70691 133.246C9.85585 132.832 10.0696 132.517 10.3483 132.3C10.6286 132.081 10.9651 131.971 11.3576 131.971C11.7501 131.971 12.0857 132.081 12.3643 132.3C12.6447 132.517 12.8584 132.832 13.0056 133.246C13.1546 133.658 13.229 134.154 13.229 134.736C13.229 135.321 13.1554 135.821 13.0083 136.234C12.8611 136.646 12.6482 136.961 12.3695 137.178C12.0909 137.394 11.7536 137.501 11.3576 137.501ZM11.3576 136.923C11.7501 136.923 12.055 136.734 12.2723 136.355C12.4896 135.977 12.5982 135.437 12.5982 134.736C12.5982 134.27 12.5483 133.873 12.4484 133.545C12.3503 133.218 12.2083 132.968 12.0226 132.796C11.8386 132.625 11.6169 132.539 11.3576 132.539C10.9686 132.539 10.6645 132.731 10.4455 133.114C10.2265 133.496 10.1169 134.037 10.1169 134.736C10.1169 135.202 10.166 135.598 10.2641 135.924C10.3623 136.25 10.5033 136.498 10.6873 136.668C10.8731 136.838 11.0965 136.923 11.3576 136.923ZM15.9837 137.501C15.5877 137.501 15.2503 137.394 14.9717 137.178C14.6931 136.961 14.4802 136.646 14.333 136.234C14.1858 135.821 14.1122 135.321 14.1122 134.736C14.1122 134.154 14.1858 133.658 14.333 133.246C14.4819 132.832 14.6957 132.517 14.9743 132.3C15.2547 132.081 15.5912 131.971 15.9837 131.971C16.3762 131.971 16.7118 132.081 16.9904 132.3C17.2707 132.517 17.4845 132.832 17.6317 133.246C17.7807 133.658 17.8551 134.154 17.8551 134.736C17.8551 135.321 17.7815 135.821 17.6343 136.234C17.4872 136.646 17.2742 136.961 16.9956 137.178C16.717 137.394 16.3797 137.501 15.9837 137.501ZM15.9837 136.923C16.3762 136.923 16.6811 136.734 16.8984 136.355C17.1157 135.977 17.2243 135.437 17.2243 134.736C17.2243 134.27 17.1744 133.873 17.0745 133.545C16.9764 133.218 16.8344 132.968 16.6487 132.796C16.4647 132.625 16.243 132.539 15.9837 132.539C15.5947 132.539 15.2906 132.731 15.0716 133.114C14.8526 133.496 14.743 134.037 14.743 134.736C14.743 135.202 14.7921 135.598 14.8902 135.924C14.9884 136.25 15.1294 136.498 15.3134 136.668C15.4992 136.838 15.7226 136.923 15.9837 136.923ZM19.4427 135.956L19.4322 135.188H19.5584L21.3247 133.39H22.0922L20.2102 135.293H20.1577L19.4427 135.956ZM18.8645 137.428V132.045H19.4848V137.428H18.8645ZM21.4298 137.428L19.8528 135.43L20.2944 134.999L22.2184 137.428H21.4298Z" fill="#707E8F"/>
<rect x="45.3882" y="135.196" width="540.328" height="0.462609" fill="url(#paint15_linear_294_18123)"/>
<path d="M1.70324 153.128L4.11091 148.365V148.323H1.33525V147.745H4.7838V148.355L2.38664 153.128H1.70324ZM7.37349 153.202C7.06508 153.202 6.78734 153.14 6.54027 153.018C6.29319 152.895 6.09518 152.727 5.94623 152.513C5.79729 152.299 5.71581 152.056 5.70179 151.782H6.33262C6.35715 152.026 6.46755 152.227 6.6638 152.387C6.86181 152.544 7.09838 152.623 7.37349 152.623C7.59428 152.623 7.79054 152.572 7.96226 152.468C8.13574 152.365 8.27155 152.223 8.36968 152.042C8.46956 151.86 8.5195 151.654 8.5195 151.425C8.5195 151.19 8.46781 150.98 8.36442 150.796C8.26279 150.611 8.1226 150.464 7.94387 150.358C7.76513 150.251 7.56099 150.196 7.33143 150.195C7.16672 150.193 6.99762 150.218 6.82414 150.271C6.65066 150.322 6.50785 150.387 6.3957 150.468L5.7859 150.394L6.11183 147.745H8.90851V148.323H6.65855L6.4693 149.911H6.50084C6.61123 149.823 6.74967 149.75 6.91614 149.693C7.08261 149.635 7.25608 149.606 7.43657 149.606C7.76601 149.606 8.05952 149.685 8.31711 149.842C8.57645 149.998 8.77972 150.212 8.92691 150.484C9.07586 150.755 9.15033 151.065 9.15033 151.414C9.15033 151.758 9.07323 152.064 8.91902 152.334C8.76657 152.602 8.5563 152.814 8.28819 152.97C8.02009 153.124 7.71519 153.202 7.37349 153.202ZM11.9503 153.202C11.5543 153.202 11.217 153.094 10.9383 152.878C10.6597 152.661 10.4468 152.346 10.2996 151.935C10.1524 151.521 10.0788 151.022 10.0788 150.436C10.0788 149.855 10.1524 149.358 10.2996 148.946C10.4486 148.533 10.6624 148.217 10.941 148C11.2213 147.781 11.5578 147.671 11.9503 147.671C12.3428 147.671 12.6784 147.781 12.957 148C13.2374 148.217 13.4512 148.533 13.5983 148.946C13.7473 149.358 13.8218 149.855 13.8218 150.436C13.8218 151.022 13.7482 151.521 13.601 151.935C13.4538 152.346 13.2409 152.661 12.9623 152.878C12.6836 153.094 12.3463 153.202 11.9503 153.202ZM11.9503 152.623C12.3428 152.623 12.6477 152.434 12.865 152.056C13.0823 151.677 13.1909 151.137 13.1909 150.436C13.1909 149.97 13.141 149.573 13.0411 149.246C12.943 148.918 12.801 148.668 12.6153 148.497C12.4313 148.325 12.2096 148.239 11.9503 148.239C11.5613 148.239 11.2573 148.431 11.0382 148.815C10.8192 149.197 10.7097 149.737 10.7097 150.436C10.7097 150.902 10.7587 151.299 10.8569 151.624C10.955 151.95 11.096 152.198 11.28 152.368C11.4658 152.538 11.6892 152.623 11.9503 152.623ZM15.4094 151.656L15.3988 150.888H15.525L17.2913 149.091H18.0588L16.1769 150.994H16.1243L15.4094 151.656ZM14.8311 153.128V147.745H15.4514V153.128H14.8311ZM17.3965 153.128L15.8194 151.13L16.261 150.699L18.185 153.128H17.3965Z" fill="#707E8F"/>
<rect x="45.3882" y="150.896" width="540.328" height="0.462609" fill="url(#paint16_linear_294_18123)"/>
<path d="M3.21723 168.903C2.90883 168.903 2.63109 168.841 2.38401 168.719C2.13694 168.596 1.93892 168.428 1.78998 168.214C1.64103 168 1.55955 167.757 1.54553 167.483H2.17636C2.20089 167.727 2.31129 167.928 2.50755 168.088C2.70556 168.246 2.94212 168.324 3.21723 168.324C3.43802 168.324 3.63428 168.273 3.80601 168.169C3.97949 168.066 4.11529 167.924 4.21342 167.744C4.3133 167.561 4.36324 167.355 4.36324 167.126C4.36324 166.891 4.31155 166.682 4.20816 166.498C4.10653 166.312 3.96634 166.166 3.78761 166.059C3.60887 165.952 3.40473 165.897 3.17518 165.896C3.01046 165.894 2.84136 165.919 2.66788 165.972C2.49441 166.023 2.35159 166.088 2.23945 166.169L1.62964 166.096L1.95557 163.446H4.75225V164.024H2.50229L2.31304 165.612H2.34458C2.45498 165.524 2.59341 165.452 2.75988 165.394C2.92635 165.336 3.09983 165.307 3.28032 165.307C3.60975 165.307 3.90326 165.386 4.16085 165.544C4.42019 165.699 4.62346 165.913 4.77065 166.185C4.9196 166.456 4.99407 166.767 4.99407 167.115C4.99407 167.459 4.91697 167.765 4.76277 168.035C4.61032 168.303 4.40004 168.515 4.13194 168.671C3.86383 168.826 3.55893 168.903 3.21723 168.903ZM7.79404 168.903C7.39802 168.903 7.0607 168.795 6.78208 168.579C6.50347 168.362 6.29056 168.048 6.14337 167.636C5.99617 167.222 5.92258 166.723 5.92258 166.138C5.92258 165.556 5.99617 165.059 6.14337 164.647C6.29231 164.234 6.5061 163.918 6.78471 163.701C7.06508 163.482 7.40153 163.372 7.79404 163.372C8.18656 163.372 8.52213 163.482 8.80074 163.701C9.08111 163.918 9.2949 164.234 9.44209 164.647C9.59104 165.059 9.66551 165.556 9.66551 166.138C9.66551 166.723 9.59191 167.222 9.44472 167.636C9.29752 168.048 9.08462 168.362 8.806 168.579C8.52738 168.795 8.19006 168.903 7.79404 168.903ZM7.79404 168.324C8.18656 168.324 8.49146 168.135 8.70875 167.757C8.92603 167.378 9.03468 166.838 9.03468 166.138C9.03468 165.671 8.98474 165.275 8.88485 164.947C8.78673 164.619 8.64479 164.369 8.45904 164.198C8.27505 164.026 8.05338 163.94 7.79404 163.94C7.40503 163.94 7.10101 164.132 6.88197 164.516C6.66293 164.898 6.55341 165.438 6.55341 166.138C6.55341 166.604 6.60247 167 6.7006 167.326C6.79873 167.652 6.93979 167.9 7.12379 168.069C7.30953 168.239 7.53295 168.324 7.79404 168.324ZM12.4201 168.903C12.0241 168.903 11.6868 168.795 11.4082 168.579C11.1296 168.362 10.9167 168.048 10.7695 167.636C10.6223 167.222 10.5487 166.723 10.5487 166.138C10.5487 165.556 10.6223 165.059 10.7695 164.647C10.9184 164.234 11.1322 163.918 11.4108 163.701C11.6912 163.482 12.0276 163.372 12.4201 163.372C12.8127 163.372 13.1482 163.482 13.4268 163.701C13.7072 163.918 13.921 164.234 14.0682 164.647C14.2171 165.059 14.2916 165.556 14.2916 166.138C14.2916 166.723 14.218 167.222 14.0708 167.636C13.9236 168.048 13.7107 168.362 13.4321 168.579C13.1535 168.795 12.8162 168.903 12.4201 168.903ZM12.4201 168.324C12.8127 168.324 13.1176 168.135 13.3348 167.757C13.5521 167.378 13.6608 166.838 13.6608 166.138C13.6608 165.671 13.6108 165.275 13.5109 164.947C13.4128 164.619 13.2709 164.369 13.0851 164.198C12.9011 164.026 12.6795 163.94 12.4201 163.94C12.0311 163.94 11.7271 164.132 11.5081 164.516C11.289 164.898 11.1795 165.438 11.1795 166.138C11.1795 166.604 11.2286 167 11.3267 167.326C11.4248 167.652 11.5659 167.9 11.7499 168.069C11.9356 168.239 12.159 168.324 12.4201 168.324ZM15.8792 167.357L15.8687 166.59H15.9948L17.7612 164.792H18.5287L16.6467 166.695H16.5941L15.8792 167.357ZM15.3009 168.829V163.446H15.9212V168.829H15.3009ZM17.8663 168.829L16.2892 166.831L16.7308 166.4L18.6548 168.829H17.8663Z" fill="#707E8F"/>
<rect x="45.3882" y="166.598" width="540.328" height="0.462609" fill="url(#paint17_linear_294_18123)"/>
<path d="M1.53502 184.53V184.057L3.31186 182.112C3.52038 181.884 3.69211 181.686 3.82704 181.518C3.96196 181.348 4.06185 181.189 4.12668 181.04C4.19327 180.889 4.22656 180.731 4.22656 180.567C4.22656 180.377 4.181 180.213 4.08988 180.075C4.00051 179.937 3.87785 179.83 3.7219 179.754C3.56594 179.679 3.39071 179.641 3.19621 179.641C2.98943 179.641 2.80895 179.684 2.65474 179.77C2.50229 179.854 2.38401 179.973 2.2999 180.125C2.21754 180.277 2.17636 180.456 2.17636 180.661H1.55604C1.55604 180.346 1.62877 180.069 1.77421 179.831C1.91965 179.592 2.11766 179.407 2.36824 179.273C2.62057 179.14 2.90357 179.074 3.21723 179.074C3.53265 179.074 3.81214 179.14 4.05571 179.273C4.29928 179.407 4.49028 179.586 4.62872 179.812C4.76715 180.038 4.83637 180.29 4.83637 180.567C4.83637 180.765 4.80044 180.958 4.7286 181.147C4.65851 181.335 4.53584 181.544 4.36061 181.776C4.18714 182.005 3.94619 182.286 3.63779 182.617L2.42869 183.91V183.952H4.93099V184.53H1.53502ZM7.69876 184.604C7.39036 184.604 7.11261 184.543 6.86554 184.42C6.61846 184.297 6.42045 184.129 6.27151 183.915C6.12256 183.701 6.04108 183.458 6.02706 183.185H6.65789C6.68242 183.428 6.79282 183.63 6.98908 183.789C7.18709 183.947 7.42365 184.026 7.69876 184.026C7.91955 184.026 8.11581 183.974 8.28754 183.871C8.46102 183.767 8.59682 183.625 8.69495 183.445C8.79483 183.262 8.84477 183.057 8.84477 182.827C8.84477 182.592 8.79308 182.383 8.68969 182.199C8.58806 182.013 8.44787 181.867 8.26914 181.76C8.0904 181.653 7.88626 181.599 7.65671 181.597C7.49199 181.595 7.32289 181.621 7.14941 181.673C6.97593 181.724 6.83312 181.79 6.72097 181.87L6.11117 181.797L6.4371 179.147H9.23378V179.725H6.98382L6.79457 181.313H6.82611C6.93651 181.225 7.07494 181.153 7.24141 181.095C7.40788 181.037 7.58136 181.008 7.76184 181.008C8.09128 181.008 8.38479 181.087 8.64238 181.245C8.90172 181.401 9.10499 181.614 9.25218 181.886C9.40113 182.158 9.4756 182.468 9.4756 182.817C9.4756 183.16 9.3985 183.467 9.2443 183.736C9.09185 184.005 8.88157 184.217 8.61347 184.373C8.34536 184.527 8.04046 184.604 7.69876 184.604ZM12.2756 184.604C11.8795 184.604 11.5422 184.496 11.2636 184.281C10.985 184.063 10.7721 183.749 10.6249 183.337C10.4777 182.923 10.4041 182.424 10.4041 181.839C10.4041 181.257 10.4777 180.76 10.6249 180.348C10.7738 179.935 10.9876 179.619 11.2662 179.402C11.5466 179.183 11.8831 179.074 12.2756 179.074C12.6681 179.074 13.0037 179.183 13.2823 179.402C13.5626 179.619 13.7764 179.935 13.9236 180.348C14.0726 180.76 14.147 181.257 14.147 181.839C14.147 182.424 14.0734 182.923 13.9262 183.337C13.7791 183.749 13.5661 184.063 13.2875 184.281C13.0089 184.496 12.6716 184.604 12.2756 184.604ZM12.2756 184.026C12.6681 184.026 12.973 183.836 13.1903 183.458C13.4076 183.079 13.5162 182.54 13.5162 181.839C13.5162 181.373 13.4663 180.976 13.3664 180.648C13.2683 180.32 13.1263 180.071 12.9406 179.899C12.7566 179.727 12.5349 179.641 12.2756 179.641C11.8866 179.641 11.5825 179.833 11.3635 180.217C11.1445 180.599 11.0349 181.14 11.0349 181.839C11.0349 182.305 11.084 182.701 11.1821 183.027C11.2803 183.353 11.4213 183.601 11.6053 183.771C11.7911 183.941 12.0145 184.026 12.2756 184.026ZM15.7346 183.058L15.7241 182.291H15.8503L17.6166 180.493H18.3841L16.5021 182.396H16.4496L15.7346 183.058ZM15.1564 184.53V179.147H15.7767V184.53H15.1564ZM17.7217 184.53L16.1447 182.533L16.5862 182.102L18.5103 184.53H17.7217Z" fill="#707E8F"/>
<rect x="45.3882" y="182.299" width="540.328" height="0.462609" fill="url(#paint18_linear_294_18123)"/>
<path d="M36.6436 106.056C72.8798 106.056 95.6321 77.075 137.581 75.8798C174.74 74.8211 188.671 97.0505 225.839 96.2348C270.326 95.2585 292.42 63.3861 336.91 62.4997C371.854 61.8034 389.076 79.8361 424.025 79.296C464.768 78.6664 471.495 52.3931 512.245 52.3936C541.338 52.3939 548.829 62.4997 574.613 62.4997" stroke="url(#paint19_linear_294_18123)" stroke-width="0.925219"/>
<mask id="mask0_294_18123" style="mask-type:alpha" maskUnits="userSpaceOnUse" x="36" y="52" width="539" height="126">
<path d="M137.581 75.8798C95.6316 77.075 72.8793 106.056 36.6431 106.056V177.761H574.612V62.4997C548.829 62.4997 541.338 52.3939 512.244 52.3936C471.494 52.3931 464.767 78.6664 424.025 79.296C389.076 79.8361 371.854 61.8034 336.909 62.4997C292.42 63.3861 270.325 95.2585 225.838 96.2348C188.67 97.0505 174.739 74.8211 137.581 75.8798Z" fill="url(#paint20_linear_294_18123)"/>
</mask>
<g mask="url(#mask0_294_18123)">
<path d="M137.581 75.8798C95.6316 77.075 72.8793 106.056 36.6431 106.056V177.761H574.612V62.4997C548.829 62.4997 541.338 52.3939 512.244 52.3936C471.494 52.3931 464.767 78.6664 424.025 79.296C389.076 79.8361 371.854 61.8034 336.909 62.4997C292.42 63.3861 270.325 95.2585 225.838 96.2348C188.67 97.0505 174.739 74.8211 137.581 75.8798Z" fill="url(#paint21_linear_294_18123)"/>
</g>
<defs>
<linearGradient id="paint0_linear_294_18123" x1="79.2242" y1="0.119141" x2="79.2242" y2="173.163" gradientUnits="userSpaceOnUse">
<stop stop-color="#2C2F39" stop-opacity="0"/>
<stop offset="0.190012" stop-color="#2C2F39"/>
<stop offset="0.808103" stop-color="#2C2F39"/>
<stop offset="1" stop-color="#2C2F39" stop-opacity="0"/>
</linearGradient>
<linearGradient id="paint1_linear_294_18123" x1="158" y1="0.119141" x2="158" y2="173.163" gradientUnits="userSpaceOnUse">
<stop stop-color="#2C2F39" stop-opacity="0"/>
<stop offset="0.190012" stop-color="#2C2F39"/>
<stop offset="0.808103" stop-color="#2C2F39"/>
<stop offset="1" stop-color="#2C2F39" stop-opacity="0"/>
</linearGradient>
<linearGradient id="paint2_linear_294_18123" x1="236.776" y1="0.119141" x2="236.776" y2="173.163" gradientUnits="userSpaceOnUse">
<stop stop-color="#2C2F39" stop-opacity="0"/>
<stop offset="0.190012" stop-color="#2C2F39"/>
<stop offset="0.808103" stop-color="#2C2F39"/>
<stop offset="1" stop-color="#2C2F39" stop-opacity="0"/>
</linearGradient>
<linearGradient id="paint3_linear_294_18123" x1="315.551" y1="0.119141" x2="315.551" y2="173.163" gradientUnits="userSpaceOnUse">
<stop stop-color="#2C2F39" stop-opacity="0"/>
<stop offset="0.190012" stop-color="#2C2F39"/>
<stop offset="0.808103" stop-color="#2C2F39"/>
<stop offset="1" stop-color="#2C2F39" stop-opacity="0"/>
</linearGradient>
<linearGradient id="paint4_linear_294_18123" x1="394.327" y1="0.119141" x2="394.327" y2="173.163" gradientUnits="userSpaceOnUse">
<stop stop-color="#2C2F39" stop-opacity="0"/>
<stop offset="0.190012" stop-color="#2C2F39"/>
<stop offset="0.808103" stop-color="#2C2F39"/>
<stop offset="1" stop-color="#2C2F39" stop-opacity="0"/>
</linearGradient>
<linearGradient id="paint5_linear_294_18123" x1="473.103" y1="0.119141" x2="473.103" y2="173.163" gradientUnits="userSpaceOnUse">
<stop stop-color="#2C2F39" stop-opacity="0"/>
<stop offset="0.190012" stop-color="#2C2F39"/>
<stop offset="0.808103" stop-color="#2C2F39"/>
<stop offset="1" stop-color="#2C2F39" stop-opacity="0"/>
</linearGradient>
<linearGradient id="paint6_linear_294_18123" x1="551.879" y1="0.119141" x2="551.879" y2="173.163" gradientUnits="userSpaceOnUse">
<stop stop-color="#2C2F39" stop-opacity="0"/>
<stop offset="0.190012" stop-color="#2C2F39"/>
<stop offset="0.808103" stop-color="#2C2F39"/>
<stop offset="1" stop-color="#2C2F39" stop-opacity="0"/>
</linearGradient>
<linearGradient id="paint7_linear_294_18123" x1="592.696" y1="11.6705" x2="46.3013" y2="-3.93579" gradientUnits="userSpaceOnUse">
<stop stop-color="#2C2F39" stop-opacity="0"/>
<stop offset="0.10875" stop-color="#2C2F39"/>
<stop offset="0.895053" stop-color="#2C2F39"/>
<stop offset="1" stop-color="#2C2F39" stop-opacity="0"/>
</linearGradient>
<linearGradient id="paint8_linear_294_18123" x1="592.696" y1="27.3716" x2="46.3013" y2="11.7654" gradientUnits="userSpaceOnUse">
<stop stop-color="#2C2F39" stop-opacity="0"/>
<stop offset="0.10875" stop-color="#2C2F39"/>
<stop offset="0.895053" stop-color="#2C2F39"/>
<stop offset="1" stop-color="#2C2F39" stop-opacity="0"/>
</linearGradient>
<linearGradient id="paint9_linear_294_18123" x1="592.696" y1="43.0718" x2="46.3013" y2="27.4656" gradientUnits="userSpaceOnUse">
<stop stop-color="#2C2F39" stop-opacity="0"/>
<stop offset="0.10875" stop-color="#2C2F39"/>
<stop offset="0.895053" stop-color="#2C2F39"/>
<stop offset="1" stop-color="#2C2F39" stop-opacity="0"/>
</linearGradient>
<linearGradient id="paint10_linear_294_18123" x1="592.696" y1="58.773" x2="46.3013" y2="43.1667" gradientUnits="userSpaceOnUse">
<stop stop-color="#2C2F39" stop-opacity="0"/>
<stop offset="0.10875" stop-color="#2C2F39"/>
<stop offset="0.895053" stop-color="#2C2F39"/>
<stop offset="1" stop-color="#2C2F39" stop-opacity="0"/>
</linearGradient>
<linearGradient id="paint11_linear_294_18123" x1="592.696" y1="74.4742" x2="46.3013" y2="58.8679" gradientUnits="userSpaceOnUse">
<stop stop-color="#2C2F39" stop-opacity="0"/>
<stop offset="0.10875" stop-color="#2C2F39"/>
<stop offset="0.895053" stop-color="#2C2F39"/>
<stop offset="1" stop-color="#2C2F39" stop-opacity="0"/>
</linearGradient>
<linearGradient id="paint12_linear_294_18123" x1="592.696" y1="90.1744" x2="46.3013" y2="74.5681" gradientUnits="userSpaceOnUse">
<stop stop-color="#2C2F39" stop-opacity="0"/>
<stop offset="0.10875" stop-color="#2C2F39"/>
<stop offset="0.895053" stop-color="#2C2F39"/>
<stop offset="1" stop-color="#2C2F39" stop-opacity="0"/>
</linearGradient>
<linearGradient id="paint13_linear_294_18123" x1="592.696" y1="105.876" x2="46.3013" y2="90.2693" gradientUnits="userSpaceOnUse">
<stop stop-color="#2C2F39" stop-opacity="0"/>
<stop offset="0.10875" stop-color="#2C2F39"/>
<stop offset="0.895053" stop-color="#2C2F39"/>
<stop offset="1" stop-color="#2C2F39" stop-opacity="0"/>
</linearGradient>
<linearGradient id="paint14_linear_294_18123" x1="592.696" y1="121.577" x2="46.3013" y2="105.97" gradientUnits="userSpaceOnUse">
<stop stop-color="#2C2F39" stop-opacity="0"/>
<stop offset="0.10875" stop-color="#2C2F39"/>
<stop offset="0.895053" stop-color="#2C2F39"/>
<stop offset="1" stop-color="#2C2F39" stop-opacity="0"/>
</linearGradient>
<linearGradient id="paint15_linear_294_18123" x1="592.696" y1="137.278" x2="46.3013" y2="121.672" gradientUnits="userSpaceOnUse">
<stop stop-color="#2C2F39" stop-opacity="0"/>
<stop offset="0.10875" stop-color="#2C2F39"/>
<stop offset="0.895053" stop-color="#2C2F39"/>
<stop offset="1" stop-color="#2C2F39" stop-opacity="0"/>
</linearGradient>
<linearGradient id="paint16_linear_294_18123" x1="592.696" y1="152.978" x2="46.3013" y2="137.372" gradientUnits="userSpaceOnUse">
<stop stop-color="#2C2F39" stop-opacity="0"/>
<stop offset="0.10875" stop-color="#2C2F39"/>
<stop offset="0.895053" stop-color="#2C2F39"/>
<stop offset="1" stop-color="#2C2F39" stop-opacity="0"/>
</linearGradient>
<linearGradient id="paint17_linear_294_18123" x1="592.696" y1="168.679" x2="46.3013" y2="153.073" gradientUnits="userSpaceOnUse">
<stop stop-color="#2C2F39" stop-opacity="0"/>
<stop offset="0.10875" stop-color="#2C2F39"/>
<stop offset="0.895053" stop-color="#2C2F39"/>
<stop offset="1" stop-color="#2C2F39" stop-opacity="0"/>
</linearGradient>
<linearGradient id="paint18_linear_294_18123" x1="592.696" y1="184.38" x2="46.3013" y2="168.774" gradientUnits="userSpaceOnUse">
<stop stop-color="#2C2F39" stop-opacity="0"/>
<stop offset="0.10875" stop-color="#2C2F39"/>
<stop offset="0.895053" stop-color="#2C2F39"/>
<stop offset="1" stop-color="#2C2F39" stop-opacity="0"/>
</linearGradient>
<linearGradient id="paint19_linear_294_18123" x1="36.6436" y1="102.213" x2="574.598" y2="97.3093" gradientUnits="userSpaceOnUse">
<stop stop-color="#1473E4" stop-opacity="0"/>
<stop offset="0.0683558" stop-color="#1473E4"/>
<stop offset="0.932838" stop-color="#1473E4"/>
<stop offset="1" stop-color="#1473E4" stop-opacity="0"/>
</linearGradient>
<linearGradient id="paint20_linear_294_18123" x1="36.6431" y1="135.201" x2="574.615" y2="133.757" gradientUnits="userSpaceOnUse">
<stop stop-color="#1473E4" stop-opacity="0"/>
<stop offset="0.107153" stop-color="#1473E4" stop-opacity="0.47"/>
<stop offset="0.92013" stop-color="#1473E4" stop-opacity="0.47"/>
<stop offset="1" stop-color="#1473E4" stop-opacity="0"/>
</linearGradient>
<linearGradient id="paint21_linear_294_18123" x1="305.628" y1="52.3936" x2="305.628" y2="177.761" gradientUnits="userSpaceOnUse">
<stop stop-color="#1473E4" stop-opacity="0.47"/>
<stop offset="1" stop-color="#1473E4" stop-opacity="0"/>
</linearGradient>
</defs>
</svg>
