<svg width="48" height="48" viewBox="0 0 48 48" fill="none" xmlns="http://www.w3.org/2000/svg">
<path fill-rule="evenodd" clip-rule="evenodd" d="M10.1022 23.2999C10.4693 17.4133 15.3713 12.7524 21.3644 12.7524C27.5966 12.7524 32.6488 17.7925 32.6488 24.0098C32.6488 30.2271 27.5966 35.2672 21.3644 35.2672C18.6192 35.2672 16.1029 34.2893 14.1465 32.6635V41.758H10.0801V23.2999H10.1022ZM28.5824 24.0098C28.5824 27.9866 25.3508 31.2105 21.3644 31.2105C17.3781 31.2105 14.1465 27.9866 14.1465 24.0098C14.1465 20.033 17.3781 16.8091 21.3644 16.8091C25.3508 16.8091 28.5824 20.033 28.5824 24.0098Z" fill="#F8FBFF"/>
<path fill-rule="evenodd" clip-rule="evenodd" d="M35.1508 25.8701C34.0647 33.4103 27.0572 38.6445 19.499 37.561L18.9206 41.5765C28.7018 42.9786 37.7704 36.205 39.1759 26.4471C40.5814 16.6893 33.7915 7.64236 24.0103 6.24023L23.4319 10.2557C30.9901 11.3392 36.2368 18.33 35.1508 25.8701Z" fill="#b9a7f6"/>
</svg>
