<svg width="566" height="184" viewBox="0 0 566 184" fill="none" xmlns="http://www.w3.org/2000/svg">
<path fill-rule="evenodd" clip-rule="evenodd" d="M188.857 65.2154V127.809H201.244V106.834H212.426C217.402 106.834 221.657 105.959 225.11 104.115C228.536 102.277 231.139 99.7629 232.859 96.578C234.577 93.4141 235.421 89.8758 235.421 85.9954C235.421 82.1363 234.588 78.6185 232.891 75.4744C231.173 72.2709 228.583 69.7548 225.17 67.9336C221.717 66.0901 217.451 65.2154 212.457 65.2154H188.857ZM218.234 77.174L218.24 77.1771C219.897 78.0341 221.06 79.1867 221.797 80.6375C222.567 82.1557 222.973 83.9303 222.973 85.9954C222.973 88.0601 222.567 89.8471 221.794 91.3882C221.052 92.8665 219.889 94.0492 218.248 94.942C216.651 95.7911 214.462 96.2709 211.579 96.2709H201.244V75.8655H211.458C214.414 75.8655 216.638 76.3398 218.234 77.174Z" fill="white"/>
<path fill-rule="evenodd" clip-rule="evenodd" d="M235.615 127.809H248.782L254.454 112.019H276.489L282.152 127.809H295.32L271.935 65.2154H258.999L235.615 127.809ZM258.228 101.515L265.481 81.3267L272.722 101.515H258.228Z" fill="white"/>
<path d="M303.636 65.2154H289.46L313.091 103.326V127.809H325.448V103.326L349.079 65.2154H334.903L319.269 91.4204L303.636 65.2154Z" fill="white"/>
<path d="M357.723 65.2154V127.809H370.11V108.335L375.798 102.041L395.153 127.809H410.189L384.066 93.6313L410.495 65.2154H394.637L370.11 92.1136V65.2154H357.723Z" fill="white"/>
<path d="M434.791 127.809V65.2154H422.403V127.809H434.791Z" fill="white"/>
<path d="M503.783 127.809V65.2154H491.487V106.608L461.715 65.2154H450.748V127.809H463.135V86.4737L492.877 127.809H503.783Z" fill="white"/>
<path d="M553.108 82.518L553.26 83.819H565.19L565.153 82.3185C565.065 78.8339 564.006 75.7075 561.961 72.9878C559.935 70.2744 557.177 68.1705 553.742 66.6602C550.303 65.1393 546.38 64.3999 542.008 64.3999C537.671 64.3999 533.725 65.1505 530.196 66.6833C526.672 68.1948 523.831 70.34 521.724 73.1312C519.583 75.9668 518.529 79.2753 518.529 82.9949C518.529 87.5146 520.116 91.2666 523.352 94.1006L523.356 94.104C526.483 96.8233 530.65 98.8258 535.771 100.169L543.089 102.092L543.102 102.095C545.258 102.643 547.169 103.27 548.839 103.973L548.845 103.975C550.461 104.648 551.661 105.465 552.509 106.395L552.519 106.405C553.276 107.218 553.703 108.297 553.703 109.768C553.703 111.397 553.214 112.772 552.248 113.957C551.247 115.164 549.844 116.151 547.97 116.888C546.125 117.601 543.975 117.975 541.493 117.975C539.248 117.975 537.215 117.658 535.38 117.04C533.612 116.419 532.196 115.498 531.091 114.287C530.061 113.118 529.437 111.628 529.278 109.737L529.165 108.39H516.781L516.868 109.934C517.083 113.767 518.219 117.147 520.319 120.021L520.322 120.025C522.416 122.87 525.299 125.04 528.91 126.552C532.531 128.067 536.759 128.8 541.554 128.8C546.55 128.8 550.902 128.019 554.558 126.394C558.202 124.784 561.05 122.55 563.025 119.667C565.017 116.787 566 113.501 566 109.855C566 106.982 565.405 104.426 564.148 102.244C562.959 100.146 561.389 98.3768 559.442 96.9492C557.558 95.5672 555.512 94.4527 553.307 93.6074C551.175 92.7899 549.085 92.1379 547.037 91.6544L547.027 91.6519L540.999 90.1421L540.985 90.1387C539.83 89.8606 538.62 89.5067 537.353 89.0753C536.142 88.6437 535.01 88.1161 533.955 87.4936C533.005 86.9027 532.249 86.186 531.669 85.3425C531.167 84.5862 530.886 83.6495 530.886 82.4705C530.886 81.084 531.292 79.886 532.101 78.8257C532.942 77.7288 534.15 76.8296 535.796 76.1574L535.809 76.1521C537.43 75.4731 539.412 75.1083 541.796 75.1083C545.117 75.1083 547.742 75.8246 549.771 77.1556L549.779 77.1605C551.738 78.4294 552.834 80.1764 553.108 82.518Z" fill="white"/>
<path fill-rule="evenodd" clip-rule="evenodd" d="M39.9725 89.3152C41.415 66.7501 60.6726 48.8832 84.2172 48.8832C108.701 48.8832 128.549 68.2037 128.549 92.0367C128.549 115.87 108.701 135.19 84.2172 135.19C73.4322 135.19 63.5467 131.441 55.861 125.209V160.071H39.8857V89.3152H39.9725ZM112.573 92.0367C112.573 107.281 99.8778 119.639 84.2172 119.639C68.5565 119.639 55.861 107.281 55.861 92.0367C55.861 76.7921 68.5565 64.434 84.2172 64.434C99.8778 64.434 112.573 76.7921 112.573 92.0367Z" fill="#F8FBFF"/>
<path fill-rule="evenodd" clip-rule="evenodd" d="M138.378 99.1679C134.111 128.072 106.582 148.136 76.8886 143.983L74.6164 159.375C113.043 164.75 148.669 138.785 154.191 101.38C159.712 63.9747 133.038 29.2947 94.6117 23.9199L92.3395 39.3126C122.032 43.4659 142.644 70.264 138.378 99.1679Z" fill="#b9a7f6"/>
</svg>
