<svg width="224" height="224" viewBox="0 0 224 224" fill="none" xmlns="http://www.w3.org/2000/svg">
<path d="M19.9394 14H14V19.9394H19.9394V14Z" fill="#F8FBFF"/>
<path d="M25.8788 14H19.9394V19.9394H25.8788V14Z" fill="#F8FBFF"/>
<path d="M31.8182 14H25.8788V19.9394H31.8182V14Z" fill="#F8FBFF"/>
<path d="M37.7576 14H31.8182V19.9394H37.7576V14Z" fill="#F8FBFF"/>
<path d="M43.697 14H37.7576V19.9394H43.697V14Z" fill="#F8FBFF"/>
<path d="M49.6364 14H43.697V19.9394H49.6364V14Z" fill="#F8FBFF"/>
<path d="M55.5758 14H49.6364V19.9394H55.5758V14Z" fill="#F8FBFF"/>
<path d="M67.4545 14H61.5152V19.9394H67.4545V14Z" fill="#F8FBFF"/>
<path d="M73.3939 14H67.4545V19.9394H73.3939V14Z" fill="#F8FBFF"/>
<path d="M85.2727 14H79.3333V19.9394H85.2727V14Z" fill="#F8FBFF"/>
<path d="M91.2121 14H85.2727V19.9394H91.2121V14Z" fill="#F8FBFF"/>
<path d="M103.091 14H97.1515V19.9394H103.091V14Z" fill="#F8FBFF"/>
<path d="M109.03 14H103.091V19.9394H109.03V14Z" fill="#F8FBFF"/>
<path d="M126.849 14H120.909V19.9394H126.849V14Z" fill="#F8FBFF"/>
<path d="M132.788 14H126.849V19.9394H132.788V14Z" fill="#F8FBFF"/>
<path d="M144.667 14H138.727V19.9394H144.667V14Z" fill="#F8FBFF"/>
<path d="M150.606 14H144.667V19.9394H150.606V14Z" fill="#F8FBFF"/>
<path d="M156.545 14H150.606V19.9394H156.545V14Z" fill="#F8FBFF"/>
<path d="M162.485 14H156.545V19.9394H162.485V14Z" fill="#F8FBFF"/>
<path d="M174.364 14H168.424V19.9394H174.364V14Z" fill="#F8FBFF"/>
<path d="M180.303 14H174.364V19.9394H180.303V14Z" fill="#F8FBFF"/>
<path d="M186.242 14H180.303V19.9394H186.242V14Z" fill="#F8FBFF"/>
<path d="M192.182 14H186.242V19.9394H192.182V14Z" fill="#F8FBFF"/>
<path d="M198.121 14H192.182V19.9394H198.121V14Z" fill="#F8FBFF"/>
<path d="M204.061 14H198.121V19.9394H204.061V14Z" fill="#F8FBFF"/>
<path d="M210 14H204.061V19.9394H210V14Z" fill="#F8FBFF"/>
<path d="M19.9394 19.9394H14V25.8788H19.9394V19.9394Z" fill="#F8FBFF"/>
<path d="M55.5758 19.9394H49.6364V25.8788H55.5758V19.9394Z" fill="#F8FBFF"/>
<path d="M79.3333 19.9394H73.3939V25.8788H79.3333V19.9394Z" fill="#F8FBFF"/>
<path d="M85.2727 19.9394H79.3333V25.8788H85.2727V19.9394Z" fill="#F8FBFF"/>
<path d="M91.2121 19.9394H85.2727V25.8788H91.2121V19.9394Z" fill="#F8FBFF"/>
<path d="M97.1515 19.9394H91.2121V25.8788H97.1515V19.9394Z" fill="#F8FBFF"/>
<path d="M103.091 19.9394H97.1515V25.8788H103.091V19.9394Z" fill="#F8FBFF"/>
<path d="M126.849 19.9394H120.909V25.8788H126.849V19.9394Z" fill="#F8FBFF"/>
<path d="M138.727 19.9394H132.788V25.8788H138.727V19.9394Z" fill="#F8FBFF"/>
<path d="M144.667 19.9394H138.727V25.8788H144.667V19.9394Z" fill="#F8FBFF"/>
<path d="M162.485 19.9394H156.545V25.8788H162.485V19.9394Z" fill="#F8FBFF"/>
<path d="M174.364 19.9394H168.424V25.8788H174.364V19.9394Z" fill="#F8FBFF"/>
<path d="M210 19.9394H204.061V25.8788H210V19.9394Z" fill="#F8FBFF"/>
<path d="M19.9394 25.8788H14V31.8182H19.9394V25.8788Z" fill="#F8FBFF"/>
<path d="M31.8182 25.8788H25.8788V31.8182H31.8182V25.8788Z" fill="#F8FBFF"/>
<path d="M37.7576 25.8788H31.8182V31.8182H37.7576V25.8788Z" fill="#F8FBFF"/>
<path d="M43.697 25.8788H37.7576V31.8182H43.697V25.8788Z" fill="#F8FBFF"/>
<path d="M55.5758 25.8788H49.6364V31.8182H55.5758V25.8788Z" fill="#F8FBFF"/>
<path d="M73.3939 25.8788H67.4545V31.8182H73.3939V25.8788Z" fill="#F8FBFF"/>
<path d="M79.3333 25.8788H73.3939V31.8182H79.3333V25.8788Z" fill="#F8FBFF"/>
<path d="M91.2121 25.8788H85.2727V31.8182H91.2121V25.8788Z" fill="#F8FBFF"/>
<path d="M97.1515 25.8788H91.2121V31.8182H97.1515V25.8788Z" fill="#F8FBFF"/>
<path d="M103.091 25.8788H97.1515V31.8182H103.091V25.8788Z" fill="#F8FBFF"/>
<path d="M126.849 25.8788H120.909V31.8182H126.849V25.8788Z" fill="#F8FBFF"/>
<path d="M132.788 25.8788H126.849V31.8182H132.788V25.8788Z" fill="#F8FBFF"/>
<path d="M162.485 25.8788H156.545V31.8182H162.485V25.8788Z" fill="#F8FBFF"/>
<path d="M174.364 25.8788H168.424V31.8182H174.364V25.8788Z" fill="#F8FBFF"/>
<path d="M186.242 25.8788H180.303V31.8182H186.242V25.8788Z" fill="#F8FBFF"/>
<path d="M192.182 25.8788H186.242V31.8182H192.182V25.8788Z" fill="#F8FBFF"/>
<path d="M198.121 25.8788H192.182V31.8182H198.121V25.8788Z" fill="#F8FBFF"/>
<path d="M210 25.8788H204.061V31.8182H210V25.8788Z" fill="#F8FBFF"/>
<path d="M19.9394 31.8182H14V37.7576H19.9394V31.8182Z" fill="#F8FBFF"/>
<path d="M31.8182 31.8182H25.8788V37.7576H31.8182V31.8182Z" fill="#F8FBFF"/>
<path d="M37.7576 31.8182H31.8182V37.7576H37.7576V31.8182Z" fill="#F8FBFF"/>
<path d="M43.697 31.8182H37.7576V37.7576H43.697V31.8182Z" fill="#F8FBFF"/>
<path d="M55.5758 31.8182H49.6364V37.7576H55.5758V31.8182Z" fill="#F8FBFF"/>
<path d="M73.3939 31.8182H67.4545V37.7576H73.3939V31.8182Z" fill="#F8FBFF"/>
<path d="M79.3333 31.8182H73.3939V37.7576H79.3333V31.8182Z" fill="#F8FBFF"/>
<path d="M109.03 31.8182H103.091V37.7576H109.03V31.8182Z" fill="#F8FBFF"/>
<path d="M120.909 31.8182H114.97V37.7576H120.909V31.8182Z" fill="#F8FBFF"/>
<path d="M132.788 31.8182H126.849L126.848 37.7576H132.788V31.8182Z" fill="#F8FBFF"/>
<path d="M150.606 31.8182H144.667V37.7576H150.606V31.8182Z" fill="#F8FBFF"/>
<path d="M162.485 31.8182H156.545V37.7576H162.485V31.8182Z" fill="#F8FBFF"/>
<path d="M174.364 31.8182H168.424V37.7576H174.364V31.8182Z" fill="#F8FBFF"/>
<path d="M186.242 31.8182H180.303V37.7576H186.242V31.8182Z" fill="#F8FBFF"/>
<path d="M192.182 31.8182H186.242V37.7576H192.182V31.8182Z" fill="#F8FBFF"/>
<path d="M198.121 31.8182H192.182V37.7576H198.121V31.8182Z" fill="#F8FBFF"/>
<path d="M210 31.8182H204.061V37.7576H210V31.8182Z" fill="#F8FBFF"/>
<path d="M19.9394 37.7576H14V43.697H19.9394V37.7576Z" fill="#F8FBFF"/>
<path d="M31.8182 37.7576H25.8788V43.697H31.8182V37.7576Z" fill="#F8FBFF"/>
<path d="M37.7576 37.7576H31.8182V43.697H37.7576V37.7576Z" fill="#F8FBFF"/>
<path d="M43.697 37.7576H37.7576V43.697H43.697V37.7576Z" fill="#F8FBFF"/>
<path d="M55.5758 37.7576H49.6364V43.697H55.5758V37.7576Z" fill="#F8FBFF"/>
<path d="M73.3939 37.7576H67.4545V43.697H73.3939V37.7576Z" fill="#F8FBFF"/>
<path d="M120.909 37.7576H114.97V43.697H120.909V37.7576Z" fill="#F8FBFF"/>
<path d="M132.788 37.7576H126.848V43.697H132.788V37.7576Z" fill="#F8FBFF"/>
<path d="M144.667 37.7576H138.727V43.697H144.667V37.7576Z" fill="#F8FBFF"/>
<path d="M150.606 37.7576H144.667V43.697H150.606V37.7576Z" fill="#F8FBFF"/>
<path d="M174.364 37.7576H168.424V43.697H174.364V37.7576Z" fill="#F8FBFF"/>
<path d="M186.242 37.7576H180.303V43.697H186.242V37.7576Z" fill="#F8FBFF"/>
<path d="M192.182 37.7576H186.242V43.697H192.182V37.7576Z" fill="#F8FBFF"/>
<path d="M198.121 37.7576H192.182V43.697H198.121V37.7576Z" fill="#F8FBFF"/>
<path d="M210 37.7576H204.061V43.697H210V37.7576Z" fill="#F8FBFF"/>
<path d="M19.9394 43.697H14V49.6364H19.9394V43.697Z" fill="#F8FBFF"/>
<path d="M55.5758 43.697H49.6364V49.6364H55.5758V43.697Z" fill="#F8FBFF"/>
<path d="M79.3333 43.697H73.3939V49.6364H79.3333V43.697Z" fill="#F8FBFF"/>
<path d="M91.2121 43.697H85.2727V49.6364H91.2121V43.697Z" fill="#F8FBFF"/>
<path d="M97.1515 43.697H91.2121V49.6364H97.1515V43.697Z" fill="#F8FBFF"/>
<path d="M103.091 43.697H97.1515V49.6364H103.091V43.697Z" fill="#F8FBFF"/>
<path d="M132.788 43.697H126.848V49.6364H132.788V43.697Z" fill="#F8FBFF"/>
<path d="M138.727 43.697H132.788V49.6364H138.727V43.697Z" fill="#F8FBFF"/>
<path d="M156.545 43.697H150.606V49.6364H156.545V43.697Z" fill="#F8FBFF"/>
<path d="M174.364 43.697H168.424V49.6364H174.364V43.697Z" fill="#F8FBFF"/>
<path d="M210 43.697H204.061V49.6364H210V43.697Z" fill="#F8FBFF"/>
<path d="M19.9394 49.6364H14V55.5758H19.9394V49.6364Z" fill="#F8FBFF"/>
<path d="M25.8788 49.6364H19.9394V55.5758H25.8788V49.6364Z" fill="#F8FBFF"/>
<path d="M31.8182 49.6364H25.8788V55.5758H31.8182V49.6364Z" fill="#F8FBFF"/>
<path d="M37.7576 49.6364H31.8182V55.5758H37.7576V49.6364Z" fill="#F8FBFF"/>
<path d="M43.697 49.6364H37.7576V55.5758H43.697V49.6364Z" fill="#F8FBFF"/>
<path d="M49.6364 49.6364H43.697V55.5758H49.6364V49.6364Z" fill="#F8FBFF"/>
<path d="M55.5758 49.6364H49.6364V55.5758H55.5758V49.6364Z" fill="#F8FBFF"/>
<path d="M67.4545 49.6364H61.5152V55.5758H67.4545V49.6364Z" fill="#F8FBFF"/>
<path d="M79.3333 49.6364H73.3939V55.5758H79.3333V49.6364Z" fill="#F8FBFF"/>
<path d="M91.2121 49.6364H85.2727V55.5758H91.2121V49.6364Z" fill="#F8FBFF"/>
<path d="M103.091 49.6364H97.1515V55.5758H103.091V49.6364Z" fill="#F8FBFF"/>
<path d="M114.97 49.6364H109.03V55.5758H114.97V49.6364Z" fill="#F8FBFF"/>
<path d="M126.848 49.6364H120.909V55.5758H126.849L126.848 49.6364Z" fill="#F8FBFF"/>
<path d="M138.727 49.6364H132.788V55.5758H138.727V49.6364Z" fill="#F8FBFF"/>
<path d="M150.606 49.6364H144.667V55.5758H150.606V49.6364Z" fill="#F8FBFF"/>
<path d="M162.485 49.6364H156.545V55.5758H162.485V49.6364Z" fill="#F8FBFF"/>
<path d="M174.364 49.6364H168.424V55.5758H174.364V49.6364Z" fill="#F8FBFF"/>
<path d="M180.303 49.6364H174.364V55.5758H180.303V49.6364Z" fill="#F8FBFF"/>
<path d="M186.242 49.6364H180.303V55.5758H186.242V49.6364Z" fill="#F8FBFF"/>
<path d="M192.182 49.6364H186.242V55.5758H192.182V49.6364Z" fill="#F8FBFF"/>
<path d="M198.121 49.6364H192.182V55.5758H198.121V49.6364Z" fill="#F8FBFF"/>
<path d="M204.061 49.6364H198.121V55.5758H204.061V49.6364Z" fill="#F8FBFF"/>
<path d="M210 49.6364H204.061V55.5758H210V49.6364Z" fill="#F8FBFF"/>
<path d="M103.091 55.5758H97.1515V61.5152H103.091V55.5758Z" fill="#F8FBFF"/>
<path d="M120.909 55.5758H114.97V61.5152H120.909V55.5758Z" fill="#F8FBFF"/>
<path d="M144.667 55.5758H138.727V61.5152H144.667V55.5758Z" fill="#F8FBFF"/>
<path d="M150.606 55.5758H144.667V61.5152H150.606V55.5758Z" fill="#F8FBFF"/>
<path d="M162.485 55.5758H156.545V61.5152H162.485V55.5758Z" fill="#F8FBFF"/>
<path d="M25.8788 61.5152H19.9394V67.4545H25.8788V61.5152Z" fill="#F8FBFF"/>
<path d="M31.8182 61.5152H25.8788V67.4545H31.8182V61.5152Z" fill="#F8FBFF"/>
<path d="M37.7576 61.5152H31.8182V67.4545H37.7576V61.5152Z" fill="#F8FBFF"/>
<path d="M55.5758 61.5152H49.6364V67.4545H55.5758V61.5152Z" fill="#F8FBFF"/>
<path d="M61.5152 61.5152H55.5758V67.4545H61.5152V61.5152Z" fill="#F8FBFF"/>
<path d="M67.4545 61.5152H61.5152V67.4545H67.4545V61.5152Z" fill="#F8FBFF"/>
<path d="M73.3939 61.5152H67.4545V67.4545H73.3939V61.5152Z" fill="#F8FBFF"/>
<path d="M79.3333 61.5152H73.3939V67.4545H79.3333V61.5152Z" fill="#F8FBFF"/>
<path d="M103.091 61.5152H97.1515V67.4545H103.091V61.5152Z" fill="#F8FBFF"/>
<path d="M120.909 61.5152H114.97V67.4545H120.909V61.5152Z" fill="#F8FBFF"/>
<path d="M126.849 61.5152H120.909V67.4545H126.849V61.5152Z" fill="#F8FBFF"/>
<path d="M138.727 61.5152H132.788V67.4545H138.727V61.5152Z" fill="#F8FBFF"/>
<path d="M144.667 61.5152H138.727V67.4545H144.667V61.5152Z" fill="#F8FBFF"/>
<path d="M162.485 61.5152H156.545V67.4545H162.485V61.5152Z" fill="#F8FBFF"/>
<path d="M168.424 61.5152H162.485V67.4545H168.424V61.5152Z" fill="#F8FBFF"/>
<path d="M210 61.5152H204.061V67.4545H210V61.5152Z" fill="#F8FBFF"/>
<path d="M25.8788 67.4545H19.9394V73.3939H25.8788V67.4545Z" fill="#F8FBFF"/>
<path d="M31.8182 67.4545H25.8788V73.3939H31.8182V67.4545Z" fill="#F8FBFF"/>
<path d="M37.7576 67.4545H31.8182V73.3939H37.7576V67.4545Z" fill="#F8FBFF"/>
<path d="M43.697 67.4545H37.7576V73.3939H43.697V67.4545Z" fill="#F8FBFF"/>
<path d="M49.6364 67.4545H43.697V73.3939H49.6364V67.4545Z" fill="#F8FBFF"/>
<path d="M67.4545 67.4545H61.5152V73.3939H67.4545V67.4545Z" fill="#F8FBFF"/>
<path d="M73.3939 67.4545H67.4545V73.3939H73.3939V67.4545Z" fill="#F8FBFF"/>
<path d="M85.2727 67.4545H79.3333V73.3939H85.2727V67.4545Z" fill="#F8FBFF"/>
<path d="M91.2121 67.4545H85.2727V73.3939H91.2121V67.4545Z" fill="#F8FBFF"/>
<path d="M103.091 67.4545H97.1515V73.3939H103.091V67.4545Z" fill="#F8FBFF"/>
<path d="M109.03 67.4545H103.091V73.3939H109.03V67.4545Z" fill="#F8FBFF"/>
<path d="M126.849 67.4545H120.909V73.3939H126.849V67.4545Z" fill="#F8FBFF"/>
<path d="M132.788 67.4545H126.849V73.3939H132.788V67.4545Z" fill="#F8FBFF"/>
<path d="M150.606 67.4545H144.667V73.3939H150.606V67.4545Z" fill="#F8FBFF"/>
<path d="M174.364 67.4545H168.424V73.3939H174.364V67.4545Z" fill="#F8FBFF"/>
<path d="M186.242 67.4545H180.303V73.3939H186.242V67.4545Z" fill="#F8FBFF"/>
<path d="M192.182 67.4545H186.242V73.3939H192.182V67.4545Z" fill="#F8FBFF"/>
<path d="M198.121 67.4545H192.182V73.3939H198.121V67.4545Z" fill="#F8FBFF"/>
<path d="M19.9394 73.3939H14V79.3333H19.9394V73.3939Z" fill="#F8FBFF"/>
<path d="M25.8788 73.3939H19.9394V79.3333H25.8788V73.3939Z" fill="#F8FBFF"/>
<path d="M31.8182 73.3939H25.8788V79.3333H31.8182V73.3939Z" fill="#F8FBFF"/>
<path d="M37.7576 73.3939H31.8182V79.3333H37.7576V73.3939Z" fill="#F8FBFF"/>
<path d="M49.6364 73.3939H43.697V79.3333H49.6364V73.3939Z" fill="#F8FBFF"/>
<path d="M55.5758 73.3939H49.6364V79.3333H55.5758V73.3939Z" fill="#F8FBFF"/>
<path d="M67.4545 73.3939H61.5152V79.3333H67.4545V73.3939Z" fill="#F8FBFF"/>
<path d="M103.091 73.3939H97.1515V79.3333H103.091V73.3939Z" fill="#F8FBFF"/>
<path d="M138.727 73.3939H132.788V79.3333H138.727V73.3939Z" fill="#F8FBFF"/>
<path d="M144.667 73.3939H138.727V79.3333H144.667V73.3939Z" fill="#F8FBFF"/>
<path d="M156.545 73.3939H150.606V79.3333H156.545V73.3939Z" fill="#F8FBFF"/>
<path d="M174.364 73.3939H168.424V79.3333H174.364V73.3939Z" fill="#F8FBFF"/>
<path d="M180.303 73.3939H174.364V79.3333H180.303V73.3939Z" fill="#F8FBFF"/>
<path d="M198.121 73.3939H192.182V79.3333H198.121V73.3939Z" fill="#F8FBFF"/>
<path d="M210 73.3939H204.061V79.3333H210V73.3939Z" fill="#F8FBFF"/>
<path d="M43.697 79.3333H37.7576V85.2727H43.697V79.3333Z" fill="#F8FBFF"/>
<path d="M49.6364 79.3333H43.697V85.2727H49.6364V79.3333Z" fill="#F8FBFF"/>
<path d="M61.5152 79.3333H55.5758V85.2727H61.5152V79.3333Z" fill="#F8FBFF"/>
<path d="M67.4545 79.3333H61.5152V85.2727H67.4545V79.3333Z" fill="#F8FBFF"/>
<path d="M73.3939 79.3333H67.4545V85.2727H73.3939V79.3333Z" fill="#F8FBFF"/>
<path d="M79.3333 79.3333H73.3939V85.2727H79.3333V79.3333Z" fill="#F8FBFF"/>
<path d="M85.2727 79.3333H79.3333V85.2727H85.2727V79.3333Z" fill="#F8FBFF"/>
<path d="M109.03 79.3333H103.091V85.2727H109.03V79.3333Z" fill="#F8FBFF"/>
<path d="M114.97 79.3333H109.03V85.2727H114.97V79.3333Z" fill="#F8FBFF"/>
<path d="M120.909 79.3333H114.97V85.2727H120.909V79.3333Z" fill="#F8FBFF"/>
<path d="M126.849 79.3333H120.909V85.2727H126.849V79.3333Z" fill="#F8FBFF"/>
<path d="M156.545 79.3333H150.606V85.2727H156.545V79.3333Z" fill="#F8FBFF"/>
<path d="M180.303 79.3333H174.364V85.2727H180.303V79.3333Z" fill="#F8FBFF"/>
<path d="M192.182 79.3333H186.242V85.2727H192.182V79.3333Z" fill="#F8FBFF"/>
<path d="M198.121 79.3333H192.182V85.2727H198.121V79.3333Z" fill="#F8FBFF"/>
<path d="M210 79.3333H204.061V85.2727H210V79.3333Z" fill="#F8FBFF"/>
<path d="M19.9394 85.2727H14V91.2121H19.9394V85.2727Z" fill="#F8FBFF"/>
<path d="M31.8182 85.2727H25.8788V91.2121H31.8182V85.2727Z" fill="#F8FBFF"/>
<path d="M43.697 85.2727H37.7576V91.2121H43.697V85.2727Z" fill="#F8FBFF"/>
<path d="M55.5758 85.2727H49.6364V91.2121H55.5758V85.2727Z" fill="#F8FBFF"/>
<path d="M67.4545 85.2727H61.5152V91.2121H67.4545V85.2727Z" fill="#F8FBFF"/>
<path d="M85.2727 85.2727H79.3333V91.2121H85.2727V85.2727Z" fill="#F8FBFF"/>
<path d="M91.2121 85.2727H85.2727V91.2121H91.2121V85.2727Z" fill="#F8FBFF"/>
<path d="M103.091 85.2727H97.1515V91.2121H103.091V85.2727Z" fill="#F8FBFF"/>
<path d="M109.03 85.2727H103.091V91.2121H109.03V85.2727Z" fill="#F8FBFF"/>
<path d="M114.97 85.2727H109.03V91.2121H114.97V85.2727Z" fill="#F8FBFF"/>
<path d="M126.849 85.2727H120.909V91.2121H126.849V85.2727Z" fill="#F8FBFF"/>
<path d="M150.606 85.2727H144.667V91.2121H150.606V85.2727Z" fill="#F8FBFF"/>
<path d="M156.545 85.2727H150.606V91.2121H156.545V85.2727Z" fill="#F8FBFF"/>
<path d="M168.424 85.2727H162.485V91.2121H168.424V85.2727Z" fill="#F8FBFF"/>
<path d="M174.364 85.2727H168.424V91.2121H174.364V85.2727Z" fill="#F8FBFF"/>
<path d="M192.182 85.2727H186.242V91.2121H192.182V85.2727Z" fill="#F8FBFF"/>
<path d="M198.121 85.2727H192.182V91.2121H198.121V85.2727Z" fill="#F8FBFF"/>
<path d="M210 85.2727H204.061V91.2121H210V85.2727Z" fill="#F8FBFF"/>
<path d="M25.8788 91.2121H19.9394V97.1515H25.8788V91.2121Z" fill="#F8FBFF"/>
<path d="M31.8182 91.2121H25.8788V97.1515H31.8182V91.2121Z" fill="#F8FBFF"/>
<path d="M67.4545 91.2121H61.5152V97.1515H67.4545V91.2121Z" fill="#F8FBFF"/>
<path d="M91.2121 91.2121H85.2727V97.1515H91.2121V91.2121Z" fill="#F8FBFF"/>
<path d="M103.091 91.2121H97.1515V97.1515H103.091V91.2121Z" fill="#F8FBFF"/>
<path d="M114.97 91.2121H109.03V97.1515H114.97V91.2121Z" fill="#F8FBFF"/>
<path d="M120.909 91.2121H114.97V97.1515H120.909V91.2121Z" fill="#F8FBFF"/>
<path d="M126.849 91.2121H120.909V97.1515H126.849V91.2121Z" fill="#F8FBFF"/>
<path d="M132.788 91.2121H126.849V97.1515H132.788V91.2121Z" fill="#F8FBFF"/>
<path d="M150.606 91.2121H144.667V97.1515H150.606V91.2121Z" fill="#F8FBFF"/>
<path d="M192.182 91.2121H186.242V97.1515H192.182V91.2121Z" fill="#F8FBFF"/>
<path d="M198.121 91.2121H192.182V97.1515H198.121V91.2121Z" fill="#F8FBFF"/>
<path d="M204.061 91.2121H198.121V97.1515H204.061V91.2121Z" fill="#F8FBFF"/>
<path d="M210 91.2121H204.061V97.1515H210V91.2121Z" fill="#F8FBFF"/>
<path d="M19.9394 97.1515H14V103.091H19.9394V97.1515Z" fill="#F8FBFF"/>
<path d="M25.8788 97.1515H19.9394V103.091H25.8788V97.1515Z" fill="#F8FBFF"/>
<path d="M49.6364 97.1515H43.697V103.091H49.6364V97.1515Z" fill="#F8FBFF"/>
<path d="M55.5758 97.1515H49.6364V103.091H55.5758V97.1515Z" fill="#F8FBFF"/>
<path d="M61.5152 97.1515H55.5758V103.091H61.5152V97.1515Z" fill="#F8FBFF"/>
<path d="M67.4545 97.1515H61.5152V103.091H67.4545V97.1515Z" fill="#F8FBFF"/>
<path d="M85.2727 97.1515H79.3333V103.091H85.2727V97.1515Z" fill="#F8FBFF"/>
<path d="M91.2121 97.1515H85.2727V103.091H91.2121V97.1515Z" fill="#F8FBFF"/>
<path d="M97.1515 97.1515H91.2121V103.091H97.1515V97.1515Z" fill="#F8FBFF"/>
<path d="M114.97 97.1515H109.03V103.091H114.97V97.1515Z" fill="#F8FBFF"/>
<path d="M120.909 97.1515H114.97V103.091H120.909V97.1515Z" fill="#F8FBFF"/>
<path d="M126.849 97.1515H120.909V103.091H126.849V97.1515Z" fill="#F8FBFF"/>
<path d="M138.727 97.1515H132.788V103.091H138.727V97.1515Z" fill="#F8FBFF"/>
<path d="M144.667 97.1515H138.727V103.091H144.667V97.1515Z" fill="#F8FBFF"/>
<path d="M150.606 97.1515H144.667V103.091H150.606V97.1515Z" fill="#F8FBFF"/>
<path d="M162.485 97.1515H156.545V103.091H162.485V97.1515Z" fill="#F8FBFF"/>
<path d="M168.424 97.1515H162.485V103.091H168.424V97.1515Z" fill="#F8FBFF"/>
<path d="M180.303 97.1515H174.364V103.091H180.303V97.1515Z" fill="#F8FBFF"/>
<path d="M186.242 97.1515H180.303V103.091H186.242V97.1515Z" fill="#F8FBFF"/>
<path d="M192.182 97.1515H186.242V103.091H192.182V97.1515Z" fill="#F8FBFF"/>
<path d="M37.7576 103.091H31.8182V109.03H37.7576V103.091Z" fill="#F8FBFF"/>
<path d="M43.697 103.091H37.7576V109.03H43.697V103.091Z" fill="#F8FBFF"/>
<path d="M67.4545 103.091H61.5152V109.03H67.4545V103.091Z" fill="#F8FBFF"/>
<path d="M73.3939 103.091H67.4545V109.03H73.3939V103.091Z" fill="#F8FBFF"/>
<path d="M79.3333 103.091H73.3939V109.03H79.3333V103.091Z" fill="#F8FBFF"/>
<path d="M85.2727 103.091H79.3333V109.03H85.2727V103.091Z" fill="#F8FBFF"/>
<path d="M109.03 103.091H103.091V109.03H109.03V103.091Z" fill="#F8FBFF"/>
<path d="M120.909 103.091H114.97V109.03H120.909V103.091Z" fill="#F8FBFF"/>
<path d="M126.849 103.091H120.909V109.03H126.849V103.091Z" fill="#F8FBFF"/>
<path d="M132.788 103.091H126.849V109.03H132.788V103.091Z" fill="#F8FBFF"/>
<path d="M150.606 103.091H144.667V109.03H150.606V103.091Z" fill="#F8FBFF"/>
<path d="M162.485 103.091H156.545V109.03H162.485V103.091Z" fill="#F8FBFF"/>
<path d="M168.424 103.091H162.485V109.03H168.424V103.091Z" fill="#F8FBFF"/>
<path d="M174.364 103.091H168.424V109.03H174.364V103.091Z" fill="#F8FBFF"/>
<path d="M180.303 103.091H174.364V109.03H180.303V103.091Z" fill="#F8FBFF"/>
<path d="M204.061 103.091H198.121V109.03H204.061V103.091Z" fill="#F8FBFF"/>
<path d="M31.8182 109.03H25.8788V114.97H31.8182V109.03Z" fill="#F8FBFF"/>
<path d="M49.6364 109.03H43.697V114.97H49.6364V109.03Z" fill="#F8FBFF"/>
<path d="M55.5758 109.03H49.6364V114.97H55.5758V109.03Z" fill="#F8FBFF"/>
<path d="M79.3333 109.03H73.3939V114.97H79.3333V109.03Z" fill="#F8FBFF"/>
<path d="M85.2727 109.03H79.3333V114.97H85.2727V109.03Z" fill="#F8FBFF"/>
<path d="M91.2121 109.03H85.2727V114.97H91.2121V109.03Z" fill="#F8FBFF"/>
<path d="M97.1515 109.03H91.2121V114.97H97.1515V109.03Z" fill="#F8FBFF"/>
<path d="M114.97 109.03H109.03V114.97H114.97V109.03Z" fill="#F8FBFF"/>
<path d="M132.788 109.03H126.849L126.848 114.97H132.788V109.03Z" fill="#F8FBFF"/>
<path d="M138.727 109.03H132.788V114.97H138.727V109.03Z" fill="#F8FBFF"/>
<path d="M144.667 109.03H138.727V114.97H144.667V109.03Z" fill="#F8FBFF"/>
<path d="M150.606 109.03H144.667V114.97H150.606V109.03Z" fill="#F8FBFF"/>
<path d="M162.485 109.03H156.545V114.97H162.485V109.03Z" fill="#F8FBFF"/>
<path d="M192.182 109.03H186.242V114.97H192.182V109.03Z" fill="#F8FBFF"/>
<path d="M198.121 109.03H192.182V114.97H198.121V109.03Z" fill="#F8FBFF"/>
<path d="M204.061 109.03H198.121V114.97H204.061V109.03Z" fill="#F8FBFF"/>
<path d="M25.8788 114.97H19.9394V120.909H25.8788V114.97Z" fill="#F8FBFF"/>
<path d="M31.8182 114.97H25.8788V120.909H31.8182V114.97Z" fill="#F8FBFF"/>
<path d="M43.697 114.97H37.7576V120.909H43.697V114.97Z" fill="#F8FBFF"/>
<path d="M67.4545 114.97H61.5152V120.909H67.4545V114.97Z" fill="#F8FBFF"/>
<path d="M91.2121 114.97H85.2727V120.909H91.2121V114.97Z" fill="#F8FBFF"/>
<path d="M97.1515 114.97H91.2121V120.909H97.1515V114.97Z" fill="#F8FBFF"/>
<path d="M103.091 114.97H97.1515V120.909H103.091V114.97Z" fill="#F8FBFF"/>
<path d="M114.97 114.97H109.03V120.909H114.97V114.97Z" fill="#F8FBFF"/>
<path d="M120.909 114.97H114.97V120.909H120.909V114.97Z" fill="#F8FBFF"/>
<path d="M132.788 114.97H126.848V120.909H132.788V114.97Z" fill="#F8FBFF"/>
<path d="M150.606 114.97H144.667V120.909H150.606V114.97Z" fill="#F8FBFF"/>
<path d="M192.182 114.97H186.242V120.909H192.182V114.97Z" fill="#F8FBFF"/>
<path d="M198.121 114.97H192.182V120.909H198.121V114.97Z" fill="#F8FBFF"/>
<path d="M210 114.97H204.061V120.909H210V114.97Z" fill="#F8FBFF"/>
<path d="M19.9394 120.909H14V126.849H19.9394V120.909Z" fill="#F8FBFF"/>
<path d="M31.8182 120.909H25.8788V126.849H31.8182V120.909Z" fill="#F8FBFF"/>
<path d="M43.697 120.909H37.7576V126.849H43.697V120.909Z" fill="#F8FBFF"/>
<path d="M55.5758 120.909H49.6364V126.849H55.5758V120.909Z" fill="#F8FBFF"/>
<path d="M61.5152 120.909H55.5758V126.849H61.5152V120.909Z" fill="#F8FBFF"/>
<path d="M73.3939 120.909H67.4545V126.849H73.3939V120.909Z" fill="#F8FBFF"/>
<path d="M79.3333 120.909H73.3939V126.849H79.3333V120.909Z" fill="#F8FBFF"/>
<path d="M91.2121 120.909H85.2727V126.849H91.2121V120.909Z" fill="#F8FBFF"/>
<path d="M120.909 120.909H114.97V126.849H120.909V120.909Z" fill="#F8FBFF"/>
<path d="M132.788 120.909H126.848V126.849H132.788V120.909Z" fill="#F8FBFF"/>
<path d="M144.667 120.909H138.727V126.849H144.667V120.909Z" fill="#F8FBFF"/>
<path d="M168.424 120.909H162.485V126.849H168.424V120.909Z" fill="#F8FBFF"/>
<path d="M174.364 120.909H168.424V126.849H174.364V120.909Z" fill="#F8FBFF"/>
<path d="M186.242 120.909H180.303V126.849H186.242V120.909Z" fill="#F8FBFF"/>
<path d="M198.121 120.909H192.182V126.849H198.121V120.909Z" fill="#F8FBFF"/>
<path d="M31.8182 126.849H25.8788V132.788H31.8182V126.849Z" fill="#F8FBFF"/>
<path d="M37.7576 126.849H31.8182V132.788H37.7576V126.849Z" fill="#F8FBFF"/>
<path d="M73.3939 126.849H67.4545V132.788H73.3939V126.849Z" fill="#F8FBFF"/>
<path d="M91.2121 126.849H85.2727V132.788H91.2121V126.849Z" fill="#F8FBFF"/>
<path d="M103.091 126.848H97.1515V132.788H103.091V126.848Z" fill="#F8FBFF"/>
<path d="M109.03 126.848H103.091V132.788H109.03V126.848Z" fill="#F8FBFF"/>
<path d="M114.97 126.849L109.03 126.848V132.788H114.97V126.849Z" fill="#F8FBFF"/>
<path d="M120.909 126.849H114.97V132.788H120.909V126.849Z" fill="#F8FBFF"/>
<path d="M126.848 126.849H120.909V132.788H126.849L126.848 126.849Z" fill="#F8FBFF"/>
<path d="M132.788 126.849H126.848L126.849 132.788H132.788V126.849Z" fill="#F8FBFF"/>
<path d="M138.727 126.849H132.788V132.788H138.727V126.849Z" fill="#F8FBFF"/>
<path d="M156.545 126.848H150.606V132.788H156.545V126.848Z" fill="#F8FBFF"/>
<path d="M162.485 126.849L156.545 126.848V132.788H162.485V126.849Z" fill="#F8FBFF"/>
<path d="M168.424 126.849H162.485V132.788H168.424V126.849Z" fill="#F8FBFF"/>
<path d="M192.182 126.849H186.242V132.788H192.182V126.849Z" fill="#F8FBFF"/>
<path d="M198.121 126.849H192.182V132.788H198.121V126.849Z" fill="#F8FBFF"/>
<path d="M204.061 126.848L198.121 126.849V132.788H204.061V126.848Z" fill="#F8FBFF"/>
<path d="M25.8788 132.788H19.9394V138.727H25.8788V132.788Z" fill="#F8FBFF"/>
<path d="M31.8182 132.788H25.8788V138.727H31.8182V132.788Z" fill="#F8FBFF"/>
<path d="M49.6364 132.788H43.697V138.727H49.6364V132.788Z" fill="#F8FBFF"/>
<path d="M55.5758 132.788H49.6364V138.727H55.5758V132.788Z" fill="#F8FBFF"/>
<path d="M73.3939 132.788H67.4545V138.727H73.3939V132.788Z" fill="#F8FBFF"/>
<path d="M91.2121 132.788H85.2727V138.727H91.2121V132.788Z" fill="#F8FBFF"/>
<path d="M97.1515 132.788H91.2121V138.727H97.1515V132.788Z" fill="#F8FBFF"/>
<path d="M114.97 132.788H109.03V138.727H114.97V132.788Z" fill="#F8FBFF"/>
<path d="M120.909 132.788H114.97V138.727H120.909V132.788Z" fill="#F8FBFF"/>
<path d="M132.788 132.788H126.849L126.848 138.727H132.788V132.788Z" fill="#F8FBFF"/>
<path d="M144.667 132.788H138.727V138.727H144.667V132.788Z" fill="#F8FBFF"/>
<path d="M150.606 132.788H144.667V138.727H150.606V132.788Z" fill="#F8FBFF"/>
<path d="M162.485 132.788H156.545V138.727H162.485V132.788Z" fill="#F8FBFF"/>
<path d="M168.424 132.788H162.485V138.727H168.424V132.788Z" fill="#F8FBFF"/>
<path d="M186.242 132.788H180.303V138.727H186.242V132.788Z" fill="#F8FBFF"/>
<path d="M192.182 132.788H186.242V138.727H192.182V132.788Z" fill="#F8FBFF"/>
<path d="M198.121 132.788H192.182V138.727H198.121V132.788Z" fill="#F8FBFF"/>
<path d="M210 132.788H204.061V138.727H210V132.788Z" fill="#F8FBFF"/>
<path d="M25.8788 138.727H19.9394V144.667H25.8788V138.727Z" fill="#F8FBFF"/>
<path d="M31.8182 138.727H25.8788V144.667H31.8182V138.727Z" fill="#F8FBFF"/>
<path d="M37.7576 138.727H31.8182V144.667H37.7576V138.727Z" fill="#F8FBFF"/>
<path d="M49.6364 138.727H43.697V144.667H49.6364V138.727Z" fill="#F8FBFF"/>
<path d="M126.848 138.727H120.909V144.667H126.849L126.848 138.727Z" fill="#F8FBFF"/>
<path d="M150.606 138.727H144.667V144.667H150.606V138.727Z" fill="#F8FBFF"/>
<path d="M174.364 138.727H168.424V144.667H174.364V138.727Z" fill="#F8FBFF"/>
<path d="M192.182 138.727H186.242V144.667H192.182V138.727Z" fill="#F8FBFF"/>
<path d="M19.9394 144.667H14V150.606H19.9394V144.667Z" fill="#F8FBFF"/>
<path d="M25.8788 144.667H19.9394V150.606H25.8788V144.667Z" fill="#F8FBFF"/>
<path d="M31.8182 144.667H25.8788V150.606H31.8182V144.667Z" fill="#F8FBFF"/>
<path d="M43.697 144.667H37.7576V150.606H43.697V144.667Z" fill="#F8FBFF"/>
<path d="M49.6364 144.667H43.697V150.606H49.6364V144.667Z" fill="#F8FBFF"/>
<path d="M55.5758 144.667H49.6364V150.606H55.5758V144.667Z" fill="#F8FBFF"/>
<path d="M67.4545 144.667H61.5152V150.606H67.4545V144.667Z" fill="#F8FBFF"/>
<path d="M73.3939 144.667H67.4545V150.606H73.3939V144.667Z" fill="#F8FBFF"/>
<path d="M114.97 144.667H109.03V150.606H114.97V144.667Z" fill="#F8FBFF"/>
<path d="M138.727 144.667H132.788V150.606H138.727V144.667Z" fill="#F8FBFF"/>
<path d="M144.667 144.667H138.727V150.606H144.667V144.667Z" fill="#F8FBFF"/>
<path d="M150.606 144.667H144.667V150.606H150.606V144.667Z" fill="#F8FBFF"/>
<path d="M156.545 144.667H150.606V150.606H156.545V144.667Z" fill="#F8FBFF"/>
<path d="M162.485 144.667H156.545V150.606H162.485V144.667Z" fill="#F8FBFF"/>
<path d="M174.364 144.667H168.424V150.606H174.364V144.667Z" fill="#F8FBFF"/>
<path d="M186.242 144.667H180.303V150.606H186.242V144.667Z" fill="#F8FBFF"/>
<path d="M192.182 144.667H186.242V150.606H192.182V144.667Z" fill="#F8FBFF"/>
<path d="M210 144.667H204.061V150.606H210V144.667Z" fill="#F8FBFF"/>
<path d="M31.8182 150.606H25.8788V156.545H31.8182V150.606Z" fill="#F8FBFF"/>
<path d="M37.7576 150.606H31.8182V156.545H37.7576V150.606Z" fill="#F8FBFF"/>
<path d="M43.697 150.606H37.7576V156.545H43.697V150.606Z" fill="#F8FBFF"/>
<path d="M61.5152 150.606H55.5758V156.545H61.5152V150.606Z" fill="#F8FBFF"/>
<path d="M67.4545 150.606H61.5152V156.545H67.4545V150.606Z" fill="#F8FBFF"/>
<path d="M73.3939 150.606H67.4545V156.545H73.3939V150.606Z" fill="#F8FBFF"/>
<path d="M85.2727 150.606H79.3333V156.545H85.2727V150.606Z" fill="#F8FBFF"/>
<path d="M91.2121 150.606H85.2727V156.545H91.2121V150.606Z" fill="#F8FBFF"/>
<path d="M97.1515 150.606H91.2121V156.545H97.1515V150.606Z" fill="#F8FBFF"/>
<path d="M120.909 150.606H114.97V156.545H120.909V150.606Z" fill="#F8FBFF"/>
<path d="M126.849 150.606H120.909V156.545H126.849V150.606Z" fill="#F8FBFF"/>
<path d="M144.667 150.606H138.727V156.545H144.667V150.606Z" fill="#F8FBFF"/>
<path d="M156.545 150.606H150.606V156.545H156.545V150.606Z" fill="#F8FBFF"/>
<path d="M162.485 150.606H156.545V156.545H162.485V150.606Z" fill="#F8FBFF"/>
<path d="M168.424 150.606H162.485V156.545H168.424V150.606Z" fill="#F8FBFF"/>
<path d="M174.364 150.606H168.424V156.545H174.364V150.606Z" fill="#F8FBFF"/>
<path d="M180.303 150.606H174.364V156.545H180.303V150.606Z" fill="#F8FBFF"/>
<path d="M192.182 150.606H186.242V156.545H192.182V150.606Z" fill="#F8FBFF"/>
<path d="M198.121 150.606H192.182V156.545H198.121V150.606Z" fill="#F8FBFF"/>
<path d="M204.061 150.606H198.121V156.545H204.061V150.606Z" fill="#F8FBFF"/>
<path d="M210 150.606H204.061V156.545H210V150.606Z" fill="#F8FBFF"/>
<path d="M37.7576 156.545H31.8182V162.485H37.7576V156.545Z" fill="#F8FBFF"/>
<path d="M55.5758 156.545H49.6364V162.485H55.5758V156.545Z" fill="#F8FBFF"/>
<path d="M67.4545 156.545H61.5152V162.485H67.4545V156.545Z" fill="#F8FBFF"/>
<path d="M85.2727 156.545H79.3333V162.485H85.2727V156.545Z" fill="#F8FBFF"/>
<path d="M91.2121 156.545H85.2727V162.485H91.2121V156.545Z" fill="#F8FBFF"/>
<path d="M97.1515 156.545H91.2121V162.485H97.1515V156.545Z" fill="#F8FBFF"/>
<path d="M103.091 156.545H97.1515V162.485H103.091V156.545Z" fill="#F8FBFF"/>
<path d="M114.97 156.545H109.03V162.485H114.97V156.545Z" fill="#F8FBFF"/>
<path d="M126.849 156.545H120.909V162.485H126.849V156.545Z" fill="#F8FBFF"/>
<path d="M138.727 156.545H132.788V162.485H138.727V156.545Z" fill="#F8FBFF"/>
<path d="M150.606 156.545H144.667V162.485H150.606V156.545Z" fill="#F8FBFF"/>
<path d="M156.545 156.545H150.606V162.485H156.545V156.545Z" fill="#F8FBFF"/>
<path d="M162.485 156.545H156.545V162.485H162.485V156.545Z" fill="#F8FBFF"/>
<path d="M168.424 156.545H162.485V162.485H168.424V156.545Z" fill="#F8FBFF"/>
<path d="M174.364 156.545H168.424V162.485H174.364V156.545Z" fill="#F8FBFF"/>
<path d="M180.303 156.545H174.364V162.485H180.303V156.545Z" fill="#F8FBFF"/>
<path d="M186.242 156.545H180.303V162.485H186.242V156.545Z" fill="#F8FBFF"/>
<path d="M192.182 156.545H186.242V162.485H192.182V156.545Z" fill="#F8FBFF"/>
<path d="M210 156.545H204.061V162.485H210V156.545Z" fill="#F8FBFF"/>
<path d="M67.4545 162.485H61.5152V168.424H67.4545V162.485Z" fill="#F8FBFF"/>
<path d="M103.091 162.485H97.1515V168.424H103.091V162.485Z" fill="#F8FBFF"/>
<path d="M109.03 162.485H103.091V168.424H109.03V162.485Z" fill="#F8FBFF"/>
<path d="M114.97 162.485H109.03V168.424H114.97V162.485Z" fill="#F8FBFF"/>
<path d="M132.788 162.485H126.849L126.848 168.424H132.788V162.485Z" fill="#F8FBFF"/>
<path d="M138.727 162.485H132.788V168.424H138.727V162.485Z" fill="#F8FBFF"/>
<path d="M162.485 162.485H156.545V168.424H162.485V162.485Z" fill="#F8FBFF"/>
<path d="M186.242 162.485H180.303V168.424H186.242V162.485Z" fill="#F8FBFF"/>
<path d="M192.182 162.485H186.242V168.424H192.182V162.485Z" fill="#F8FBFF"/>
<path d="M198.121 162.485H192.182V168.424H198.121V162.485Z" fill="#F8FBFF"/>
<path d="M210 162.485H204.061V168.424H210V162.485Z" fill="#F8FBFF"/>
<path d="M19.9394 168.424H14V174.364H19.9394V168.424Z" fill="#F8FBFF"/>
<path d="M25.8788 168.424H19.9394V174.364H25.8788V168.424Z" fill="#F8FBFF"/>
<path d="M31.8182 168.424H25.8788V174.364H31.8182V168.424Z" fill="#F8FBFF"/>
<path d="M37.7576 168.424H31.8182V174.364H37.7576V168.424Z" fill="#F8FBFF"/>
<path d="M43.697 168.424H37.7576V174.364H43.697V168.424Z" fill="#F8FBFF"/>
<path d="M49.6364 168.424H43.697V174.364H49.6364V168.424Z" fill="#F8FBFF"/>
<path d="M55.5758 168.424H49.6364V174.364H55.5758V168.424Z" fill="#F8FBFF"/>
<path d="M67.4545 168.424H61.5152V174.364H67.4545V168.424Z" fill="#F8FBFF"/>
<path d="M85.2727 168.424H79.3333V174.364H85.2727V168.424Z" fill="#F8FBFF"/>
<path d="M91.2121 168.424H85.2727V174.364H91.2121V168.424Z" fill="#F8FBFF"/>
<path d="M97.1515 168.424H91.2121V174.364H97.1515V168.424Z" fill="#F8FBFF"/>
<path d="M103.091 168.424H97.1515V174.364H103.091V168.424Z" fill="#F8FBFF"/>
<path d="M120.909 168.424H114.97V174.364H120.909V168.424Z" fill="#F8FBFF"/>
<path d="M132.788 168.424H126.848V174.364H132.788V168.424Z" fill="#F8FBFF"/>
<path d="M156.545 168.424H150.606V174.364H156.545V168.424Z" fill="#F8FBFF"/>
<path d="M162.485 168.424H156.545V174.364H162.485V168.424Z" fill="#F8FBFF"/>
<path d="M174.364 168.424H168.424V174.364H174.364V168.424Z" fill="#F8FBFF"/>
<path d="M186.242 168.424H180.303V174.364H186.242V168.424Z" fill="#F8FBFF"/>
<path d="M19.9394 174.364H14V180.303H19.9394V174.364Z" fill="#F8FBFF"/>
<path d="M55.5758 174.364H49.6364V180.303H55.5758V174.364Z" fill="#F8FBFF"/>
<path d="M85.2727 174.364H79.3333V180.303H85.2727V174.364Z" fill="#F8FBFF"/>
<path d="M91.2121 174.364H85.2727V180.303H91.2121V174.364Z" fill="#F8FBFF"/>
<path d="M97.1515 174.364H91.2121V180.303H97.1515V174.364Z" fill="#F8FBFF"/>
<path d="M103.091 174.364H97.1515V180.303H103.091V174.364Z" fill="#F8FBFF"/>
<path d="M114.97 174.364H109.03V180.303H114.97V174.364Z" fill="#F8FBFF"/>
<path d="M126.848 174.364H120.909V180.303H126.849L126.848 174.364Z" fill="#F8FBFF"/>
<path d="M138.727 174.364H132.788V180.303H138.727V174.364Z" fill="#F8FBFF"/>
<path d="M144.667 174.364H138.727V180.303H144.667V174.364Z" fill="#F8FBFF"/>
<path d="M162.485 174.364H156.545V180.303H162.485V174.364Z" fill="#F8FBFF"/>
<path d="M186.242 174.364H180.303V180.303H186.242V174.364Z" fill="#F8FBFF"/>
<path d="M192.182 174.364H186.242V180.303H192.182V174.364Z" fill="#F8FBFF"/>
<path d="M198.121 174.364H192.182V180.303H198.121V174.364Z" fill="#F8FBFF"/>
<path d="M204.061 174.364H198.121V180.303H204.061V174.364Z" fill="#F8FBFF"/>
<path d="M210 174.364H204.061V180.303H210V174.364Z" fill="#F8FBFF"/>
<path d="M19.9394 180.303H14V186.242H19.9394V180.303Z" fill="#F8FBFF"/>
<path d="M31.8182 180.303H25.8788V186.242H31.8182V180.303Z" fill="#F8FBFF"/>
<path d="M37.7576 180.303H31.8182V186.242H37.7576V180.303Z" fill="#F8FBFF"/>
<path d="M43.697 180.303H37.7576V186.242H43.697V180.303Z" fill="#F8FBFF"/>
<path d="M55.5758 180.303H49.6364V186.242H55.5758V180.303Z" fill="#F8FBFF"/>
<path d="M73.3939 180.303H67.4545V186.242H73.3939V180.303Z" fill="#F8FBFF"/>
<path d="M79.3333 180.303H73.3939V186.242H79.3333V180.303Z" fill="#F8FBFF"/>
<path d="M85.2727 180.303H79.3333V186.242H85.2727V180.303Z" fill="#F8FBFF"/>
<path d="M114.97 180.303H109.03V186.242H114.97V180.303Z" fill="#F8FBFF"/>
<path d="M132.788 180.303H126.849L126.848 186.242H132.788V180.303Z" fill="#F8FBFF"/>
<path d="M138.727 180.303H132.788V186.242H138.727V180.303Z" fill="#F8FBFF"/>
<path d="M144.667 180.303H138.727V186.242H144.667V180.303Z" fill="#F8FBFF"/>
<path d="M150.606 180.303H144.667V186.242H150.606V180.303Z" fill="#F8FBFF"/>
<path d="M162.485 180.303H156.545V186.242H162.485V180.303Z" fill="#F8FBFF"/>
<path d="M168.424 180.303H162.485V186.242H168.424V180.303Z" fill="#F8FBFF"/>
<path d="M174.364 180.303H168.424V186.242H174.364V180.303Z" fill="#F8FBFF"/>
<path d="M180.303 180.303H174.364V186.242H180.303V180.303Z" fill="#F8FBFF"/>
<path d="M186.242 180.303H180.303V186.242H186.242V180.303Z" fill="#F8FBFF"/>
<path d="M192.182 180.303H186.242V186.242H192.182V180.303Z" fill="#F8FBFF"/>
<path d="M198.121 180.303H192.182V186.242H198.121V180.303Z" fill="#F8FBFF"/>
<path d="M204.061 180.303H198.121V186.242H204.061V180.303Z" fill="#F8FBFF"/>
<path d="M19.9394 186.242H14V192.182H19.9394V186.242Z" fill="#F8FBFF"/>
<path d="M31.8182 186.242H25.8788V192.182H31.8182V186.242Z" fill="#F8FBFF"/>
<path d="M37.7576 186.242H31.8182V192.182H37.7576V186.242Z" fill="#F8FBFF"/>
<path d="M43.697 186.242H37.7576V192.182H43.697V186.242Z" fill="#F8FBFF"/>
<path d="M55.5758 186.242H49.6364V192.182H55.5758V186.242Z" fill="#F8FBFF"/>
<path d="M67.4545 186.242H61.5152V192.182H67.4545V186.242Z" fill="#F8FBFF"/>
<path d="M73.3939 186.242H67.4545V192.182H73.3939V186.242Z" fill="#F8FBFF"/>
<path d="M85.2727 186.242H79.3333V192.182H85.2727V186.242Z" fill="#F8FBFF"/>
<path d="M97.1515 186.242H91.2121V192.182H97.1515V186.242Z" fill="#F8FBFF"/>
<path d="M103.091 186.242H97.1515V192.182H103.091V186.242Z" fill="#F8FBFF"/>
<path d="M109.03 186.242H103.091V192.182H109.03V186.242Z" fill="#F8FBFF"/>
<path d="M120.909 186.242H114.97V192.182H120.909V186.242Z" fill="#F8FBFF"/>
<path d="M126.848 186.242H120.909V192.182H126.849L126.848 186.242Z" fill="#F8FBFF"/>
<path d="M132.788 186.242H126.848L126.849 192.182H132.788V186.242Z" fill="#F8FBFF"/>
<path d="M138.727 186.242H132.788V192.182H138.727V186.242Z" fill="#F8FBFF"/>
<path d="M144.667 186.242H138.727V192.182H144.667V186.242Z" fill="#F8FBFF"/>
<path d="M156.545 186.242H150.606V192.182H156.545V186.242Z" fill="#F8FBFF"/>
<path d="M162.485 186.242H156.545V192.182H162.485V186.242Z" fill="#F8FBFF"/>
<path d="M180.303 186.242H174.364V192.182H180.303V186.242Z" fill="#F8FBFF"/>
<path d="M186.242 186.242H180.303V192.182H186.242V186.242Z" fill="#F8FBFF"/>
<path d="M204.061 186.242H198.121V192.182H204.061V186.242Z" fill="#F8FBFF"/>
<path d="M210 186.242H204.061V192.182H210V186.242Z" fill="#F8FBFF"/>
<path d="M19.9394 192.182H14V198.121H19.9394V192.182Z" fill="#F8FBFF"/>
<path d="M31.8182 192.182H25.8788V198.121H31.8182V192.182Z" fill="#F8FBFF"/>
<path d="M37.7576 192.182H31.8182V198.121H37.7576V192.182Z" fill="#F8FBFF"/>
<path d="M43.697 192.182H37.7576V198.121H43.697V192.182Z" fill="#F8FBFF"/>
<path d="M55.5758 192.182H49.6364V198.121H55.5758V192.182Z" fill="#F8FBFF"/>
<path d="M67.4545 192.182H61.5152V198.121H67.4545V192.182Z" fill="#F8FBFF"/>
<path d="M73.3939 192.182H67.4545V198.121H73.3939V192.182Z" fill="#F8FBFF"/>
<path d="M79.3333 192.182H73.3939V198.121H79.3333V192.182Z" fill="#F8FBFF"/>
<path d="M85.2727 192.182H79.3333V198.121H85.2727V192.182Z" fill="#F8FBFF"/>
<path d="M109.03 192.182H103.091V198.121H109.03V192.182Z" fill="#F8FBFF"/>
<path d="M120.909 192.182H114.97V198.121H120.909V192.182Z" fill="#F8FBFF"/>
<path d="M126.849 192.182H120.909V198.121H126.849V192.182Z" fill="#F8FBFF"/>
<path d="M132.788 192.182H126.849V198.121H132.788V192.182Z" fill="#F8FBFF"/>
<path d="M144.667 192.182H138.727V198.121H144.667V192.182Z" fill="#F8FBFF"/>
<path d="M150.606 192.182H144.667V198.121H150.606V192.182Z" fill="#F8FBFF"/>
<path d="M156.545 192.182H150.606V198.121H156.545V192.182Z" fill="#F8FBFF"/>
<path d="M168.424 192.182H162.485V198.121H168.424V192.182Z" fill="#F8FBFF"/>
<path d="M174.364 192.182H168.424V198.121H174.364V192.182Z" fill="#F8FBFF"/>
<path d="M180.303 192.182H174.364V198.121H180.303V192.182Z" fill="#F8FBFF"/>
<path d="M192.182 192.182H186.242V198.121H192.182V192.182Z" fill="#F8FBFF"/>
<path d="M198.121 192.182H192.182V198.121H198.121V192.182Z" fill="#F8FBFF"/>
<path d="M204.061 192.182H198.121V198.121H204.061V192.182Z" fill="#F8FBFF"/>
<path d="M19.9394 198.121H14V204.061H19.9394V198.121Z" fill="#F8FBFF"/>
<path d="M55.5758 198.121H49.6364V204.061H55.5758V198.121Z" fill="#F8FBFF"/>
<path d="M67.4545 198.121H61.5152V204.061H67.4545V198.121Z" fill="#F8FBFF"/>
<path d="M85.2727 198.121H79.3333V204.061H85.2727V198.121Z" fill="#F8FBFF"/>
<path d="M97.1515 198.121H91.2121V204.061H97.1515V198.121Z" fill="#F8FBFF"/>
<path d="M103.091 198.121H97.1515V204.061H103.091V198.121Z" fill="#F8FBFF"/>
<path d="M120.909 198.121H114.97V204.061H120.909V198.121Z" fill="#F8FBFF"/>
<path d="M126.849 198.121H120.909V204.061H126.849V198.121Z" fill="#F8FBFF"/>
<path d="M138.727 198.121H132.788V204.061H138.727V198.121Z" fill="#F8FBFF"/>
<path d="M150.606 198.121H144.667V204.061H150.606V198.121Z" fill="#F8FBFF"/>
<path d="M162.485 198.121H156.545V204.061H162.485V198.121Z" fill="#F8FBFF"/>
<path d="M168.424 198.121H162.485V204.061H168.424V198.121Z" fill="#F8FBFF"/>
<path d="M174.364 198.121H168.424V204.061H174.364V198.121Z" fill="#F8FBFF"/>
<path d="M192.182 198.121H186.242V204.061H192.182V198.121Z" fill="#F8FBFF"/>
<path d="M198.121 198.121H192.182V204.061H198.121V198.121Z" fill="#F8FBFF"/>
<path d="M210 198.121H204.061V204.061H210V198.121Z" fill="#F8FBFF"/>
<path d="M19.9394 204.061H14V210H19.9394V204.061Z" fill="#F8FBFF"/>
<path d="M25.8788 204.061H19.9394V210H25.8788V204.061Z" fill="#F8FBFF"/>
<path d="M31.8182 204.061H25.8788V210H31.8182V204.061Z" fill="#F8FBFF"/>
<path d="M37.7576 204.061H31.8182V210H37.7576V204.061Z" fill="#F8FBFF"/>
<path d="M43.697 204.061H37.7576V210H43.697V204.061Z" fill="#F8FBFF"/>
<path d="M49.6364 204.061H43.697V210H49.6364V204.061Z" fill="#F8FBFF"/>
<path d="M55.5758 204.061H49.6364V210H55.5758V204.061Z" fill="#F8FBFF"/>
<path d="M97.1515 204.061H91.2121V210H97.1515V204.061Z" fill="#F8FBFF"/>
<path d="M109.03 204.061H103.091V210H109.03V204.061Z" fill="#F8FBFF"/>
<path d="M114.97 204.061H109.03V210H114.97V204.061Z" fill="#F8FBFF"/>
<path d="M120.909 204.061H114.97V210H120.909V204.061Z" fill="#F8FBFF"/>
<path d="M126.849 204.061H120.909V210H126.849V204.061Z" fill="#F8FBFF"/>
<path d="M156.545 204.061H150.606V210H156.545V204.061Z" fill="#F8FBFF"/>
<path d="M162.485 204.061H156.545V210H162.485V204.061Z" fill="#F8FBFF"/>
<path d="M168.424 204.061H162.485V210H168.424V204.061Z" fill="#F8FBFF"/>
<path d="M180.303 204.061H174.364V210H180.303V204.061Z" fill="#F8FBFF"/>
<path d="M186.242 204.061H180.303V210H186.242V204.061Z" fill="#F8FBFF"/>
<path d="M192.182 204.061H186.242V210H192.182V204.061Z" fill="#F8FBFF"/>
<path d="M198.121 204.061H192.182V210H198.121V204.061Z" fill="#F8FBFF"/>
</svg>
