<svg xmlns="http://www.w3.org/2000/svg" xmlns:xlink="http://www.w3.org/1999/xlink" viewBox="0 0 500 500" width="500" height="500" preserveAspectRatio="xMidYMid meet" style="width: 100%; height: 100%; transform: translate3d(0px, 0px, 0px); content-visibility: visible;"><defs><clipPath id="__lottie_element_1321"><rect width="500" height="500" x="0" y="0"></rect></clipPath><clipPath id="__lottie_element_1323"><path d="M0,0 L500,0 L500,500 L0,500z"></path></clipPath><clipPath id="__lottie_element_1327"><path d="M0,0 L500,0 L500,500 L0,500z"></path></clipPath><clipPath id="__lottie_element_1331"><path d="M0,0 L500,0 L500,500 L0,500z"></path></clipPath><clipPath id="__lottie_element_1344"><path d="M0,0 L500,0 L500,500 L0,500z"></path></clipPath><clipPath id="__lottie_element_1357"><path d="M0,0 L500,0 L500,500 L0,500z"></path></clipPath><clipPath id="__lottie_element_1370"><path d="M0,0 L500,0 L500,500 L0,500z"></path></clipPath><clipPath id="__lottie_element_1383"><path d="M0,0 L500,0 L500,500 L0,500z"></path></clipPath><clipPath id="__lottie_element_1387"><path d="M0,0 L500,0 L500,500 L0,500z"></path></clipPath><clipPath id="__lottie_element_1391"><path d="M0,0 L500,0 L500,500 L0,500z"></path></clipPath><clipPath id="__lottie_element_1404"><path d="M0,0 L500,0 L500,500 L0,500z"></path></clipPath><clipPath id="__lottie_element_1417"><path d="M0,0 L500,0 L500,500 L0,500z"></path></clipPath><clipPath id="__lottie_element_1430"><path d="M0,0 L500,0 L500,500 L0,500z"></path></clipPath><clipPath id="__lottie_element_1443"><path d="M0,0 L500,0 L500,500 L0,500z"></path></clipPath><clipPath id="__lottie_element_1474"><path d="M0,0 L500,0 L500,500 L0,500z"></path></clipPath></defs><g clip-path="url(#__lottie_element_1321)"><g clip-path="url(#__lottie_element_1474)" transform="matrix(1,0,0,1,0,0)" opacity="1" style="display: block;"><g transform="matrix(0.013512548059225082,-0.9999086856842041,0.9999086856842041,0.013512548059225082,250,250)" opacity="1" style="display: block;"><g opacity="1" transform="matrix(1,0,0,1,2,0)"><path fill="rgb(185,166,245)" fill-opacity="0" d=" M0,-196 C98.14996337890625,-242.0460662841797 273.93255615234375,-66.15382385253906 196,0 C52.869686126708984,111.30780029296875 158.4274139404297,172.4005889892578 55,196 C-70.30714416503906,223.84088134765625 -236.79751586914062,67.29894256591797 -141,0 C18.84588050842285,-106.54793548583984 -77.015380859375,-160.875 0,-196z"></path><path stroke-linecap="butt" stroke-linejoin="miter" fill-opacity="0" stroke-miterlimit="4" stroke="rgb(185,166,245)" stroke-opacity="1" stroke-width="2" d=" M0,-196 C98.14996337890625,-242.0460662841797 273.93255615234375,-66.15382385253906 196,0 C52.869686126708984,111.30780029296875 158.4274139404297,172.4005889892578 55,196 C-70.30714416503906,223.84088134765625 -236.79751586914062,67.29894256591797 -141,0 C18.84588050842285,-106.54793548583984 -77.015380859375,-160.875 0,-196z"></path></g></g><g transform="matrix(0.08322973549365997,-0.9965304136276245,0.9965304136276245,0.08322973549365997,250,250)" opacity="0.61" style="display: block;"><g opacity="1" transform="matrix(1,0,0,1,2,0)"><path fill="rgb(185,166,245)" fill-opacity="0" d=" M0,-196 C98.14996337890625,-242.0460662841797 273.93255615234375,-66.15382385253906 196,0 C52.869686126708984,111.30780029296875 158.4274139404297,172.4005889892578 55,196 C-70.30714416503906,223.84088134765625 -236.79751586914062,67.29894256591797 -141,0 C18.84588050842285,-106.54793548583984 -77.015380859375,-160.875 0,-196z"></path><path stroke-linecap="butt" stroke-linejoin="miter" fill-opacity="0" stroke-miterlimit="4" stroke="rgb(185,166,245)" stroke-opacity="1" stroke-width="2" d=" M0,-196 C98.14996337890625,-242.0460662841797 273.93255615234375,-66.15382385253906 196,0 C52.869686126708984,111.30780029296875 158.4274139404297,172.4005889892578 55,196 C-70.30714416503906,223.84088134765625 -236.79751586914062,67.29894256591797 -141,0 C18.84588050842285,-106.54793548583984 -77.015380859375,-160.875 0,-196z"></path></g></g><g transform="matrix(0.13527004420757294,-0.9908087849617004,0.9908087849617004,0.13527004420757294,250,250)" opacity="0.35000000000000003" style="display: block;"><g opacity="1" transform="matrix(1,0,0,1,2,0)"><path fill="rgb(185,166,245)" fill-opacity="0" d=" M0,-196 C98.14996337890625,-242.0460662841797 273.93255615234375,-66.15382385253906 196,0 C52.869686126708984,111.30780029296875 158.4274139404297,172.4005889892578 55,196 C-70.30714416503906,223.84088134765625 -236.79751586914062,67.29894256591797 -141,0 C18.84588050842285,-106.54793548583984 -77.015380859375,-160.875 0,-196z"></path><path stroke-linecap="butt" stroke-linejoin="miter" fill-opacity="0" stroke-miterlimit="4" stroke="rgb(185,166,245)" stroke-opacity="1" stroke-width="2" d=" M0,-196 C98.14996337890625,-242.0460662841797 273.93255615234375,-66.15382385253906 196,0 C52.869686126708984,111.30780029296875 158.4274139404297,172.4005889892578 55,196 C-70.30714416503906,223.84088134765625 -236.79751586914062,67.29894256591797 -141,0 C18.84588050842285,-106.54793548583984 -77.015380859375,-160.875 0,-196z"></path></g></g><g transform="matrix(0.013512548059225082,-0.9999086856842041,0.9999086856842041,0.013512548059225082,250,250)" opacity="1" style="display: block;"><g opacity="1" transform="matrix(0.45399048924446106,0.8910065293312073,-0.8910065293312073,0.45399048924446106,2,0)"><path fill="rgb(185,166,245)" fill-opacity="0" d=" M0,-196 C142.8478546142578,-124.51270294189453 267.09454345703125,-74.7066421508789 196,0 C144.0095672607422,56.24699783325195 101.1147689819336,87.47918701171875 55,196 C-12.149482727050781,360.2872314453125 -210.23081970214844,66.98274993896484 -141,0 C-66.1460952758789,-70.91243743896484 -76.52597045898438,-232.0552520751953 0,-196z"></path><path stroke-linecap="butt" stroke-linejoin="miter" fill-opacity="0" stroke-miterlimit="4" stroke="rgb(185,166,245)" stroke-opacity="1" stroke-width="2" d=" M0,-196 C142.8478546142578,-124.51270294189453 267.09454345703125,-74.7066421508789 196,0 C144.0095672607422,56.24699783325195 101.1147689819336,87.47918701171875 55,196 C-12.149482727050781,360.2872314453125 -210.23081970214844,66.98274993896484 -141,0 C-66.1460952758789,-70.91243743896484 -76.52597045898438,-232.0552520751953 0,-196z"></path></g></g><g transform="matrix(0.08322973549365997,-0.9965304136276245,0.9965304136276245,0.08322973549365997,250,250)" opacity="0.68" style="display: block;"><g opacity="1" transform="matrix(0.45399048924446106,0.8910065293312073,-0.8910065293312073,0.45399048924446106,2,0)"><path fill="rgb(185,166,245)" fill-opacity="0" d=" M0,-196 C142.8478546142578,-124.51270294189453 267.09454345703125,-74.7066421508789 196,0 C144.0095672607422,56.24699783325195 101.1147689819336,87.47918701171875 55,196 C-12.149482727050781,360.2872314453125 -210.23081970214844,66.98274993896484 -141,0 C-66.1460952758789,-70.91243743896484 -76.52597045898438,-232.0552520751953 0,-196z"></path><path stroke-linecap="butt" stroke-linejoin="miter" fill-opacity="0" stroke-miterlimit="4" stroke="rgb(185,166,245)" stroke-opacity="1" stroke-width="2" d=" M0,-196 C142.8478546142578,-124.51270294189453 267.09454345703125,-74.7066421508789 196,0 C144.0095672607422,56.24699783325195 101.1147689819336,87.47918701171875 55,196 C-12.149482727050781,360.2872314453125 -210.23081970214844,66.98274993896484 -141,0 C-66.1460952758789,-70.91243743896484 -76.52597045898438,-232.0552520751953 0,-196z"></path></g></g><g transform="matrix(0.169766366481781,-0.9854843616485596,0.9854843616485596,0.169766366481781,250,250)" opacity="0.32" style="display: block;"><g opacity="1" transform="matrix(0.45399048924446106,0.8910065293312073,-0.8910065293312073,0.45399048924446106,2,0)"><path fill="rgb(185,166,245)" fill-opacity="0" d=" M0,-196 C142.8478546142578,-124.51270294189453 267.09454345703125,-74.7066421508789 196,0 C144.0095672607422,56.24699783325195 101.1147689819336,87.47918701171875 55,196 C-12.149482727050781,360.2872314453125 -210.23081970214844,66.98274993896484 -141,0 C-66.1460952758789,-70.91243743896484 -76.52597045898438,-232.0552520751953 0,-196z"></path><path stroke-linecap="butt" stroke-linejoin="miter" fill-opacity="0" stroke-miterlimit="4" stroke="rgb(185,166,245)" stroke-opacity="1" stroke-width="2" d=" M0,-196 C142.8478546142578,-124.51270294189453 267.09454345703125,-74.7066421508789 196,0 C144.0095672607422,56.24699783325195 101.1147689819336,87.47918701171875 55,196 C-12.149482727050781,360.2872314453125 -210.23081970214844,66.98274993896484 -141,0 C-66.1460952758789,-70.91243743896484 -76.52597045898438,-232.0552520751953 0,-196z"></path></g></g><g transform="matrix(0.013512548059225082,-0.9999086856842041,0.9999086856842041,0.013512548059225082,250,250)" opacity="1" style="display: block;"><g opacity="1" transform="matrix(-0.9945219159126282,0.10452846437692642,-0.10452846437692642,-0.9945219159126282,2,0)"><path fill="rgb(185,166,245)" fill-opacity="0" d=" M0,-196 C142.8478546142578,-124.51270294189453 202.22622680664062,-107.36717224121094 196,0 C190.98313903808594,89.31629180908203 112.09081268310547,237.49893188476562 55,196 C-76.361572265625,85.08587646484375 -126.55036163330078,140.2544708251953 -141,0 C-151.468017578125,-100.4541015625 -76.52597045898438,-232.0552520751953 0,-196z"></path><path stroke-linecap="butt" stroke-linejoin="miter" fill-opacity="0" stroke-miterlimit="4" stroke="rgb(185,166,245)" stroke-opacity="1" stroke-width="2" d=" M0,-196 C142.8478546142578,-124.51270294189453 202.22622680664062,-107.36717224121094 196,0 C190.98313903808594,89.31629180908203 112.09081268310547,237.49893188476562 55,196 C-76.361572265625,85.08587646484375 -126.55036163330078,140.2544708251953 -141,0 C-151.468017578125,-100.4541015625 -76.52597045898438,-232.0552520751953 0,-196z"></path></g></g><g transform="matrix(0.08322973549365997,-0.9965304136276245,0.9965304136276245,0.08322973549365997,250,250)" opacity="0.5" style="display: block;"><g opacity="1" transform="matrix(-0.9945219159126282,0.10452846437692642,-0.10452846437692642,-0.9945219159126282,2,0)"><path fill="rgb(124,166,205)" fill-opacity="0" d=" M0,-196 C142.8478546142578,-124.51270294189453 202.22622680664062,-107.36717224121094 196,0 C190.98313903808594,89.31629180908203 112.09081268310547,237.49893188476562 55,196 C-76.361572265625,85.08587646484375 -126.55036163330078,140.2544708251953 -141,0 C-151.468017578125,-100.4541015625 -76.52597045898438,-232.0552520751953 0,-196z"></path><path stroke-linecap="butt" stroke-linejoin="miter" fill-opacity="0" stroke-miterlimit="4" stroke="rgb(185,166,245)" stroke-opacity="1" stroke-width="2" d=" M0,-196 C142.8478546142578,-124.51270294189453 202.22622680664062,-107.36717224121094 196,0 C190.98313903808594,89.31629180908203 112.09081268310547,237.49893188476562 55,196 C-76.361572265625,85.08587646484375 -126.55036163330078,140.2544708251953 -141,0 C-151.468017578125,-100.4541015625 -76.52597045898438,-232.0552520751953 0,-196z"></path></g></g><g transform="matrix(0.10906346887350082,-0.9940347671508789,0.9940347671508789,0.10906346887350082,250,250)" opacity="0.29" style="display: block;"><g opacity="1" transform="matrix(-0.9945219159126282,0.10452846437692642,-0.10452846437692642,-0.9945219159126282,2,0)"><path fill="rgb(185,166,245)" fill-opacity="0" d=" M0,-196 C142.8478546142578,-124.51270294189453 202.22622680664062,-107.36717224121094 196,0 C190.98313903808594,89.31629180908203 112.09081268310547,237.49893188476562 55,196 C-76.361572265625,85.08587646484375 -126.55036163330078,140.2544708251953 -141,0 C-151.468017578125,-100.4541015625 -76.52597045898438,-232.0552520751953 0,-196z"></path><path stroke-linecap="butt" stroke-linejoin="miter" fill-opacity="0" stroke-miterlimit="4" stroke="rgb(185,166,245)" stroke-opacity="1" stroke-width="2" d=" M0,-196 C142.8478546142578,-124.51270294189453 202.22622680664062,-107.36717224121094 196,0 C190.98313903808594,89.31629180908203 112.09081268310547,237.49893188476562 55,196 C-76.361572265625,85.08587646484375 -126.55036163330078,140.2544708251953 -141,0 C-151.468017578125,-100.4541015625 -76.52597045898438,-232.0552520751953 0,-196z"></path></g></g></g><g clip-path="url(#__lottie_element_1443)" transform="matrix(0.37460657954216003,-0.9271838665008545,-0.9271838665008545,-0.37460657954216003,388.1443176269531,575.4476318359375)" opacity="0.16" style="display: block;"><g transform="matrix(0.013512548059225082,-0.9999086856842041,0.9999086856842041,0.013512548059225082,250,250)" opacity="1" style="display: block;"><g opacity="1" transform="matrix(1,0,0,1,2,0)"><path fill="rgb(185,166,245)" fill-opacity="0" d=" M0,-196 C98.14996337890625,-242.0460662841797 273.93255615234375,-66.15382385253906 196,0 C52.869686126708984,111.30780029296875 158.4274139404297,172.4005889892578 55,196 C-70.30714416503906,223.84088134765625 -236.79751586914062,67.29894256591797 -141,0 C18.84588050842285,-106.54793548583984 -77.015380859375,-160.875 0,-196z"></path><path stroke-linecap="butt" stroke-linejoin="miter" fill-opacity="0" stroke-miterlimit="4" stroke="rgb(185,166,245)" stroke-opacity="1" stroke-width="2" d=" M0,-196 C98.14996337890625,-242.0460662841797 273.93255615234375,-66.15382385253906 196,0 C52.869686126708984,111.30780029296875 158.4274139404297,172.4005889892578 55,196 C-70.30714416503906,223.84088134765625 -236.79751586914062,67.29894256591797 -141,0 C18.84588050842285,-106.54793548583984 -77.015380859375,-160.875 0,-196z"></path></g></g><g transform="matrix(0.08322973549365997,-0.9965304136276245,0.9965304136276245,0.08322973549365997,250,250)" opacity="0.61" style="display: block;"><g opacity="1" transform="matrix(1,0,0,1,2,0)"><path fill="rgb(185,166,245)" fill-opacity="0" d=" M0,-196 C98.14996337890625,-242.0460662841797 273.93255615234375,-66.15382385253906 196,0 C52.869686126708984,111.30780029296875 158.4274139404297,172.4005889892578 55,196 C-70.30714416503906,223.84088134765625 -236.79751586914062,67.29894256591797 -141,0 C18.84588050842285,-106.54793548583984 -77.015380859375,-160.875 0,-196z"></path><path stroke-linecap="butt" stroke-linejoin="miter" fill-opacity="0" stroke-miterlimit="4" stroke="rgb(185,166,245)" stroke-opacity="1" stroke-width="2" d=" M0,-196 C98.14996337890625,-242.0460662841797 273.93255615234375,-66.15382385253906 196,0 C52.869686126708984,111.30780029296875 158.4274139404297,172.4005889892578 55,196 C-70.30714416503906,223.84088134765625 -236.79751586914062,67.29894256591797 -141,0 C18.84588050842285,-106.54793548583984 -77.015380859375,-160.875 0,-196z"></path></g></g><g transform="matrix(0.13527004420757294,-0.9908087849617004,0.9908087849617004,0.13527004420757294,250,250)" opacity="0.35000000000000003" style="display: block;"><g opacity="1" transform="matrix(1,0,0,1,2,0)"><path fill="rgb(185,166,245)" fill-opacity="0" d=" M0,-196 C98.14996337890625,-242.0460662841797 273.93255615234375,-66.15382385253906 196,0 C52.869686126708984,111.30780029296875 158.4274139404297,172.4005889892578 55,196 C-70.30714416503906,223.84088134765625 -236.79751586914062,67.29894256591797 -141,0 C18.84588050842285,-106.54793548583984 -77.015380859375,-160.875 0,-196z"></path><path stroke-linecap="butt" stroke-linejoin="miter" fill-opacity="0" stroke-miterlimit="4" stroke="rgb(185,166,245)" stroke-opacity="1" stroke-width="2" d=" M0,-196 C98.14996337890625,-242.0460662841797 273.93255615234375,-66.15382385253906 196,0 C52.869686126708984,111.30780029296875 158.4274139404297,172.4005889892578 55,196 C-70.30714416503906,223.84088134765625 -236.79751586914062,67.29894256591797 -141,0 C18.84588050842285,-106.54793548583984 -77.015380859375,-160.875 0,-196z"></path></g></g><g transform="matrix(0.013512548059225082,-0.9999086856842041,0.9999086856842041,0.013512548059225082,250,250)" opacity="1" style="display: block;"><g opacity="1" transform="matrix(0.45399048924446106,0.8910065293312073,-0.8910065293312073,0.45399048924446106,2,0)"><path fill="rgb(185,166,245)" fill-opacity="0" d=" M0,-196 C142.8478546142578,-124.51270294189453 267.09454345703125,-74.7066421508789 196,0 C144.0095672607422,56.24699783325195 101.1147689819336,87.47918701171875 55,196 C-12.149482727050781,360.2872314453125 -210.23081970214844,66.98274993896484 -141,0 C-66.1460952758789,-70.91243743896484 -76.52597045898438,-232.0552520751953 0,-196z"></path><path stroke-linecap="butt" stroke-linejoin="miter" fill-opacity="0" stroke-miterlimit="4" stroke="rgb(185,166,245)" stroke-opacity="1" stroke-width="2" d=" M0,-196 C142.8478546142578,-124.51270294189453 267.09454345703125,-74.7066421508789 196,0 C144.0095672607422,56.24699783325195 101.1147689819336,87.47918701171875 55,196 C-12.149482727050781,360.2872314453125 -210.23081970214844,66.98274993896484 -141,0 C-66.1460952758789,-70.91243743896484 -76.52597045898438,-232.0552520751953 0,-196z"></path></g></g><g transform="matrix(0.08322973549365997,-0.9965304136276245,0.9965304136276245,0.08322973549365997,250,250)" opacity="0.68" style="display: block;"><g opacity="1" transform="matrix(0.45399048924446106,0.8910065293312073,-0.8910065293312073,0.45399048924446106,2,0)"><path fill="rgb(185,166,245)" fill-opacity="0" d=" M0,-196 C142.8478546142578,-124.51270294189453 267.09454345703125,-74.7066421508789 196,0 C144.0095672607422,56.24699783325195 101.1147689819336,87.47918701171875 55,196 C-12.149482727050781,360.2872314453125 -210.23081970214844,66.98274993896484 -141,0 C-66.1460952758789,-70.91243743896484 -76.52597045898438,-232.0552520751953 0,-196z"></path><path stroke-linecap="butt" stroke-linejoin="miter" fill-opacity="0" stroke-miterlimit="4" stroke="rgb(185,166,245)" stroke-opacity="1" stroke-width="2" d=" M0,-196 C142.8478546142578,-124.51270294189453 267.09454345703125,-74.7066421508789 196,0 C144.0095672607422,56.24699783325195 101.1147689819336,87.47918701171875 55,196 C-12.149482727050781,360.2872314453125 -210.23081970214844,66.98274993896484 -141,0 C-66.1460952758789,-70.91243743896484 -76.52597045898438,-232.0552520751953 0,-196z"></path></g></g><g transform="matrix(0.169766366481781,-0.9854843616485596,0.9854843616485596,0.169766366481781,250,250)" opacity="0.32" style="display: block;"><g opacity="1" transform="matrix(0.45399048924446106,0.8910065293312073,-0.8910065293312073,0.45399048924446106,2,0)"><path fill="rgb(185,166,245)" fill-opacity="0" d=" M0,-196 C142.8478546142578,-124.51270294189453 267.09454345703125,-74.7066421508789 196,0 C144.0095672607422,56.24699783325195 101.1147689819336,87.47918701171875 55,196 C-12.149482727050781,360.2872314453125 -210.23081970214844,66.98274993896484 -141,0 C-66.1460952758789,-70.91243743896484 -76.52597045898438,-232.0552520751953 0,-196z"></path><path stroke-linecap="butt" stroke-linejoin="miter" fill-opacity="0" stroke-miterlimit="4" stroke="rgb(185,166,245)" stroke-opacity="1" stroke-width="2" d=" M0,-196 C142.8478546142578,-124.51270294189453 267.09454345703125,-74.7066421508789 196,0 C144.0095672607422,56.24699783325195 101.1147689819336,87.47918701171875 55,196 C-12.149482727050781,360.2872314453125 -210.23081970214844,66.98274993896484 -141,0 C-66.1460952758789,-70.91243743896484 -76.52597045898438,-232.0552520751953 0,-196z"></path></g></g><g transform="matrix(0.013512548059225082,-0.9999086856842041,0.9999086856842041,0.013512548059225082,250,250)" opacity="1" style="display: block;"><g opacity="1" transform="matrix(-0.9945219159126282,0.10452846437692642,-0.10452846437692642,-0.9945219159126282,2,0)"><path fill="rgb(185,166,245)" fill-opacity="0" d=" M0,-196 C142.8478546142578,-124.51270294189453 202.22622680664062,-107.36717224121094 196,0 C190.98313903808594,89.31629180908203 112.09081268310547,237.49893188476562 55,196 C-76.361572265625,85.08587646484375 -126.55036163330078,140.2544708251953 -141,0 C-151.468017578125,-100.4541015625 -76.52597045898438,-232.0552520751953 0,-196z"></path><path stroke-linecap="butt" stroke-linejoin="miter" fill-opacity="0" stroke-miterlimit="4" stroke="rgb(185,166,245)" stroke-opacity="1" stroke-width="2" d=" M0,-196 C142.8478546142578,-124.51270294189453 202.22622680664062,-107.36717224121094 196,0 C190.98313903808594,89.31629180908203 112.09081268310547,237.49893188476562 55,196 C-76.361572265625,85.08587646484375 -126.55036163330078,140.2544708251953 -141,0 C-151.468017578125,-100.4541015625 -76.52597045898438,-232.0552520751953 0,-196z"></path></g></g><g transform="matrix(0.08322973549365997,-0.9965304136276245,0.9965304136276245,0.08322973549365997,250,250)" opacity="0.5" style="display: block;"><g opacity="1" transform="matrix(-0.9945219159126282,0.10452846437692642,-0.10452846437692642,-0.9945219159126282,2,0)"><path fill="rgb(124,166,205)" fill-opacity="0" d=" M0,-196 C142.8478546142578,-124.51270294189453 202.22622680664062,-107.36717224121094 196,0 C190.98313903808594,89.31629180908203 112.09081268310547,237.49893188476562 55,196 C-76.361572265625,85.08587646484375 -126.55036163330078,140.2544708251953 -141,0 C-151.468017578125,-100.4541015625 -76.52597045898438,-232.0552520751953 0,-196z"></path><path stroke-linecap="butt" stroke-linejoin="miter" fill-opacity="0" stroke-miterlimit="4" stroke="rgb(185,166,245)" stroke-opacity="1" stroke-width="2" d=" M0,-196 C142.8478546142578,-124.51270294189453 202.22622680664062,-107.36717224121094 196,0 C190.98313903808594,89.31629180908203 112.09081268310547,237.49893188476562 55,196 C-76.361572265625,85.08587646484375 -126.55036163330078,140.2544708251953 -141,0 C-151.468017578125,-100.4541015625 -76.52597045898438,-232.0552520751953 0,-196z"></path></g></g><g transform="matrix(0.10906346887350082,-0.9940347671508789,0.9940347671508789,0.10906346887350082,250,250)" opacity="0.29" style="display: block;"><g opacity="1" transform="matrix(-0.9945219159126282,0.10452846437692642,-0.10452846437692642,-0.9945219159126282,2,0)"><path fill="rgb(185,166,245)" fill-opacity="0" d=" M0,-196 C142.8478546142578,-124.51270294189453 202.22622680664062,-107.36717224121094 196,0 C190.98313903808594,89.31629180908203 112.09081268310547,237.49893188476562 55,196 C-76.361572265625,85.08587646484375 -126.55036163330078,140.2544708251953 -141,0 C-151.468017578125,-100.4541015625 -76.52597045898438,-232.0552520751953 0,-196z"></path><path stroke-linecap="butt" stroke-linejoin="miter" fill-opacity="0" stroke-miterlimit="4" stroke="rgb(185,166,245)" stroke-opacity="1" stroke-width="2" d=" M0,-196 C142.8478546142578,-124.51270294189453 202.22622680664062,-107.36717224121094 196,0 C190.98313903808594,89.31629180908203 112.09081268310547,237.49893188476562 55,196 C-76.361572265625,85.08587646484375 -126.55036163330078,140.2544708251953 -141,0 C-151.468017578125,-100.4541015625 -76.52597045898438,-232.0552520751953 0,-196z"></path></g></g></g><g clip-path="url(#__lottie_element_1383)" transform="matrix(1,0,0,1,0,0)" opacity="1" style="display: block;"><g clip-path="url(#__lottie_element_1430)" transform="matrix(1,0,0,1,0,0)" opacity="1" style="display: block;"><g transform="matrix(1,0,0,1,119.04289245605469,45.84002685546875)" opacity="0.8041333592168911" style="display: block;"><g opacity="1" transform="matrix(1,0,0,1,-38,69)"><path fill="rgb(185,166,245)" fill-opacity="1" d=" M0,-5 C2.759500026702881,-5 5,-2.759500026702881 5,0 C5,2.759500026702881 2.759500026702881,5 0,5 C-2.759500026702881,5 -5,2.759500026702881 -5,0 C-5,-2.759500026702881 -2.759500026702881,-5 0,-5z"></path><path stroke-linecap="butt" stroke-linejoin="miter" fill-opacity="0" stroke-miterlimit="4" stroke="rgb(185,166,245)" stroke-opacity="0" stroke-width="5" d=" M0,-5 C2.759500026702881,-5 5,-2.759500026702881 5,0 C5,2.759500026702881 2.759500026702881,5 0,5 C-2.759500026702881,5 -5,2.759500026702881 -5,0 C-5,-2.759500026702881 -2.759500026702881,-5 0,-5z"></path></g></g><g transform="matrix(1,0,0,1,478.62384033203125,21.756874084472656)" opacity="0.42635562253525744" style="display: block;"><g opacity="1" transform="matrix(1,0,0,1,-38,69)"><path fill="rgb(185,166,245)" fill-opacity="1" d=" M0,-5 C2.759500026702881,-5 5,-2.759500026702881 5,0 C5,2.759500026702881 2.759500026702881,5 0,5 C-2.759500026702881,5 -5,2.759500026702881 -5,0 C-5,-2.759500026702881 -2.759500026702881,-5 0,-5z"></path><path stroke-linecap="butt" stroke-linejoin="miter" fill-opacity="0" stroke-miterlimit="4" stroke="rgb(185,166,245)" stroke-opacity="0" stroke-width="5" d=" M0,-5 C2.759500026702881,-5 5,-2.759500026702881 5,0 C5,2.759500026702881 2.759500026702881,5 0,5 C-2.759500026702881,5 -5,2.759500026702881 -5,0 C-5,-2.759500026702881 -2.759500026702881,-5 0,-5z"></path></g></g><g transform="matrix(1,0,0,1,392.2751159667969,384.0220642089844)" opacity="0.18191119848733026" style="display: block;"><g opacity="1" transform="matrix(1,0,0,1,-38,69)"><path fill="rgb(185,166,245)" fill-opacity="1" d=" M0,-5 C2.759500026702881,-5 5,-2.759500026702881 5,0 C5,2.759500026702881 2.759500026702881,5 0,5 C-2.759500026702881,5 -5,2.759500026702881 -5,0 C-5,-2.759500026702881 -2.759500026702881,-5 0,-5z"></path><path stroke-linecap="butt" stroke-linejoin="miter" fill-opacity="0" stroke-miterlimit="4" stroke="rgb(129,208,255)" stroke-opacity="0" stroke-width="5" d=" M0,-5 C2.759500026702881,-5 5,-2.759500026702881 5,0 C5,2.759500026702881 2.759500026702881,5 0,5 C-2.759500026702881,5 -5,2.759500026702881 -5,0 C-5,-2.759500026702881 -2.759500026702881,-5 0,-5z"></path></g></g></g><g clip-path="url(#__lottie_element_1417)" style="display: block;" transform="matrix(0.24548783898353577,0.5033246874809265,-0.5033246874809265,0.24548783898353577,314.4591979980469,62.796875)" opacity="1"><g style="display: block;" transform="matrix(1,0,0,1,121.75981903076172,51.2301025390625)" opacity="0.8708000197890187"><g opacity="1" transform="matrix(1,0,0,1,-38,69)"><path fill="rgb(185,166,245)" fill-opacity="1" d=" M0,-5 C2.759500026702881,-5 5,-2.759500026702881 5,0 C5,2.759500026702881 2.759500026702881,5 0,5 C-2.759500026702881,5 -5,2.759500026702881 -5,0 C-5,-2.759500026702881 -2.759500026702881,-5 0,-5z"></path><path stroke-linecap="butt" stroke-linejoin="miter" fill-opacity="0" stroke-miterlimit="4" stroke="rgb(185,166,245)" stroke-opacity="0" stroke-width="5" d=" M0,-5 C2.759500026702881,-5 5,-2.759500026702881 5,0 C5,2.759500026702881 2.759500026702881,5 0,5 C-2.759500026702881,5 -5,2.759500026702881 -5,0 C-5,-2.759500026702881 -2.759500026702881,-5 0,-5z"></path></g></g><g style="display: block;" transform="matrix(1,0,0,1,477.9283752441406,28.1817626953125)" opacity="0.49302228413319804"><g opacity="1" transform="matrix(1,0,0,1,-38,69)"><path fill="rgb(185,166,245)" fill-opacity="1" d=" M0,-5 C2.759500026702881,-5 5,-2.759500026702881 5,0 C5,2.759500026702881 2.759500026702881,5 0,5 C-2.759500026702881,5 -5,2.759500026702881 -5,0 C-5,-2.759500026702881 -2.759500026702881,-5 0,-5z"></path><path stroke-linecap="butt" stroke-linejoin="miter" fill-opacity="0" stroke-miterlimit="4" stroke="rgb(185,166,245)" stroke-opacity="0" stroke-width="5" d=" M0,-5 C2.759500026702881,-5 5,-2.759500026702881 5,0 C5,2.759500026702881 2.759500026702881,5 0,5 C-2.759500026702881,5 -5,2.759500026702881 -5,0 C-5,-2.759500026702881 -2.759500026702881,-5 0,-5z"></path></g></g><g style="display: block;" transform="matrix(1,0,0,1,388.8335266113281,384.0037841796875)" opacity="0.24857786074903218"><g opacity="1" transform="matrix(1,0,0,1,-38,69)"><path fill="rgb(185,166,245)" fill-opacity="1" d=" M0,-5 C2.759500026702881,-5 5,-2.759500026702881 5,0 C5,2.759500026702881 2.759500026702881,5 0,5 C-2.759500026702881,5 -5,2.759500026702881 -5,0 C-5,-2.759500026702881 -2.759500026702881,-5 0,-5z"></path><path stroke-linecap="butt" stroke-linejoin="miter" fill-opacity="0" stroke-miterlimit="4" stroke="rgb(129,208,255)" stroke-opacity="0" stroke-width="5" d=" M0,-5 C2.759500026702881,-5 5,-2.759500026702881 5,0 C5,2.759500026702881 2.759500026702881,5 0,5 C-2.759500026702881,5 -5,2.759500026702881 -5,0 C-5,-2.759500026702881 -2.759500026702881,-5 0,-5z"></path></g></g></g><g clip-path="url(#__lottie_element_1387)" style="display: block;" transform="matrix(0.5558288097381592,0.518318772315979,-0.518318772315979,0.5558288097381592,240.6224822998047,-18.536895751953125)" opacity="0.37"><g clip-path="url(#__lottie_element_1404)" style="display: block;" transform="matrix(1,0,0,1,0,0)" opacity="1"><g style="display: block;" transform="matrix(0.9999935626983643,0,0,0.9999935626983643,130.26535034179688,64.88148498535156)" opacity="1"><g opacity="1" transform="matrix(1,0,0,1,-38,69)"><path fill="rgb(185,166,245)" fill-opacity="1" d=" M0,-5 C2.759500026702881,-5 5,-2.759500026702881 5,0 C5,2.759500026702881 2.759500026702881,5 0,5 C-2.759500026702881,5 -5,2.759500026702881 -5,0 C-5,-2.759500026702881 -2.759500026702881,-5 0,-5z"></path><path stroke-linecap="butt" stroke-linejoin="miter" fill-opacity="0" stroke-miterlimit="4" stroke="rgb(185,166,245)" stroke-opacity="0" stroke-width="5" d=" M0,-5 C2.759500026702881,-5 5,-2.759500026702881 5,0 C5,2.759500026702881 2.759500026702881,5 0,5 C-2.759500026702881,5 -5,2.759500026702881 -5,0 C-5,-2.759500026702881 -2.759500026702881,-5 0,-5z"></path></g></g><g style="display: block;" transform="matrix(0.9999935626983643,0,0,0.9999935626983643,472.4274597167969,47.83711242675781)" opacity="0.6708000483943737"><g opacity="1" transform="matrix(1,0,0,1,-38,69)"><path fill="rgb(185,166,245)" fill-opacity="1" d=" M0,-5 C2.759500026702881,-5 5,-2.759500026702881 5,0 C5,2.759500026702881 2.759500026702881,5 0,5 C-2.759500026702881,5 -5,2.759500026702881 -5,0 C-5,-2.759500026702881 -2.759500026702881,-5 0,-5z"></path><path stroke-linecap="butt" stroke-linejoin="miter" fill-opacity="0" stroke-miterlimit="4" stroke="rgb(185,166,245)" stroke-opacity="0" stroke-width="5" d=" M0,-5 C2.759500026702881,-5 5,-2.759500026702881 5,0 C5,2.759500026702881 2.759500026702881,5 0,5 C-2.759500026702881,5 -5,2.759500026702881 -5,0 C-5,-2.759500026702881 -2.759500026702881,-5 0,-5z"></path></g></g><g style="display: block;" transform="matrix(0.9999935626983643,0,0,0.9999935626983643,375.68310546875,383.6112060546875)" opacity="0.4263556267802381"><g opacity="1" transform="matrix(1,0,0,1,-38,69)"><path fill="rgb(185,166,245)" fill-opacity="1" d=" M0,-5 C2.759500026702881,-5 5,-2.759500026702881 5,0 C5,2.759500026702881 2.759500026702881,5 0,5 C-2.759500026702881,5 -5,2.759500026702881 -5,0 C-5,-2.759500026702881 -2.759500026702881,-5 0,-5z"></path><path stroke-linecap="butt" stroke-linejoin="miter" fill-opacity="0" stroke-miterlimit="4" stroke="rgb(129,208,255)" stroke-opacity="0" stroke-width="5" d=" M0,-5 C2.759500026702881,-5 5,-2.759500026702881 5,0 C5,2.759500026702881 2.759500026702881,5 0,5 C-2.759500026702881,5 -5,2.759500026702881 -5,0 C-5,-2.759500026702881 -2.759500026702881,-5 0,-5z"></path></g></g></g><g clip-path="url(#__lottie_element_1391)" style="display: block;" transform="matrix(0.24548783898353577,0.5033246874809265,-0.5033246874809265,0.24548783898353577,314.4591979980469,62.796875)" opacity="1"><g style="display: block;" transform="matrix(0.9999935626983643,0,0,0.9999935626983643,130.26535034179688,64.88148498535156)" opacity="1"><g opacity="1" transform="matrix(1,0,0,1,-38,69)"><path fill="rgb(185,166,245)" fill-opacity="1" d=" M0,-5 C2.759500026702881,-5 5,-2.759500026702881 5,0 C5,2.759500026702881 2.759500026702881,5 0,5 C-2.759500026702881,5 -5,2.759500026702881 -5,0 C-5,-2.759500026702881 -2.759500026702881,-5 0,-5z"></path><path stroke-linecap="butt" stroke-linejoin="miter" fill-opacity="0" stroke-miterlimit="4" stroke="rgb(185,166,245)" stroke-opacity="0" stroke-width="5" d=" M0,-5 C2.759500026702881,-5 5,-2.759500026702881 5,0 C5,2.759500026702881 2.759500026702881,5 0,5 C-2.759500026702881,5 -5,2.759500026702881 -5,0 C-5,-2.759500026702881 -2.759500026702881,-5 0,-5z"></path></g></g><g style="display: block;" transform="matrix(0.9999935626983643,0,0,0.9999935626983643,472.4274597167969,47.83711242675781)" opacity="0.6708000483943737"><g opacity="1" transform="matrix(1,0,0,1,-38,69)"><path fill="rgb(185,166,245)" fill-opacity="1" d=" M0,-5 C2.759500026702881,-5 5,-2.759500026702881 5,0 C5,2.759500026702881 2.759500026702881,5 0,5 C-2.759500026702881,5 -5,2.759500026702881 -5,0 C-5,-2.759500026702881 -2.759500026702881,-5 0,-5z"></path><path stroke-linecap="butt" stroke-linejoin="miter" fill-opacity="0" stroke-miterlimit="4" stroke="rgb(185,166,245)" stroke-opacity="0" stroke-width="5" d=" M0,-5 C2.759500026702881,-5 5,-2.759500026702881 5,0 C5,2.759500026702881 2.759500026702881,5 0,5 C-2.759500026702881,5 -5,2.759500026702881 -5,0 C-5,-2.759500026702881 -2.759500026702881,-5 0,-5z"></path></g></g><g style="display: block;" transform="matrix(0.9999935626983643,0,0,0.9999935626983643,375.68310546875,383.6112060546875)" opacity="0.4263556267802381"><g opacity="1" transform="matrix(1,0,0,1,-38,69)"><path fill="rgb(185,166,245)" fill-opacity="1" d=" M0,-5 C2.759500026702881,-5 5,-2.759500026702881 5,0 C5,2.759500026702881 2.759500026702881,5 0,5 C-2.759500026702881,5 -5,2.759500026702881 -5,0 C-5,-2.759500026702881 -2.759500026702881,-5 0,-5z"></path><path stroke-linecap="butt" stroke-linejoin="miter" fill-opacity="0" stroke-miterlimit="4" stroke="rgb(129,208,255)" stroke-opacity="0" stroke-width="5" d=" M0,-5 C2.759500026702881,-5 5,-2.759500026702881 5,0 C5,2.759500026702881 2.759500026702881,5 0,5 C-2.759500026702881,5 -5,2.759500026702881 -5,0 C-5,-2.759500026702881 -2.759500026702881,-5 0,-5z"></path></g></g></g></g></g><g clip-path="url(#__lottie_element_1323)" transform="matrix(0.9125145673751831,1.1268616914749146,-1.1268616914749146,0.9125145673751831,303.5867614746094,-259.84405517578125)" opacity="0.22" style="display: block;"><g clip-path="url(#__lottie_element_1370)" transform="matrix(1,0,0,1,0,0)" opacity="1" style="display: block;"><g transform="matrix(1,0,0,1,119.04289245605469,45.84002685546875)" opacity="0.8041333592168911" style="display: block;"><g opacity="1" transform="matrix(1,0,0,1,-38,69)"><path fill="rgb(185,166,245)" fill-opacity="1" d=" M0,-5 C2.759500026702881,-5 5,-2.759500026702881 5,0 C5,2.759500026702881 2.759500026702881,5 0,5 C-2.759500026702881,5 -5,2.759500026702881 -5,0 C-5,-2.759500026702881 -2.759500026702881,-5 0,-5z"></path><path stroke-linecap="butt" stroke-linejoin="miter" fill-opacity="0" stroke-miterlimit="4" stroke="rgb(185,166,245)" stroke-opacity="0" stroke-width="5" d=" M0,-5 C2.759500026702881,-5 5,-2.759500026702881 5,0 C5,2.759500026702881 2.759500026702881,5 0,5 C-2.759500026702881,5 -5,2.759500026702881 -5,0 C-5,-2.759500026702881 -2.759500026702881,-5 0,-5z"></path></g></g><g transform="matrix(1,0,0,1,478.62384033203125,21.756874084472656)" opacity="0.42635562253525744" style="display: block;"><g opacity="1" transform="matrix(1,0,0,1,-38,69)"><path fill="rgb(185,166,245)" fill-opacity="1" d=" M0,-5 C2.759500026702881,-5 5,-2.759500026702881 5,0 C5,2.759500026702881 2.759500026702881,5 0,5 C-2.759500026702881,5 -5,2.759500026702881 -5,0 C-5,-2.759500026702881 -2.759500026702881,-5 0,-5z"></path><path stroke-linecap="butt" stroke-linejoin="miter" fill-opacity="0" stroke-miterlimit="4" stroke="rgb(185,166,245)" stroke-opacity="0" stroke-width="5" d=" M0,-5 C2.759500026702881,-5 5,-2.759500026702881 5,0 C5,2.759500026702881 2.759500026702881,5 0,5 C-2.759500026702881,5 -5,2.759500026702881 -5,0 C-5,-2.759500026702881 -2.759500026702881,-5 0,-5z"></path></g></g><g transform="matrix(1,0,0,1,392.2751159667969,384.0220642089844)" opacity="0.18191119848733026" style="display: block;"><g opacity="1" transform="matrix(1,0,0,1,-38,69)"><path fill="rgb(185,166,245)" fill-opacity="1" d=" M0,-5 C2.759500026702881,-5 5,-2.759500026702881 5,0 C5,2.759500026702881 2.759500026702881,5 0,5 C-2.759500026702881,5 -5,2.759500026702881 -5,0 C-5,-2.759500026702881 -2.759500026702881,-5 0,-5z"></path><path stroke-linecap="butt" stroke-linejoin="miter" fill-opacity="0" stroke-miterlimit="4" stroke="rgb(129,208,255)" stroke-opacity="0" stroke-width="5" d=" M0,-5 C2.759500026702881,-5 5,-2.759500026702881 5,0 C5,2.759500026702881 2.759500026702881,5 0,5 C-2.759500026702881,5 -5,2.759500026702881 -5,0 C-5,-2.759500026702881 -2.759500026702881,-5 0,-5z"></path></g></g></g><g clip-path="url(#__lottie_element_1357)" style="display: block;" transform="matrix(0.24548783898353577,0.5033246874809265,-0.5033246874809265,0.24548783898353577,314.4591979980469,62.796875)" opacity="1"><g style="display: block;" transform="matrix(1,0,0,1,121.75981903076172,51.2301025390625)" opacity="0.8708000197890187"><g opacity="1" transform="matrix(1,0,0,1,-38,69)"><path fill="rgb(185,166,245)" fill-opacity="1" d=" M0,-5 C2.759500026702881,-5 5,-2.759500026702881 5,0 C5,2.759500026702881 2.759500026702881,5 0,5 C-2.759500026702881,5 -5,2.759500026702881 -5,0 C-5,-2.759500026702881 -2.759500026702881,-5 0,-5z"></path><path stroke-linecap="butt" stroke-linejoin="miter" fill-opacity="0" stroke-miterlimit="4" stroke="rgb(185,166,245)" stroke-opacity="0" stroke-width="5" d=" M0,-5 C2.759500026702881,-5 5,-2.759500026702881 5,0 C5,2.759500026702881 2.759500026702881,5 0,5 C-2.759500026702881,5 -5,2.759500026702881 -5,0 C-5,-2.759500026702881 -2.759500026702881,-5 0,-5z"></path></g></g><g style="display: block;" transform="matrix(1,0,0,1,477.9283752441406,28.1817626953125)" opacity="0.49302228413319804"><g opacity="1" transform="matrix(1,0,0,1,-38,69)"><path fill="rgb(185,166,245)" fill-opacity="1" d=" M0,-5 C2.759500026702881,-5 5,-2.759500026702881 5,0 C5,2.759500026702881 2.759500026702881,5 0,5 C-2.759500026702881,5 -5,2.759500026702881 -5,0 C-5,-2.759500026702881 -2.759500026702881,-5 0,-5z"></path><path stroke-linecap="butt" stroke-linejoin="miter" fill-opacity="0" stroke-miterlimit="4" stroke="rgb(185,166,245)" stroke-opacity="0" stroke-width="5" d=" M0,-5 C2.759500026702881,-5 5,-2.759500026702881 5,0 C5,2.759500026702881 2.759500026702881,5 0,5 C-2.759500026702881,5 -5,2.759500026702881 -5,0 C-5,-2.759500026702881 -2.759500026702881,-5 0,-5z"></path></g></g><g style="display: block;" transform="matrix(1,0,0,1,388.8335266113281,384.0037841796875)" opacity="0.24857786074903218"><g opacity="1" transform="matrix(1,0,0,1,-38,69)"><path fill="rgb(185,166,245)" fill-opacity="1" d=" M0,-5 C2.759500026702881,-5 5,-2.759500026702881 5,0 C5,2.759500026702881 2.759500026702881,5 0,5 C-2.759500026702881,5 -5,2.759500026702881 -5,0 C-5,-2.759500026702881 -2.759500026702881,-5 0,-5z"></path><path stroke-linecap="butt" stroke-linejoin="miter" fill-opacity="0" stroke-miterlimit="4" stroke="rgb(129,208,255)" stroke-opacity="0" stroke-width="5" d=" M0,-5 C2.759500026702881,-5 5,-2.759500026702881 5,0 C5,2.759500026702881 2.759500026702881,5 0,5 C-2.759500026702881,5 -5,2.759500026702881 -5,0 C-5,-2.759500026702881 -2.759500026702881,-5 0,-5z"></path></g></g></g><g clip-path="url(#__lottie_element_1327)" style="display: block;" transform="matrix(0.5558288097381592,0.518318772315979,-0.518318772315979,0.5558288097381592,240.6224822998047,-18.536895751953125)" opacity="0.37"><g clip-path="url(#__lottie_element_1344)" style="display: block;" transform="matrix(1,0,0,1,0,0)" opacity="1"><g style="display: block;" transform="matrix(0.9999935626983643,0,0,0.9999935626983643,130.26535034179688,64.88148498535156)" opacity="1"><g opacity="1" transform="matrix(1,0,0,1,-38,69)"><path fill="rgb(185,166,245)" fill-opacity="1" d=" M0,-5 C2.759500026702881,-5 5,-2.759500026702881 5,0 C5,2.759500026702881 2.759500026702881,5 0,5 C-2.759500026702881,5 -5,2.759500026702881 -5,0 C-5,-2.759500026702881 -2.759500026702881,-5 0,-5z"></path><path stroke-linecap="butt" stroke-linejoin="miter" fill-opacity="0" stroke-miterlimit="4" stroke="rgb(185,166,245)" stroke-opacity="0" stroke-width="5" d=" M0,-5 C2.759500026702881,-5 5,-2.759500026702881 5,0 C5,2.759500026702881 2.759500026702881,5 0,5 C-2.759500026702881,5 -5,2.759500026702881 -5,0 C-5,-2.759500026702881 -2.759500026702881,-5 0,-5z"></path></g></g><g style="display: block;" transform="matrix(0.9999935626983643,0,0,0.9999935626983643,472.4274597167969,47.83711242675781)" opacity="0.6708000483943737"><g opacity="1" transform="matrix(1,0,0,1,-38,69)"><path fill="rgb(185,166,245)" fill-opacity="1" d=" M0,-5 C2.759500026702881,-5 5,-2.759500026702881 5,0 C5,2.759500026702881 2.759500026702881,5 0,5 C-2.759500026702881,5 -5,2.759500026702881 -5,0 C-5,-2.759500026702881 -2.759500026702881,-5 0,-5z"></path><path stroke-linecap="butt" stroke-linejoin="miter" fill-opacity="0" stroke-miterlimit="4" stroke="rgb(185,166,245)" stroke-opacity="0" stroke-width="5" d=" M0,-5 C2.759500026702881,-5 5,-2.759500026702881 5,0 C5,2.759500026702881 2.759500026702881,5 0,5 C-2.759500026702881,5 -5,2.759500026702881 -5,0 C-5,-2.759500026702881 -2.759500026702881,-5 0,-5z"></path></g></g><g style="display: block;" transform="matrix(0.9999935626983643,0,0,0.9999935626983643,375.68310546875,383.6112060546875)" opacity="0.4263556267802381"><g opacity="1" transform="matrix(1,0,0,1,-38,69)"><path fill="rgb(185,166,245)" fill-opacity="1" d=" M0,-5 C2.759500026702881,-5 5,-2.759500026702881 5,0 C5,2.759500026702881 2.759500026702881,5 0,5 C-2.759500026702881,5 -5,2.759500026702881 -5,0 C-5,-2.759500026702881 -2.759500026702881,-5 0,-5z"></path><path stroke-linecap="butt" stroke-linejoin="miter" fill-opacity="0" stroke-miterlimit="4" stroke="rgb(129,208,255)" stroke-opacity="0" stroke-width="5" d=" M0,-5 C2.759500026702881,-5 5,-2.759500026702881 5,0 C5,2.759500026702881 2.759500026702881,5 0,5 C-2.759500026702881,5 -5,2.759500026702881 -5,0 C-5,-2.759500026702881 -2.759500026702881,-5 0,-5z"></path></g></g></g><g clip-path="url(#__lottie_element_1331)" style="display: block;" transform="matrix(0.24548783898353577,0.5033246874809265,-0.5033246874809265,0.24548783898353577,314.4591979980469,62.796875)" opacity="1"><g style="display: block;" transform="matrix(0.9999935626983643,0,0,0.9999935626983643,130.26535034179688,64.88148498535156)" opacity="1"><g opacity="1" transform="matrix(1,0,0,1,-38,69)"><path fill="rgb(185,166,245)" fill-opacity="1" d=" M0,-5 C2.759500026702881,-5 5,-2.759500026702881 5,0 C5,2.759500026702881 2.759500026702881,5 0,5 C-2.759500026702881,5 -5,2.759500026702881 -5,0 C-5,-2.759500026702881 -2.759500026702881,-5 0,-5z"></path><path stroke-linecap="butt" stroke-linejoin="miter" fill-opacity="0" stroke-miterlimit="4" stroke="rgb(185,166,245)" stroke-opacity="0" stroke-width="5" d=" M0,-5 C2.759500026702881,-5 5,-2.759500026702881 5,0 C5,2.759500026702881 2.759500026702881,5 0,5 C-2.759500026702881,5 -5,2.759500026702881 -5,0 C-5,-2.759500026702881 -2.759500026702881,-5 0,-5z"></path></g></g><g style="display: block;" transform="matrix(0.9999935626983643,0,0,0.9999935626983643,472.4274597167969,47.83711242675781)" opacity="0.6708000483943737"><g opacity="1" transform="matrix(1,0,0,1,-38,69)"><path fill="rgb(185,166,245)" fill-opacity="1" d=" M0,-5 C2.759500026702881,-5 5,-2.759500026702881 5,0 C5,2.759500026702881 2.759500026702881,5 0,5 C-2.759500026702881,5 -5,2.759500026702881 -5,0 C-5,-2.759500026702881 -2.759500026702881,-5 0,-5z"></path><path stroke-linecap="butt" stroke-linejoin="miter" fill-opacity="0" stroke-miterlimit="4" stroke="rgb(185,166,245)" stroke-opacity="0" stroke-width="5" d=" M0,-5 C2.759500026702881,-5 5,-2.759500026702881 5,0 C5,2.759500026702881 2.759500026702881,5 0,5 C-2.759500026702881,5 -5,2.759500026702881 -5,0 C-5,-2.759500026702881 -2.759500026702881,-5 0,-5z"></path></g></g><g style="display: block;" transform="matrix(0.9999935626983643,0,0,0.9999935626983643,375.68310546875,383.6112060546875)" opacity="0.4263556267802381"><g opacity="1" transform="matrix(1,0,0,1,-38,69)"><path fill="rgb(185,166,245)" fill-opacity="1" d=" M0,-5 C2.759500026702881,-5 5,-2.759500026702881 5,0 C5,2.759500026702881 2.759500026702881,5 0,5 C-2.759500026702881,5 -5,2.759500026702881 -5,0 C-5,-2.759500026702881 -2.759500026702881,-5 0,-5z"></path><path stroke-linecap="butt" stroke-linejoin="miter" fill-opacity="0" stroke-miterlimit="4" stroke="rgb(129,208,255)" stroke-opacity="0" stroke-width="5" d=" M0,-5 C2.759500026702881,-5 5,-2.759500026702881 5,0 C5,2.759500026702881 2.759500026702881,5 0,5 C-2.759500026702881,5 -5,2.759500026702881 -5,0 C-5,-2.759500026702881 -2.759500026702881,-5 0,-5z"></path></g></g></g></g></g></g></svg>